<?xml version="1.0" encoding="UTF-8" standalone="no"?>
<svg xmlns="http://www.w3.org/2000/svg" xmlns:xlink="http://www.w3.org/1999/xlink"  version="1.2" baseProfile="tiny" viewBox ="0 0 840 749">
<title>pyqtgraph SVG export</title>
<desc>Generated with Qt and pyqtgraph</desc>
<style>
    image {
        image-rendering: crisp-edges;
        image-rendering: -moz-crisp-edges;
        image-rendering: pixelated;
    }
</style>
<rect width="100%" height="100%" fill="#000000" fill-opacity="0.0" />
<defs>
</defs>
<g fill="none" stroke="black" stroke-width="1" fill-rule="evenodd" stroke-linecap="square" stroke-linejoin="bevel" id="PlotItem_1">
    <g fill="none" stroke="black" stroke-width="1" fill-rule="evenodd" stroke-linecap="square" stroke-linejoin="bevel" id="ViewBox_1">
        <g fill="none" stroke="none" transform="matrix(1,0,0,1,54.6,1)" font-family="Ioskeley Mono" font-size="14.6667" font-weight="400" font-style="normal">
            <path vector-effect="non-scaling-stroke" fill-rule="evenodd" d="M0,0 L784.9,0 L784.9,693.712 L0,693.712 L0,0 Z "/>
        </g>
        <clipPath id="ViewBox_1_clip">
            <path vector-effect="none" fill-rule="evenodd" d="M54.6,1 L839.5,1 L839.5,694.712 L54.6,694.712 L54.6,1 Z "/>
        </clipPath>
        <g clip-path="url(#ViewBox_1_clip)">
            <g fill="none" stroke="black" stroke-width="1" fill-rule="evenodd" stroke-linecap="square" stroke-linejoin="bevel" id="ChildGroup_1">
                <g fill="none" stroke="black" stroke-width="1" fill-rule="evenodd" stroke-linecap="square" stroke-linejoin="bevel" id="FillBetweenItem_1">
                    <g fill="#ffb000" fill-opacity="0.333333" stroke="none" font-family="Ioskeley Mono" font-size="14.6667" font-weight="400" font-style="normal">
                        <path vector-effect="non-scaling-stroke" fill-rule="evenodd" d="M54.59923096,693.990515958144 L56.564037299999995,693.972068919968 L58.53344505999996,693.952190613856 L60.49825139999996,693.930778272528 L62.46305774000007,693.907723523216 L64.42786408000006,693.882911142 L66.39267041999994,693.856217808144 L68.36207818000003,693.827514595424 L70.32688452000014,693.796662612304 L72.29169086000002,693.763515493264 L74.25649720000001,693.727917530304 L76.22590495999998,693.689703672944 L78.19071129999998,693.648699528224 L80.15551764000008,693.6047213607039 L82.12032398000008,693.55757173264 L84.08973174000005,693.5070476008 L86.05453807999993,693.4529235 L88.01934442000004,693.39497521072 L89.98415076000003,693.33295360016 L91.95355852,693.2666095355199 L93.91836486,693.1956627424 L95.88317119999999,693.1198329464 L97.84797753999999,693.03881495984 L99.81738529999996,692.95229736672 L101.78219163999995,692.85993760944 L103.74699797999995,692.7613931303999 L105.71180432000017,692.6562902304 L107.68121208000014,692.54424898192 L109.64601842000013,692.4248458592 L111.6108247599999,692.29766979312 L113.57563110000012,692.16227234464 L115.54503886000009,692.01817393312 L117.50984520000009,691.8648887496 L119.47465154000008,691.70190607184 L121.43945788000008,691.528684036 L123.40426422000007,691.34466209328 L125.37367198000004,691.14924855328 L127.33847832000004,690.94183304064 L129.30328466000003,690.7217740384 L131.26809100000003,690.48840511632 L133.23749876,690.24102870256 L135.2023051,689.978922312 L137.16711143999999,689.7013260896 L139.13191777999998,689.4074614953599 L141.10132554000018,689.09650016272 L143.06613187999994,688.7676074968 L145.03093821999994,688.4198990761599 L146.99574455999993,688.05245933776 L148.9651523199999,687.6643540336 L150.92995866000012,687.2545928608 L152.89476500000012,686.82209832 L154.8595713399999,686.3659361632 L156.82897910000008,685.8849852928 L158.79378544000008,685.3780623279999 L160.75859178000007,684.8440461712 L162.72339812000007,684.2817534416 L164.69280588000004,683.6899384751999 L166.65761222000003,683.0672933248 L168.62241856000003,682.4125723264 L170.58722490000002,681.7244675328 L172.55203124000002,681.0014841472 L174.521439,680.2423142224 L176.48624533999998,679.4454006784 L178.45105167999998,678.6093110016 L180.41585801999997,677.7324881119999 L182.38526577999994,676.8134372128 L184.35007212000016,675.8504766576 L186.31487846000016,674.8420493664 L188.27968479999993,673.7864114096 L190.2490925599999,672.6818811408 L192.2138988999999,671.5267769136 L194.1787052400001,670.3193547984 L196.1435115800001,669.0576840159999 L198.11291934000008,667.74008292 L200.07772568000007,666.3646830144 L202.04253202000007,664.92955352 L204.00733836000006,663.432888224 L205.97674612000003,661.872694064 L207.94155246000003,660.247102544 L209.90635880000002,658.5540583183999 L211.87116514000002,656.7917551744 L213.84057289999998,654.9580754832 L215.80537923999998,653.0511507488 L217.77018557999997,651.0688633423999 L219.73499191999997,649.009344768 L221.70439968000017,646.87053968 L223.66920601999993,644.650455016 L225.63401235999993,642.3470977136 L227.59881870000015,639.9585369936 L229.56362504000015,637.4827797936 L231.53303280000011,634.9178330512 L233.4978391400001,632.2618905536 L235.46264547999988,629.5128346719999 L237.4274518200001,626.66898376 L239.39685958000007,623.728593888 L241.36166592000006,620.68979656 L243.32647226000006,617.5507232799999 L245.29127860000006,614.310128384 L247.26068636000002,610.965520544 L249.22549270000002,607.516276928 L251.19029904000024,603.959906208 L253.15510538,600.29516272 L255.12451313999998,596.5214236319999 L257.08931948,592.636820448 L259.0541258200002,588.640107504 L261.01893215999996,584.530039136 L262.98833991999993,580.306615344 L264.95314626000015,575.9673448 L266.9179525999999,571.512227504 L268.8827589399999,566.9400177919999 L270.8521666999999,562.251338496 L272.8169730400001,557.44432112 L274.7817793799999,552.518965664 L276.7465857200001,547.47589496 L278.7113920600001,542.313863344 L280.68079982000006,537.03411648 L282.64560615999983,531.6354087039999 L284.61041250000005,526.119608512 L286.57521884000005,520.486093072 L288.5446266,514.736108048 L290.50943294,508.87027627199996 L292.47423928,502.88922057599996 L294.43904562000023,496.795432288 L296.4084533800002,490.58891140799994 L298.37325971999996,484.271526432 L300.33806605999996,477.84514585600004 L302.3028724000002,471.31226100799995 L304.27228016000015,464.67349472 L306.2370864999999,457.93258398399996 L308.20189284000014,451.09139729599997 L310.1666991799999,444.153048816 L312.1361069400001,437.11940704 L314.1009132800001,429.99420896 L316.0657196200001,422.781191568 L318.03052595999986,415.482846192 L319.99993371999983,408.10353265599997 L321.96474006000005,400.646987952 L323.92954640000005,393.116949072 L325.89435274000004,385.518398672 L327.85915908000004,377.855073744 L329.82856684,370.131334112 L331.79337318000023,362.352785264 L333.75817952,354.523787024 L335.72298586,346.65056771199994 L337.69239361999996,338.73748715199997 L339.6571999600002,330.790150832 L341.62200629999995,322.814787072 L343.5868126400002,314.816378528 L345.55622040000014,306.801776352 L347.52102674000014,298.777208864 L349.4858330799999,290.74828155200004 L351.45063942000013,282.721845568 L353.4200471800001,274.704752064 L355.38485351999987,266.702606528 L357.3496598600001,258.723505776 L359.3144662000001,250.77367812799997 L361.28387396000005,242.86059756799995 L363.2486802999998,234.990492416 L365.21348664000004,227.170836656 L367.17829298000004,219.40910427199998 L369.14770074,211.71276924800003 L371.11250708,204.08805990399998 L373.07731342,196.54307305599997 L375.0421197600002,189.08528268799995 L377.0115275200002,181.72216278400003 L378.97633385999995,174.46056449599996 L380.94114019999995,167.30733897599998 L382.9059465400002,160.27058304000002 L384.87075287999994,153.3577706719999 L386.8401606399999,146.57513019199996 L388.80496698000013,139.930758416 L390.7697733200001,133.43088366400002 L392.7345796599999,127.08297991999996 L394.7039874200001,120.893898336 L396.6687937600001,114.86986723200005 L398.63360009999985,109.01773776000005 L400.5984064400001,103.34436107199997 L402.56781420000004,97.85596548800004 L404.53262054000004,92.55815649600004 L406.49742688000003,87.45778524800005 L408.46223322000003,82.55921156800002 L410.43164098,77.86990944000001 L412.39644732,73.393615856 L414.36125366,69.13780480000003 L416.32606,65.10185344000001 L418.29546775999995,61.29634992000001 L420.2602741000002,57.72752256000001 L422.22508043999994,54.38914304000002 L424.18988677999994,51.293668000000025 L426.15929454000013,48.44732576000001 L428.1241008800001,45.84388799999999 L430.0889072199999,43.49581135999995 L432.0537135600001,41.39686752 L434.0185199000001,39.55951312000002 L435.9879276600001,37.977519840000014 L437.9527340000001,36.657115999999974 L439.9175403400001,35.5983015999999 L441.88234667999984,34.80730496000001 L443.85175444000026,34.27789775999997 L445.81656078000003,34.010080000000016 L447.78136712,34.010080000000016 L449.74617346,34.27789775999997 L451.71558122,34.80730496000001 L453.68038756,35.5983015999999 L455.6451939000002,36.657115999999974 L457.61000024,37.977519840000014 L459.57940799999994,39.55951312000002 L461.54421433999994,41.39686752 L463.50902068000016,43.49581135999995 L465.47382701999993,45.84388799999999 L467.4432347799999,48.44732576000001 L469.4080411200001,51.293668000000025 L471.3728474600001,54.38914304000002 L473.3376537999999,57.72752256000001 L475.30706155999985,61.29634992000001 L477.2718679000001,65.10185344000001 L479.23667424000007,69.13780480000003 L481.20148058000007,73.393615856 L483.17088834000003,77.86990944000001 L485.13569468000003,82.55921156800002 L487.1005010199998,87.45778524800005 L489.06530736,92.55815649600004 L491.0301137,97.85596548800004 L492.99952146,103.34436107199997 L494.9643278,109.01773776000005 L496.92913414,114.86986723200005 L498.8939404800002,120.893898336 L500.86334824000016,127.08297991999996 L502.82815457999993,133.43088366400002 L504.7929609199999,139.930758416 L506.75776726000015,146.57513019199996 L508.7271750200001,153.3577706719999 L510.6919813599999,160.27058304000002 L512.6567877000001,167.30733897599998 L514.6215940400001,174.46056449599996 L516.5910018000001,181.72216278400003 L518.5558081400001,189.08528268799995 L520.5206144800001,196.54307305599997 L522.4854208200001,204.08805990399998 L524.4548285800003,211.71276924800003 L526.41963492,219.40910427199998 L528.38444126,227.170836656 L530.3492476,234.990492416 L532.3186553600002,242.86059756799995 L534.2834617,250.77367812799997 L536.2482680400002,258.723505776 L538.21307438,266.702606528 L540.17788072,274.704752064 L542.1472884799999,282.721845568 L544.1120948200002,290.74828155200004 L546.0769011599999,298.777208864 L548.0417075000001,306.801776352 L550.0111152600001,314.816378528 L551.9759216000001,322.814787072 L553.9407279399999,330.790150832 L555.9055342800001,338.73748715199997 L557.8749420400001,346.65056771199994 L559.8397483800001,354.523787024 L561.80455472,362.352785264 L563.76936106,370.131334112 L565.73876882,377.855073744 L567.7035751600002,385.518398672 L569.6683815,393.116949072 L571.63318784,400.646987952 L573.6025956,408.10353265599997 L575.5674019400002,415.482846192 L577.53220828,422.781191568 L579.4970146200002,429.99420896 L581.4664223800002,437.11940704 L583.4312287199999,444.153048816 L585.3960350599999,451.09139729599997 L587.3608414000001,457.93258398399996 L589.3302491600001,464.67349472 L591.2950554999999,471.31226100799995 L593.2598618400001,477.84514585600004 L595.2246681800001,484.271526432 L597.1894745199999,490.58891140799994 L599.1588822800001,496.795432288 L601.12368862,502.88922057599996 L603.08849496,508.87027627199996 L605.0533013,514.736108048 L607.02270906,520.486093072 L608.9875154,526.119608512 L610.9523217400002,531.6354087039999 L612.91712808,537.03411648 L614.88653584,542.313863344 L616.85134218,547.47589496 L618.81614852,552.518965664 L620.78095486,557.44432112 L622.7503626199999,562.251338496 L624.7151689600001,566.9400177919999 L626.6799752999999,571.512227504 L628.6447816399999,575.9673448 L630.6141894000001,580.306615344 L632.5789957400001,584.530039136 L634.5438020799999,588.640107504 L636.5086084200001,592.636820448 L638.47801618,596.5214236319999 L640.44282252,600.29516272 L642.40762886,603.959906208 L644.3724352,607.516276928 L646.33724154,610.965520544 L648.3066493000002,614.310128384 L650.27145564,617.5507232799999 L652.23626198,620.68979656 L654.2010683200002,623.728593888 L656.1704760800002,626.66898376 L658.13528242,629.5128346719999 L660.1000887600002,632.2618905536 L662.0648951,634.9178330512 L664.0343028600001,637.4827797936 L665.9991091999999,639.9585369936 L667.9639155400001,642.3470977136 L669.9287218799999,644.650455016 L671.8981296399999,646.87053968 L673.8629359800001,649.009344768 L675.8277423200001,651.0688633423999 L677.7925486599999,653.0511507488 L679.7619564199998,654.9580754832 L681.72676276,656.7917551744 L683.6915691,658.5540583183999 L685.65637544,660.247102544 L687.6257832,661.872694064 L689.59058954,663.432888224 L691.5553958800002,664.92955352 L693.52020222,666.3646830144 L695.48500856,667.74008292 L697.45441632,669.0576840159999 L699.4192226600002,670.3193547984 L701.3840289999999,671.5267769136 L703.3488353400002,672.6818811408 L705.3182431000001,673.7864114096 L707.2830494400001,674.8420493664 L709.2478557799999,675.8504766576 L711.2126621200001,676.8134372128 L713.1820698800001,677.7324881119999 L715.1468762199999,678.6093110016 L717.1116825600001,679.4454006784 L719.0764889000001,680.2423142224 L721.04589666,681.0014841472 L723.010703,681.7244675328 L724.97550934,682.4125723264 L726.94031568,683.0672933248 L728.9097234400002,683.6899384751999 L730.87452978,684.2817534416 L732.83933612,684.8440461712 L734.8041424600002,685.3780623279999 L736.7735502200002,685.8849852928 L738.7383565599999,686.3659361632 L740.7031629000002,686.82209832 L742.6679692400002,687.2545928608 L744.6373770000001,687.6643540336 L746.6021833399999,688.05245933776 L748.5669896800001,688.4198990761599 L750.5317960199999,688.7676074968 L752.4966023600001,689.09650016272 L754.4660101200001,689.4074614953599 L756.4308164600001,689.7013260896 L758.3956227999998,689.978922312 L760.3604291400001,690.24102870256 L762.3298369,690.48840511632 L764.29464324,690.7217740384 L766.25944958,690.94183304064 L768.22425592,691.14924855328 L770.19366368,691.34466209328 L772.1584700200002,691.528684036 L774.12327636,691.70190607184 L776.0880827,691.8648887496 L778.0574904599999,692.01817393312 L780.0222968000002,692.16227234464 L781.9871031399999,692.29766979312 L783.9519094800002,692.4248458592 L785.9213172400001,692.54424898192 L787.8861235800001,692.6562902304 L789.8509299199999,692.7613931303999 L791.8157362600001,692.85993760944 L793.7851440200001,692.95229736672 L795.7499503600001,693.03881495984 L797.7147567000001,693.1198329464 L799.6795630400001,693.1956627424 L801.6443693799998,693.2666095355199 L803.61377714,693.33295360016 L805.57858348,693.39497521072 L807.54338982,693.4529235 L809.50819616,693.5070476008 L811.47760392,693.55757173264 L813.44241026,693.6047213607039 L815.4072166000002,693.648699528224 L817.37202294,693.689703672944 L819.3414306999999,693.727917530304 L821.3062370399999,693.763515493264 L823.2710433800002,693.796662612304 L825.2358497199999,693.827514595424 L827.2052574799999,693.856217808144 L829.1700638200001,693.882911142 L831.1348701600001,693.907723523216 L833.0996764999999,693.930778272528 L835.0690842600001,693.952190613856 L837.0338906000001,693.972068919968 L838.9986969400001,693.990515958144 L838.9986969400001,694.212 L837.0338906000001,694.212 L835.0690842600001,694.212 L833.0996764999999,694.212 L831.1348701600001,694.212 L829.1700638200001,694.212 L827.2052574799999,694.212 L825.2358497199999,694.212 L823.2710433800002,694.212 L821.3062370399999,694.212 L819.3414306999999,694.212 L817.37202294,694.212 L815.4072166000002,694.212 L813.44241026,694.212 L811.47760392,694.212 L809.50819616,694.212 L807.54338982,694.212 L805.57858348,694.212 L803.61377714,694.212 L801.6443693799998,694.212 L799.6795630400001,694.212 L797.7147567000001,694.212 L795.7499503600001,694.212 L793.7851440200001,694.212 L791.8157362600001,694.212 L789.8509299199999,694.212 L787.8861235800001,694.212 L785.9213172400001,694.212 L783.9519094800002,694.212 L781.9871031399999,694.212 L780.0222968000002,694.212 L778.0574904599999,694.212 L776.0880827,694.212 L774.12327636,694.212 L772.1584700200002,694.212 L770.19366368,694.212 L768.22425592,694.212 L766.25944958,694.212 L764.29464324,694.212 L762.3298369,694.212 L760.3604291400001,694.212 L758.3956227999998,694.212 L756.4308164600001,694.212 L754.4660101200001,694.212 L752.4966023600001,694.212 L750.5317960199999,694.212 L748.5669896800001,694.212 L746.6021833399999,694.212 L744.6373770000001,694.212 L742.6679692400002,694.212 L740.7031629000002,694.212 L738.7383565599999,694.212 L736.7735502200002,694.212 L734.8041424600002,694.212 L732.83933612,694.212 L730.87452978,694.212 L728.9097234400002,694.212 L726.94031568,694.212 L724.97550934,694.212 L723.010703,694.212 L721.04589666,694.212 L719.0764889000001,694.212 L717.1116825600001,694.212 L715.1468762199999,694.212 L713.1820698800001,694.212 L711.2126621200001,694.212 L709.2478557799999,694.212 L707.2830494400001,694.212 L705.3182431000001,694.212 L703.3488353400002,694.212 L701.3840289999999,694.212 L699.4192226600002,694.212 L697.45441632,694.212 L695.48500856,694.212 L693.52020222,694.212 L691.5553958800002,694.212 L689.59058954,694.212 L687.6257832,694.212 L685.65637544,694.212 L683.6915691,694.212 L681.72676276,694.212 L679.7619564199998,694.212 L677.7925486599999,694.212 L675.8277423200001,694.212 L673.8629359800001,694.212 L671.8981296399999,694.212 L669.9287218799999,694.212 L667.9639155400001,694.212 L665.9991091999999,694.212 L664.0343028600001,694.212 L662.0648951,694.212 L660.1000887600002,694.212 L658.13528242,694.212 L656.1704760800002,694.212 L654.2010683200002,694.212 L652.23626198,694.212 L650.27145564,694.212 L648.3066493000002,694.212 L646.33724154,694.212 L644.3724352,694.212 L642.40762886,694.212 L640.44282252,694.212 L638.47801618,694.212 L636.5086084200001,694.212 L634.5438020799999,694.212 L632.5789957400001,694.212 L630.6141894000001,694.212 L628.6447816399999,694.212 L626.6799752999999,694.212 L624.7151689600001,694.212 L622.7503626199999,694.212 L620.78095486,694.212 L618.81614852,694.212 L616.85134218,694.212 L614.88653584,694.212 L612.91712808,694.212 L610.9523217400002,694.212 L608.9875154,694.212 L607.02270906,694.212 L605.0533013,694.212 L603.08849496,694.212 L601.12368862,694.212 L599.1588822800001,694.212 L597.1894745199999,694.212 L595.2246681800001,694.212 L593.2598618400001,694.212 L591.2950554999999,694.212 L589.3302491600001,694.212 L587.3608414000001,694.212 L585.3960350599999,694.212 L583.4312287199999,694.212 L581.4664223800002,694.212 L579.4970146200002,694.212 L577.53220828,694.212 L575.5674019400002,694.212 L573.6025956,694.212 L571.63318784,694.212 L569.6683815,694.212 L567.7035751600002,694.212 L565.73876882,694.212 L563.76936106,694.212 L561.80455472,694.212 L559.8397483800001,694.212 L557.8749420400001,694.212 L555.9055342800001,694.212 L553.9407279399999,694.212 L551.9759216000001,694.212 L550.0111152600001,694.212 L548.0417075000001,694.212 L546.0769011599999,694.212 L544.1120948200002,694.212 L542.1472884799999,694.212 L540.17788072,694.212 L538.21307438,694.212 L536.2482680400002,694.212 L534.2834617,694.212 L532.3186553600002,694.212 L530.3492476,694.212 L528.38444126,694.212 L526.41963492,694.212 L524.4548285800003,694.212 L522.4854208200001,694.212 L520.5206144800001,694.212 L518.5558081400001,694.212 L516.5910018000001,694.212 L514.6215940400001,694.212 L512.6567877000001,694.212 L510.6919813599999,694.212 L508.7271750200001,694.212 L506.75776726000015,694.212 L504.7929609199999,694.212 L502.82815457999993,694.212 L500.86334824000016,694.212 L498.8939404800002,694.212 L496.92913414,694.212 L494.9643278,694.212 L492.99952146,694.212 L491.0301137,694.212 L489.06530736,694.212 L487.1005010199998,694.212 L485.13569468000003,694.212 L483.17088834000003,694.212 L481.20148058000007,694.212 L479.23667424000007,694.212 L477.2718679000001,694.212 L475.30706155999985,694.212 L473.3376537999999,694.212 L471.3728474600001,694.212 L469.4080411200001,694.212 L467.4432347799999,694.212 L465.47382701999993,694.212 L463.50902068000016,694.212 L461.54421433999994,694.212 L459.57940799999994,694.212 L457.61000024,694.212 L455.6451939000002,694.212 L453.68038756,694.212 L451.71558122,694.212 L449.74617346,694.212 L447.78136712,694.212 L445.81656078000003,694.212 L443.85175444000026,694.212 L441.88234667999984,694.212 L439.9175403400001,694.212 L437.9527340000001,694.212 L435.9879276600001,694.212 L434.0185199000001,694.212 L432.0537135600001,694.212 L430.0889072199999,694.212 L428.1241008800001,694.212 L426.15929454000013,694.212 L424.18988677999994,694.212 L422.22508043999994,694.212 L420.2602741000002,694.212 L418.29546775999995,694.212 L416.32606,694.212 L414.36125366,694.212 L412.39644732,694.212 L410.43164098,694.212 L408.46223322000003,694.212 L406.49742688000003,694.212 L404.53262054000004,694.212 L402.56781420000004,694.212 L400.5984064400001,694.212 L398.63360009999985,694.212 L396.6687937600001,694.212 L394.7039874200001,694.212 L392.7345796599999,694.212 L390.7697733200001,694.212 L388.80496698000013,694.212 L386.8401606399999,694.212 L384.87075287999994,694.212 L382.9059465400002,694.212 L380.94114019999995,694.212 L378.97633385999995,694.212 L377.0115275200002,694.212 L375.0421197600002,694.212 L373.07731342,694.212 L371.11250708,694.212 L369.14770074,694.212 L367.17829298000004,694.212 L365.21348664000004,694.212 L363.2486802999998,694.212 L361.28387396000005,694.212 L359.3144662000001,694.212 L357.3496598600001,694.212 L355.38485351999987,694.212 L353.4200471800001,694.212 L351.45063942000013,694.212 L349.4858330799999,694.212 L347.52102674000014,694.212 L345.55622040000014,694.212 L343.5868126400002,694.212 L341.62200629999995,694.212 L339.6571999600002,694.212 L337.69239361999996,694.212 L335.72298586,694.212 L333.75817952,694.212 L331.79337318000023,694.212 L329.82856684,694.212 L327.85915908000004,694.212 L325.89435274000004,694.212 L323.92954640000005,694.212 L321.96474006000005,694.212 L319.99993371999983,694.212 L318.03052595999986,694.212 L316.0657196200001,694.212 L314.1009132800001,694.212 L312.1361069400001,694.212 L310.1666991799999,694.212 L308.20189284000014,694.212 L306.2370864999999,694.212 L304.27228016000015,694.212 L302.3028724000002,694.212 L300.33806605999996,694.212 L298.37325971999996,694.212 L296.4084533800002,694.212 L294.43904562000023,694.212 L292.47423928,694.212 L290.50943294,694.212 L288.5446266,694.212 L286.57521884000005,694.212 L284.61041250000005,694.212 L282.64560615999983,694.212 L280.68079982000006,694.212 L278.7113920600001,694.212 L276.7465857200001,694.212 L274.7817793799999,694.212 L272.8169730400001,694.212 L270.8521666999999,694.212 L268.8827589399999,694.212 L266.9179525999999,694.212 L264.95314626000015,694.212 L262.98833991999993,694.212 L261.01893215999996,694.212 L259.0541258200002,694.212 L257.08931948,694.212 L255.12451313999998,694.212 L253.15510538,694.212 L251.19029904000024,694.212 L249.22549270000002,694.212 L247.26068636000002,694.212 L245.29127860000006,694.212 L243.32647226000006,694.212 L241.36166592000006,694.212 L239.39685958000007,694.212 L237.4274518200001,694.212 L235.46264547999988,694.212 L233.4978391400001,694.212 L231.53303280000011,694.212 L229.56362504000015,694.212 L227.59881870000015,694.212 L225.63401235999993,694.212 L223.66920601999993,694.212 L221.70439968000017,694.212 L219.73499191999997,694.212 L217.77018557999997,694.212 L215.80537923999998,694.212 L213.84057289999998,694.212 L211.87116514000002,694.212 L209.90635880000002,694.212 L207.94155246000003,694.212 L205.97674612000003,694.212 L204.00733836000006,694.212 L202.04253202000007,694.212 L200.07772568000007,694.212 L198.11291934000008,694.212 L196.1435115800001,694.212 L194.1787052400001,694.212 L192.2138988999999,694.212 L190.2490925599999,694.212 L188.27968479999993,694.212 L186.31487846000016,694.212 L184.35007212000016,694.212 L182.38526577999994,694.212 L180.41585801999997,694.212 L178.45105167999998,694.212 L176.48624533999998,694.212 L174.521439,694.212 L172.55203124000002,694.212 L170.58722490000002,694.212 L168.62241856000003,694.212 L166.65761222000003,694.212 L164.69280588000004,694.212 L162.72339812000007,694.212 L160.75859178000007,694.212 L158.79378544000008,694.212 L156.82897910000008,694.212 L154.8595713399999,694.212 L152.89476500000012,694.212 L150.92995866000012,694.212 L148.9651523199999,694.212 L146.99574455999993,694.212 L145.03093821999994,694.212 L143.06613187999994,694.212 L141.10132554000018,694.212 L139.13191777999998,694.212 L137.16711143999999,694.212 L135.2023051,694.212 L133.23749876,694.212 L131.26809100000003,694.212 L129.30328466000003,694.212 L127.33847832000004,694.212 L125.37367198000004,694.212 L123.40426422000007,694.212 L121.43945788000008,694.212 L119.47465154000008,694.212 L117.50984520000009,694.212 L115.54503886000009,694.212 L113.57563110000012,694.212 L111.6108247599999,694.212 L109.64601842000013,694.212 L107.68121208000014,694.212 L105.71180432000017,694.212 L103.74699797999995,694.212 L101.78219163999995,694.212 L99.81738529999996,694.212 L97.84797753999999,694.212 L95.88317119999999,694.212 L93.91836486,694.212 L91.95355852,694.212 L89.98415076000003,694.212 L88.01934442000004,694.212 L86.05453807999993,694.212 L84.08973174000005,694.212 L82.12032398000008,694.212 L80.15551764000008,694.212 L78.19071129999998,694.212 L76.22590495999998,694.212 L74.25649720000001,694.212 L72.29169086000002,694.212 L70.32688452000014,694.212 L68.36207818000003,694.212 L66.39267041999994,694.212 L64.42786408000006,694.212 L62.46305774000007,694.212 L60.49825139999996,694.212 L58.53344505999996,694.212 L56.564037299999995,694.212 L54.59923096,694.212 "/>
                    </g>
                </g>
                <g fill="none" stroke="black" stroke-width="1" fill-rule="evenodd" stroke-linecap="square" stroke-linejoin="bevel" id="BarGraphItem_1">
                    <g fill="#3390ff" fill-opacity="0.294118" stroke="#3390ff" stroke-opacity="1" stroke-width="2" stroke-linecap="square" stroke-linejoin="bevel" transform="matrix(4.60142,0,0,-6.22832,-931.89,694.212)" font-family="Ioskeley Mono" font-size="14.6667" font-weight="400" font-style="normal">
                        <rect vector-effect="non-scaling-stroke" x="241.073" y="0" width="4.99046" height="3"/>
                        <rect vector-effect="non-scaling-stroke" x="246.618" y="0" width="4.99046" height="4"/>
                        <rect vector-effect="non-scaling-stroke" x="252.163" y="0" width="4.99046" height="14"/>
                        <rect vector-effect="non-scaling-stroke" x="257.708" y="0" width="4.99046" height="16"/>
                        <rect vector-effect="non-scaling-stroke" x="263.253" y="0" width="4.99046" height="32"/>
                        <rect vector-effect="non-scaling-stroke" x="268.798" y="0" width="4.99046" height="52"/>
                        <rect vector-effect="non-scaling-stroke" x="274.343" y="0" width="4.99046" height="65"/>
                        <rect vector-effect="non-scaling-stroke" x="279.888" y="0" width="4.99046" height="72"/>
                        <rect vector-effect="non-scaling-stroke" x="285.433" y="0" width="4.99046" height="86"/>
                        <rect vector-effect="non-scaling-stroke" x="290.978" y="0" width="4.99046" height="100"/>
                        <rect vector-effect="non-scaling-stroke" x="296.523" y="0" width="4.99046" height="106"/>
                        <rect vector-effect="non-scaling-stroke" x="302.068" y="0" width="4.99046" height="103"/>
                        <rect vector-effect="non-scaling-stroke" x="307.613" y="0" width="4.99046" height="72"/>
                        <rect vector-effect="non-scaling-stroke" x="313.158" y="0" width="4.99046" height="68"/>
                        <rect vector-effect="non-scaling-stroke" x="318.703" y="0" width="4.99046" height="74"/>
                        <rect vector-effect="non-scaling-stroke" x="324.248" y="0" width="4.99046" height="44"/>
                        <rect vector-effect="non-scaling-stroke" x="329.792" y="0" width="4.99046" height="39"/>
                        <rect vector-effect="non-scaling-stroke" x="335.337" y="0" width="4.99046" height="18"/>
                        <rect vector-effect="non-scaling-stroke" x="340.882" y="0" width="4.99046" height="15"/>
                        <rect vector-effect="non-scaling-stroke" x="346.427" y="0" width="4.99046" height="12"/>
                        <rect vector-effect="non-scaling-stroke" x="351.972" y="0" width="4.99046" height="5"/>
                    </g>
                </g>
                <g fill="none" stroke="black" stroke-width="1" fill-rule="evenodd" stroke-linecap="square" stroke-linejoin="bevel" id="PlotCurveItem_1">
                    <g fill="none" stroke="#ffb000" stroke-opacity="1" stroke-width="2" stroke-linecap="square" stroke-linejoin="bevel" font-family="Ioskeley Mono" font-size="14.6667" font-weight="400" font-style="normal">
                        <path vector-effect="non-scaling-stroke" fill-rule="evenodd" d="M54.59923096,693.990515958144 L56.564037299999995,693.972068919968 L58.53344505999996,693.952190613856 L60.49825139999996,693.930778272528 L62.46305774000007,693.907723523216 L64.42786408000006,693.882911142 L66.39267041999994,693.856217808144 L68.36207818000003,693.827514595424 L70.32688452000014,693.796662612304 L72.29169086000002,693.763515493264 L74.25649720000001,693.727917530304 L76.22590495999998,693.689703672944 L78.19071129999998,693.648699528224 L80.15551764000008,693.6047213607039 L82.12032398000008,693.55757173264 L84.08973174000005,693.5070476008 L86.05453807999993,693.4529235 L88.01934442000004,693.39497521072 L89.98415076000003,693.33295360016 L91.95355852,693.2666095355199 L93.91836486,693.1956627424 L95.88317119999999,693.1198329464 L97.84797753999999,693.03881495984 L99.81738529999996,692.95229736672 L101.78219163999995,692.85993760944 L103.74699797999995,692.7613931303999 L105.71180432000017,692.6562902304 L107.68121208000014,692.54424898192 L109.64601842000013,692.4248458592 L111.6108247599999,692.29766979312 L113.57563110000012,692.16227234464 L115.54503886000009,692.01817393312 L117.50984520000009,691.8648887496 L119.47465154000008,691.70190607184 L121.43945788000008,691.528684036 L123.40426422000007,691.34466209328 L125.37367198000004,691.14924855328 L127.33847832000004,690.94183304064 L129.30328466000003,690.7217740384 L131.26809100000003,690.48840511632 L133.23749876,690.24102870256 L135.2023051,689.978922312 L137.16711143999999,689.7013260896 L139.13191777999998,689.4074614953599 L141.10132554000018,689.09650016272 L143.06613187999994,688.7676074968 L145.03093821999994,688.4198990761599 L146.99574455999993,688.05245933776 L148.9651523199999,687.6643540336 L150.92995866000012,687.2545928608 L152.89476500000012,686.82209832 L154.8595713399999,686.3659361632 L156.82897910000008,685.8849852928 L158.79378544000008,685.3780623279999 L160.75859178000007,684.8440461712 L162.72339812000007,684.2817534416 L164.69280588000004,683.6899384751999 L166.65761222000003,683.0672933248 L168.62241856000003,682.4125723264 L170.58722490000002,681.7244675328 L172.55203124000002,681.0014841472 L174.521439,680.2423142224 L176.48624533999998,679.4454006784 L178.45105167999998,678.6093110016 L180.41585801999997,677.7324881119999 L182.38526577999994,676.8134372128 L184.35007212000016,675.8504766576 L186.31487846000016,674.8420493664 L188.27968479999993,673.7864114096 L190.2490925599999,672.6818811408 L192.2138988999999,671.5267769136 L194.1787052400001,670.3193547984 L196.1435115800001,669.0576840159999 L198.11291934000008,667.74008292 L200.07772568000007,666.3646830144 L202.04253202000007,664.92955352 L204.00733836000006,663.432888224 L205.97674612000003,661.872694064 L207.94155246000003,660.247102544 L209.90635880000002,658.5540583183999 L211.87116514000002,656.7917551744 L213.84057289999998,654.9580754832 L215.80537923999998,653.0511507488 L217.77018557999997,651.0688633423999 L219.73499191999997,649.009344768 L221.70439968000017,646.87053968 L223.66920601999993,644.650455016 L225.63401235999993,642.3470977136 L227.59881870000015,639.9585369936 L229.56362504000015,637.4827797936 L231.53303280000011,634.9178330512 L233.4978391400001,632.2618905536 L235.46264547999988,629.5128346719999 L237.4274518200001,626.66898376 L239.39685958000007,623.728593888 L241.36166592000006,620.68979656 L243.32647226000006,617.5507232799999 L245.29127860000006,614.310128384 L247.26068636000002,610.965520544 L249.22549270000002,607.516276928 L251.19029904000024,603.959906208 L253.15510538,600.29516272 L255.12451313999998,596.5214236319999 L257.08931948,592.636820448 L259.0541258200002,588.640107504 L261.01893215999996,584.530039136 L262.98833991999993,580.306615344 L264.95314626000015,575.9673448 L266.9179525999999,571.512227504 L268.8827589399999,566.9400177919999 L270.8521666999999,562.251338496 L272.8169730400001,557.44432112 L274.7817793799999,552.518965664 L276.7465857200001,547.47589496 L278.7113920600001,542.313863344 L280.68079982000006,537.03411648 L282.64560615999983,531.6354087039999 L284.61041250000005,526.119608512 L286.57521884000005,520.486093072 L288.5446266,514.736108048 L290.50943294,508.87027627199996 L292.47423928,502.88922057599996 L294.43904562000023,496.795432288 L296.4084533800002,490.58891140799994 L298.37325971999996,484.271526432 L300.33806605999996,477.84514585600004 L302.3028724000002,471.31226100799995 L304.27228016000015,464.67349472 L306.2370864999999,457.93258398399996 L308.20189284000014,451.09139729599997 L310.1666991799999,444.153048816 L312.1361069400001,437.11940704 L314.1009132800001,429.99420896 L316.0657196200001,422.781191568 L318.03052595999986,415.482846192 L319.99993371999983,408.10353265599997 L321.96474006000005,400.646987952 L323.92954640000005,393.116949072 L325.89435274000004,385.518398672 L327.85915908000004,377.855073744 L329.82856684,370.131334112 L331.79337318000023,362.352785264 L333.75817952,354.523787024 L335.72298586,346.65056771199994 L337.69239361999996,338.73748715199997 L339.6571999600002,330.790150832 L341.62200629999995,322.814787072 L343.5868126400002,314.816378528 L345.55622040000014,306.801776352 L347.52102674000014,298.777208864 L349.4858330799999,290.74828155200004 L351.45063942000013,282.721845568 L353.4200471800001,274.704752064 L355.38485351999987,266.702606528 L357.3496598600001,258.723505776 L359.3144662000001,250.77367812799997 L361.28387396000005,242.86059756799995 L363.2486802999998,234.990492416 L365.21348664000004,227.170836656 L367.17829298000004,219.40910427199998 L369.14770074,211.71276924800003 L371.11250708,204.08805990399998 L373.07731342,196.54307305599997 L375.0421197600002,189.08528268799995 L377.0115275200002,181.72216278400003 L378.97633385999995,174.46056449599996 L380.94114019999995,167.30733897599998 L382.9059465400002,160.27058304000002 L384.87075287999994,153.3577706719999 L386.8401606399999,146.57513019199996 L388.80496698000013,139.930758416 L390.7697733200001,133.43088366400002 L392.7345796599999,127.08297991999996 L394.7039874200001,120.893898336 L396.6687937600001,114.86986723200005 L398.63360009999985,109.01773776000005 L400.5984064400001,103.34436107199997 L402.56781420000004,97.85596548800004 L404.53262054000004,92.55815649600004 L406.49742688000003,87.45778524800005 L408.46223322000003,82.55921156800002 L410.43164098,77.86990944000001 L412.39644732,73.393615856 L414.36125366,69.13780480000003 L416.32606,65.10185344000001 L418.29546775999995,61.29634992000001 L420.2602741000002,57.72752256000001 L422.22508043999994,54.38914304000002 L424.18988677999994,51.293668000000025 L426.15929454000013,48.44732576000001 L428.1241008800001,45.84388799999999 L430.0889072199999,43.49581135999995 L432.0537135600001,41.39686752 L434.0185199000001,39.55951312000002 L435.9879276600001,37.977519840000014 L437.9527340000001,36.657115999999974 L439.9175403400001,35.5983015999999 L441.88234667999984,34.80730496000001 L443.85175444000026,34.27789775999997 L445.81656078000003,34.010080000000016 L447.78136712,34.010080000000016 L449.74617346,34.27789775999997 L451.71558122,34.80730496000001 L453.68038756,35.5983015999999 L455.6451939000002,36.657115999999974 L457.61000024,37.977519840000014 L459.57940799999994,39.55951312000002 L461.54421433999994,41.39686752 L463.50902068000016,43.49581135999995 L465.47382701999993,45.84388799999999 L467.4432347799999,48.44732576000001 L469.4080411200001,51.293668000000025 L471.3728474600001,54.38914304000002 L473.3376537999999,57.72752256000001 L475.30706155999985,61.29634992000001 L477.2718679000001,65.10185344000001 L479.23667424000007,69.13780480000003 L481.20148058000007,73.393615856 L483.17088834000003,77.86990944000001 L485.13569468000003,82.55921156800002 L487.1005010199998,87.45778524800005 L489.06530736,92.55815649600004 L491.0301137,97.85596548800004 L492.99952146,103.34436107199997 L494.9643278,109.01773776000005 L496.92913414,114.86986723200005 L498.8939404800002,120.893898336 L500.86334824000016,127.08297991999996 L502.82815457999993,133.43088366400002 L504.7929609199999,139.930758416 L506.75776726000015,146.57513019199996 L508.7271750200001,153.3577706719999 L510.6919813599999,160.27058304000002 L512.6567877000001,167.30733897599998 L514.6215940400001,174.46056449599996 L516.5910018000001,181.72216278400003 L518.5558081400001,189.08528268799995 L520.5206144800001,196.54307305599997 L522.4854208200001,204.08805990399998 L524.4548285800003,211.71276924800003 L526.41963492,219.40910427199998 L528.38444126,227.170836656 L530.3492476,234.990492416 L532.3186553600002,242.86059756799995 L534.2834617,250.77367812799997 L536.2482680400002,258.723505776 L538.21307438,266.702606528 L540.17788072,274.704752064 L542.1472884799999,282.721845568 L544.1120948200002,290.74828155200004 L546.0769011599999,298.777208864 L548.0417075000001,306.801776352 L550.0111152600001,314.816378528 L551.9759216000001,322.814787072 L553.9407279399999,330.790150832 L555.9055342800001,338.73748715199997 L557.8749420400001,346.65056771199994 L559.8397483800001,354.523787024 L561.80455472,362.352785264 L563.76936106,370.131334112 L565.73876882,377.855073744 L567.7035751600002,385.518398672 L569.6683815,393.116949072 L571.63318784,400.646987952 L573.6025956,408.10353265599997 L575.5674019400002,415.482846192 L577.53220828,422.781191568 L579.4970146200002,429.99420896 L581.4664223800002,437.11940704 L583.4312287199999,444.153048816 L585.3960350599999,451.09139729599997 L587.3608414000001,457.93258398399996 L589.3302491600001,464.67349472 L591.2950554999999,471.31226100799995 L593.2598618400001,477.84514585600004 L595.2246681800001,484.271526432 L597.1894745199999,490.58891140799994 L599.1588822800001,496.795432288 L601.12368862,502.88922057599996 L603.08849496,508.87027627199996 L605.0533013,514.736108048 L607.02270906,520.486093072 L608.9875154,526.119608512 L610.9523217400002,531.6354087039999 L612.91712808,537.03411648 L614.88653584,542.313863344 L616.85134218,547.47589496 L618.81614852,552.518965664 L620.78095486,557.44432112 L622.7503626199999,562.251338496 L624.7151689600001,566.9400177919999 L626.6799752999999,571.512227504 L628.6447816399999,575.9673448 L630.6141894000001,580.306615344 L632.5789957400001,584.530039136 L634.5438020799999,588.640107504 L636.5086084200001,592.636820448 L638.47801618,596.5214236319999 L640.44282252,600.29516272 L642.40762886,603.959906208 L644.3724352,607.516276928 L646.33724154,610.965520544 L648.3066493000002,614.310128384 L650.27145564,617.5507232799999 L652.23626198,620.68979656 L654.2010683200002,623.728593888 L656.1704760800002,626.66898376 L658.13528242,629.5128346719999 L660.1000887600002,632.2618905536 L662.0648951,634.9178330512 L664.0343028600001,637.4827797936 L665.9991091999999,639.9585369936 L667.9639155400001,642.3470977136 L669.9287218799999,644.650455016 L671.8981296399999,646.87053968 L673.8629359800001,649.009344768 L675.8277423200001,651.0688633423999 L677.7925486599999,653.0511507488 L679.7619564199998,654.9580754832 L681.72676276,656.7917551744 L683.6915691,658.5540583183999 L685.65637544,660.247102544 L687.6257832,661.872694064 L689.59058954,663.432888224 L691.5553958800002,664.92955352 L693.52020222,666.3646830144 L695.48500856,667.74008292 L697.45441632,669.0576840159999 L699.4192226600002,670.3193547984 L701.3840289999999,671.5267769136 L703.3488353400002,672.6818811408 L705.3182431000001,673.7864114096 L707.2830494400001,674.8420493664 L709.2478557799999,675.8504766576 L711.2126621200001,676.8134372128 L713.1820698800001,677.7324881119999 L715.1468762199999,678.6093110016 L717.1116825600001,679.4454006784 L719.0764889000001,680.2423142224 L721.04589666,681.0014841472 L723.010703,681.7244675328 L724.97550934,682.4125723264 L726.94031568,683.0672933248 L728.9097234400002,683.6899384751999 L730.87452978,684.2817534416 L732.83933612,684.8440461712 L734.8041424600002,685.3780623279999 L736.7735502200002,685.8849852928 L738.7383565599999,686.3659361632 L740.7031629000002,686.82209832 L742.6679692400002,687.2545928608 L744.6373770000001,687.6643540336 L746.6021833399999,688.05245933776 L748.5669896800001,688.4198990761599 L750.5317960199999,688.7676074968 L752.4966023600001,689.09650016272 L754.4660101200001,689.4074614953599 L756.4308164600001,689.7013260896 L758.3956227999998,689.978922312 L760.3604291400001,690.24102870256 L762.3298369,690.48840511632 L764.29464324,690.7217740384 L766.25944958,690.94183304064 L768.22425592,691.14924855328 L770.19366368,691.34466209328 L772.1584700200002,691.528684036 L774.12327636,691.70190607184 L776.0880827,691.8648887496 L778.0574904599999,692.01817393312 L780.0222968000002,692.16227234464 L781.9871031399999,692.29766979312 L783.9519094800002,692.4248458592 L785.9213172400001,692.54424898192 L787.8861235800001,692.6562902304 L789.8509299199999,692.7613931303999 L791.8157362600001,692.85993760944 L793.7851440200001,692.95229736672 L795.7499503600001,693.03881495984 L797.7147567000001,693.1198329464 L799.6795630400001,693.1956627424 L801.6443693799998,693.2666095355199 L803.61377714,693.33295360016 L805.57858348,693.39497521072 L807.54338982,693.4529235 L809.50819616,693.5070476008 L811.47760392,693.55757173264 L813.44241026,693.6047213607039 L815.4072166000002,693.648699528224 L817.37202294,693.689703672944 L819.3414306999999,693.727917530304 L821.3062370399999,693.763515493264 L823.2710433800002,693.796662612304 L825.2358497199999,693.827514595424 L827.2052574799999,693.856217808144 L829.1700638200001,693.882911142 L831.1348701600001,693.907723523216 L833.0996764999999,693.930778272528 L835.0690842600001,693.952190613856 L837.0338906000001,693.972068919968 L838.9986969400001,693.990515958144 "/>
                    </g>
                </g>
                <g fill="none" stroke="black" stroke-width="1" fill-rule="evenodd" stroke-linecap="square" stroke-linejoin="bevel" id="PlotCurveItem_2">
                    <g fill="none" stroke="#ffb000" stroke-opacity="1" stroke-width="1" stroke-linecap="square" stroke-linejoin="bevel" font-family="Ioskeley Mono" font-size="14.6667" font-weight="400" font-style="normal">
                        <path vector-effect="non-scaling-stroke" fill-rule="evenodd" d="M54.59923096,694.212 L56.564037299999995,694.212 L58.53344505999996,694.212 L60.49825139999996,694.212 L62.46305774000007,694.212 L64.42786408000006,694.212 L66.39267041999994,694.212 L68.36207818000003,694.212 L70.32688452000014,694.212 L72.29169086000002,694.212 L74.25649720000001,694.212 L76.22590495999998,694.212 L78.19071129999998,694.212 L80.15551764000008,694.212 L82.12032398000008,694.212 L84.08973174000005,694.212 L86.05453807999993,694.212 L88.01934442000004,694.212 L89.98415076000003,694.212 L91.95355852,694.212 L93.91836486,694.212 L95.88317119999999,694.212 L97.84797753999999,694.212 L99.81738529999996,694.212 L101.78219163999995,694.212 L103.74699797999995,694.212 L105.71180432000017,694.212 L107.68121208000014,694.212 L109.64601842000013,694.212 L111.6108247599999,694.212 L113.57563110000012,694.212 L115.54503886000009,694.212 L117.50984520000009,694.212 L119.47465154000008,694.212 L121.43945788000008,694.212 L123.40426422000007,694.212 L125.37367198000004,694.212 L127.33847832000004,694.212 L129.30328466000003,694.212 L131.26809100000003,694.212 L133.23749876,694.212 L135.2023051,694.212 L137.16711143999999,694.212 L139.13191777999998,694.212 L141.10132554000018,694.212 L143.06613187999994,694.212 L145.03093821999994,694.212 L146.99574455999993,694.212 L148.9651523199999,694.212 L150.92995866000012,694.212 L152.89476500000012,694.212 L154.8595713399999,694.212 L156.82897910000008,694.212 L158.79378544000008,694.212 L160.75859178000007,694.212 L162.72339812000007,694.212 L164.69280588000004,694.212 L166.65761222000003,694.212 L168.62241856000003,694.212 L170.58722490000002,694.212 L172.55203124000002,694.212 L174.521439,694.212 L176.48624533999998,694.212 L178.45105167999998,694.212 L180.41585801999997,694.212 L182.38526577999994,694.212 L184.35007212000016,694.212 L186.31487846000016,694.212 L188.27968479999993,694.212 L190.2490925599999,694.212 L192.2138988999999,694.212 L194.1787052400001,694.212 L196.1435115800001,694.212 L198.11291934000008,694.212 L200.07772568000007,694.212 L202.04253202000007,694.212 L204.00733836000006,694.212 L205.97674612000003,694.212 L207.94155246000003,694.212 L209.90635880000002,694.212 L211.87116514000002,694.212 L213.84057289999998,694.212 L215.80537923999998,694.212 L217.77018557999997,694.212 L219.73499191999997,694.212 L221.70439968000017,694.212 L223.66920601999993,694.212 L225.63401235999993,694.212 L227.59881870000015,694.212 L229.56362504000015,694.212 L231.53303280000011,694.212 L233.4978391400001,694.212 L235.46264547999988,694.212 L237.4274518200001,694.212 L239.39685958000007,694.212 L241.36166592000006,694.212 L243.32647226000006,694.212 L245.29127860000006,694.212 L247.26068636000002,694.212 L249.22549270000002,694.212 L251.19029904000024,694.212 L253.15510538,694.212 L255.12451313999998,694.212 L257.08931948,694.212 L259.0541258200002,694.212 L261.01893215999996,694.212 L262.98833991999993,694.212 L264.95314626000015,694.212 L266.9179525999999,694.212 L268.8827589399999,694.212 L270.8521666999999,694.212 L272.8169730400001,694.212 L274.7817793799999,694.212 L276.7465857200001,694.212 L278.7113920600001,694.212 L280.68079982000006,694.212 L282.64560615999983,694.212 L284.61041250000005,694.212 L286.57521884000005,694.212 L288.5446266,694.212 L290.50943294,694.212 L292.47423928,694.212 L294.43904562000023,694.212 L296.4084533800002,694.212 L298.37325971999996,694.212 L300.33806605999996,694.212 L302.3028724000002,694.212 L304.27228016000015,694.212 L306.2370864999999,694.212 L308.20189284000014,694.212 L310.1666991799999,694.212 L312.1361069400001,694.212 L314.1009132800001,694.212 L316.0657196200001,694.212 L318.03052595999986,694.212 L319.99993371999983,694.212 L321.96474006000005,694.212 L323.92954640000005,694.212 L325.89435274000004,694.212 L327.85915908000004,694.212 L329.82856684,694.212 L331.79337318000023,694.212 L333.75817952,694.212 L335.72298586,694.212 L337.69239361999996,694.212 L339.6571999600002,694.212 L341.62200629999995,694.212 L343.5868126400002,694.212 L345.55622040000014,694.212 L347.52102674000014,694.212 L349.4858330799999,694.212 L351.45063942000013,694.212 L353.4200471800001,694.212 L355.38485351999987,694.212 L357.3496598600001,694.212 L359.3144662000001,694.212 L361.28387396000005,694.212 L363.2486802999998,694.212 L365.21348664000004,694.212 L367.17829298000004,694.212 L369.14770074,694.212 L371.11250708,694.212 L373.07731342,694.212 L375.0421197600002,694.212 L377.0115275200002,694.212 L378.97633385999995,694.212 L380.94114019999995,694.212 L382.9059465400002,694.212 L384.87075287999994,694.212 L386.8401606399999,694.212 L388.80496698000013,694.212 L390.7697733200001,694.212 L392.7345796599999,694.212 L394.7039874200001,694.212 L396.6687937600001,694.212 L398.63360009999985,694.212 L400.5984064400001,694.212 L402.56781420000004,694.212 L404.53262054000004,694.212 L406.49742688000003,694.212 L408.46223322000003,694.212 L410.43164098,694.212 L412.39644732,694.212 L414.36125366,694.212 L416.32606,694.212 L418.29546775999995,694.212 L420.2602741000002,694.212 L422.22508043999994,694.212 L424.18988677999994,694.212 L426.15929454000013,694.212 L428.1241008800001,694.212 L430.0889072199999,694.212 L432.0537135600001,694.212 L434.0185199000001,694.212 L435.9879276600001,694.212 L437.9527340000001,694.212 L439.9175403400001,694.212 L441.88234667999984,694.212 L443.85175444000026,694.212 L445.81656078000003,694.212 L447.78136712,694.212 L449.74617346,694.212 L451.71558122,694.212 L453.68038756,694.212 L455.6451939000002,694.212 L457.61000024,694.212 L459.57940799999994,694.212 L461.54421433999994,694.212 L463.50902068000016,694.212 L465.47382701999993,694.212 L467.4432347799999,694.212 L469.4080411200001,694.212 L471.3728474600001,694.212 L473.3376537999999,694.212 L475.30706155999985,694.212 L477.2718679000001,694.212 L479.23667424000007,694.212 L481.20148058000007,694.212 L483.17088834000003,694.212 L485.13569468000003,694.212 L487.1005010199998,694.212 L489.06530736,694.212 L491.0301137,694.212 L492.99952146,694.212 L494.9643278,694.212 L496.92913414,694.212 L498.8939404800002,694.212 L500.86334824000016,694.212 L502.82815457999993,694.212 L504.7929609199999,694.212 L506.75776726000015,694.212 L508.7271750200001,694.212 L510.6919813599999,694.212 L512.6567877000001,694.212 L514.6215940400001,694.212 L516.5910018000001,694.212 L518.5558081400001,694.212 L520.5206144800001,694.212 L522.4854208200001,694.212 L524.4548285800003,694.212 L526.41963492,694.212 L528.38444126,694.212 L530.3492476,694.212 L532.3186553600002,694.212 L534.2834617,694.212 L536.2482680400002,694.212 L538.21307438,694.212 L540.17788072,694.212 L542.1472884799999,694.212 L544.1120948200002,694.212 L546.0769011599999,694.212 L548.0417075000001,694.212 L550.0111152600001,694.212 L551.9759216000001,694.212 L553.9407279399999,694.212 L555.9055342800001,694.212 L557.8749420400001,694.212 L559.8397483800001,694.212 L561.80455472,694.212 L563.76936106,694.212 L565.73876882,694.212 L567.7035751600002,694.212 L569.6683815,694.212 L571.63318784,694.212 L573.6025956,694.212 L575.5674019400002,694.212 L577.53220828,694.212 L579.4970146200002,694.212 L581.4664223800002,694.212 L583.4312287199999,694.212 L585.3960350599999,694.212 L587.3608414000001,694.212 L589.3302491600001,694.212 L591.2950554999999,694.212 L593.2598618400001,694.212 L595.2246681800001,694.212 L597.1894745199999,694.212 L599.1588822800001,694.212 L601.12368862,694.212 L603.08849496,694.212 L605.0533013,694.212 L607.02270906,694.212 L608.9875154,694.212 L610.9523217400002,694.212 L612.91712808,694.212 L614.88653584,694.212 L616.85134218,694.212 L618.81614852,694.212 L620.78095486,694.212 L622.7503626199999,694.212 L624.7151689600001,694.212 L626.6799752999999,694.212 L628.6447816399999,694.212 L630.6141894000001,694.212 L632.5789957400001,694.212 L634.5438020799999,694.212 L636.5086084200001,694.212 L638.47801618,694.212 L640.44282252,694.212 L642.40762886,694.212 L644.3724352,694.212 L646.33724154,694.212 L648.3066493000002,694.212 L650.27145564,694.212 L652.23626198,694.212 L654.2010683200002,694.212 L656.1704760800002,694.212 L658.13528242,694.212 L660.1000887600002,694.212 L662.0648951,694.212 L664.0343028600001,694.212 L665.9991091999999,694.212 L667.9639155400001,694.212 L669.9287218799999,694.212 L671.8981296399999,694.212 L673.8629359800001,694.212 L675.8277423200001,694.212 L677.7925486599999,694.212 L679.7619564199998,694.212 L681.72676276,694.212 L683.6915691,694.212 L685.65637544,694.212 L687.6257832,694.212 L689.59058954,694.212 L691.5553958800002,694.212 L693.52020222,694.212 L695.48500856,694.212 L697.45441632,694.212 L699.4192226600002,694.212 L701.3840289999999,694.212 L703.3488353400002,694.212 L705.3182431000001,694.212 L707.2830494400001,694.212 L709.2478557799999,694.212 L711.2126621200001,694.212 L713.1820698800001,694.212 L715.1468762199999,694.212 L717.1116825600001,694.212 L719.0764889000001,694.212 L721.04589666,694.212 L723.010703,694.212 L724.97550934,694.212 L726.94031568,694.212 L728.9097234400002,694.212 L730.87452978,694.212 L732.83933612,694.212 L734.8041424600002,694.212 L736.7735502200002,694.212 L738.7383565599999,694.212 L740.7031629000002,694.212 L742.6679692400002,694.212 L744.6373770000001,694.212 L746.6021833399999,694.212 L748.5669896800001,694.212 L750.5317960199999,694.212 L752.4966023600001,694.212 L754.4660101200001,694.212 L756.4308164600001,694.212 L758.3956227999998,694.212 L760.3604291400001,694.212 L762.3298369,694.212 L764.29464324,694.212 L766.25944958,694.212 L768.22425592,694.212 L770.19366368,694.212 L772.1584700200002,694.212 L774.12327636,694.212 L776.0880827,694.212 L778.0574904599999,694.212 L780.0222968000002,694.212 L781.9871031399999,694.212 L783.9519094800002,694.212 L785.9213172400001,694.212 L787.8861235800001,694.212 L789.8509299199999,694.212 L791.8157362600001,694.212 L793.7851440200001,694.212 L795.7499503600001,694.212 L797.7147567000001,694.212 L799.6795630400001,694.212 L801.6443693799998,694.212 L803.61377714,694.212 L805.57858348,694.212 L807.54338982,694.212 L809.50819616,694.212 L811.47760392,694.212 L813.44241026,694.212 L815.4072166000002,694.212 L817.37202294,694.212 L819.3414306999999,694.212 L821.3062370399999,694.212 L823.2710433800002,694.212 L825.2358497199999,694.212 L827.2052574799999,694.212 L829.1700638200001,694.212 L831.1348701600001,694.212 L833.0996764999999,694.212 L835.0690842600001,694.212 L837.0338906000001,694.212 L838.9986969400001,694.212 "/>
                    </g>
                </g>
                <g fill="none" stroke="black" stroke-width="1" fill-rule="evenodd" stroke-linecap="square" stroke-linejoin="bevel" id="InfiniteLine_1">
                    <g fill="none" stroke="#000000" stroke-opacity="1" stroke-dasharray="1,2" stroke-dashoffset="0" stroke-width="1" stroke-linecap="square" stroke-linejoin="miter" stroke-miterlimit="2" font-family="Ioskeley Mono" font-size="14.6667" font-weight="400" font-style="normal">
                        <polyline fill="none" vector-effect="non-scaling-stroke" points="152.65,694.212 152.65,0.9999840000000404"/>
                    </g>
                </g>
                <g fill="none" stroke="black" stroke-width="1" fill-rule="evenodd" stroke-linecap="square" stroke-linejoin="bevel" id="InfiniteLine_2">
                    <g fill="none" stroke="#000000" stroke-opacity="1" stroke-dasharray="1,2" stroke-dashoffset="0" stroke-width="1" stroke-linecap="square" stroke-linejoin="miter" stroke-miterlimit="2" font-family="Ioskeley Mono" font-size="14.6667" font-weight="400" font-style="normal">
                        <polyline fill="none" vector-effect="non-scaling-stroke" points="250.7,694.212 250.7,0.9999840000000404"/>
                    </g>
                </g>
                <g fill="none" stroke="black" stroke-width="1" fill-rule="evenodd" stroke-linecap="square" stroke-linejoin="bevel" id="InfiniteLine_3">
                    <g fill="none" stroke="#000000" stroke-opacity="1" stroke-dasharray="1,2" stroke-dashoffset="0" stroke-width="1" stroke-linecap="square" stroke-linejoin="miter" stroke-miterlimit="2" font-family="Ioskeley Mono" font-size="14.6667" font-weight="400" font-style="normal">
                        <polyline fill="none" vector-effect="non-scaling-stroke" points="348.75,694.212 348.75,0.9999840000000404"/>
                    </g>
                </g>
                <g fill="none" stroke="black" stroke-width="1" fill-rule="evenodd" stroke-linecap="square" stroke-linejoin="bevel" id="InfiniteLine_4">
                    <g fill="none" stroke="#000000" stroke-opacity="1" stroke-dasharray="8,4" stroke-dashoffset="0" stroke-width="2" stroke-linecap="square" stroke-linejoin="miter" stroke-miterlimit="2" font-family="Ioskeley Mono" font-size="14.6667" font-weight="400" font-style="normal">
                        <polyline fill="none" vector-effect="non-scaling-stroke" points="446.8,694.212 446.8,0.9999840000000404"/>
                    </g>
                </g>
                <g fill="none" stroke="black" stroke-width="1" fill-rule="evenodd" stroke-linecap="square" stroke-linejoin="bevel" id="InfiniteLine_5">
                    <g fill="none" stroke="#000000" stroke-opacity="1" stroke-dasharray="1,2" stroke-dashoffset="0" stroke-width="1" stroke-linecap="square" stroke-linejoin="miter" stroke-miterlimit="2" font-family="Ioskeley Mono" font-size="14.6667" font-weight="400" font-style="normal">
                        <polyline fill="none" vector-effect="non-scaling-stroke" points="544.85,694.212 544.85,0.9999840000000404"/>
                    </g>
                </g>
                <g fill="none" stroke="black" stroke-width="1" fill-rule="evenodd" stroke-linecap="square" stroke-linejoin="bevel" id="InfiniteLine_6">
                    <g fill="none" stroke="#000000" stroke-opacity="1" stroke-dasharray="1,2" stroke-dashoffset="0" stroke-width="1" stroke-linecap="square" stroke-linejoin="miter" stroke-miterlimit="2" font-family="Ioskeley Mono" font-size="14.6667" font-weight="400" font-style="normal">
                        <polyline fill="none" vector-effect="non-scaling-stroke" points="642.9,694.212 642.9,0.9999840000000404"/>
                    </g>
                </g>
                <g fill="none" stroke="black" stroke-width="1" fill-rule="evenodd" stroke-linecap="square" stroke-linejoin="bevel" id="InfiniteLine_7">
                    <g fill="none" stroke="#000000" stroke-opacity="1" stroke-dasharray="1,2" stroke-dashoffset="0" stroke-width="1" stroke-linecap="square" stroke-linejoin="miter" stroke-miterlimit="2" font-family="Ioskeley Mono" font-size="14.6667" font-weight="400" font-style="normal">
                        <polyline fill="none" vector-effect="non-scaling-stroke" points="740.95,694.212 740.95,0.9999840000000404"/>
                    </g>
                </g>
            </g>
            <g fill="none" stroke="black" stroke-width="1" fill-rule="evenodd" stroke-linecap="square" stroke-linejoin="bevel" id="QGraphicsRectItem_1">
                <g fill="none" stroke="none" transform="matrix(1,0,0,1,54.6,1)" font-family="Ioskeley Mono" font-size="14.6667" font-weight="400" font-style="normal">
                    <rect vector-effect="non-scaling-stroke" x="0" y="0" width="784.4" height="693.212"/>
                </g>
            </g>
        </g>
    </g>
    <g fill="none" stroke="black" stroke-width="1" fill-rule="evenodd" stroke-linecap="square" stroke-linejoin="bevel" id="AxisItem_1">
        <g fill="none" stroke="#000000" stroke-opacity="1" stroke-width="1" stroke-linecap="square" stroke-linejoin="bevel" font-family="Ioskeley Mono" font-size="14.6667" font-weight="400" font-style="normal">
            <polyline fill="none" vector-effect="non-scaling-stroke" points="53.6,0.0 840.0,0.0"/>
        </g>
        

    </g>
    <g fill="none" stroke="black" stroke-width="1" fill-rule="evenodd" stroke-linecap="square" stroke-linejoin="bevel" id="AxisItem_2">
        <g fill="none" stroke="#000000" stroke-opacity="1" stroke-width="1" stroke-linecap="square" stroke-linejoin="bevel" font-family="Ioskeley Mono" font-size="14.6667" font-weight="400" font-style="normal">
            <polyline fill="none" vector-effect="non-scaling-stroke" points="53.6,695.212 840.0,695.212"/>
        </g>
        <g fill="none" stroke="#000000" stroke-opacity="0.509804" stroke-dasharray="10,8" stroke-dashoffset="0" stroke-width="1" stroke-linecap="square" stroke-linejoin="bevel" font-family="Ioskeley Mono" font-size="14.6667" font-weight="400" font-style="normal">
            <polyline fill="none" vector-effect="non-scaling-stroke" points="152.65,1.0 152.65,694.212"/>
            <polyline fill="none" vector-effect="non-scaling-stroke" points="250.7,1.0 250.7,694.212"/>
            <polyline fill="none" vector-effect="non-scaling-stroke" points="348.75,1.0 348.75,694.212"/>
            <polyline fill="none" vector-effect="non-scaling-stroke" points="446.8,1.0 446.8,694.212"/>
            <polyline fill="none" vector-effect="non-scaling-stroke" points="544.85,1.0 544.85,694.212"/>
            <polyline fill="none" vector-effect="non-scaling-stroke" points="642.9,1.0 642.9,694.212"/>
            <polyline fill="none" vector-effect="non-scaling-stroke" points="740.95,1.0 740.95,694.212"/>
        </g>
        <g fill="none" stroke="#000000" stroke-opacity="1" stroke-width="1" stroke-linecap="square" stroke-linejoin="bevel" transform="matrix(1,0,0,1,54.6,694.212)" font-family="Ioskeley Mono" font-size="14.6667" font-weight="400" font-style="normal">
            <text fill="#000000" fill-opacity="1" stroke="none" xml:space="preserve" x="84.5469" y="16.4688" font-family="&quot;Ioskeley Mono&quot;" font-size="14.6667" font-weight="400" font-style="normal">-3σ</text>
            <text fill="#000000" fill-opacity="1" stroke="none" xml:space="preserve" x="71.0469" y="35.4688" font-family="&quot;Ioskeley Mono&quot;" font-size="14.6667" font-weight="400" font-style="normal">235.70</text>
            <text fill="#000000" fill-opacity="1" stroke="none" xml:space="preserve" x="182.594" y="16.4688" font-family="&quot;Ioskeley Mono&quot;" font-size="14.6667" font-weight="400" font-style="normal">-2σ</text>
            <text fill="#000000" fill-opacity="1" stroke="none" xml:space="preserve" x="169.094" y="35.4688" font-family="&quot;Ioskeley Mono&quot;" font-size="14.6667" font-weight="400" font-style="normal">257.01</text>
            <text fill="#000000" fill-opacity="1" stroke="none" xml:space="preserve" x="280.641" y="16.4688" font-family="&quot;Ioskeley Mono&quot;" font-size="14.6667" font-weight="400" font-style="normal">-1σ</text>
            <text fill="#000000" fill-opacity="1" stroke="none" xml:space="preserve" x="267.141" y="35.4688" font-family="&quot;Ioskeley Mono&quot;" font-size="14.6667" font-weight="400" font-style="normal">278.31</text>
            <text fill="#000000" fill-opacity="1" stroke="none" xml:space="preserve" x="374.188" y="16.4688" font-family="&quot;Ioskeley Mono&quot;" font-size="14.6667" font-weight="400" font-style="normal">mean</text>
            <text fill="#000000" fill-opacity="1" stroke="none" xml:space="preserve" x="365.188" y="35.4688" font-family="&quot;Ioskeley Mono&quot;" font-size="14.6667" font-weight="400" font-style="normal">299.62</text>
            <text fill="#000000" fill-opacity="1" stroke="none" xml:space="preserve" x="476.75" y="16.4688" font-family="&quot;Ioskeley Mono&quot;" font-size="14.6667" font-weight="400" font-style="normal">+1σ</text>
            <text fill="#000000" fill-opacity="1" stroke="none" xml:space="preserve" x="463.25" y="35.4688" font-family="&quot;Ioskeley Mono&quot;" font-size="14.6667" font-weight="400" font-style="normal">320.93</text>
            <text fill="#000000" fill-opacity="1" stroke="none" xml:space="preserve" x="574.797" y="16.4688" font-family="&quot;Ioskeley Mono&quot;" font-size="14.6667" font-weight="400" font-style="normal">+2σ</text>
            <text fill="#000000" fill-opacity="1" stroke="none" xml:space="preserve" x="561.297" y="35.4688" font-family="&quot;Ioskeley Mono&quot;" font-size="14.6667" font-weight="400" font-style="normal">342.24</text>
            <text fill="#000000" fill-opacity="1" stroke="none" xml:space="preserve" x="672.844" y="16.4688" font-family="&quot;Ioskeley Mono&quot;" font-size="14.6667" font-weight="400" font-style="normal">+3σ</text>
            <text fill="#000000" fill-opacity="1" stroke="none" xml:space="preserve" x="659.344" y="35.4688" font-family="&quot;Ioskeley Mono&quot;" font-size="14.6667" font-weight="400" font-style="normal">363.55</text>
        </g>
        <g fill="none" stroke="black" stroke-width="1" fill-rule="evenodd" stroke-linecap="square" stroke-linejoin="bevel" id="QGraphicsTextItem_1">
            


            


            


            <g fill="none" stroke="#000000" stroke-opacity="1" stroke-width="1" stroke-linecap="square" stroke-linejoin="bevel" transform="matrix(1,0,0,1,410.6,725.212)" font-family="Ioskeley Mono" font-size="14.6667" font-weight="400" font-style="normal">
                <text fill="#000000" fill-opacity="1" stroke="none" xml:space="preserve" x="4" y="18.4688" font-family="&quot;Ioskeley Mono&quot;" font-size="14.6667" font-weight="400" font-style="normal">Odpor R [m</text>
                <text fill="#000000" fill-opacity="1" stroke="none" xml:space="preserve" x="94" y="18.4688" font-family="&quot;Ioskeley Mono&quot;" font-size="14.6667" font-weight="400" font-style="normal">Ω] </text>
            </g>
            


            

        </g>
    </g>
    <g fill="none" stroke="black" stroke-width="1" fill-rule="evenodd" stroke-linecap="square" stroke-linejoin="bevel" id="AxisItem_3">
        <g fill="none" stroke="#000000" stroke-opacity="1" stroke-width="1" stroke-linecap="square" stroke-linejoin="bevel" font-family="Ioskeley Mono" font-size="14.6667" font-weight="400" font-style="normal">
            <polyline fill="none" vector-effect="non-scaling-stroke" points="53.6,0.0 53.6,695.212"/>
        </g>
        <g fill="none" stroke="#000000" stroke-opacity="0.509804" stroke-dasharray="10,8" stroke-dashoffset="0" stroke-width="1" stroke-linecap="square" stroke-linejoin="bevel" font-family="Ioskeley Mono" font-size="14.6667" font-weight="400" font-style="normal">
            <polyline fill="none" vector-effect="non-scaling-stroke" points="839.5,694.212 54.6,694.212"/>
            <polyline fill="none" vector-effect="non-scaling-stroke" points="839.5,613.244 54.6,613.244"/>
            <polyline fill="none" vector-effect="non-scaling-stroke" points="839.5,532.276 54.6,532.276"/>
            <polyline fill="none" vector-effect="non-scaling-stroke" points="839.5,451.308 54.6,451.308"/>
            <polyline fill="none" vector-effect="non-scaling-stroke" points="839.5,370.34 54.6,370.34"/>
            <polyline fill="none" vector-effect="non-scaling-stroke" points="839.5,289.371 54.6,289.371"/>
            <polyline fill="none" vector-effect="non-scaling-stroke" points="839.5,208.403 54.6,208.403"/>
            <polyline fill="none" vector-effect="non-scaling-stroke" points="839.5,127.435 54.6,127.435"/>
            <polyline fill="none" vector-effect="non-scaling-stroke" points="839.5,46.4668 54.6,46.4668"/>
        </g>
        <g fill="none" stroke="#000000" stroke-opacity="1" stroke-width="1" stroke-linecap="square" stroke-linejoin="bevel" transform="matrix(1,0,0,1,1,1)" font-family="Ioskeley Mono" font-size="14.6667" font-weight="400" font-style="normal">
            <text fill="#000000" fill-opacity="1" stroke="none" xml:space="preserve" x="30.5938" y="617.344" font-family="&quot;Ioskeley Mono&quot;" font-size="14.6667" font-weight="400" font-style="normal">13</text>
            <text fill="#000000" fill-opacity="1" stroke="none" xml:space="preserve" x="30.5938" y="536.375" font-family="&quot;Ioskeley Mono&quot;" font-size="14.6667" font-weight="400" font-style="normal">26</text>
            <text fill="#000000" fill-opacity="1" stroke="none" xml:space="preserve" x="30.5938" y="455.406" font-family="&quot;Ioskeley Mono&quot;" font-size="14.6667" font-weight="400" font-style="normal">39</text>
            <text fill="#000000" fill-opacity="1" stroke="none" xml:space="preserve" x="30.5938" y="374.438" font-family="&quot;Ioskeley Mono&quot;" font-size="14.6667" font-weight="400" font-style="normal">52</text>
            <text fill="#000000" fill-opacity="1" stroke="none" xml:space="preserve" x="30.5938" y="293.469" font-family="&quot;Ioskeley Mono&quot;" font-size="14.6667" font-weight="400" font-style="normal">65</text>
            <text fill="#000000" fill-opacity="1" stroke="none" xml:space="preserve" x="30.5938" y="212.5" font-family="&quot;Ioskeley Mono&quot;" font-size="14.6667" font-weight="400" font-style="normal">78</text>
            <text fill="#000000" fill-opacity="1" stroke="none" xml:space="preserve" x="30.5938" y="131.531" font-family="&quot;Ioskeley Mono&quot;" font-size="14.6667" font-weight="400" font-style="normal">91</text>
            <text fill="#000000" fill-opacity="1" stroke="none" xml:space="preserve" x="21.5938" y="50.5625" font-family="&quot;Ioskeley Mono&quot;" font-size="14.6667" font-weight="400" font-style="normal">104</text>
        </g>
        <g fill="none" stroke="black" stroke-width="1" fill-rule="evenodd" stroke-linecap="square" stroke-linejoin="bevel" id="QGraphicsTextItem_2">
            


            


            


            <g fill="none" stroke="#000000" stroke-opacity="1" stroke-width="1" stroke-linecap="square" stroke-linejoin="bevel" transform="matrix(0,-1,1,0,-4,455)" font-family="Ioskeley Mono" font-size="14.6667" font-weight="400" font-style="normal">
                <text fill="#000000" fill-opacity="1" stroke="none" xml:space="preserve" x="4" y="18.4688" font-family="&quot;Ioskeley Mono&quot;" font-size="14.6667" font-weight="400" font-style="normal">Počet / škálovaná hustota </text>
            </g>
            


            

        </g>
    </g>
    <g fill="none" stroke="black" stroke-width="1" fill-rule="evenodd" stroke-linecap="square" stroke-linejoin="bevel" id="AxisItem_4">
        <g fill="none" stroke="#000000" stroke-opacity="1" stroke-width="1" stroke-linecap="square" stroke-linejoin="bevel" font-family="Ioskeley Mono" font-size="14.6667" font-weight="400" font-style="normal">
            <polyline fill="none" vector-effect="non-scaling-stroke" points="840.0,0.0 840.0,695.212"/>
        </g>
        

    </g>
</g>

</svg>
