<?xml version="1.0" encoding="utf-8" standalone="no"?>
<!DOCTYPE svg PUBLIC "-//W3C//DTD SVG 1.1//EN"
  "http://www.w3.org/Graphics/SVG/1.1/DTD/svg11.dtd">
<svg xmlns:xlink="http://www.w3.org/1999/xlink" width="576pt" height="432pt" viewBox="0 0 576 432" xmlns="http://www.w3.org/2000/svg" version="1.1">
 <metadata>
  <rdf:RDF xmlns:dc="http://purl.org/dc/elements/1.1/" xmlns:cc="http://creativecommons.org/ns#" xmlns:rdf="http://www.w3.org/1999/02/22-rdf-syntax-ns#">
   <cc:Work>
    <dc:type rdf:resource="http://purl.org/dc/dcmitype/StillImage"/>
    <dc:date>2025-12-03T21:07:39.075164</dc:date>
    <dc:format>image/svg+xml</dc:format>
    <dc:creator>
     <cc:Agent>
      <dc:title>Matplotlib v3.6.3, https://matplotlib.org/</dc:title>
     </cc:Agent>
    </dc:creator>
   </cc:Work>
  </rdf:RDF>
 </metadata>
 <defs>
  <style type="text/css">*{stroke-linejoin: round; stroke-linecap: butt}</style>
 </defs>
 <g id="figure_1">
  <g id="patch_1">
   <path d="M 0 432 
L 576 432 
L 576 0 
L 0 0 
z
" style="fill: #ffffff"/>
  </g>
  <g id="axes_1">
   <g id="patch_2">
    <path d="M 46.65125 386.2375 
L 565.2 386.2375 
L 565.2 14.4 
L 46.65125 14.4 
z
" style="fill: #ffffff"/>
   </g>
   <g id="matplotlib.axis_1">
    <g id="xtick_1">
     <g id="line2d_1">
      <path d="M 98.506125 386.2375 
L 98.506125 14.4 
" clip-path="url(#pe39ca1fe64)" style="fill: none; stroke-dasharray: 1.85,0.8; stroke-dashoffset: 0; stroke: #808080; stroke-opacity: 0.5; stroke-width: 0.5"/>
     </g>
     <g id="line2d_2">
      <defs>
       <path id="ma77fd3c568" d="M 0 0 
L 0 3.5 
" style="stroke: #000000; stroke-width: 0.8"/>
      </defs>
      <g>
       <use xlink:href="#ma77fd3c568" x="98.506125" y="386.2375" style="stroke: #000000; stroke-width: 0.8"/>
      </g>
     </g>
     <g id="text_1">
      <!-- 3 -->
      <g transform="translate(95.506125 400.6375) scale(0.1 -0.1)">
       <defs>
        <path id="Ioskeley-Mono-33" d="M 1939 -51 
Q 1766 -51 1593 -28 
Q 1421 -6 1261 58 
Q 1101 122 960 227 
Q 819 333 723 477 
Q 627 621 579 787 
Q 531 954 531 1126 
L 531 1152 
L 1062 1152 
L 1062 1139 
Q 1062 979 1132 828 
Q 1203 678 1331 585 
Q 1459 493 1619 457 
Q 1779 422 1939 422 
Q 2118 422 2291 476 
Q 2464 531 2589 662 
Q 2714 794 2765 966 
Q 2816 1139 2816 1318 
Q 2816 1440 2797 1558 
Q 2778 1677 2720 1782 
Q 2662 1888 2576 1971 
Q 2490 2054 2381 2105 
Q 2272 2157 2157 2176 
Q 2042 2195 1920 2195 
L 1235 2195 
L 1235 2662 
L 2586 3949 
L 544 3949 
L 544 4416 
L 3226 4416 
L 3226 3949 
L 1875 2662 
L 1920 2662 
Q 2106 2662 2291 2633 
Q 2477 2605 2646 2528 
Q 2816 2451 2957 2326 
Q 3098 2202 3187 2038 
Q 3277 1875 3312 1689 
Q 3347 1504 3347 1318 
Q 3347 1133 3312 947 
Q 3277 762 3190 598 
Q 3104 435 2966 304 
Q 2829 173 2662 93 
Q 2496 13 2310 -19 
Q 2125 -51 1939 -51 
z
" transform="scale(0.015625)"/>
       </defs>
       <use xlink:href="#Ioskeley-Mono-33"/>
      </g>
     </g>
    </g>
    <g id="xtick_2">
     <g id="line2d_3">
      <path d="M 202.215875 386.2375 
L 202.215875 14.4 
" clip-path="url(#pe39ca1fe64)" style="fill: none; stroke-dasharray: 1.85,0.8; stroke-dashoffset: 0; stroke: #808080; stroke-opacity: 0.5; stroke-width: 0.5"/>
     </g>
     <g id="line2d_4">
      <g>
       <use xlink:href="#ma77fd3c568" x="202.215875" y="386.2375" style="stroke: #000000; stroke-width: 0.8"/>
      </g>
     </g>
     <g id="text_2">
      <!-- 4 -->
      <g transform="translate(199.215875 400.6375) scale(0.1 -0.1)">
       <defs>
        <path id="Ioskeley-Mono-34" d="M 2374 0 
L 2374 928 
L 493 928 
L 493 1395 
L 2330 4416 
L 2906 4416 
L 1069 1395 
L 2374 1395 
L 2374 2528 
L 2886 2528 
L 2886 1395 
L 3296 1395 
L 3296 928 
L 2886 928 
L 2886 0 
L 2374 0 
z
" transform="scale(0.015625)"/>
       </defs>
       <use xlink:href="#Ioskeley-Mono-34"/>
      </g>
     </g>
    </g>
    <g id="xtick_3">
     <g id="line2d_5">
      <path d="M 305.925625 386.2375 
L 305.925625 14.4 
" clip-path="url(#pe39ca1fe64)" style="fill: none; stroke-dasharray: 1.85,0.8; stroke-dashoffset: 0; stroke: #808080; stroke-opacity: 0.5; stroke-width: 0.5"/>
     </g>
     <g id="line2d_6">
      <g>
       <use xlink:href="#ma77fd3c568" x="305.925625" y="386.2375" style="stroke: #000000; stroke-width: 0.8"/>
      </g>
     </g>
     <g id="text_3">
      <!-- 5 -->
      <g transform="translate(302.925625 400.6375) scale(0.1 -0.1)">
       <defs>
        <path id="Ioskeley-Mono-35" d="M 1939 -51 
Q 1779 -51 1619 -32 
Q 1459 -13 1305 41 
Q 1152 96 1017 185 
Q 883 275 780 400 
Q 678 525 617 675 
Q 557 826 538 986 
L 1075 986 
Q 1107 845 1190 729 
Q 1274 614 1395 544 
Q 1517 474 1657 448 
Q 1798 422 1939 422 
Q 2118 422 2291 473 
Q 2464 525 2589 653 
Q 2714 781 2765 953 
Q 2816 1126 2816 1306 
Q 2816 1421 2797 1539 
Q 2778 1658 2720 1760 
Q 2662 1862 2572 1942 
Q 2483 2022 2377 2073 
Q 2272 2125 2153 2141 
Q 2035 2157 1920 2157 
L 678 2157 
L 717 2630 
L 870 4416 
L 3162 4416 
L 3162 3949 
L 1357 3949 
L 1248 2630 
L 1920 2630 
Q 2106 2630 2288 2601 
Q 2470 2573 2640 2499 
Q 2810 2426 2950 2301 
Q 3091 2176 3184 2016 
Q 3277 1856 3312 1673 
Q 3347 1491 3347 1306 
Q 3347 1120 3312 934 
Q 3277 749 3187 585 
Q 3098 422 2963 294 
Q 2829 166 2659 86 
Q 2490 6 2307 -22 
Q 2125 -51 1939 -51 
z
" transform="scale(0.015625)"/>
       </defs>
       <use xlink:href="#Ioskeley-Mono-35"/>
      </g>
     </g>
    </g>
    <g id="xtick_4">
     <g id="line2d_7">
      <path d="M 409.635375 386.2375 
L 409.635375 14.4 
" clip-path="url(#pe39ca1fe64)" style="fill: none; stroke-dasharray: 1.85,0.8; stroke-dashoffset: 0; stroke: #808080; stroke-opacity: 0.5; stroke-width: 0.5"/>
     </g>
     <g id="line2d_8">
      <g>
       <use xlink:href="#ma77fd3c568" x="409.635375" y="386.2375" style="stroke: #000000; stroke-width: 0.8"/>
      </g>
     </g>
     <g id="text_4">
      <!-- 6 -->
      <g transform="translate(406.635375 400.6375) scale(0.1 -0.1)">
       <defs>
        <path id="Ioskeley-Mono-36" d="M 1920 -51 
Q 1734 -51 1545 -19 
Q 1357 13 1187 93 
Q 1018 173 877 304 
Q 736 435 649 601 
Q 563 768 528 957 
Q 493 1146 493 1331 
Q 493 1600 525 1862 
Q 557 2125 611 2387 
Q 666 2650 758 2899 
Q 851 3149 1001 3369 
Q 1152 3590 1344 3776 
Q 1536 3962 1760 4102 
Q 1984 4243 2237 4336 
Q 2490 4429 2752 4467 
L 2835 4000 
Q 2618 3962 2410 3878 
Q 2202 3795 2019 3673 
Q 1837 3552 1680 3389 
Q 1523 3226 1408 3037 
Q 1293 2848 1225 2637 
Q 1158 2426 1120 2208 
Q 1197 2330 1309 2432 
Q 1421 2534 1552 2598 
Q 1683 2662 1830 2688 
Q 1978 2714 2125 2714 
Q 2304 2714 2477 2675 
Q 2650 2637 2797 2547 
Q 2944 2458 3056 2317 
Q 3168 2176 3232 2016 
Q 3296 1856 3321 1680 
Q 3347 1504 3347 1331 
Q 3347 1146 3312 957 
Q 3277 768 3190 601 
Q 3104 435 2963 304 
Q 2822 173 2652 93 
Q 2483 13 2294 -19 
Q 2106 -51 1920 -51 
z
M 1920 422 
Q 2099 422 2278 476 
Q 2458 531 2586 662 
Q 2714 794 2765 973 
Q 2816 1152 2816 1331 
Q 2816 1517 2765 1693 
Q 2714 1869 2586 2000 
Q 2458 2131 2278 2188 
Q 2099 2246 1920 2246 
Q 1760 2246 1603 2204 
Q 1446 2163 1324 2064 
Q 1203 1965 1126 1821 
Q 1050 1677 1030 1523 
Q 1024 1472 1024 1427 
Q 1024 1382 1024 1331 
Q 1024 1152 1075 973 
Q 1126 794 1254 662 
Q 1382 531 1561 476 
Q 1741 422 1920 422 
z
" transform="scale(0.015625)"/>
       </defs>
       <use xlink:href="#Ioskeley-Mono-36"/>
      </g>
     </g>
    </g>
    <g id="xtick_5">
     <g id="line2d_9">
      <path d="M 513.345125 386.2375 
L 513.345125 14.4 
" clip-path="url(#pe39ca1fe64)" style="fill: none; stroke-dasharray: 1.85,0.8; stroke-dashoffset: 0; stroke: #808080; stroke-opacity: 0.5; stroke-width: 0.5"/>
     </g>
     <g id="line2d_10">
      <g>
       <use xlink:href="#ma77fd3c568" x="513.345125" y="386.2375" style="stroke: #000000; stroke-width: 0.8"/>
      </g>
     </g>
     <g id="text_5">
      <!-- 7 -->
      <g transform="translate(510.345125 400.6375) scale(0.1 -0.1)">
       <defs>
        <path id="Ioskeley-Mono-37" d="M 1152 0 
L 2733 3949 
L 544 3949 
L 544 4416 
L 3296 4416 
L 3296 3949 
L 1709 0 
L 1152 0 
z
" transform="scale(0.015625)"/>
       </defs>
       <use xlink:href="#Ioskeley-Mono-37"/>
      </g>
     </g>
    </g>
    <g id="text_6">
     <!-- Čas [μs] -->
     <g transform="translate(277.125625 418.333125) scale(0.12 -0.12)">
      <defs>
       <path id="Ioskeley-Mono-10c" d="M 1933 -51 
Q 1805 -51 1680 -41 
Q 1555 -32 1433 -9 
Q 1312 13 1193 54 
Q 1075 96 966 157 
Q 858 218 765 304 
Q 672 390 608 496 
Q 544 602 518 726 
Q 493 851 493 973 
L 493 3443 
Q 493 3565 518 3689 
Q 544 3814 608 3920 
Q 672 4026 765 4112 
Q 858 4198 966 4259 
Q 1075 4320 1193 4361 
Q 1312 4403 1433 4425 
Q 1555 4448 1680 4457 
Q 1805 4467 1933 4467 
Q 2291 4467 2640 4374 
Q 2989 4282 3296 4096 
L 3296 3264 
L 2816 3264 
L 2816 3802 
Q 2611 3898 2384 3946 
Q 2157 3994 1933 3994 
Q 1830 3994 1731 3987 
Q 1632 3981 1536 3958 
Q 1440 3936 1347 3897 
Q 1254 3859 1180 3792 
Q 1107 3725 1065 3635 
Q 1024 3546 1024 3443 
L 1024 973 
Q 1024 870 1065 780 
Q 1107 691 1180 624 
Q 1254 557 1347 518 
Q 1440 480 1536 457 
Q 1632 435 1731 428 
Q 1830 422 1933 422 
Q 2157 422 2384 470 
Q 2611 518 2816 614 
L 2816 1152 
L 3296 1152 
L 3296 320 
Q 2989 134 2640 41 
Q 2291 -51 1933 -51 
z
M 1606 4902 
L 1037 5933 
L 1402 6131 
L 1920 5363 
L 2438 6131 
L 2803 5933 
L 2234 4902 
L 1606 4902 
z
" transform="scale(0.015625)"/>
       <path id="Ioskeley-Mono-61" d="M 1690 -51 
Q 1549 -51 1405 -35 
Q 1261 -19 1126 25 
Q 992 70 870 150 
Q 749 230 659 342 
Q 570 454 531 595 
Q 493 736 493 877 
Q 493 1056 550 1229 
Q 608 1402 733 1533 
Q 858 1664 1018 1747 
Q 1178 1830 1350 1878 
Q 1523 1926 1702 1945 
Q 1882 1965 2054 1965 
L 2771 1965 
L 2771 2509 
Q 2771 2592 2720 2665 
Q 2669 2739 2592 2784 
Q 2515 2829 2432 2851 
Q 2349 2874 2262 2890 
Q 2176 2906 2089 2909 
Q 2003 2912 1914 2912 
Q 1824 2912 1731 2905 
Q 1638 2899 1548 2880 
Q 1459 2861 1372 2825 
Q 1286 2790 1216 2732 
Q 1146 2675 1101 2592 
Q 1056 2509 1056 2419 
L 1056 2400 
L 531 2400 
L 531 2445 
Q 531 2598 592 2745 
Q 653 2893 761 3005 
Q 870 3117 1008 3190 
Q 1146 3264 1296 3305 
Q 1446 3347 1603 3363 
Q 1760 3379 1914 3379 
Q 2029 3379 2144 3372 
Q 2259 3366 2371 3347 
Q 2483 3328 2595 3296 
Q 2707 3264 2809 3216 
Q 2912 3168 3005 3097 
Q 3098 3027 3165 2934 
Q 3232 2842 3264 2730 
Q 3296 2618 3296 2509 
L 3296 0 
L 2771 0 
L 2771 429 
Q 2694 294 2569 198 
Q 2445 102 2301 44 
Q 2157 -13 2000 -32 
Q 1843 -51 1690 -51 
z
M 1894 416 
Q 1990 416 2083 422 
Q 2176 429 2265 448 
Q 2355 467 2444 499 
Q 2534 531 2608 585 
Q 2682 640 2726 726 
Q 2771 813 2771 902 
L 2771 1498 
L 2061 1498 
Q 1946 1498 1837 1491 
Q 1728 1485 1619 1462 
Q 1510 1440 1408 1405 
Q 1306 1370 1216 1306 
Q 1126 1242 1072 1142 
Q 1018 1043 1018 934 
Q 1018 838 1059 748 
Q 1101 659 1174 601 
Q 1248 544 1337 505 
Q 1427 467 1520 448 
Q 1613 429 1705 422 
Q 1798 416 1894 416 
z
" transform="scale(0.015625)"/>
       <path id="Ioskeley-Mono-73" d="M 1914 -51 
Q 1760 -51 1606 -38 
Q 1453 -26 1305 12 
Q 1158 51 1020 118 
Q 883 186 771 291 
Q 659 397 595 541 
Q 531 685 531 838 
L 531 864 
L 1056 864 
L 1056 858 
Q 1056 768 1107 691 
Q 1158 614 1232 566 
Q 1306 518 1389 489 
Q 1472 461 1558 445 
Q 1645 429 1734 422 
Q 1824 416 1914 416 
Q 2003 416 2092 422 
Q 2182 429 2272 445 
Q 2362 461 2445 493 
Q 2528 525 2601 576 
Q 2675 627 2723 707 
Q 2771 787 2771 877 
Q 2771 979 2710 1068 
Q 2650 1158 2563 1212 
Q 2477 1267 2374 1299 
Q 2272 1331 2173 1356 
Q 2074 1382 1971 1408 
Q 1869 1434 1769 1462 
Q 1670 1491 1571 1520 
Q 1472 1549 1373 1587 
Q 1274 1626 1181 1670 
Q 1088 1715 1001 1772 
Q 915 1830 838 1904 
Q 762 1978 707 2064 
Q 653 2150 624 2252 
Q 595 2355 595 2458 
Q 595 2605 652 2749 
Q 710 2893 812 3005 
Q 915 3117 1049 3190 
Q 1184 3264 1328 3305 
Q 1472 3347 1622 3363 
Q 1773 3379 1926 3379 
Q 2074 3379 2224 3366 
Q 2374 3354 2518 3312 
Q 2662 3270 2796 3203 
Q 2931 3136 3033 3030 
Q 3136 2925 3197 2784 
Q 3258 2643 3258 2496 
L 3258 2464 
L 2733 2464 
L 2733 2477 
Q 2733 2560 2688 2633 
Q 2643 2707 2576 2758 
Q 2509 2810 2429 2838 
Q 2349 2867 2265 2883 
Q 2182 2899 2096 2905 
Q 2010 2912 1926 2912 
Q 1843 2912 1756 2905 
Q 1670 2899 1584 2883 
Q 1498 2867 1418 2835 
Q 1338 2803 1270 2748 
Q 1203 2694 1161 2617 
Q 1120 2541 1120 2458 
Q 1120 2349 1181 2259 
Q 1242 2170 1328 2115 
Q 1414 2061 1513 2029 
Q 1613 1997 1715 1971 
Q 1818 1946 1917 1920 
Q 2016 1894 2118 1868 
Q 2221 1843 2320 1811 
Q 2419 1779 2515 1740 
Q 2611 1702 2707 1657 
Q 2803 1613 2889 1555 
Q 2976 1498 3049 1427 
Q 3123 1357 3180 1267 
Q 3238 1178 3267 1078 
Q 3296 979 3296 870 
Q 3296 717 3235 573 
Q 3174 429 3065 317 
Q 2957 205 2816 134 
Q 2675 64 2528 22 
Q 2381 -19 2224 -35 
Q 2067 -51 1914 -51 
z
" transform="scale(0.015625)"/>
       <path id="Ioskeley-Mono-20" transform="scale(0.015625)"/>
       <path id="Ioskeley-Mono-5b" d="M 986 -576 
L 986 4928 
L 3021 4928 
L 3021 4461 
L 1517 4461 
L 1517 -102 
L 3021 -102 
L 3021 -576 
L 986 -576 
z
" transform="scale(0.015625)"/>
       <path id="Ioskeley-Mono-3bc" d="M 544 -1408 
L 544 3328 
L 1075 3328 
L 1075 1005 
Q 1075 909 1107 816 
Q 1139 723 1203 652 
Q 1267 582 1356 537 
Q 1446 493 1539 464 
Q 1632 435 1728 428 
Q 1824 422 1920 422 
Q 2016 422 2112 428 
Q 2208 435 2301 464 
Q 2394 493 2483 537 
Q 2573 582 2637 652 
Q 2701 723 2733 816 
Q 2765 909 2765 1005 
L 2765 3328 
L 3296 3328 
L 3296 627 
Q 3296 589 3309 547 
Q 3322 506 3350 474 
Q 3379 442 3420 432 
Q 3462 422 3507 422 
L 3654 422 
L 3654 -51 
L 3507 -51 
Q 3379 -51 3254 -25 
Q 3130 0 3027 73 
Q 2925 147 2857 256 
Q 2790 365 2771 486 
Q 2701 346 2585 237 
Q 2470 128 2326 64 
Q 2182 0 2025 -25 
Q 1869 -51 1715 -51 
Q 1542 -51 1369 -19 
Q 1197 13 1043 90 
Q 1056 -109 1065 -307 
Q 1075 -506 1075 -704 
L 1075 -1408 
L 544 -1408 
z
" transform="scale(0.015625)"/>
       <path id="Ioskeley-Mono-5d" d="M 819 -576 
L 819 -102 
L 2323 -102 
L 2323 4461 
L 819 4461 
L 819 4928 
L 2854 4928 
L 2854 -576 
L 819 -576 
z
" transform="scale(0.015625)"/>
      </defs>
      <use xlink:href="#Ioskeley-Mono-10c"/>
      <use xlink:href="#Ioskeley-Mono-61" x="59.999985"/>
      <use xlink:href="#Ioskeley-Mono-73" x="119.999969"/>
      <use xlink:href="#Ioskeley-Mono-20" x="179.999954"/>
      <use xlink:href="#Ioskeley-Mono-5b" x="239.999939"/>
      <use xlink:href="#Ioskeley-Mono-3bc" x="299.999924"/>
      <use xlink:href="#Ioskeley-Mono-73" x="359.999908"/>
      <use xlink:href="#Ioskeley-Mono-5d" x="419.999893"/>
     </g>
    </g>
   </g>
   <g id="matplotlib.axis_2">
    <g id="ytick_1">
     <g id="line2d_11">
      <path d="M 46.65125 386.2375 
L 565.2 386.2375 
" clip-path="url(#pe39ca1fe64)" style="fill: none; stroke-dasharray: 1.85,0.8; stroke-dashoffset: 0; stroke: #808080; stroke-opacity: 0.5; stroke-width: 0.5"/>
     </g>
     <g id="line2d_12">
      <defs>
       <path id="ma5a1975430" d="M 0 0 
L -3.5 0 
" style="stroke: #000000; stroke-width: 0.8"/>
      </defs>
      <g>
       <use xlink:href="#ma5a1975430" x="46.65125" y="386.2375" style="stroke: #000000; stroke-width: 0.8"/>
      </g>
     </g>
     <g id="text_7">
      <!-- −3 -->
      <g transform="translate(27.65125 389.9375) scale(0.1 -0.1)">
       <defs>
        <path id="Ioskeley-Mono-2212" d="M 544 1952 
L 544 2400 
L 3296 2400 
L 3296 1952 
L 544 1952 
z
" transform="scale(0.015625)"/>
       </defs>
       <use xlink:href="#Ioskeley-Mono-2212"/>
       <use xlink:href="#Ioskeley-Mono-33" x="59.999985"/>
      </g>
     </g>
    </g>
    <g id="ytick_2">
     <g id="line2d_13">
      <path d="M 46.65125 324.264583 
L 565.2 324.264583 
" clip-path="url(#pe39ca1fe64)" style="fill: none; stroke-dasharray: 1.85,0.8; stroke-dashoffset: 0; stroke: #808080; stroke-opacity: 0.5; stroke-width: 0.5"/>
     </g>
     <g id="line2d_14">
      <g>
       <use xlink:href="#ma5a1975430" x="46.65125" y="324.264583" style="stroke: #000000; stroke-width: 0.8"/>
      </g>
     </g>
     <g id="text_8">
      <!-- −2 -->
      <g transform="translate(27.65125 327.964583) scale(0.1 -0.1)">
       <defs>
        <path id="Ioskeley-Mono-32" d="M 544 0 
L 544 474 
L 2253 2259 
Q 2253 2259 2253 2266 
L 2266 2272 
Q 2362 2374 2458 2480 
Q 2554 2586 2630 2704 
Q 2707 2822 2748 2960 
Q 2790 3098 2790 3238 
Q 2790 3398 2729 3555 
Q 2669 3712 2541 3814 
Q 2413 3917 2253 3955 
Q 2093 3994 1926 3994 
Q 1766 3994 1612 3962 
Q 1459 3930 1331 3837 
Q 1203 3744 1132 3600 
Q 1062 3456 1062 3296 
L 1062 3264 
L 531 3264 
L 531 3315 
Q 531 3488 579 3654 
Q 627 3821 723 3958 
Q 819 4096 960 4198 
Q 1101 4301 1257 4361 
Q 1414 4422 1584 4444 
Q 1754 4467 1926 4467 
Q 2106 4467 2278 4441 
Q 2451 4416 2614 4349 
Q 2778 4282 2918 4173 
Q 3059 4064 3152 3913 
Q 3245 3763 3283 3587 
Q 3322 3411 3322 3238 
Q 3322 3046 3267 2860 
Q 3213 2675 3113 2512 
Q 3014 2349 2886 2208 
Q 2758 2067 2624 1926 
L 1235 467 
L 3296 467 
L 3296 0 
L 544 0 
z
" transform="scale(0.015625)"/>
       </defs>
       <use xlink:href="#Ioskeley-Mono-2212"/>
       <use xlink:href="#Ioskeley-Mono-32" x="59.999985"/>
      </g>
     </g>
    </g>
    <g id="ytick_3">
     <g id="line2d_15">
      <path d="M 46.65125 262.291667 
L 565.2 262.291667 
" clip-path="url(#pe39ca1fe64)" style="fill: none; stroke-dasharray: 1.85,0.8; stroke-dashoffset: 0; stroke: #808080; stroke-opacity: 0.5; stroke-width: 0.5"/>
     </g>
     <g id="line2d_16">
      <g>
       <use xlink:href="#ma5a1975430" x="46.65125" y="262.291667" style="stroke: #000000; stroke-width: 0.8"/>
      </g>
     </g>
     <g id="text_9">
      <!-- −1 -->
      <g transform="translate(27.65125 265.991667) scale(0.1 -0.1)">
       <defs>
        <path id="Ioskeley-Mono-31" d="M 1850 0 
L 1850 3846 
L 986 3162 
L 685 3494 
L 1850 4416 
L 2374 4416 
L 2374 0 
L 1850 0 
z
" transform="scale(0.015625)"/>
       </defs>
       <use xlink:href="#Ioskeley-Mono-2212"/>
       <use xlink:href="#Ioskeley-Mono-31" x="59.999985"/>
      </g>
     </g>
    </g>
    <g id="ytick_4">
     <g id="line2d_17">
      <path d="M 46.65125 200.31875 
L 565.2 200.31875 
" clip-path="url(#pe39ca1fe64)" style="fill: none; stroke-dasharray: 1.85,0.8; stroke-dashoffset: 0; stroke: #808080; stroke-opacity: 0.5; stroke-width: 0.5"/>
     </g>
     <g id="line2d_18">
      <g>
       <use xlink:href="#ma5a1975430" x="46.65125" y="200.31875" style="stroke: #000000; stroke-width: 0.8"/>
      </g>
     </g>
     <g id="text_10">
      <!-- 0 -->
      <g transform="translate(33.65125 204.01875) scale(0.1 -0.1)">
       <defs>
        <path id="Ioskeley-Mono-30" d="M 1920 -51 
Q 1792 -51 1667 -41 
Q 1542 -32 1420 -6 
Q 1299 19 1180 60 
Q 1062 102 953 169 
Q 845 237 755 323 
Q 666 410 605 522 
Q 544 634 518 755 
Q 493 877 493 1005 
L 493 3411 
Q 493 3539 518 3660 
Q 544 3782 605 3894 
Q 666 4006 755 4092 
Q 845 4179 953 4246 
Q 1062 4314 1180 4355 
Q 1299 4397 1420 4422 
Q 1542 4448 1667 4457 
Q 1792 4467 1920 4467 
Q 2048 4467 2173 4457 
Q 2298 4448 2419 4422 
Q 2541 4397 2659 4355 
Q 2778 4314 2886 4246 
Q 2995 4179 3084 4092 
Q 3174 4006 3235 3894 
Q 3296 3782 3321 3660 
Q 3347 3539 3347 3411 
L 3347 1005 
Q 3347 877 3321 755 
Q 3296 634 3235 522 
Q 3174 410 3084 323 
Q 2995 237 2886 169 
Q 2778 102 2659 60 
Q 2541 19 2419 -6 
Q 2298 -32 2173 -41 
Q 2048 -51 1920 -51 
z
M 1920 422 
Q 2022 422 2121 428 
Q 2221 435 2317 460 
Q 2413 486 2505 531 
Q 2598 576 2672 646 
Q 2746 717 2781 809 
Q 2816 902 2816 1005 
L 2816 3411 
Q 2816 3514 2781 3606 
Q 2746 3699 2672 3769 
Q 2598 3840 2505 3885 
Q 2413 3930 2317 3955 
Q 2221 3981 2121 3987 
Q 2022 3994 1920 3994 
Q 1818 3994 1718 3987 
Q 1619 3981 1523 3955 
Q 1427 3930 1334 3885 
Q 1242 3840 1168 3769 
Q 1094 3699 1059 3606 
Q 1024 3514 1024 3411 
L 1024 1005 
Q 1024 902 1059 809 
Q 1094 717 1168 646 
Q 1242 576 1334 531 
Q 1427 486 1523 460 
Q 1619 435 1718 428 
Q 1818 422 1920 422 
z
M 1920 1811 
Q 1837 1811 1760 1833 
Q 1683 1856 1625 1913 
Q 1568 1971 1545 2048 
Q 1523 2125 1523 2208 
Q 1523 2291 1545 2368 
Q 1568 2445 1625 2502 
Q 1683 2560 1760 2582 
Q 1837 2605 1920 2605 
Q 2003 2605 2080 2582 
Q 2157 2560 2214 2502 
Q 2272 2445 2297 2368 
Q 2323 2291 2323 2208 
Q 2323 2125 2297 2048 
Q 2272 1971 2214 1913 
Q 2157 1856 2080 1833 
Q 2003 1811 1920 1811 
z
" transform="scale(0.015625)"/>
       </defs>
       <use xlink:href="#Ioskeley-Mono-30"/>
      </g>
     </g>
    </g>
    <g id="ytick_5">
     <g id="line2d_19">
      <path d="M 46.65125 138.345833 
L 565.2 138.345833 
" clip-path="url(#pe39ca1fe64)" style="fill: none; stroke-dasharray: 1.85,0.8; stroke-dashoffset: 0; stroke: #808080; stroke-opacity: 0.5; stroke-width: 0.5"/>
     </g>
     <g id="line2d_20">
      <g>
       <use xlink:href="#ma5a1975430" x="46.65125" y="138.345833" style="stroke: #000000; stroke-width: 0.8"/>
      </g>
     </g>
     <g id="text_11">
      <!-- 1 -->
      <g transform="translate(33.65125 142.045833) scale(0.1 -0.1)">
       <use xlink:href="#Ioskeley-Mono-31"/>
      </g>
     </g>
    </g>
    <g id="ytick_6">
     <g id="line2d_21">
      <path d="M 46.65125 76.372917 
L 565.2 76.372917 
" clip-path="url(#pe39ca1fe64)" style="fill: none; stroke-dasharray: 1.85,0.8; stroke-dashoffset: 0; stroke: #808080; stroke-opacity: 0.5; stroke-width: 0.5"/>
     </g>
     <g id="line2d_22">
      <g>
       <use xlink:href="#ma5a1975430" x="46.65125" y="76.372917" style="stroke: #000000; stroke-width: 0.8"/>
      </g>
     </g>
     <g id="text_12">
      <!-- 2 -->
      <g transform="translate(33.65125 80.072917) scale(0.1 -0.1)">
       <use xlink:href="#Ioskeley-Mono-32"/>
      </g>
     </g>
    </g>
    <g id="ytick_7">
     <g id="line2d_23">
      <path d="M 46.65125 14.4 
L 565.2 14.4 
" clip-path="url(#pe39ca1fe64)" style="fill: none; stroke-dasharray: 1.85,0.8; stroke-dashoffset: 0; stroke: #808080; stroke-opacity: 0.5; stroke-width: 0.5"/>
     </g>
     <g id="line2d_24">
      <g>
       <use xlink:href="#ma5a1975430" x="46.65125" y="14.4" style="stroke: #000000; stroke-width: 0.8"/>
      </g>
     </g>
     <g id="text_13">
      <!-- 3 -->
      <g transform="translate(33.65125 18.1) scale(0.1 -0.1)">
       <use xlink:href="#Ioskeley-Mono-33"/>
      </g>
     </g>
    </g>
    <g id="text_14">
     <!-- Napětí [V] -->
     <g transform="translate(21.01125 236.31875) rotate(-90) scale(0.12 -0.12)">
      <defs>
       <path id="Ioskeley-Mono-4e" d="M 544 0 
L 544 4416 
L 1203 4416 
L 2829 704 
Q 2810 1190 2787 1676 
Q 2765 2163 2765 2650 
L 2765 4416 
L 3296 4416 
L 3296 0 
L 2637 0 
L 1011 3712 
Q 1030 3226 1052 2739 
Q 1075 2253 1075 1766 
L 1075 0 
L 544 0 
z
" transform="scale(0.015625)"/>
       <path id="Ioskeley-Mono-70" d="M 544 -1408 
L 544 3328 
L 1075 3328 
L 1075 2848 
Q 1146 2989 1267 3097 
Q 1389 3206 1533 3270 
Q 1677 3334 1837 3356 
Q 1997 3379 2150 3379 
Q 2304 3379 2454 3356 
Q 2605 3334 2745 3276 
Q 2886 3219 3004 3123 
Q 3123 3027 3203 2899 
Q 3283 2771 3315 2624 
Q 3347 2477 3347 2323 
L 3347 1005 
Q 3347 851 3315 704 
Q 3283 557 3203 429 
Q 3123 301 3004 205 
Q 2886 109 2745 51 
Q 2605 -6 2454 -28 
Q 2304 -51 2150 -51 
Q 1997 -51 1837 -28 
Q 1677 -6 1533 58 
Q 1389 122 1267 230 
Q 1146 339 1075 480 
L 1075 -1408 
L 544 -1408 
z
M 1946 422 
Q 2042 422 2141 428 
Q 2240 435 2336 460 
Q 2432 486 2521 531 
Q 2611 576 2678 646 
Q 2746 717 2781 813 
Q 2816 909 2816 1005 
L 2816 2323 
Q 2816 2419 2781 2515 
Q 2746 2611 2678 2681 
Q 2611 2752 2521 2797 
Q 2432 2842 2336 2867 
Q 2240 2893 2141 2899 
Q 2042 2906 1946 2906 
Q 1850 2906 1750 2899 
Q 1651 2893 1555 2867 
Q 1459 2842 1369 2797 
Q 1280 2752 1213 2681 
Q 1146 2611 1110 2515 
Q 1075 2419 1075 2323 
L 1075 1005 
Q 1075 909 1110 813 
Q 1146 717 1213 646 
Q 1280 576 1369 531 
Q 1459 486 1555 460 
Q 1651 435 1750 428 
Q 1850 422 1946 422 
z
" transform="scale(0.015625)"/>
       <path id="Ioskeley-Mono-11b" d="M 1914 -51 
Q 1786 -51 1661 -41 
Q 1536 -32 1414 -6 
Q 1293 19 1174 60 
Q 1056 102 950 169 
Q 845 237 755 326 
Q 666 416 605 525 
Q 544 634 518 755 
Q 493 877 493 1005 
L 493 2323 
Q 493 2451 518 2572 
Q 544 2694 605 2806 
Q 666 2918 755 3004 
Q 845 3091 953 3158 
Q 1062 3226 1180 3267 
Q 1299 3309 1420 3334 
Q 1542 3360 1667 3369 
Q 1792 3379 1920 3379 
Q 2048 3379 2173 3369 
Q 2298 3360 2419 3334 
Q 2541 3309 2659 3267 
Q 2778 3226 2886 3158 
Q 2995 3091 3084 3004 
Q 3174 2918 3235 2806 
Q 3296 2694 3321 2572 
Q 3347 2451 3347 2323 
L 3347 1434 
L 1018 1434 
L 1018 1005 
Q 1018 902 1053 806 
Q 1088 710 1161 640 
Q 1235 570 1324 525 
Q 1414 480 1513 457 
Q 1613 435 1712 425 
Q 1811 416 1914 416 
Q 2010 416 2106 422 
Q 2202 429 2294 448 
Q 2387 467 2473 502 
Q 2560 538 2637 595 
Q 2714 653 2762 736 
Q 2810 819 2810 915 
L 2810 928 
L 3334 928 
L 3334 896 
Q 3334 742 3270 592 
Q 3206 442 3094 326 
Q 2982 211 2841 137 
Q 2701 64 2547 22 
Q 2394 -19 2234 -35 
Q 2074 -51 1914 -51 
z
M 1018 1894 
L 2822 1894 
L 2822 2323 
Q 2822 2426 2787 2522 
Q 2752 2618 2678 2688 
Q 2605 2758 2512 2803 
Q 2419 2848 2320 2870 
Q 2221 2893 2121 2902 
Q 2022 2912 1920 2912 
Q 1818 2912 1718 2902 
Q 1619 2893 1520 2870 
Q 1421 2848 1328 2803 
Q 1235 2758 1161 2688 
Q 1088 2618 1053 2522 
Q 1018 2426 1018 2323 
L 1018 1894 
z
M 1606 3814 
L 1037 4845 
L 1402 5043 
L 1920 4275 
L 2438 5043 
L 2803 4845 
L 2234 3814 
L 1606 3814 
z
" transform="scale(0.015625)"/>
       <path id="Ioskeley-Mono-74" d="M 3296 0 
L 2579 0 
Q 2438 0 2294 25 
Q 2150 51 2019 115 
Q 1888 179 1782 281 
Q 1677 384 1613 515 
Q 1549 646 1526 790 
Q 1504 934 1504 1082 
L 1504 2854 
L 544 2854 
L 544 3328 
L 1504 3328 
L 1504 4326 
L 2029 4326 
L 2029 3328 
L 3296 3328 
L 3296 2861 
L 2029 2861 
L 2029 1082 
Q 2029 960 2057 845 
Q 2086 730 2163 640 
Q 2240 550 2352 512 
Q 2464 474 2579 474 
L 3296 474 
L 3296 0 
z
" transform="scale(0.015625)"/>
       <path id="Ioskeley-Mono-ed" d="M 634 0 
L 634 474 
L 1709 474 
L 1709 2861 
L 736 2861 
L 736 3328 
L 2234 3328 
L 2234 474 
L 3206 474 
L 3206 0 
L 634 0 
z
M 1901 3699 
L 1542 3930 
L 2253 4992 
L 2682 4710 
L 1901 3699 
z
" transform="scale(0.015625)"/>
       <path id="Ioskeley-Mono-56" d="M 1613 0 
L 1408 736 
L 371 4416 
L 928 4416 
L 1709 1472 
Q 1760 1267 1814 1059 
Q 1869 851 1920 646 
Q 1971 851 2025 1059 
Q 2080 1267 2131 1472 
L 2912 4416 
L 3469 4416 
L 2227 0 
L 1613 0 
z
" transform="scale(0.015625)"/>
      </defs>
      <use xlink:href="#Ioskeley-Mono-4e"/>
      <use xlink:href="#Ioskeley-Mono-61" x="59.999985"/>
      <use xlink:href="#Ioskeley-Mono-70" x="119.999969"/>
      <use xlink:href="#Ioskeley-Mono-11b" x="179.999954"/>
      <use xlink:href="#Ioskeley-Mono-74" x="239.999939"/>
      <use xlink:href="#Ioskeley-Mono-ed" x="299.999924"/>
      <use xlink:href="#Ioskeley-Mono-20" x="359.999908"/>
      <use xlink:href="#Ioskeley-Mono-5b" x="419.999893"/>
      <use xlink:href="#Ioskeley-Mono-56" x="479.999878"/>
      <use xlink:href="#Ioskeley-Mono-5d" x="539.999863"/>
     </g>
    </g>
   </g>
   <g id="line2d_25">
    <path d="M 46.65125 200.31875 
L 565.2 200.31875 
" clip-path="url(#pe39ca1fe64)" style="fill: none; stroke: #000000; stroke-width: 0.8; stroke-linecap: square"/>
   </g>
   <g id="line2d_26">
    <path d="M 46.65125 354.949322 
L 52.880064 355.203851 
L 59.108878 355.23784 
L 65.337691 355.051238 
L 71.566505 354.644314 
L 77.795319 354.017645 
L 84.024133 353.172124 
L 90.252947 352.108954 
L 96.481761 350.829651 
L 102.710574 349.336035 
L 109.458456 347.47858 
L 116.206338 345.375209 
L 122.954219 343.029439 
L 129.702101 340.44519 
L 136.449982 337.626779 
L 143.197864 334.578916 
L 150.464814 331.045848 
L 157.731763 327.259429 
L 164.998712 323.226999 
L 172.78473 318.642429 
L 180.570747 313.794625 
L 188.356764 308.694371 
L 196.661849 302.98864 
L 205.486002 296.641898 
L 214.310155 290.019928 
L 223.653376 282.72948 
L 233.515664 274.748098 
L 243.897021 266.060218 
L 255.316513 256.204638 
L 267.77414 245.149805 
L 281.788971 232.41121 
L 299.437277 216.052557 
L 357.053805 162.387678 
L 371.068636 149.785004 
L 383.526264 138.885522 
L 394.426688 129.633326 
L 404.808044 121.107629 
L 414.670333 113.297846 
L 424.013554 106.185154 
L 432.837706 99.744111 
L 441.142792 93.944152 
L 449.447877 88.413442 
L 457.233894 83.485394 
L 465.019911 78.817265 
L 472.805928 74.419439 
L 480.072878 70.567317 
L 487.339827 66.966653 
L 494.606777 63.624426 
L 501.354658 60.758005 
L 508.10254 58.124801 
L 514.850422 55.729213 
L 521.598303 53.575244 
L 528.346185 51.666494 
L 534.574999 50.124987 
L 540.803813 48.79734 
L 547.032626 47.685445 
L 553.26144 46.790884 
L 559.490254 46.114932 
L 565.2 45.688178 
L 565.2 45.688178 
" clip-path="url(#pe39ca1fe64)" style="fill: none; stroke: #d47f7f; stroke-width: 0.7; stroke-linecap: square"/>
   </g>
   <g id="line2d_27">
    <path d="M 46.65125 355.227656 
L 52.880064 355.015814 
L 59.108878 354.583698 
L 65.337691 353.931924 
L 71.566505 353.06142 
L 77.795319 351.973426 
L 84.024133 350.66949 
L 90.252947 349.15147 
L 97.000828 347.267874 
L 103.74871 345.138716 
L 110.496592 342.767553 
L 117.244473 340.158348 
L 123.992355 337.315461 
L 130.740236 334.243643 
L 138.007186 330.685403 
L 145.274135 326.874513 
L 152.541085 322.818357 
L 160.327102 318.209246 
L 168.113119 313.337864 
L 176.418204 307.864864 
L 184.72329 302.11965 
L 193.547442 295.73337 
L 202.371595 289.074457 
L 211.714816 281.747841 
L 221.577105 273.731693 
L 231.958461 265.01114 
L 243.377953 255.124416 
L 255.835581 244.041506 
L 270.369479 230.801327 
L 288.536853 213.931173 
L 340.962703 165.051288 
L 355.496602 151.921023 
L 367.954229 140.961197 
L 379.373721 131.210085 
L 389.755078 122.631171 
L 399.617366 114.765247 
L 408.960587 107.594535 
L 417.78474 101.094547 
L 426.608893 94.878077 
L 434.913978 89.302194 
L 442.699995 84.32975 
L 450.486012 79.615346 
L 458.27203 75.169471 
L 465.538979 71.270994 
L 472.805928 67.622612 
L 480.072878 64.231396 
L 486.82076 61.318431 
L 493.568641 58.637745 
L 500.316523 56.193818 
L 507.064404 53.990734 
L 513.812286 52.032174 
L 520.560168 50.321412 
L 526.788981 48.964665 
L 533.017795 47.823431 
L 539.246609 46.899336 
L 545.475423 46.193694 
L 551.704237 45.707511 
L 557.933051 45.44148 
L 564.161864 45.395978 
L 565.2 45.409844 
L 565.2 45.409844 
" clip-path="url(#pe39ca1fe64)" style="fill: none; stroke: #d47f7f; stroke-width: 0.7; stroke-linecap: square"/>
   </g>
   <g id="line2d_28">
    <path d="M 46.65125 354.738152 
L 52.880064 355.103439 
L 59.108878 355.248329 
L 65.337691 355.172615 
L 71.566505 354.876404 
L 77.795319 354.360118 
L 84.024133 353.624493 
L 90.252947 352.670575 
L 96.481761 351.499724 
L 102.710574 350.113605 
L 108.939388 348.514194 
L 115.68727 346.543452 
L 122.435151 344.328358 
L 129.183033 341.872614 
L 135.930915 339.180323 
L 142.678796 336.255985 
L 149.945746 332.852802 
L 157.212695 329.192768 
L 164.479645 325.282975 
L 171.746594 321.131001 
L 179.532611 316.422862 
L 187.318629 311.456426 
L 195.623714 305.886654 
L 203.928799 300.049674 
L 212.752952 293.571639 
L 222.096172 286.422524 
L 231.439393 278.997593 
L 241.820749 270.453136 
L 252.721174 261.183589 
L 264.659733 250.728274 
L 277.636429 239.066655 
L 293.208463 224.76319 
L 315.009312 204.401988 
L 349.786856 171.920105 
L 365.35889 157.698698 
L 378.335586 146.131807 
L 390.274145 135.784269 
L 401.17457 126.629902 
L 411.036858 118.623133 
L 420.380079 111.30628 
L 429.7233 104.274561 
L 438.547452 97.915617 
L 446.852538 92.197703 
L 455.157623 86.75346 
L 462.94364 81.910295 
L 470.729657 77.330552 
L 477.996607 73.302789 
L 485.263556 69.521183 
L 492.530506 65.993063 
L 499.797455 62.725267 
L 506.545337 59.929524 
L 513.293218 57.368382 
L 520.0411 55.04612 
L 526.788981 52.966619 
L 533.536863 51.133355 
L 539.765677 49.662319 
L 545.994491 48.405803 
L 552.223305 47.365596 
L 558.452118 46.543179 
L 564.680932 45.939724 
L 565.2 45.899348 
L 565.2 45.899348 
" clip-path="url(#pe39ca1fe64)" style="fill: none; stroke: #d47f7f; stroke-width: 0.7; stroke-linecap: square"/>
   </g>
   <g id="line2d_29">
    <path d="M 46.65125 352.42211 
L 52.880064 353.425726 
L 59.108878 354.211333 
L 65.337691 354.777813 
L 71.566505 355.124358 
L 77.795319 355.250475 
L 84.024133 355.155984 
L 90.252947 354.841021 
L 96.481761 354.306034 
L 102.710574 353.551783 
L 108.939388 352.579345 
L 115.168202 351.390102 
L 121.397016 349.985749 
L 127.62583 348.368284 
L 134.373711 346.37822 
L 141.121593 344.14408 
L 147.869474 341.669597 
L 154.617356 338.958907 
L 161.365238 336.01654 
L 168.632187 332.594389 
L 175.899137 328.915888 
L 183.166086 324.988166 
L 190.433036 320.818833 
L 198.219053 316.092767 
L 206.00507 311.109139 
L 214.310155 305.521881 
L 222.61524 299.668339 
L 231.439393 293.173765 
L 240.782614 286.008378 
L 250.644902 278.147601 
L 261.026259 269.57356 
L 271.926683 260.276694 
L 283.865243 249.795999 
L 297.361006 237.639637 
L 313.452108 222.826534 
L 336.81016 200.981502 
L 366.916094 172.868351 
L 383.007196 158.157317 
L 396.502959 146.122057 
L 408.441519 135.774808 
L 419.341943 126.620747 
L 429.204232 118.61429 
L 438.547452 111.297762 
L 447.890673 104.266394 
L 456.714826 97.907807 
L 465.019911 92.190249 
L 473.324996 86.746381 
L 481.111014 81.903583 
L 488.897031 77.324223 
L 496.16398 73.296829 
L 503.43093 69.515605 
L 510.697879 65.987877 
L 517.964829 62.720483 
L 524.71271 59.925122 
L 531.460592 57.364369 
L 538.208473 55.042503 
L 544.956355 52.963404 
L 551.704237 51.130547 
L 557.933051 49.659891 
L 564.161864 48.403759 
L 565.2 48.21539 
L 565.2 48.21539 
" clip-path="url(#pe39ca1fe64)" style="fill: none; stroke: #d47f7f; stroke-width: 0.7; stroke-linecap: square"/>
   </g>
   <g id="line2d_30">
    <path d="M 46.65125 355.183976 
L 52.880064 354.90175 
L 59.108878 354.399413 
L 65.337691 353.67768 
L 71.566505 352.73758 
L 77.795319 351.58045 
L 84.024133 350.207939 
L 90.252947 348.622 
L 97.000828 346.665679 
L 103.74871 344.464802 
L 110.496592 342.023047 
L 117.244473 339.344494 
L 123.992355 336.433619 
L 131.259304 333.044603 
L 138.526254 329.398363 
L 145.793203 325.501967 
L 153.060153 321.362965 
L 160.84617 316.668224 
L 168.632187 311.714641 
L 176.937272 306.157945 
L 185.242357 300.333355 
L 194.06651 293.867696 
L 203.409731 286.730763 
L 212.752952 279.317025 
L 222.61524 271.217369 
L 233.515664 261.971935 
L 245.454224 251.539084 
L 258.43092 239.897069 
L 274.002954 225.610348 
L 295.284735 205.746859 
L 331.619482 171.805926 
L 347.191517 157.587036 
L 360.168212 146.023003 
L 372.106772 135.678689 
L 383.007196 126.527747 
L 392.869484 118.524462 
L 402.212705 111.211234 
L 411.555926 104.183444 
L 420.380079 97.82848 
L 428.685164 92.11454 
L 436.990249 86.67448 
L 444.776266 81.835419 
L 452.562284 77.259947 
L 459.829233 73.236311 
L 467.096182 69.458961 
L 474.363132 65.935219 
L 481.630081 62.671912 
L 488.377963 59.880431 
L 495.125845 57.323632 
L 501.873726 55.005789 
L 508.621608 52.930773 
L 515.369489 51.102054 
L 521.598303 49.635261 
L 527.827117 48.383026 
L 534.055931 47.347132 
L 540.284745 46.529055 
L 546.513559 45.929959 
L 552.742372 45.550698 
L 558.971186 45.391811 
L 565.2 45.453524 
L 565.2 45.453524 
" clip-path="url(#pe39ca1fe64)" style="fill: none; stroke: #d47f7f; stroke-width: 0.7; stroke-linecap: square"/>
   </g>
   <g id="line2d_31">
    <path d="M 46.65125 355.183985 
L 52.880064 354.901771 
L 59.108878 354.399446 
L 65.337691 353.677726 
L 71.566505 352.737637 
L 77.795319 351.580519 
L 84.024133 350.20802 
L 90.252947 348.622092 
L 97.000828 346.665784 
L 103.74871 344.46492 
L 110.496592 342.023176 
L 117.244473 339.344635 
L 123.992355 336.433772 
L 131.259304 333.044768 
L 138.526254 329.39854 
L 145.793203 325.502155 
L 153.060153 321.363164 
L 160.84617 316.668435 
L 168.632187 311.714864 
L 176.937272 306.158179 
L 185.242357 300.333599 
L 194.06651 293.867951 
L 203.409731 286.731028 
L 212.752952 279.3173 
L 222.61524 271.217654 
L 233.515664 261.972229 
L 245.454224 251.539386 
L 258.43092 239.897378 
L 274.002954 225.610664 
L 295.284735 205.747179 
L 331.619482 171.80624 
L 347.191517 157.587343 
L 360.168212 146.023302 
L 372.106772 135.678979 
L 383.007196 126.528028 
L 392.869484 118.524733 
L 402.212705 111.211495 
L 411.555926 104.183695 
L 420.380079 97.828719 
L 428.685164 92.114768 
L 436.990249 86.674697 
L 444.776266 81.835625 
L 452.562284 77.260141 
L 459.829233 73.236494 
L 467.096182 69.459133 
L 474.363132 65.935378 
L 481.630081 62.672059 
L 488.377963 59.880566 
L 495.125845 57.323755 
L 501.873726 55.0059 
L 508.621608 52.930872 
L 515.369489 51.10214 
L 521.598303 49.635335 
L 527.827117 48.383088 
L 534.055931 47.347183 
L 540.284745 46.529094 
L 546.513559 45.929986 
L 552.742372 45.550713 
L 558.971186 45.391813 
L 565.2 45.453515 
L 565.2 45.453515 
" clip-path="url(#pe39ca1fe64)" style="fill: none; stroke: #d47f7f; stroke-width: 0.7; stroke-linecap: square"/>
   </g>
   <g id="line2d_32">
    <path d="M 46.65125 352.210246 
L 52.880064 353.2545 
L 59.108878 354.080989 
L 65.337691 354.688535 
L 71.566505 355.076274 
L 77.795319 355.243654 
L 84.024133 355.190436 
L 90.252947 354.916697 
L 96.481761 354.422825 
L 102.710574 353.709524 
L 108.939388 352.77781 
L 115.168202 351.629009 
L 121.397016 350.264758 
L 127.62583 348.686998 
L 134.373711 346.739434 
L 141.121593 344.547189 
L 147.869474 342.113929 
L 154.617356 339.443719 
L 161.365238 336.541021 
L 168.632187 333.16061 
L 175.899137 329.522751 
L 183.166086 325.634494 
L 190.433036 321.503374 
L 198.219053 316.816777 
L 206.00507 311.871007 
L 214.310155 306.32226 
L 222.61524 300.505204 
L 231.439393 294.047073 
L 240.782614 286.91755 
L 250.125835 279.510626 
L 259.988123 271.417488 
L 270.888547 262.178427 
L 282.827107 251.751521 
L 295.803803 240.114708 
L 310.856769 226.312895 
L 331.619482 206.945542 
L 370.030501 171.069769 
L 385.602535 156.86731 
L 398.57923 145.321868 
L 410.51779 134.998485 
L 421.418214 125.869764 
L 431.280503 117.889059 
L 440.623724 110.599316 
L 449.966944 103.596971 
L 458.791097 97.267764 
L 467.096182 91.579531 
L 475.401268 86.166533 
L 483.187285 81.354011 
L 490.973302 76.806149 
L 498.240252 72.809195 
L 505.507201 69.059355 
L 512.77415 65.563896 
L 520.0411 62.329592 
L 526.788981 59.565638 
L 533.536863 57.036893 
L 540.284745 54.747581 
L 547.032626 52.70153 
L 553.780508 50.902157 
L 560.009322 49.462751 
L 565.2 48.427254 
L 565.2 48.427254 
" clip-path="url(#pe39ca1fe64)" style="fill: none; stroke: #d47f7f; stroke-width: 0.7; stroke-linecap: square"/>
   </g>
   <g id="line2d_33">
    <path d="M 46.65125 354.531132 
L 52.880064 354.984177 
L 59.108878 355.216994 
L 65.337691 355.229251 
L 71.566505 355.020931 
L 77.795319 354.592331 
L 84.024133 353.94406 
L 90.252947 353.077042 
L 96.481761 351.992511 
L 102.710574 350.692012 
L 108.939388 349.177397 
L 115.68727 347.297447 
L 122.435151 345.171886 
L 129.183033 342.804264 
L 135.930915 340.198539 
L 142.678796 337.359065 
L 149.426678 334.290587 
L 156.693627 330.735857 
L 163.960577 326.928378 
L 171.227526 322.875528 
L 179.013544 318.269837 
L 186.799561 313.401741 
L 195.104646 307.932089 
L 203.409731 302.190052 
L 212.233884 295.806952 
L 221.058037 289.15101 
L 230.401258 281.827299 
L 240.263546 273.813943 
L 250.644902 265.096012 
L 262.064394 255.211782 
L 274.522022 244.131118 
L 289.055921 230.892912 
L 307.223295 214.024226 
L 359.649144 165.142259 
L 374.183043 152.009774 
L 386.640671 141.047496 
L 398.060163 131.293705 
L 408.441519 122.712009 
L 418.303808 114.843145 
L 427.647028 107.669391 
L 436.471181 101.16631 
L 445.295334 94.946542 
L 453.600419 89.367375 
L 461.386436 84.391703 
L 469.172454 79.673934 
L 476.958471 75.224563 
L 484.22542 71.322712 
L 491.49237 67.670857 
L 498.759319 64.276073 
L 505.507201 61.359717 
L 512.255083 58.675572 
L 519.002964 56.228122 
L 525.750846 54.021458 
L 532.498727 52.059268 
L 539.246609 50.344829 
L 545.475423 48.984654 
L 551.704237 47.839963 
L 557.933051 46.912387 
L 564.161864 46.203246 
L 565.2 46.106368 
L 565.2 46.106368 
" clip-path="url(#pe39ca1fe64)" style="fill: none; stroke: #d47f7f; stroke-width: 0.7; stroke-linecap: square"/>
   </g>
   <g id="line2d_34">
    <path d="M 46.65125 354.981498 
L 52.880064 354.526739 
L 59.108878 353.852403 
L 65.337691 352.95945 
L 71.566505 351.849152 
L 77.795319 350.52309 
L 84.024133 348.983152 
L 90.772015 347.076083 
L 97.519896 344.923772 
L 104.267778 342.529816 
L 111.015659 339.898215 
L 117.763541 337.033366 
L 124.511423 333.940058 
L 131.778372 330.359244 
L 139.045322 326.52641 
L 146.312271 322.448986 
L 154.098288 317.817883 
L 161.884306 312.92538 
L 170.189391 307.430864 
L 178.494476 301.665231 
L 187.318629 295.258519 
L 196.142782 288.58053 
L 205.486002 281.235254 
L 215.348291 273.201194 
L 225.729647 264.463832 
L 237.149139 254.561119 
L 249.606767 243.463844 
L 264.140666 230.211067 
L 282.827107 212.846042 
L 332.657618 166.364332 
L 347.191517 153.202516 
L 359.649144 142.207732 
L 371.068636 132.418335 
L 381.449992 123.799594 
L 391.312281 115.891553 
L 400.655502 108.67723 
L 409.479655 102.132866 
L 418.303808 95.869054 
L 426.608893 90.246024 
L 434.913978 84.901604 
L 442.699995 80.156285 
L 450.486012 75.67829 
L 457.752962 71.748813 
L 465.019911 68.068504 
L 472.286861 64.644497 
L 479.034742 61.700365 
L 485.782624 58.987874 
L 492.530506 56.511556 
L 499.278387 54.275551 
L 506.026269 52.283595 
L 512.77415 50.539016 
L 519.002964 49.150729 
L 525.231778 47.97769 
L 531.460592 47.02157 
L 537.689406 46.283729 
L 543.918219 45.76522 
L 550.147033 45.466779 
L 556.375847 45.388832 
L 562.604661 45.53149 
L 565.2 45.656002 
L 565.2 45.656002 
" clip-path="url(#pe39ca1fe64)" style="fill: none; stroke: #d47f7f; stroke-width: 0.7; stroke-linecap: square"/>
   </g>
   <g id="line2d_35">
    <path d="M 46.65125 354.891078 
L 52.880064 355.179252 
L 59.108878 355.246921 
L 65.337691 355.093987 
L 71.566505 354.720669 
L 77.795319 354.127497 
L 84.024133 353.315317 
L 90.252947 352.285286 
L 96.481761 351.038869 
L 102.710574 349.577841 
L 108.939388 347.904284 
L 115.68727 345.8542 
L 122.435151 343.560916 
L 129.183033 341.028264 
L 135.930915 338.260476 
L 142.678796 335.262178 
L 149.945746 331.781207 
L 157.212695 328.045461 
L 164.479645 324.062181 
L 172.265662 319.528472 
L 180.051679 314.729558 
L 187.837696 309.676115 
L 196.142782 304.017904 
L 204.447867 298.097216 
L 213.27202 291.535661 
L 222.61524 284.304459 
L 232.477529 276.380135 
L 242.858885 267.746022 
L 253.759309 258.393862 
L 265.697869 247.862033 
L 279.193632 235.660056 
L 295.803803 220.326832 
L 322.795329 195.048372 
L 347.710584 171.82387 
L 363.282619 157.604583 
L 376.259314 146.040101 
L 388.197874 135.69528 
L 399.098298 126.543799 
L 408.960587 118.539966 
L 418.303808 111.226168 
L 427.647028 104.197761 
L 436.471181 97.842171 
L 444.776266 92.127606 
L 453.081351 86.686889 
L 460.867369 81.847182 
L 468.653386 77.271039 
L 475.920335 73.246754 
L 483.187285 69.468735 
L 490.454234 65.944305 
L 497.721184 62.680292 
L 504.469065 59.888141 
L 511.216947 57.33066 
L 517.964829 55.012122 
L 524.71271 52.936402 
L 531.460592 51.106968 
L 537.689406 49.639508 
L 543.918219 48.3866 
L 550.147033 47.350028 
L 556.375847 46.531269 
L 562.604661 45.931488 
L 565.2 45.746422 
L 565.2 45.746422 
" clip-path="url(#pe39ca1fe64)" style="fill: none; stroke: #d47f7f; stroke-width: 0.7; stroke-linecap: square"/>
   </g>
   <g id="line2d_36">
    <path d="M 46.65125 354.988406 
L 52.880064 354.538083 
L 59.108878 353.868167 
L 65.337691 352.979612 
L 71.566505 351.873684 
L 77.795319 350.551956 
L 84.024133 349.01631 
L 90.772015 347.113839 
L 97.519896 344.966062 
L 104.267778 342.576569 
L 111.015659 339.949353 
L 117.763541 337.088805 
L 124.511423 333.999703 
L 131.778372 330.423308 
L 139.045322 326.59477 
L 146.312271 322.521509 
L 154.098288 317.894709 
L 161.884306 313.006339 
L 170.189391 307.516033 
L 178.494476 301.754394 
L 187.318629 295.351678 
L 196.142782 288.677419 
L 205.486002 281.335791 
L 215.348291 273.305231 
L 225.729647 264.571152 
L 237.149139 254.671561 
L 249.606767 243.577087 
L 264.140666 230.326763 
L 282.827107 212.963572 
L 333.176685 166.004105 
L 347.710584 152.85084 
L 360.168212 141.865556 
L 371.587704 132.086582 
L 381.96906 123.478695 
L 391.831349 115.582141 
L 401.17457 108.379719 
L 409.998722 101.847472 
L 418.822875 95.596592 
L 427.12796 89.986445 
L 434.913978 84.980304 
L 442.699995 80.230756 
L 450.486012 75.748368 
L 457.752962 71.814648 
L 465.019911 68.12997 
L 472.286861 64.701475 
L 479.034742 61.753075 
L 485.782624 59.036229 
L 492.530506 56.555476 
L 499.278387 54.314961 
L 506.026269 52.31843 
L 512.77415 50.569217 
L 519.002964 49.176608 
L 525.231778 47.99921 
L 531.460592 47.038701 
L 537.689406 46.296446 
L 543.918219 45.773505 
L 550.147033 45.47062 
L 556.375847 45.388224 
L 562.604661 45.526434 
L 565.2 45.649094 
L 565.2 45.649094 
" clip-path="url(#pe39ca1fe64)" style="fill: none; stroke: #d47f7f; stroke-width: 0.7; stroke-linecap: square"/>
   </g>
   <g id="line2d_37">
    <path d="M 46.65125 354.985779 
L 52.880064 354.533763 
L 59.108878 353.86216 
L 65.337691 352.971926 
L 71.566505 351.864329 
L 77.795319 350.540947 
L 84.024133 349.003663 
L 90.772015 347.099436 
L 97.519896 344.949928 
L 104.267778 342.558731 
L 111.015659 339.929841 
L 117.763541 337.067651 
L 124.511423 333.976944 
L 131.778372 330.398861 
L 139.045322 326.568683 
L 146.312271 322.493832 
L 154.098288 317.86539 
L 161.884306 312.975442 
L 170.189391 307.483528 
L 178.494476 301.720364 
L 187.318629 295.316122 
L 196.142782 288.640439 
L 205.486002 281.297418 
L 215.348291 273.265521 
L 225.729647 264.530188 
L 237.149139 254.629405 
L 249.606767 243.533861 
L 264.140666 230.2826 
L 282.827107 212.918707 
L 333.176685 165.96021 
L 347.710584 152.807992 
L 360.168212 141.823871 
L 371.587704 132.046171 
L 381.96906 123.43961 
L 391.831349 115.544459 
L 401.17457 108.343491 
L 409.998722 101.812724 
L 418.822875 95.563422 
L 427.12796 89.954847 
L 434.913978 84.950253 
L 442.699995 80.202319 
L 450.486012 75.721608 
L 457.752962 71.789508 
L 465.019911 68.106497 
L 472.286861 64.679715 
L 479.034742 61.732944 
L 485.782624 59.01776 
L 492.530506 56.5387 
L 499.278387 54.299907 
L 506.026269 52.305122 
L 512.77415 50.557678 
L 519.002964 49.166718 
L 525.231778 47.990985 
L 531.460592 47.032151 
L 537.689406 46.291581 
L 543.918219 45.770331 
L 550.147033 45.469143 
L 556.375847 45.388445 
L 562.604661 45.528353 
L 565.2 45.651721 
L 565.2 45.651721 
" clip-path="url(#pe39ca1fe64)" style="fill: none; stroke: #d47f7f; stroke-width: 0.7; stroke-linecap: square"/>
   </g>
   <g id="patch_3">
    <path d="M 46.65125 386.2375 
L 46.65125 14.4 
" style="fill: none; stroke: #000000; stroke-linejoin: miter; stroke-linecap: square"/>
   </g>
   <g id="patch_4">
    <path d="M 565.2 386.2375 
L 565.2 14.4 
" style="fill: none; stroke: #000000; stroke-linejoin: miter; stroke-linecap: square"/>
   </g>
   <g id="patch_5">
    <path d="M 46.65125 386.2375 
L 565.2 386.2375 
" style="fill: none; stroke: #000000; stroke-linejoin: miter; stroke-linecap: square"/>
   </g>
   <g id="patch_6">
    <path d="M 46.65125 14.4 
L 565.2 14.4 
" style="fill: none; stroke: #000000; stroke-linejoin: miter; stroke-linecap: square"/>
   </g>
   <g id="LineCollection_1">
    <path d="M 316.228445 212.713333 
L 316.228445 187.924167 
" clip-path="url(#pe39ca1fe64)" style="fill: none; stroke: #00d138; stroke-width: 0.7"/>
   </g>
   <g id="LineCollection_2">
    <path d="M 303.057754 212.713333 
L 303.057754 187.924167 
" clip-path="url(#pe39ca1fe64)" style="fill: none; stroke: #00d138; stroke-width: 0.7"/>
   </g>
   <g id="LineCollection_3">
    <path d="M 319.359948 212.713333 
L 319.359948 187.924167 
" clip-path="url(#pe39ca1fe64)" style="fill: none; stroke: #00d138; stroke-width: 0.7"/>
   </g>
   <g id="LineCollection_4">
    <path d="M 337.516234 212.713333 
L 337.516234 187.924167 
" clip-path="url(#pe39ca1fe64)" style="fill: none; stroke: #00d138; stroke-width: 0.7"/>
   </g>
   <g id="LineCollection_5">
    <path d="M 301.068827 212.713333 
L 301.068827 187.924167 
" clip-path="url(#pe39ca1fe64)" style="fill: none; stroke: #00d138; stroke-width: 0.7"/>
   </g>
   <g id="LineCollection_6">
    <path d="M 301.069168 212.713333 
L 301.069168 187.924167 
" clip-path="url(#pe39ca1fe64)" style="fill: none; stroke: #00d138; stroke-width: 0.7"/>
   </g>
   <g id="LineCollection_7">
    <path d="M 338.681578 212.713333 
L 338.681578 187.924167 
" clip-path="url(#pe39ca1fe64)" style="fill: none; stroke: #00d138; stroke-width: 0.7"/>
   </g>
   <g id="LineCollection_8">
    <path d="M 321.843718 212.713333 
L 321.843718 187.924167 
" clip-path="url(#pe39ca1fe64)" style="fill: none; stroke: #00d138; stroke-width: 0.7"/>
   </g>
   <g id="LineCollection_9">
    <path d="M 296.187811 212.713333 
L 296.187811 187.924167 
" clip-path="url(#pe39ca1fe64)" style="fill: none; stroke: #00d138; stroke-width: 0.7"/>
   </g>
   <g id="LineCollection_10">
    <path d="M 317.179378 212.713333 
L 317.179378 187.924167 
" clip-path="url(#pe39ca1fe64)" style="fill: none; stroke: #00d138; stroke-width: 0.7"/>
   </g>
   <g id="LineCollection_11">
    <path d="M 296.313438 212.713333 
L 296.313438 187.924167 
" clip-path="url(#pe39ca1fe64)" style="fill: none; stroke: #00d138; stroke-width: 0.7"/>
   </g>
   <g id="LineCollection_12">
    <path d="M 296.265482 212.713333 
L 296.265482 187.924167 
" clip-path="url(#pe39ca1fe64)" style="fill: none; stroke: #00d138; stroke-width: 0.7"/>
   </g>
  </g>
 </g>
 <defs>
  <clipPath id="pe39ca1fe64">
   <rect x="46.65125" y="14.4" width="518.54875" height="371.8375"/>
  </clipPath>
 </defs>
</svg>
