<?xml version="1.0" encoding="UTF-8" standalone="no"?>
<svg
   version="1.1"
   width="297.0022mm"
   height="210.0072mm"
   viewBox="0.0000 0.0000 297.0022 210.0072"
   id="svg3112"
   sodipodi:docname="schemata-i_v_conv1.svg"
   inkscape:version="1.2.2 (b0a8486541, 2022-12-01)"
   xmlns:inkscape="http://www.inkscape.org/namespaces/inkscape"
   xmlns:sodipodi="http://sodipodi.sourceforge.net/DTD/sodipodi-0.dtd"
   xmlns="http://www.w3.org/2000/svg"
   xmlns:svg="http://www.w3.org/2000/svg">
  <defs
     id="defs3116" />
  <sodipodi:namedview
     id="namedview3114"
     pagecolor="#ffffff"
     bordercolor="#000000"
     borderopacity="0.25"
     inkscape:showpageshadow="2"
     inkscape:pageopacity="0.0"
     inkscape:pagecheckerboard="0"
     inkscape:deskcolor="#d1d1d1"
     inkscape:document-units="mm"
     showgrid="false"
     inkscape:zoom="4.7572972"
     inkscape:cx="417.14863"
     inkscape:cy="328.5479"
     inkscape:window-width="1920"
     inkscape:window-height="1118"
     inkscape:window-x="0"
     inkscape:window-y="0"
     inkscape:window-maximized="1"
     inkscape:current-layer="svg3112" />
  <title
     id="title2">SVG Image created as schemata-i_v_conv1.svg date 2026-05-13T14:38:48 </title>
  <desc
     id="desc4">Image generated by Eeschema-SVG </desc>
  <g
     style="fill:#000000; fill-opacity:1.0000;stroke:#000000; stroke-opacity:1.0000; stroke-linecap:round; stroke-linejoin:round;"
     transform="translate(0 0) scale(1 1)"
     id="g6" />
  <g
     style="fill:none;  stroke:#000000; stroke-width:0.3000; stroke-opacity:1;  stroke-linecap:round; stroke-linejoin:round;"
     id="g2064">
    <text
       x="178.0022"
       y="180.7572"
       textLength="0.9000"
       font-size="2.0000"
       lengthAdjust="spacingAndGlyphs"
       text-anchor="start"
       opacity="0"
       stroke-opacity="0"
       id="text2058" />
    <g
       class="stroked-text"
       id="g2062">
      <desc
         id="desc2060" />
    </g>
  </g>
  <g
     style="fill:none;  stroke:#000000; stroke-width:0.2032; stroke-opacity:1;  stroke-linecap:round; stroke-linejoin:round;"
     id="g2098"
     inkscape:export-filename="g2098.pdf"
     inkscape:export-xdpi="96"
     inkscape:export-ydpi="96">
    <rect
       x="109.728000"
       y="92.202000"
       width="1.524000"
       height="3.556000"
       rx="0.000000"
       id="rect2096" />
  </g>
  <g
     style="fill:none;  stroke:#000000; stroke-width:0.1524; stroke-opacity:1;  stroke-linecap:round; stroke-linejoin:round;"
     id="g2104">
    <path
       d="M110.4900 92.2020 L110.4900 91.4400 "
       id="path2100" />
    <path
       d="M110.4900 95.7580 L110.4900 96.5200 "
       id="path2102" />
  </g>
  <g
     style="fill:none;  stroke:#000000; stroke-width:0.2032; stroke-opacity:1;  stroke-linecap:round; stroke-linejoin:round;"
     id="g2108">
    <rect
       x="124.968000"
       y="92.202000"
       width="1.524000"
       height="3.556000"
       rx="0.000000"
       id="rect2106" />
  </g>
  <g
     style="fill:none;  stroke:#000000; stroke-width:0.1524; stroke-opacity:1;  stroke-linecap:round; stroke-linejoin:round;"
     id="g2114">
    <path
       d="M125.7300 92.2020 L125.7300 91.4400 "
       id="path2110" />
    <path
       d="M125.7300 95.7580 L125.7300 96.5200 "
       id="path2112" />
  </g>
  <g
     style="fill:none;  stroke:#000000; stroke-width:0.2540; stroke-opacity:1;  stroke-linecap:round; stroke-linejoin:round;"
     id="g2126">
    <rect
       x="111.760000"
       y="100.584000"
       width="5.080000"
       height="2.032000"
       rx="0.000000"
       id="rect2116" />
    <path
       style="fill:none;  stroke:#000000; stroke-width:0.1524; stroke-opacity:1;  stroke-linecap:round; stroke-linejoin:round;fill:none"
       d="M 111.7600,101.6000 110.4900,101.6000 "
       id="path2118" />
    <path
       style="fill:none;  stroke:#000000; stroke-width:0.1524; stroke-opacity:1;  stroke-linecap:round; stroke-linejoin:round;fill:none"
       d="M 111.7600,101.6000 110.4900,100.3300 "
       id="path2120" />
    <path
       style="fill:none;  stroke:#000000; stroke-width:0.1524; stroke-opacity:1;  stroke-linecap:round; stroke-linejoin:round;fill:none"
       d="M 116.8400,101.6000 118.1100,100.3300 "
       id="path2122" />
    <path
       style="fill:none;  stroke:#000000; stroke-width:0.1524; stroke-opacity:1;  stroke-linecap:round; stroke-linejoin:round;fill:none"
       d="M 118.1100,101.6000 116.8400,101.6000 "
       id="path2124" />
  </g>
  <g
     style="fill:none;  stroke:#000000; stroke-width:0.1524; stroke-opacity:1;  stroke-linecap:round; stroke-linejoin:round;"
     id="g2460">
    <path
       d="M110.4900 101.6000 L107.9500 101.6000 "
       id="path2128" />
    <path
       d="M118.1100 101.6000 L120.6500 101.6000 "
       id="path2130" />
    <path
       d="M110.4900 100.3300 L110.4900 97.7900 "
       id="path2132" />
    <path
       d="M118.1100 100.3300 L118.1100 97.7900 "
       id="path2134" />
    <text
       x="114.2999"
       y="105.5369"
       textLength="18.0435"
       font-size="1.6933"
       lengthAdjust="spacingAndGlyphs"
       text-anchor="middle"
       opacity="0"
       stroke-opacity="0"
       id="text2136">Měřená impedance</text>
    <g
       class="stroked-text"
       id="g2456">
      <desc
         id="desc2138">Měřená impedance</desc>
      <path
         d="M105.6821 105.4814 L105.6821 104.2114 "
         id="path2140" />
      <path
         d="M105.6821 104.2114 L106.1055 105.1186 "
         id="path2142" />
      <path
         d="M106.1055 105.1186 L106.5288 104.2114 "
         id="path2144" />
      <path
         d="M106.5288 104.2114 L106.5288 105.4814 "
         id="path2146" />
      <path
         d="M107.6173 105.4210 L107.4964 105.4814 "
         id="path2148" />
      <path
         d="M107.4964 105.4814 L107.2545 105.4814 "
         id="path2150" />
      <path
         d="M107.2545 105.4814 L107.1335 105.4210 "
         id="path2152" />
      <path
         d="M107.1335 105.4210 L107.0731 105.3000 "
         id="path2154" />
      <path
         d="M107.0731 105.3000 L107.0731 104.8162 "
         id="path2156" />
      <path
         d="M107.0731 104.8162 L107.1335 104.6952 "
         id="path2158" />
      <path
         d="M107.1335 104.6952 L107.2545 104.6348 "
         id="path2160" />
      <path
         d="M107.2545 104.6348 L107.4964 104.6348 "
         id="path2162" />
      <path
         d="M107.4964 104.6348 L107.6173 104.6952 "
         id="path2164" />
      <path
         d="M107.6173 104.6952 L107.6778 104.8162 "
         id="path2166" />
      <path
         d="M107.6778 104.8162 L107.6778 104.9371 "
         id="path2168" />
      <path
         d="M107.6778 104.9371 L107.0731 105.0581 "
         id="path2170" />
      <path
         d="M107.1335 104.1510 L107.3754 104.3324 "
         id="path2172" />
      <path
         d="M107.3754 104.3324 L107.6173 104.1510 "
         id="path2174" />
      <path
         d="M108.2221 105.4814 L108.2221 104.6348 "
         id="path2176" />
      <path
         d="M108.2221 104.8767 L108.2826 104.7557 "
         id="path2178" />
      <path
         d="M108.2826 104.7557 L108.3431 104.6952 "
         id="path2180" />
      <path
         d="M108.3431 104.6952 L108.4640 104.6348 "
         id="path2182" />
      <path
         d="M108.4640 104.6348 L108.5850 104.6348 "
         id="path2184" />
      <path
         d="M108.1012 104.1510 L108.3431 104.3324 "
         id="path2186" />
      <path
         d="M108.3431 104.3324 L108.5850 104.1510 "
         id="path2188" />
      <path
         d="M109.4921 105.4210 L109.3712 105.4814 "
         id="path2190" />
      <path
         d="M109.3712 105.4814 L109.1293 105.4814 "
         id="path2192" />
      <path
         d="M109.1293 105.4814 L109.0083 105.4210 "
         id="path2194" />
      <path
         d="M109.0083 105.4210 L108.9479 105.3000 "
         id="path2196" />
      <path
         d="M108.9479 105.3000 L108.9479 104.8162 "
         id="path2198" />
      <path
         d="M108.9479 104.8162 L109.0083 104.6952 "
         id="path2200" />
      <path
         d="M109.0083 104.6952 L109.1293 104.6348 "
         id="path2202" />
      <path
         d="M109.1293 104.6348 L109.3712 104.6348 "
         id="path2204" />
      <path
         d="M109.3712 104.6348 L109.4921 104.6952 "
         id="path2206" />
      <path
         d="M109.4921 104.6952 L109.5526 104.8162 "
         id="path2208" />
      <path
         d="M109.5526 104.8162 L109.5526 104.9371 "
         id="path2210" />
      <path
         d="M109.5526 104.9371 L108.9479 105.0581 "
         id="path2212" />
      <path
         d="M110.0969 104.6348 L110.0969 105.4814 "
         id="path2214" />
      <path
         d="M110.0969 104.7557 L110.1574 104.6952 "
         id="path2216" />
      <path
         d="M110.1574 104.6952 L110.2784 104.6348 "
         id="path2218" />
      <path
         d="M110.2784 104.6348 L110.4598 104.6348 "
         id="path2220" />
      <path
         d="M110.4598 104.6348 L110.5807 104.6952 "
         id="path2222" />
      <path
         d="M110.5807 104.6952 L110.6412 104.8162 "
         id="path2224" />
      <path
         d="M110.6412 104.8162 L110.6412 105.4814 "
         id="path2226" />
      <path
         d="M111.7902 105.4814 L111.7902 104.8162 "
         id="path2228" />
      <path
         d="M111.7902 104.8162 L111.7297 104.6952 "
         id="path2230" />
      <path
         d="M111.7297 104.6952 L111.6088 104.6348 "
         id="path2232" />
      <path
         d="M111.6088 104.6348 L111.3669 104.6348 "
         id="path2234" />
      <path
         d="M111.3669 104.6348 L111.2459 104.6952 "
         id="path2236" />
      <path
         d="M111.7902 105.4210 L111.6693 105.4814 "
         id="path2238" />
      <path
         d="M111.6693 105.4814 L111.3669 105.4814 "
         id="path2240" />
      <path
         d="M111.3669 105.4814 L111.2459 105.4210 "
         id="path2242" />
      <path
         d="M111.2459 105.4210 L111.1855 105.3000 "
         id="path2244" />
      <path
         d="M111.1855 105.3000 L111.1855 105.1790 "
         id="path2246" />
      <path
         d="M111.1855 105.1790 L111.2459 105.0581 "
         id="path2248" />
      <path
         d="M111.2459 105.0581 L111.3669 104.9976 "
         id="path2250" />
      <path
         d="M111.3669 104.9976 L111.6693 104.9976 "
         id="path2252" />
      <path
         d="M111.6693 104.9976 L111.7902 104.9371 "
         id="path2254" />
      <path
         d="M111.6088 104.1510 L111.4274 104.3324 "
         id="path2256" />
      <path
         d="M113.3625 105.4814 L113.3625 104.6348 "
         id="path2258" />
      <path
         d="M113.3625 104.2114 L113.3021 104.2719 "
         id="path2260" />
      <path
         d="M113.3021 104.2719 L113.3625 104.3324 "
         id="path2262" />
      <path
         d="M113.3625 104.3324 L113.4230 104.2719 "
         id="path2264" />
      <path
         d="M113.4230 104.2719 L113.3625 104.2114 "
         id="path2266" />
      <path
         d="M113.3625 104.2114 L113.3625 104.3324 "
         id="path2268" />
      <path
         d="M113.9673 105.4814 L113.9673 104.6348 "
         id="path2270" />
      <path
         d="M113.9673 104.7557 L114.0278 104.6952 "
         id="path2272" />
      <path
         d="M114.0278 104.6952 L114.1488 104.6348 "
         id="path2274" />
      <path
         d="M114.1488 104.6348 L114.3302 104.6348 "
         id="path2276" />
      <path
         d="M114.3302 104.6348 L114.4511 104.6952 "
         id="path2278" />
      <path
         d="M114.4511 104.6952 L114.5116 104.8162 "
         id="path2280" />
      <path
         d="M114.5116 104.8162 L114.5116 105.4814 "
         id="path2282" />
      <path
         d="M114.5116 104.8162 L114.5721 104.6952 "
         id="path2284" />
      <path
         d="M114.5721 104.6952 L114.6930 104.6348 "
         id="path2286" />
      <path
         d="M114.6930 104.6348 L114.8745 104.6348 "
         id="path2288" />
      <path
         d="M114.8745 104.6348 L114.9954 104.6952 "
         id="path2290" />
      <path
         d="M114.9954 104.6952 L115.0559 104.8162 "
         id="path2292" />
      <path
         d="M115.0559 104.8162 L115.0559 105.4814 "
         id="path2294" />
      <path
         d="M115.6606 104.6348 L115.6606 105.9048 "
         id="path2296" />
      <path
         d="M115.6606 104.6952 L115.7816 104.6348 "
         id="path2298" />
      <path
         d="M115.7816 104.6348 L116.0235 104.6348 "
         id="path2300" />
      <path
         d="M116.0235 104.6348 L116.1444 104.6952 "
         id="path2302" />
      <path
         d="M116.1444 104.6952 L116.2049 104.7557 "
         id="path2304" />
      <path
         d="M116.2049 104.7557 L116.2654 104.8767 "
         id="path2306" />
      <path
         d="M116.2654 104.8767 L116.2654 105.2395 "
         id="path2308" />
      <path
         d="M116.2654 105.2395 L116.2049 105.3605 "
         id="path2310" />
      <path
         d="M116.2049 105.3605 L116.1444 105.4210 "
         id="path2312" />
      <path
         d="M116.1444 105.4210 L116.0235 105.4814 "
         id="path2314" />
      <path
         d="M116.0235 105.4814 L115.7816 105.4814 "
         id="path2316" />
      <path
         d="M115.7816 105.4814 L115.6606 105.4210 "
         id="path2318" />
      <path
         d="M117.2934 105.4210 L117.1725 105.4814 "
         id="path2320" />
      <path
         d="M117.1725 105.4814 L116.9306 105.4814 "
         id="path2322" />
      <path
         d="M116.9306 105.4814 L116.8096 105.4210 "
         id="path2324" />
      <path
         d="M116.8096 105.4210 L116.7492 105.3000 "
         id="path2326" />
      <path
         d="M116.7492 105.3000 L116.7492 104.8162 "
         id="path2328" />
      <path
         d="M116.7492 104.8162 L116.8096 104.6952 "
         id="path2330" />
      <path
         d="M116.8096 104.6952 L116.9306 104.6348 "
         id="path2332" />
      <path
         d="M116.9306 104.6348 L117.1725 104.6348 "
         id="path2334" />
      <path
         d="M117.1725 104.6348 L117.2934 104.6952 "
         id="path2336" />
      <path
         d="M117.2934 104.6952 L117.3539 104.8162 "
         id="path2338" />
      <path
         d="M117.3539 104.8162 L117.3539 104.9371 "
         id="path2340" />
      <path
         d="M117.3539 104.9371 L116.7492 105.0581 "
         id="path2342" />
      <path
         d="M118.4425 105.4814 L118.4425 104.2114 "
         id="path2344" />
      <path
         d="M118.4425 105.4210 L118.3216 105.4814 "
         id="path2346" />
      <path
         d="M118.3216 105.4814 L118.0797 105.4814 "
         id="path2348" />
      <path
         d="M118.0797 105.4814 L117.9587 105.4210 "
         id="path2350" />
      <path
         d="M117.9587 105.4210 L117.8982 105.3605 "
         id="path2352" />
      <path
         d="M117.8982 105.3605 L117.8378 105.2395 "
         id="path2354" />
      <path
         d="M117.8378 105.2395 L117.8378 104.8767 "
         id="path2356" />
      <path
         d="M117.8378 104.8767 L117.8982 104.7557 "
         id="path2358" />
      <path
         d="M117.8982 104.7557 L117.9587 104.6952 "
         id="path2360" />
      <path
         d="M117.9587 104.6952 L118.0797 104.6348 "
         id="path2362" />
      <path
         d="M118.0797 104.6348 L118.3216 104.6348 "
         id="path2364" />
      <path
         d="M118.3216 104.6348 L118.4425 104.6952 "
         id="path2366" />
      <path
         d="M119.5915 105.4814 L119.5915 104.8162 "
         id="path2368" />
      <path
         d="M119.5915 104.8162 L119.5310 104.6952 "
         id="path2370" />
      <path
         d="M119.5310 104.6952 L119.4101 104.6348 "
         id="path2372" />
      <path
         d="M119.4101 104.6348 L119.1682 104.6348 "
         id="path2374" />
      <path
         d="M119.1682 104.6348 L119.0472 104.6952 "
         id="path2376" />
      <path
         d="M119.5915 105.4210 L119.4706 105.4814 "
         id="path2378" />
      <path
         d="M119.4706 105.4814 L119.1682 105.4814 "
         id="path2380" />
      <path
         d="M119.1682 105.4814 L119.0472 105.4210 "
         id="path2382" />
      <path
         d="M119.0472 105.4210 L118.9868 105.3000 "
         id="path2384" />
      <path
         d="M118.9868 105.3000 L118.9868 105.1790 "
         id="path2386" />
      <path
         d="M118.9868 105.1790 L119.0472 105.0581 "
         id="path2388" />
      <path
         d="M119.0472 105.0581 L119.1682 104.9976 "
         id="path2390" />
      <path
         d="M119.1682 104.9976 L119.4706 104.9976 "
         id="path2392" />
      <path
         d="M119.4706 104.9976 L119.5915 104.9371 "
         id="path2394" />
      <path
         d="M120.1962 104.6348 L120.1962 105.4814 "
         id="path2396" />
      <path
         d="M120.1962 104.7557 L120.2567 104.6952 "
         id="path2398" />
      <path
         d="M120.2567 104.6952 L120.3777 104.6348 "
         id="path2400" />
      <path
         d="M120.3777 104.6348 L120.5591 104.6348 "
         id="path2402" />
      <path
         d="M120.5591 104.6348 L120.6800 104.6952 "
         id="path2404" />
      <path
         d="M120.6800 104.6952 L120.7405 104.8162 "
         id="path2406" />
      <path
         d="M120.7405 104.8162 L120.7405 105.4814 "
         id="path2408" />
      <path
         d="M121.8895 105.4210 L121.7686 105.4814 "
         id="path2410" />
      <path
         d="M121.7686 105.4814 L121.5267 105.4814 "
         id="path2412" />
      <path
         d="M121.5267 105.4814 L121.4057 105.4210 "
         id="path2414" />
      <path
         d="M121.4057 105.4210 L121.3452 105.3605 "
         id="path2416" />
      <path
         d="M121.3452 105.3605 L121.2848 105.2395 "
         id="path2418" />
      <path
         d="M121.2848 105.2395 L121.2848 104.8767 "
         id="path2420" />
      <path
         d="M121.2848 104.8767 L121.3452 104.7557 "
         id="path2422" />
      <path
         d="M121.3452 104.7557 L121.4057 104.6952 "
         id="path2424" />
      <path
         d="M121.4057 104.6952 L121.5267 104.6348 "
         id="path2426" />
      <path
         d="M121.5267 104.6348 L121.7686 104.6348 "
         id="path2428" />
      <path
         d="M121.7686 104.6348 L121.8895 104.6952 "
         id="path2430" />
      <path
         d="M122.9176 105.4210 L122.7967 105.4814 "
         id="path2432" />
      <path
         d="M122.7967 105.4814 L122.5548 105.4814 "
         id="path2434" />
      <path
         d="M122.5548 105.4814 L122.4338 105.4210 "
         id="path2436" />
      <path
         d="M122.4338 105.4210 L122.3734 105.3000 "
         id="path2438" />
      <path
         d="M122.3734 105.3000 L122.3734 104.8162 "
         id="path2440" />
      <path
         d="M122.3734 104.8162 L122.4338 104.6952 "
         id="path2442" />
      <path
         d="M122.4338 104.6952 L122.5548 104.6348 "
         id="path2444" />
      <path
         d="M122.5548 104.6348 L122.7967 104.6348 "
         id="path2446" />
      <path
         d="M122.7967 104.6348 L122.9176 104.6952 "
         id="path2448" />
      <path
         d="M122.9176 104.6952 L122.9781 104.8162 "
         id="path2450" />
      <path
         d="M122.9781 104.8162 L122.9781 104.9371 "
         id="path2452" />
      <path
         d="M122.9781 104.9371 L122.3734 105.0581 "
         id="path2454" />
    </g>
    <path
       style="fill:none;  stroke:#000000; stroke-width:0.1524; stroke-opacity:1;  stroke-linecap:round; stroke-linejoin:round;fill:none"
       d="M 125.7300,82.5500 125.7300,80.5180 "
       id="path2458" />
  </g>
  <g
     style="fill:none;  stroke:#000000; stroke-width:0.2540; stroke-opacity:1;  stroke-linecap:round; stroke-linejoin:round;"
     id="g2466">
    <path
       d="M126.2354 81.7788 A1.8080 1.8080 0.0 0 0 125.7300 78.2320"
       id="path2462" />
    <path
       d="M125.7300 78.2314 A1.8126 1.8126 0.0 0 0 125.2220 81.7880"
       id="path2464" />
  </g>
  <g
     style="fill:none;  stroke:#000000; stroke-width:0.2032; stroke-opacity:1;  stroke-linecap:round; stroke-linejoin:round;"
     id="g2470">
    <circle
       cx="125.7300"
       cy="80.0100"
       r="0.5080"
       id="circle2468" />
  </g>
  <g
     style="fill:none;  stroke:#000000; stroke-width:0.1524; stroke-opacity:1;  stroke-linecap:round; stroke-linejoin:round;"
     id="g2486">
    <path
       d="M125.7300 82.5500 L125.7300 85.0900 "
       id="path2472" />
    <path
       d="M125.7300 86.6220 A0.5120 0.5120 0.0 0 0 125.7300 85.5980"
       id="path2474" />
    <path
       d="M125.7300 87.6260 A0.5060 0.5060 0.0 0 0 125.7300 86.6140"
       id="path2476" />
    <path
       d="M125.7300 88.6500 A0.5100 0.5100 0.0 0 0 125.7300 87.6300"
       id="path2478" />
    <path
       d="M125.7300 89.6540 A0.5040 0.5040 0.0 0 0 125.7300 88.6460"
       id="path2480" />
    <path
       d="M125.7300 85.5980 L125.7300 85.0900 "
       id="path2482" />
    <path
       d="M125.7300 89.6620 L125.7300 90.1700 "
       id="path2484" />
  </g>
  <g
     style="fill:none;  stroke:#000000; stroke-width:0.2032; stroke-opacity:1;  stroke-linecap:round; stroke-linejoin:round;"
     id="g2490">
    <rect
       x="102.108000"
       y="92.202000"
       width="1.524000"
       height="3.556000"
       rx="0.000000"
       id="rect2488" />
  </g>
  <g
     style="fill:none;  stroke:#000000; stroke-width:0.1524; stroke-opacity:1;  stroke-linecap:round; stroke-linejoin:round;"
     id="g2510">
    <path
       d="M102.8700 92.2020 L102.8700 91.4400 "
       id="path2492" />
    <path
       d="M102.8700 95.7580 L102.8700 96.5200 "
       id="path2494" />
    <path
       d="M102.8700 86.6220 A0.5120 0.5120 0.0 0 0 102.8700 85.5980"
       id="path2496" />
    <path
       d="M102.8700 87.6260 A0.5060 0.5060 0.0 0 0 102.8700 86.6140"
       id="path2498" />
    <path
       d="M102.8700 88.6500 A0.5100 0.5100 0.0 0 0 102.8700 87.6300"
       id="path2500" />
    <path
       d="M102.8700 89.6540 A0.5040 0.5040 0.0 0 0 102.8700 88.6460"
       id="path2502" />
    <path
       d="M102.8700 85.5980 L102.8700 85.0900 "
       id="path2504" />
    <path
       d="M102.8700 89.6620 L102.8700 90.1700 "
       id="path2506" />
    <path
       style="fill:none;  stroke:#000000; stroke-width:0.1524; stroke-opacity:1;  stroke-linecap:round; stroke-linejoin:round;fill:none"
       d="M 102.8700,82.5500 102.8700,80.5180 "
       id="path2508" />
  </g>
  <g
     style="fill:none;  stroke:#000000; stroke-width:0.2540; stroke-opacity:1;  stroke-linecap:round; stroke-linejoin:round;"
     id="g2516">
    <path
       d="M103.3754 81.7788 A1.8080 1.8080 0.0 0 0 102.8700 78.2320"
       id="path2512" />
    <path
       d="M102.8700 78.2314 A1.8126 1.8126 0.0 0 0 102.3620 81.7880"
       id="path2514" />
  </g>
  <g
     style="fill:none;  stroke:#000000; stroke-width:0.2032; stroke-opacity:1;  stroke-linecap:round; stroke-linejoin:round;"
     id="g2520">
    <circle
       cx="102.8700"
       cy="80.0100"
       r="0.5080"
       id="circle2518" />
  </g>
  <g
     style="fill:none;  stroke:#000000; stroke-width:0.1524; stroke-opacity:1;  stroke-linecap:round; stroke-linejoin:round;"
     id="g2548">
    <path
       d="M102.8700 82.5500 L102.8700 85.0900 "
       id="path2522" />
    <path
       d="M110.4900 86.6220 A0.5120 0.5120 0.0 0 0 110.4900 85.5980"
       id="path2524" />
    <path
       d="M110.4900 87.6260 A0.5060 0.5060 0.0 0 0 110.4900 86.6140"
       id="path2526" />
    <path
       d="M110.4900 88.6500 A0.5100 0.5100 0.0 0 0 110.4900 87.6300"
       id="path2528" />
    <path
       d="M110.4900 89.6540 A0.5040 0.5040 0.0 0 0 110.4900 88.6460"
       id="path2530" />
    <path
       d="M110.4900 85.5980 L110.4900 85.0900 "
       id="path2532" />
    <path
       d="M110.4900 89.6620 L110.4900 90.1700 "
       id="path2534" />
    <path
       d="M118.1100 86.6220 A0.5120 0.5120 0.0 0 0 118.1100 85.5980"
       id="path2536" />
    <path
       d="M118.1100 87.6260 A0.5060 0.5060 0.0 0 0 118.1100 86.6140"
       id="path2538" />
    <path
       d="M118.1100 88.6500 A0.5100 0.5100 0.0 0 0 118.1100 87.6300"
       id="path2540" />
    <path
       d="M118.1100 89.6540 A0.5040 0.5040 0.0 0 0 118.1100 88.6460"
       id="path2542" />
    <path
       d="M118.1100 85.5980 L118.1100 85.0900 "
       id="path2544" />
    <path
       d="M118.1100 89.6620 L118.1100 90.1700 "
       id="path2546" />
  </g>
  <g
     style="fill:none;  stroke:#000000; stroke-width:0.2032; stroke-opacity:1;  stroke-linecap:round; stroke-linejoin:round;"
     id="g2552">
    <rect
       x="117.348000"
       y="92.202000"
       width="1.524000"
       height="3.556000"
       rx="0.000000"
       id="rect2550" />
  </g>
  <g
     style="fill:none;  stroke:#000000; stroke-width:0.1524; stroke-opacity:1;  stroke-linecap:round; stroke-linejoin:round;"
     id="g2560">
    <path
       d="M118.1100 92.2020 L118.1100 91.4400 "
       id="path2554" />
    <path
       d="M118.1100 95.7580 L118.1100 96.5200 "
       id="path2556" />
    <path
       style="fill:none;  stroke:#000000; stroke-width:0.1524; stroke-opacity:1;  stroke-linecap:round; stroke-linejoin:round;fill:none"
       d="M 118.1100,82.5500 118.1100,80.5180 "
       id="path2558" />
  </g>
  <g
     style="fill:none;  stroke:#000000; stroke-width:0.2540; stroke-opacity:1;  stroke-linecap:round; stroke-linejoin:round;"
     id="g2566">
    <path
       d="M118.6154 81.7788 A1.8080 1.8080 0.0 0 0 118.1100 78.2320"
       id="path2562" />
    <path
       d="M118.1100 78.2314 A1.8126 1.8126 0.0 0 0 117.6020 81.7880"
       id="path2564" />
  </g>
  <g
     style="fill:none;  stroke:#000000; stroke-width:0.2032; stroke-opacity:1;  stroke-linecap:round; stroke-linejoin:round;"
     id="g2570">
    <circle
       cx="118.1100"
       cy="80.0100"
       r="0.5080"
       id="circle2568" />
  </g>
  <g
     style="fill:none;  stroke:#000000; stroke-width:0.1524; stroke-opacity:1;  stroke-linecap:round; stroke-linejoin:round;"
     id="g2576">
    <path
       d="M118.1100 82.5500 L118.1100 85.0900 "
       id="path2572" />
    <path
       style="fill:none;  stroke:#000000; stroke-width:0.1524; stroke-opacity:1;  stroke-linecap:round; stroke-linejoin:round;fill:none"
       d="M 110.4900,82.5500 110.4900,80.5180 "
       id="path2574" />
  </g>
  <g
     style="fill:none;  stroke:#000000; stroke-width:0.2540; stroke-opacity:1;  stroke-linecap:round; stroke-linejoin:round;"
     id="g2582">
    <path
       d="M110.9954 81.7788 A1.8080 1.8080 0.0 0 0 110.4900 78.2320"
       id="path2578" />
    <path
       d="M110.4900 78.2314 A1.8126 1.8126 0.0 0 0 109.9820 81.7880"
       id="path2580" />
  </g>
  <g
     style="fill:none;  stroke:#000000; stroke-width:0.2032; stroke-opacity:1;  stroke-linecap:round; stroke-linejoin:round;"
     id="g2586">
    <circle
       cx="110.4900"
       cy="80.0100"
       r="0.5080"
       id="circle2584" />
  </g>
  <g
     style="fill:none;  stroke:#000000; stroke-width:0.1524; stroke-opacity:1;  stroke-linecap:round; stroke-linejoin:round;"
     id="g2590">
    <path
       d="M110.4900 82.5500 L110.4900 85.0900 "
       id="path2588" />
  </g>
  <g
     style="fill:none;  stroke:#008E07; stroke-width:0.1524; stroke-opacity:1;  stroke-linecap:round; stroke-linejoin:round;"
     id="g2606">
    <path
       d="M99.8220 87.8840 L100.8380 87.8840 "
       id="path2600" />
    <path
       d="M100.8380 87.8840 L100.3300 87.1220 "
       id="path2602" />
    <path
       d="M99.8220 87.8840 L100.3300 87.1220 "
       id="path2604" />
  </g>
  <g
     style="fill:none;  stroke:#D50012; stroke-width:0.1524; stroke-opacity:1;  stroke-linecap:round; stroke-linejoin:round;"
     id="g2620">
    <path
       d="M111.6330 98.9330 L112.3950 99.4410 "
       id="path2612" />
    <path
       d="M112.3950 98.4250 L111.6330 98.9330 "
       id="path2614" />
    <path
       d="m 117.3264,98.933 -5.6639,-0.0021"
       id="path2618" />
  </g>
  <g
     style="fill:none;  stroke:#008E07; stroke-width:0.1524; stroke-opacity:1;  stroke-linecap:round; stroke-linejoin:round;"
     id="g2632">
    <path
       d="M100.3300 93.4720 L100.3300 87.8840 "
       id="path2622" />
    <path
       d="M127.6350 92.7100 L128.1430 93.4720 "
       id="path2624" />
    <path
       d="M128.6510 92.7100 L128.1430 93.4720 "
       id="path2626" />
    <path
       d="M128.6510 92.7100 L127.6350 92.7100 "
       id="path2628" />
    <path
       d="M128.1430 87.1220 L128.1430 92.7100 "
       id="path2630" />
  </g>
  <g
     style="fill:none;  stroke:#000000; stroke-width:0.1524; stroke-opacity:1;  stroke-linecap:round; stroke-linejoin:round;"
     id="g2654">
    <path
       d="M102.8700 90.1700 L102.8700 91.4400 "
       id="path2634" />
    <path
       d="M110.4900 96.5200 L110.4900 97.7900 "
       id="path2636" />
    <path
       d="M118.1100 96.5200 L118.1100 97.7900 "
       id="path2638" />
    <path
       d="M107.9500 101.6000 L102.8700 101.6000 "
       id="path2640" />
    <path
       d="M102.8700 96.5200 L102.8700 101.6000 "
       id="path2642" />
    <path
       d="M120.6500 101.6000 L125.7300 101.6000 "
       id="path2644" />
    <path
       d="M125.7300 96.5200 L125.7300 101.6000 "
       id="path2646" />
    <path
       d="M125.7300 90.1700 L125.7300 91.4400 "
       id="path2648" />
    <path
       d="M118.1100 90.1700 L118.1100 91.4400 "
       id="path2650" />
    <path
       d="M110.4900 90.1700 L110.4900 91.4400 "
       id="path2652" />
  </g>
  <g
     style="fill:none;  stroke:#000000; stroke-width:0.1524; stroke-opacity:1;  stroke-linecap:round; stroke-linejoin:round;"
     id="g2788">
    <text
       x="102.8700"
       y="76.5850"
       textLength="4.3785"
       font-size="1.6933"
       lengthAdjust="spacingAndGlyphs"
       text-anchor="middle"
       opacity="0"
       stroke-opacity="0"
       id="text2708">L_{CUR}</text>
    <g
       class="stroked-text"
       id="g2786">
      <desc
         id="desc2710">L_{CUR}</desc>
      <path
         d="M101.7149 76.5295 L101.1101 76.5295 "
         id="path2712" />
      <path
         d="M101.1101 76.5295 L101.1101 75.2595 "
         id="path2714" />
      <path
         d="M102.6583 76.5731 L102.6099 76.6215 "
         id="path2716" />
      <path
         d="M102.6099 76.6215 L102.4648 76.6698 "
         id="path2718" />
      <path
         d="M102.4648 76.6698 L102.3680 76.6698 "
         id="path2720" />
      <path
         d="M102.3680 76.6698 L102.2229 76.6215 "
         id="path2722" />
      <path
         d="M102.2229 76.6215 L102.1261 76.5247 "
         id="path2724" />
      <path
         d="M102.1261 76.5247 L102.0778 76.4279 "
         id="path2726" />
      <path
         d="M102.0778 76.4279 L102.0294 76.2344 "
         id="path2728" />
      <path
         d="M102.0294 76.2344 L102.0294 76.0893 "
         id="path2730" />
      <path
         d="M102.0294 76.0893 L102.0778 75.8957 "
         id="path2732" />
      <path
         d="M102.0778 75.8957 L102.1261 75.7990 "
         id="path2734" />
      <path
         d="M102.1261 75.7990 L102.2229 75.7022 "
         id="path2736" />
      <path
         d="M102.2229 75.7022 L102.3680 75.6538 "
         id="path2738" />
      <path
         d="M102.3680 75.6538 L102.4648 75.6538 "
         id="path2740" />
      <path
         d="M102.4648 75.6538 L102.6099 75.7022 "
         id="path2742" />
      <path
         d="M102.6099 75.7022 L102.6583 75.7506 "
         id="path2744" />
      <path
         d="M103.0938 75.6538 L103.0938 76.4763 "
         id="path2746" />
      <path
         d="M103.0938 76.4763 L103.1421 76.5731 "
         id="path2748" />
      <path
         d="M103.1421 76.5731 L103.1905 76.6215 "
         id="path2750" />
      <path
         d="M103.1905 76.6215 L103.2873 76.6698 "
         id="path2752" />
      <path
         d="M103.2873 76.6698 L103.4808 76.6698 "
         id="path2754" />
      <path
         d="M103.4808 76.6698 L103.5776 76.6215 "
         id="path2756" />
      <path
         d="M103.5776 76.6215 L103.6259 76.5731 "
         id="path2758" />
      <path
         d="M103.6259 76.5731 L103.6743 76.4763 "
         id="path2760" />
      <path
         d="M103.6743 76.4763 L103.6743 75.6538 "
         id="path2762" />
      <path
         d="M104.7387 76.6698 L104.4001 76.1860 "
         id="path2764" />
      <path
         d="M104.1582 76.6698 L104.1582 75.6538 "
         id="path2766" />
      <path
         d="M104.1582 75.6538 L104.5452 75.6538 "
         id="path2768" />
      <path
         d="M104.5452 75.6538 L104.6420 75.7022 "
         id="path2770" />
      <path
         d="M104.6420 75.7022 L104.6903 75.7506 "
         id="path2772" />
      <path
         d="M104.6903 75.7506 L104.7387 75.8474 "
         id="path2774" />
      <path
         d="M104.7387 75.8474 L104.7387 75.9925 "
         id="path2776" />
      <path
         d="M104.7387 75.9925 L104.6903 76.0893 "
         id="path2778" />
      <path
         d="M104.6903 76.0893 L104.6420 76.1376 "
         id="path2780" />
      <path
         d="M104.6420 76.1376 L104.5452 76.1860 "
         id="path2782" />
      <path
         d="M104.5452 76.1860 L104.1582 76.1860 "
         id="path2784" />
    </g>
  </g>
  <g
     style="fill:none;  stroke:#000000; stroke-width:0.1524; stroke-opacity:1;  stroke-linecap:round; stroke-linejoin:round;"
     id="g2858">
    <text
       x="118.1100"
       y="76.5850"
       textLength="4.4390"
       font-size="1.6933"
       lengthAdjust="spacingAndGlyphs"
       text-anchor="middle"
       opacity="0"
       stroke-opacity="0"
       id="text2790">H_{POT}</text>
    <g
       class="stroked-text"
       id="g2856">
      <desc
         id="desc2792">H_{POT}</desc>
      <path
         d="M116.3198 76.5295 L116.3198 75.2595 "
         id="path2794" />
      <path
         d="M116.3198 75.8643 L117.0455 75.8643 "
         id="path2796" />
      <path
         d="M117.0455 76.5295 L117.0455 75.2595 "
         id="path2798" />
      <path
         d="M117.5899 76.6698 L117.5899 75.6538 "
         id="path2800" />
      <path
         d="M117.5899 75.6538 L117.9769 75.6538 "
         id="path2802" />
      <path
         d="M117.9769 75.6538 L118.0737 75.7022 "
         id="path2804" />
      <path
         d="M118.0737 75.7022 L118.1220 75.7506 "
         id="path2806" />
      <path
         d="M118.1220 75.7506 L118.1704 75.8474 "
         id="path2808" />
      <path
         d="M118.1704 75.8474 L118.1704 75.9925 "
         id="path2810" />
      <path
         d="M118.1704 75.9925 L118.1220 76.0893 "
         id="path2812" />
      <path
         d="M118.1220 76.0893 L118.0737 76.1376 "
         id="path2814" />
      <path
         d="M118.0737 76.1376 L117.9769 76.1860 "
         id="path2816" />
      <path
         d="M117.9769 76.1860 L117.5899 76.1860 "
         id="path2818" />
      <path
         d="M118.7994 75.6538 L118.9929 75.6538 "
         id="path2820" />
      <path
         d="M118.9929 75.6538 L119.0897 75.7022 "
         id="path2822" />
      <path
         d="M119.0897 75.7022 L119.1864 75.7990 "
         id="path2824" />
      <path
         d="M119.1864 75.7990 L119.2348 75.9925 "
         id="path2826" />
      <path
         d="M119.2348 75.9925 L119.2348 76.3312 "
         id="path2828" />
      <path
         d="M119.2348 76.3312 L119.1864 76.5247 "
         id="path2830" />
      <path
         d="M119.1864 76.5247 L119.0897 76.6215 "
         id="path2832" />
      <path
         d="M119.0897 76.6215 L118.9929 76.6698 "
         id="path2834" />
      <path
         d="M118.9929 76.6698 L118.7994 76.6698 "
         id="path2836" />
      <path
         d="M118.7994 76.6698 L118.7026 76.6215 "
         id="path2838" />
      <path
         d="M118.7026 76.6215 L118.6059 76.5247 "
         id="path2840" />
      <path
         d="M118.6059 76.5247 L118.5575 76.3312 "
         id="path2842" />
      <path
         d="M118.5575 76.3312 L118.5575 75.9925 "
         id="path2844" />
      <path
         d="M118.5575 75.9925 L118.6059 75.7990 "
         id="path2846" />
      <path
         d="M118.6059 75.7990 L118.7026 75.7022 "
         id="path2848" />
      <path
         d="M118.7026 75.7022 L118.7994 75.6538 "
         id="path2850" />
      <path
         d="M119.5251 75.6538 L120.1057 75.6538 "
         id="path2852" />
      <path
         d="M119.8154 76.6698 L119.8154 75.6538 "
         id="path2854" />
    </g>
  </g>
  <g
     style="fill:none;  stroke:#008E07; stroke-width:0.1524; stroke-opacity:1;  stroke-linecap:round; stroke-linejoin:round;"
     id="g2898">
    <text
       x="99.0600"
       y="91.1900"
       textLength="0.8080"
       font-size="1.6933"
       lengthAdjust="spacingAndGlyphs"
       text-anchor="middle"
       opacity="0"
       stroke-opacity="0"
       id="text2890">I</text>
    <g
       class="stroked-text"
       id="g2896">
      <desc
         id="desc2892">I</desc>
      <path
         d="M99.0599 91.1345 L99.0599 89.8645 "
         id="path2894" />
    </g>
  </g>
  <g
     style="fill:none;  stroke:#008E07; stroke-width:0.1524; stroke-opacity:1;  stroke-linecap:round; stroke-linejoin:round;"
     id="g2908">
    <text
       x="129.5400"
       y="91.0630"
       textLength="0.8080"
       font-size="1.6933"
       lengthAdjust="spacingAndGlyphs"
       text-anchor="middle"
       opacity="0"
       stroke-opacity="0"
       id="text2900">I</text>
    <g
       class="stroked-text"
       id="g2906">
      <desc
         id="desc2902">I</desc>
      <path
         d="M129.5399 91.0075 L129.5399 89.7375 "
         id="path2904" />
    </g>
  </g>
  <g
     style="fill:none;  stroke:#000000; stroke-width:0.1524; stroke-opacity:1;  stroke-linecap:round; stroke-linejoin:round;"
     id="g2992">
    <text
       x="125.7300"
       y="76.5850"
       textLength="4.6809"
       font-size="1.6933"
       lengthAdjust="spacingAndGlyphs"
       text-anchor="middle"
       opacity="0"
       stroke-opacity="0"
       id="text2910">H_{CUR}</text>
    <g
       class="stroked-text"
       id="g2990">
      <desc
         id="desc2912">H_{CUR}</desc>
      <path
         d="M123.8189 76.5295 L123.8189 75.2595 "
         id="path2914" />
      <path
         d="M123.8189 75.8643 L124.5446 75.8643 "
         id="path2916" />
      <path
         d="M124.5446 76.5295 L124.5446 75.2595 "
         id="path2918" />
      <path
         d="M125.6695 76.5731 L125.6211 76.6215 "
         id="path2920" />
      <path
         d="M125.6211 76.6215 L125.4760 76.6698 "
         id="path2922" />
      <path
         d="M125.4760 76.6698 L125.3792 76.6698 "
         id="path2924" />
      <path
         d="M125.3792 76.6698 L125.2341 76.6215 "
         id="path2926" />
      <path
         d="M125.2341 76.6215 L125.1373 76.5247 "
         id="path2928" />
      <path
         d="M125.1373 76.5247 L125.0890 76.4279 "
         id="path2930" />
      <path
         d="M125.0890 76.4279 L125.0406 76.2344 "
         id="path2932" />
      <path
         d="M125.0406 76.2344 L125.0406 76.0893 "
         id="path2934" />
      <path
         d="M125.0406 76.0893 L125.0890 75.8957 "
         id="path2936" />
      <path
         d="M125.0890 75.8957 L125.1373 75.7990 "
         id="path2938" />
      <path
         d="M125.1373 75.7990 L125.2341 75.7022 "
         id="path2940" />
      <path
         d="M125.2341 75.7022 L125.3792 75.6538 "
         id="path2942" />
      <path
         d="M125.3792 75.6538 L125.4760 75.6538 "
         id="path2944" />
      <path
         d="M125.4760 75.6538 L125.6211 75.7022 "
         id="path2946" />
      <path
         d="M125.6211 75.7022 L125.6695 75.7506 "
         id="path2948" />
      <path
         d="M126.1050 75.6538 L126.1050 76.4763 "
         id="path2950" />
      <path
         d="M126.1050 76.4763 L126.1533 76.5731 "
         id="path2952" />
      <path
         d="M126.1533 76.5731 L126.2017 76.6215 "
         id="path2954" />
      <path
         d="M126.2017 76.6215 L126.2985 76.6698 "
         id="path2956" />
      <path
         d="M126.2985 76.6698 L126.4920 76.6698 "
         id="path2958" />
      <path
         d="M126.4920 76.6698 L126.5888 76.6215 "
         id="path2960" />
      <path
         d="M126.5888 76.6215 L126.6371 76.5731 "
         id="path2962" />
      <path
         d="M126.6371 76.5731 L126.6855 76.4763 "
         id="path2964" />
      <path
         d="M126.6855 76.4763 L126.6855 75.6538 "
         id="path2966" />
      <path
         d="M127.7499 76.6698 L127.4113 76.1860 "
         id="path2968" />
      <path
         d="M127.1694 76.6698 L127.1694 75.6538 "
         id="path2970" />
      <path
         d="M127.1694 75.6538 L127.5564 75.6538 "
         id="path2972" />
      <path
         d="M127.5564 75.6538 L127.6532 75.7022 "
         id="path2974" />
      <path
         d="M127.6532 75.7022 L127.7015 75.7506 "
         id="path2976" />
      <path
         d="M127.7015 75.7506 L127.7499 75.8474 "
         id="path2978" />
      <path
         d="M127.7499 75.8474 L127.7499 75.9925 "
         id="path2980" />
      <path
         d="M127.7499 75.9925 L127.7015 76.0893 "
         id="path2982" />
      <path
         d="M127.7015 76.0893 L127.6532 76.1376 "
         id="path2984" />
      <path
         d="M127.6532 76.1376 L127.5564 76.1860 "
         id="path2986" />
      <path
         d="M127.5564 76.1860 L127.1694 76.1860 "
         id="path2988" />
    </g>
  </g>
  <g
     style="fill:none;  stroke:#D50012; stroke-width:0.1524; stroke-opacity:1;  stroke-linecap:round; stroke-linejoin:round;"
     id="g3018">
    <text
       x="114.3000"
       y="98.0480"
       textLength="1.5337"
       font-size="1.6933"
       lengthAdjust="spacingAndGlyphs"
       text-anchor="middle"
       opacity="0"
       stroke-opacity="0"
       id="text2994">U</text>
    <g
       class="stroked-text"
       id="g3016">
      <desc
         id="desc2996">U</desc>
      <path
         d="M113.9371 96.7225 L113.9371 97.7506 "
         id="path2998" />
      <path
         d="M113.9371 97.7506 L113.9976 97.8716 "
         id="path3000" />
      <path
         d="M113.9976 97.8716 L114.0581 97.9321 "
         id="path3002" />
      <path
         d="M114.0581 97.9321 L114.1790 97.9925 "
         id="path3004" />
      <path
         d="M114.1790 97.9925 L114.4209 97.9925 "
         id="path3006" />
      <path
         d="M114.4209 97.9925 L114.5419 97.9321 "
         id="path3008" />
      <path
         d="M114.5419 97.9321 L114.6024 97.8716 "
         id="path3010" />
      <path
         d="M114.6024 97.8716 L114.6628 97.7506 "
         id="path3012" />
      <path
         d="M114.6628 97.7506 L114.6628 96.7225 "
         id="path3014" />
    </g>
  </g>
  <g
     style="fill:none;  stroke:#000000; stroke-width:0.1524; stroke-opacity:1;  stroke-linecap:round; stroke-linejoin:round;"
     id="g3110">
    <text
       x="110.7440"
       y="76.5850"
       textLength="4.1366"
       font-size="1.6933"
       lengthAdjust="spacingAndGlyphs"
       text-anchor="middle"
       opacity="0"
       stroke-opacity="0"
       id="text3020">L_{POT}</text>
    <g
       class="stroked-text"
       id="g3084">
      <desc
         id="desc3022">L_{POT}</desc>
      <path
         d="M109.7098 76.5295 L109.1050 76.5295 "
         id="path3024" />
      <path
         d="M109.1050 76.5295 L109.1050 75.2595 "
         id="path3026" />
      <path
         d="M110.0727 76.6698 L110.0727 75.6538 "
         id="path3028" />
      <path
         d="M110.0727 75.6538 L110.4597 75.6538 "
         id="path3030" />
      <path
         d="M110.4597 75.6538 L110.5565 75.7022 "
         id="path3032" />
      <path
         d="M110.5565 75.7022 L110.6048 75.7506 "
         id="path3034" />
      <path
         d="M110.6048 75.7506 L110.6532 75.8474 "
         id="path3036" />
      <path
         d="M110.6532 75.8474 L110.6532 75.9925 "
         id="path3038" />
      <path
         d="M110.6532 75.9925 L110.6048 76.0893 "
         id="path3040" />
      <path
         d="M110.6048 76.0893 L110.5565 76.1376 "
         id="path3042" />
      <path
         d="M110.5565 76.1376 L110.4597 76.1860 "
         id="path3044" />
      <path
         d="M110.4597 76.1860 L110.0727 76.1860 "
         id="path3046" />
      <path
         d="M111.2822 75.6538 L111.4757 75.6538 "
         id="path3048" />
      <path
         d="M111.4757 75.6538 L111.5725 75.7022 "
         id="path3050" />
      <path
         d="M111.5725 75.7022 L111.6692 75.7990 "
         id="path3052" />
      <path
         d="M111.6692 75.7990 L111.7176 75.9925 "
         id="path3054" />
      <path
         d="M111.7176 75.9925 L111.7176 76.3312 "
         id="path3056" />
      <path
         d="M111.7176 76.3312 L111.6692 76.5247 "
         id="path3058" />
      <path
         d="M111.6692 76.5247 L111.5725 76.6215 "
         id="path3060" />
      <path
         d="M111.5725 76.6215 L111.4757 76.6698 "
         id="path3062" />
      <path
         d="M111.4757 76.6698 L111.2822 76.6698 "
         id="path3064" />
      <path
         d="M111.2822 76.6698 L111.1854 76.6215 "
         id="path3066" />
      <path
         d="M111.1854 76.6215 L111.0887 76.5247 "
         id="path3068" />
      <path
         d="M111.0887 76.5247 L111.0403 76.3312 "
         id="path3070" />
      <path
         d="M111.0403 76.3312 L111.0403 75.9925 "
         id="path3072" />
      <path
         d="M111.0403 75.9925 L111.0887 75.7990 "
         id="path3074" />
      <path
         d="M111.0887 75.7990 L111.1854 75.7022 "
         id="path3076" />
      <path
         d="M111.1854 75.7022 L111.2822 75.6538 "
         id="path3078" />
      <path
         d="M112.0079 75.6538 L112.5885 75.6538 "
         id="path3080" />
      <path
         d="M112.2982 76.6698 L112.2982 75.6538 "
         id="path3082" />
    </g>
    <path
       d="M110.4900 82.5500 L110.4900 85.0900 "
       id="path3086" />
    <path
       d="M118.1100 82.5500 L118.1100 85.0900 "
       id="path3088" />
    <path
       d="M118.1100 85.5980 L118.1100 85.0900 "
       id="path3090" />
    <path
       d="M118.1100 89.6620 L118.1100 90.1700 "
       id="path3092" />
    <path
       d="M110.4900 85.5980 L110.4900 85.0900 "
       id="path3094" />
    <path
       d="M110.4900 89.6620 L110.4900 90.1700 "
       id="path3096" />
    <path
       d="M125.7300 85.5980 L125.7300 85.0900 "
       id="path3098" />
    <path
       d="M125.7300 89.6620 L125.7300 90.1700 "
       id="path3100" />
    <path
       d="M125.7300 82.5500 L125.7300 85.0900 "
       id="path3102" />
    <path
       d="M102.8700 82.5500 L102.8700 85.0900 "
       id="path3104" />
    <path
       d="M102.8700 85.5980 L102.8700 85.0900 "
       id="path3106" />
    <path
       d="M102.8700 89.6620 L102.8700 90.1700 "
       id="path3108" />
  </g>
</svg>
