<?xml version="1.0" encoding="UTF-8" standalone="no"?>
<svg xmlns="http://www.w3.org/2000/svg" xmlns:xlink="http://www.w3.org/1999/xlink"  version="1.2" baseProfile="tiny" viewBox ="0 0 840 749">
<title>pyqtgraph SVG export</title>
<desc>Generated with Qt and pyqtgraph</desc>
<style>
    image {
        image-rendering: crisp-edges;
        image-rendering: -moz-crisp-edges;
        image-rendering: pixelated;
    }
</style>
<rect width="100%" height="100%" fill="#000000" fill-opacity="0.0" />
<defs>
</defs>
<g fill="none" stroke="black" stroke-width="1" fill-rule="evenodd" stroke-linecap="square" stroke-linejoin="bevel" id="PlotItem_1">
    <g fill="none" stroke="black" stroke-width="1" fill-rule="evenodd" stroke-linecap="square" stroke-linejoin="bevel" id="ViewBox_1">
        <g fill="none" stroke="none" transform="matrix(1,0,0,1,54.6,1)" font-family="Ioskeley Mono" font-size="24.9334" font-weight="400" font-style="normal">
            <path vector-effect="non-scaling-stroke" fill-rule="evenodd" d="M0,0 L784.9,0 L784.9,693.712 L0,693.712 L0,0 Z "/>
        </g>
        <clipPath id="ViewBox_1_clip">
            <path vector-effect="none" fill-rule="evenodd" d="M54.6,1 L839.5,1 L839.5,694.712 L54.6,694.712 L54.6,1 Z "/>
        </clipPath>
        <g clip-path="url(#ViewBox_1_clip)">
            <g fill="none" stroke="black" stroke-width="1" fill-rule="evenodd" stroke-linecap="square" stroke-linejoin="bevel" id="ChildGroup_1">
                <g fill="none" stroke="black" stroke-width="1" fill-rule="evenodd" stroke-linecap="square" stroke-linejoin="bevel" id="FillBetweenItem_1">
                    <g fill="#ffb000" fill-opacity="0.333333" stroke="none" font-family="Ioskeley Mono" font-size="24.9334" font-weight="400" font-style="normal">
                        <path vector-effect="non-scaling-stroke" fill-rule="evenodd" d="M54.57528900000034,693.990515521444 L56.61623299999883,693.97206871368 L58.52961799999866,693.952190438076 L60.4430029999985,693.930777653628 L62.48394699999881,693.907723000248 L64.39733199999864,693.8829104796799 L66.43827599999895,693.856217306536 L68.35166099999878,693.8275139082959 L70.26504599999862,693.796662074272 L72.30598999999893,693.763514955608 L74.21937499999876,693.7279164482679 L76.26031899999907,693.689703044072 L78.1737039999989,693.6486988946 L80.08708900000056,693.604720130276 L82.12803299999905,693.55757239232 L84.04141799999888,693.50704527964 L86.0823619999992,693.452920987 L87.99574699999903,693.39497121996 L90.03669099999752,693.33295534384 L91.95007599999917,693.26660804348 L93.863460999999,693.19566400372 L95.90440499999931,693.11983322892 L97.81778999999915,693.0388133832 L99.85873399999764,692.95229596056 L101.77211899999747,692.85993543428 L103.68550399999913,692.76139244776 L105.72644799999944,692.65629062368 L107.63983299999927,692.54424124448 L109.68077699999958,692.42484325236 L111.59416199999941,692.29767090904 L113.50754699999925,692.16226762564 L115.54849099999956,692.01817064316 L117.46187599999939,691.864886352 L119.5028199999997,691.7019026322 L121.41620499999954,691.52868268332 L123.45714899999803,691.34465885432 L125.37053399999786,691.1492449838 L127.2839189999977,690.94183022988 L129.32486299999982,690.7217729000799 L131.23824799999966,690.48840045132 L133.27919199999815,690.24102800028 L135.19257699999798,689.97891513256 L137.10596199999782,689.70132143376 L139.14690599999994,689.4074509584 L141.06029099999978,689.09649542076 L143.1012350000001,688.76760334428 L145.01461999999992,688.4198924018 L146.92800499999794,688.05244941556 L148.96894899999825,687.6643303572 L150.88233399999808,687.2545726879999 L152.9232780000002,686.8221089772 L154.83666300000004,686.3659520056 L156.87760699999853,685.8849294504 L158.79099199999837,685.3780540924 L160.7043769999982,684.8440302064 L162.7453209999985,684.2817471708 L164.65870600000017,683.6899092604 L166.69964999999866,683.0672824512 L168.6130349999985,682.412571018 L170.52641999999832,681.7244175344 L172.56736399999863,681.001464574 L174.48074899999847,680.2422930092 L176.5216930000006,679.44536031 L178.4350779999986,678.60930905 L180.34846299999845,677.7324732968 L182.38940699999876,676.8134339228 L184.3027919999986,675.8504632944 L186.3437359999989,674.8420188816 L188.25712100000055,673.7863730508 L190.29806499999904,672.6818598696 L192.21144999999888,671.5267517044 L194.1248349999987,670.3193209216 L196.16577899999902,669.057654784 L198.07916399999885,667.7400873592 L200.12010799999916,666.3646442088 L202.033492999999,664.929535998 L203.94687799999883,663.4328499896 L205.98782199999914,661.8726734464 L207.90120699999898,660.24703193 L209.94215099999747,658.5540127032 L211.8555359999973,656.7917030288 L213.76892099999895,654.9580667672 L215.80986499999926,653.0510677788 L217.7232499999991,651.0688550276 L219.7641939999994,649.0092689716 L221.67757899999924,646.8704585748 L223.71852299999773,644.6503876976 L225.63190799999938,642.3470202004 L227.54529299999922,639.958443346 L229.58623699999953,637.482682696 L231.49962199999936,634.917763812 L233.54056599999785,632.261527152 L235.4539509999977,629.512738692 L237.36733599999934,626.668930384 L239.40827999999965,623.728868204 L241.32166499999948,620.690084104 L243.36260899999797,617.550727048 L245.2759939999978,614.310180024 L247.18937899999764,610.965357972 L249.23032299999977,607.51564388 L251.1437079999996,603.959803724 L253.18465199999991,600.295369456 L255.09803699999975,596.5211070519999 L257.13898099999824,592.637016512 L259.0523659999981,588.640012776 L260.9657509999997,584.530095844 L263.00669500000004,580.306031692 L264.92007999999987,575.967203308 L266.96102399999836,571.511759656 L268.8744089999982,566.940317748 L270.78779399999803,562.251026548 L272.82873800000016,557.443886056 L274.742123,552.518896272 L276.7830669999985,547.475440184 L278.6964519999983,542.314134804 L280.60983699999815,537.0337461080001 L282.65078099999846,531.6355081199999 L284.5641659999983,526.11942084 L286.6051100000004,520.48610128 L288.51849500000026,514.73554944 L290.55943899999875,508.869616356 L292.4728239999986,502.88891904 L294.3862089999984,496.794691516 L296.4271529999987,490.588167808 L298.3405380000004,484.271198952 L300.38148199999887,477.84501897200005 L302.2948669999987,471.311478904 L304.20825199999854,464.673663808 L306.24919599999885,457.932190696 L308.1625809999987,451.091378652 L310.203524999999,444.1524617 L312.1169099999988,437.119141912 L314.03029499999866,429.993887336 L316.07123899999897,422.781017056 L317.9846239999988,415.48299912 L320.0255679999991,408.1035356 L321.93895299999895,400.64694558 L323.97989699999926,393.116931132 L325.8932819999991,385.51781134 L327.8066669999989,377.8545223 L329.84761099999923,370.130766084 L331.76099599999907,362.35209580000003 L333.8019399999994,354.52344754399996 L335.7153249999992,346.649757412 L337.62870999999905,338.736578512 L339.66965399999935,330.789463952 L341.5830389999992,322.81396684000003 L343.6239829999977,314.815640284 L345.5373679999975,306.80127141599996 L347.45075299999917,298.77641334399993 L349.4916969999995,290.7478532 L351.4050819999993,282.72114409200003 L353.4460259999978,274.70369016399997 L355.35941099999764,266.70227854800004 L357.40035499999976,258.72307936400006 L359.3137399999996,250.773496756 L361.22712499999943,242.85970084399997 L363.26806899999974,234.989712784 L365.1814539999996,227.17031970799997 L367.22239799999807,219.40830874799997 L369.1357829999979,211.71170106 L371.04916799999955,204.08728377600005 L373.09011199999986,196.54246103999998 L375.0034969999997,189.08463699600003 L377.0444409999982,181.721215788 L378.957825999998,174.45960156 L380.87121099999786,167.30658144400002 L382.912155,160.27017659600006 L384.8255399999998,153.357174148 L386.8664839999983,146.574361232 L388.77986899999814,139.92975900400006 L390.82081299999845,133.43015459599997 L392.7341979999983,127.08233514000005 L394.64758299999994,120.89308776799999 L396.68852700000025,114.86919961199999 L398.6019120000001,109.01745780400006 L400.6428559999986,103.34403246400007 L402.5562409999984,97.85509371199998 L404.46962599999824,92.55742868000004 L406.51057000000037,87.45659047599997 L408.4239550000002,82.55874921999998 L410.4648989999987,77.868841008 L412.37828399999853,73.39303596000002 L414.29166899999836,69.13565315999995 L416.3326129999987,65.10039468000002 L418.2459979999985,61.299600759999976 L420.2869419999988,57.72710127999994 L422.20032699999865,54.389066360000015 L424.24127099999896,51.29783624000004 L426.1546559999988,48.44724080000003 L428.06804099999863,45.84345016000009 L430.10898499999894,43.492634440000074 L432.0223700000006,41.40096375999997 L434.0633139999991,39.56226800000002 L435.9766989999989,37.976547159999996 L437.89008399999875,36.656141479999974 L439.93102799999906,35.60105095999995 L441.8444129999989,34.805105480000066 L443.8853569999992,34.274475160000065 L445.79874199999904,34.00915999999995 L447.7121269999989,34.00915999999995 L449.7530709999992,34.274475160000065 L451.666455999999,34.805105480000066 L453.7073999999975,35.60105095999995 L455.62078499999916,36.656141479999974 L457.66172899999947,37.976547159999996 L459.5751139999993,39.56226800000002 L461.48849899999914,41.40096375999997 L463.52944299999945,43.492634440000074 L465.44282799999746,45.84345016000009 L467.4837719999996,48.44724080000003 L469.3971569999994,51.29783624000004 L471.31054199999926,54.389066360000015 L473.35148599999957,57.72710127999994 L475.2648709999994,61.299600759999976 L477.3058149999979,65.10039468000002 L479.21919999999955,69.13565315999995 L481.1325849999994,73.39303596000002 L483.1735289999997,77.868841008 L485.0869139999995,82.55874921999998 L487.127857999998,87.45659047599997 L489.04124299999785,92.55742868000004 L491.082187,97.85509371199998 L492.9955719999998,103.34403246400007 L494.90895699999965,109.01745780400006 L496.94990099999814,114.86919961199999 L498.86328599999797,120.89308776799999 L500.9042299999983,127.08233514000005 L502.8176149999981,133.43015459599997 L504.73099999999977,139.92975900400006 L506.7719440000001,146.574361232 L508.6853289999999,153.357174148 L510.7262729999984,160.27017659600006 L512.6396579999982,167.30658144400002 L514.5530429999981,174.45960156 L516.5939870000002,181.721215788 L518.507372,189.08463699600003 L520.5483159999985,196.54246103999998 L522.4617009999984,204.08728377600005 L524.5026449999987,211.71170106 L526.4160299999985,219.40830874799997 L528.3294150000002,227.17031970799997 L530.3703589999986,234.989712784 L532.2837439999985,242.85970084399997 L534.3246879999988,250.773496756 L536.2380729999986,258.72307936400006 L538.1514579999985,266.70227854800004 L540.1924020000006,274.70369016399997 L542.1057870000004,282.72114409200003 L544.1467309999989,290.7478532 L546.0601159999987,298.77641334399993 L547.9735009999986,306.80127141599996 L550.0144449999989,314.815640284 L551.9278299999987,322.81396684000003 L553.968773999999,330.789463952 L555.8821589999989,338.736578512 L557.9231029999992,346.649757412 L559.836487999999,354.52344754399996 L561.7498729999988,362.35209580000003 L563.7908169999973,370.130766084 L565.704201999999,377.8545223 L567.7451459999993,385.51781134 L569.6585309999991,393.116931132 L571.571915999999,400.64694558 L573.6128599999993,408.1035356 L575.5262449999991,415.48299912 L577.5671889999994,422.781017056 L579.4805739999993,429.993887336 L581.3939589999991,437.119141912 L583.4349029999994,444.1524617 L585.3482879999992,451.091378652 L587.3892319999977,457.932190696 L589.3026169999994,464.673663808 L591.3435609999997,471.311478904 L593.2569459999995,477.84501897200005 L595.1703309999994,484.271198952 L597.2112749999978,490.588167808 L599.1246599999977,496.794691516 L601.1656039999998,502.88891904 L603.0789889999996,508.869616356 L604.9923739999995,514.73554944 L607.0333179999998,520.48610128 L608.9467029999978,526.11942084 L610.9876469999981,531.6355081199999 L612.9010319999998,537.0337461080001 L614.8144169999996,542.314134804 L616.8553609999999,547.475440184 L618.7687459999997,552.518896272 L620.8096899999982,557.443886056 L622.7230749999981,562.251026548 L624.7640190000002,566.940317748 L626.677404,571.511759656 L628.5907889999999,575.967203308 L630.6317329999983,580.306031692 L632.5451179999982,584.530095844 L634.5860619999985,588.640012776 L636.4994469999983,592.637016512 L638.412832,596.5211070519999 L640.4537759999985,600.295369456 L642.3671609999983,603.959803724 L644.4081049999986,607.51564388 L646.3214899999984,610.965357972 L648.2348749999983,614.310180024 L650.2758190000004,617.550727048 L652.1892040000002,620.690084104 L654.2301479999987,623.728868204 L656.1435329999986,626.668930384 L658.1844769999989,629.512738692 L660.0978619999987,632.261527152 L662.0112470000004,634.917763812 L664.0521909999989,637.482682696 L665.9655759999987,639.958443346 L668.006519999999,642.3470202004 L669.9199049999988,644.6503876976 L671.8332899999987,646.8704585748 L673.874233999999,649.0092689716 L675.7876189999988,651.0688550276 L677.8285629999991,653.0510677788 L679.741947999999,654.9580667672 L681.6553329999988,656.7917030288 L683.6962769999991,658.5540127032 L685.6096619999989,660.24703193 L687.6506059999992,661.8726734464 L689.5639909999991,663.4328499896 L691.6049349999994,664.929535998 L693.5183199999992,666.3646442088 L695.431704999999,667.7400873592 L697.4726489999975,669.057654784 L699.3860339999992,670.3193209216 L701.4269779999995,671.5267517044 L703.3403629999993,672.6818598696 L705.2537479999992,673.7863730508 L707.2946919999977,674.8420188816 L709.2080769999975,675.8504632944 L711.2490209999996,676.8134339228 L713.1624059999995,677.7324732968 L715.0757909999993,678.60930905 L717.1167349999996,679.44536031 L719.0301199999994,680.2422930092 L721.0710639999979,681.001464574 L722.9844489999996,681.7244175344 L725.0253929999999,682.412571018 L726.9387779999997,683.0672824512 L728.8521629999996,683.6899092604 L730.893106999998,684.2817471708 L732.8064919999979,684.8440302064 L734.847436,685.3780540924 L736.7608209999999,685.8849294504 L738.6742059999997,686.3659520056 L740.7151499999982,686.8221089772 L742.628534999998,687.2545726879999 L744.6694789999983,687.6643303572 L746.582864,688.05244941556 L748.4962489999998,688.4198924018 L750.5371930000001,688.76760334428 L752.4505779999981,689.09649542076 L754.4915219999984,689.4074509584 L756.4049069999983,689.70132143376 L758.4458510000004,689.97891513256 L760.3592360000002,690.24102800028 L762.2726210000001,690.48840045132 L764.3135649999986,690.7217729000799 L766.2269499999984,690.94183022988 L768.2678939999987,691.1492449838 L770.1812789999985,691.34465885432 L772.0946640000002,691.52868268332 L774.1356079999987,691.7019026322 L776.0489929999985,691.864886352 L778.0899369999988,692.01817064316 L780.0033219999987,692.16226762564 L781.9167069999985,692.29767090904 L783.9576509999988,692.42484325236 L785.8710359999986,692.54424124448 L787.911979999999,692.65629062368 L789.8253649999988,692.76139244776 L791.8663089999991,692.85993543428 L793.7796939999989,692.95229596056 L795.6930790000006,693.0388133832 L797.7340229999991,693.11983322892 L799.6474079999989,693.19566400372 L801.6883519999992,693.26660804348 L803.601736999999,693.33295534384 L805.5151219999989,693.39497121996 L807.5560659999992,693.452920987 L809.469450999999,693.50704527964 L811.5103949999993,693.55757239232 L813.4237799999992,693.604720130276 L815.337164999999,693.6486988946 L817.3781089999975,693.689703044072 L819.2914939999973,693.7279164482679 L821.3324379999995,693.763514955608 L823.2458229999993,693.796662074272 L825.2867669999996,693.8275139082959 L827.2001519999994,693.856217306536 L829.1135369999993,693.8829104796799 L831.1544809999996,693.907723000248 L833.0678659999994,693.930777653628 L835.1088099999997,693.952190438076 L837.0221949999996,693.97206871368 L838.9355799999994,693.990515521444 L838.9355799999994,694.212 L837.0221949999996,694.212 L835.1088099999997,694.212 L833.0678659999994,694.212 L831.1544809999996,694.212 L829.1135369999993,694.212 L827.2001519999994,694.212 L825.2867669999996,694.212 L823.2458229999993,694.212 L821.3324379999995,694.212 L819.2914939999973,694.212 L817.3781089999975,694.212 L815.337164999999,694.212 L813.4237799999992,694.212 L811.5103949999993,694.212 L809.469450999999,694.212 L807.5560659999992,694.212 L805.5151219999989,694.212 L803.601736999999,694.212 L801.6883519999992,694.212 L799.6474079999989,694.212 L797.7340229999991,694.212 L795.6930790000006,694.212 L793.7796939999989,694.212 L791.8663089999991,694.212 L789.8253649999988,694.212 L787.911979999999,694.212 L785.8710359999986,694.212 L783.9576509999988,694.212 L781.9167069999985,694.212 L780.0033219999987,694.212 L778.0899369999988,694.212 L776.0489929999985,694.212 L774.1356079999987,694.212 L772.0946640000002,694.212 L770.1812789999985,694.212 L768.2678939999987,694.212 L766.2269499999984,694.212 L764.3135649999986,694.212 L762.2726210000001,694.212 L760.3592360000002,694.212 L758.4458510000004,694.212 L756.4049069999983,694.212 L754.4915219999984,694.212 L752.4505779999981,694.212 L750.5371930000001,694.212 L748.4962489999998,694.212 L746.582864,694.212 L744.6694789999983,694.212 L742.628534999998,694.212 L740.7151499999982,694.212 L738.6742059999997,694.212 L736.7608209999999,694.212 L734.847436,694.212 L732.8064919999979,694.212 L730.893106999998,694.212 L728.8521629999996,694.212 L726.9387779999997,694.212 L725.0253929999999,694.212 L722.9844489999996,694.212 L721.0710639999979,694.212 L719.0301199999994,694.212 L717.1167349999996,694.212 L715.0757909999993,694.212 L713.1624059999995,694.212 L711.2490209999996,694.212 L709.2080769999975,694.212 L707.2946919999977,694.212 L705.2537479999992,694.212 L703.3403629999993,694.212 L701.4269779999995,694.212 L699.3860339999992,694.212 L697.4726489999975,694.212 L695.431704999999,694.212 L693.5183199999992,694.212 L691.6049349999994,694.212 L689.5639909999991,694.212 L687.6506059999992,694.212 L685.6096619999989,694.212 L683.6962769999991,694.212 L681.6553329999988,694.212 L679.741947999999,694.212 L677.8285629999991,694.212 L675.7876189999988,694.212 L673.874233999999,694.212 L671.8332899999987,694.212 L669.9199049999988,694.212 L668.006519999999,694.212 L665.9655759999987,694.212 L664.0521909999989,694.212 L662.0112470000004,694.212 L660.0978619999987,694.212 L658.1844769999989,694.212 L656.1435329999986,694.212 L654.2301479999987,694.212 L652.1892040000002,694.212 L650.2758190000004,694.212 L648.2348749999983,694.212 L646.3214899999984,694.212 L644.4081049999986,694.212 L642.3671609999983,694.212 L640.4537759999985,694.212 L638.412832,694.212 L636.4994469999983,694.212 L634.5860619999985,694.212 L632.5451179999982,694.212 L630.6317329999983,694.212 L628.5907889999999,694.212 L626.677404,694.212 L624.7640190000002,694.212 L622.7230749999981,694.212 L620.8096899999982,694.212 L618.7687459999997,694.212 L616.8553609999999,694.212 L614.8144169999996,694.212 L612.9010319999998,694.212 L610.9876469999981,694.212 L608.9467029999978,694.212 L607.0333179999998,694.212 L604.9923739999995,694.212 L603.0789889999996,694.212 L601.1656039999998,694.212 L599.1246599999977,694.212 L597.2112749999978,694.212 L595.1703309999994,694.212 L593.2569459999995,694.212 L591.3435609999997,694.212 L589.3026169999994,694.212 L587.3892319999977,694.212 L585.3482879999992,694.212 L583.4349029999994,694.212 L581.3939589999991,694.212 L579.4805739999993,694.212 L577.5671889999994,694.212 L575.5262449999991,694.212 L573.6128599999993,694.212 L571.571915999999,694.212 L569.6585309999991,694.212 L567.7451459999993,694.212 L565.704201999999,694.212 L563.7908169999973,694.212 L561.7498729999988,694.212 L559.836487999999,694.212 L557.9231029999992,694.212 L555.8821589999989,694.212 L553.968773999999,694.212 L551.9278299999987,694.212 L550.0144449999989,694.212 L547.9735009999986,694.212 L546.0601159999987,694.212 L544.1467309999989,694.212 L542.1057870000004,694.212 L540.1924020000006,694.212 L538.1514579999985,694.212 L536.2380729999986,694.212 L534.3246879999988,694.212 L532.2837439999985,694.212 L530.3703589999986,694.212 L528.3294150000002,694.212 L526.4160299999985,694.212 L524.5026449999987,694.212 L522.4617009999984,694.212 L520.5483159999985,694.212 L518.507372,694.212 L516.5939870000002,694.212 L514.5530429999981,694.212 L512.6396579999982,694.212 L510.7262729999984,694.212 L508.6853289999999,694.212 L506.7719440000001,694.212 L504.73099999999977,694.212 L502.8176149999981,694.212 L500.9042299999983,694.212 L498.86328599999797,694.212 L496.94990099999814,694.212 L494.90895699999965,694.212 L492.9955719999998,694.212 L491.082187,694.212 L489.04124299999785,694.212 L487.127857999998,694.212 L485.0869139999995,694.212 L483.1735289999997,694.212 L481.1325849999994,694.212 L479.21919999999955,694.212 L477.3058149999979,694.212 L475.2648709999994,694.212 L473.35148599999957,694.212 L471.31054199999926,694.212 L469.3971569999994,694.212 L467.4837719999996,694.212 L465.44282799999746,694.212 L463.52944299999945,694.212 L461.48849899999914,694.212 L459.5751139999993,694.212 L457.66172899999947,694.212 L455.62078499999916,694.212 L453.7073999999975,694.212 L451.666455999999,694.212 L449.7530709999992,694.212 L447.7121269999989,694.212 L445.79874199999904,694.212 L443.8853569999992,694.212 L441.8444129999989,694.212 L439.93102799999906,694.212 L437.89008399999875,694.212 L435.9766989999989,694.212 L434.0633139999991,694.212 L432.0223700000006,694.212 L430.10898499999894,694.212 L428.06804099999863,694.212 L426.1546559999988,694.212 L424.24127099999896,694.212 L422.20032699999865,694.212 L420.2869419999988,694.212 L418.2459979999985,694.212 L416.3326129999987,694.212 L414.29166899999836,694.212 L412.37828399999853,694.212 L410.4648989999987,694.212 L408.4239550000002,694.212 L406.51057000000037,694.212 L404.46962599999824,694.212 L402.5562409999984,694.212 L400.6428559999986,694.212 L398.6019120000001,694.212 L396.68852700000025,694.212 L394.64758299999994,694.212 L392.7341979999983,694.212 L390.82081299999845,694.212 L388.77986899999814,694.212 L386.8664839999983,694.212 L384.8255399999998,694.212 L382.912155,694.212 L380.87121099999786,694.212 L378.957825999998,694.212 L377.0444409999982,694.212 L375.0034969999997,694.212 L373.09011199999986,694.212 L371.04916799999955,694.212 L369.1357829999979,694.212 L367.22239799999807,694.212 L365.1814539999996,694.212 L363.26806899999974,694.212 L361.22712499999943,694.212 L359.3137399999996,694.212 L357.40035499999976,694.212 L355.35941099999764,694.212 L353.4460259999978,694.212 L351.4050819999993,694.212 L349.4916969999995,694.212 L347.45075299999917,694.212 L345.5373679999975,694.212 L343.6239829999977,694.212 L341.5830389999992,694.212 L339.66965399999935,694.212 L337.62870999999905,694.212 L335.7153249999992,694.212 L333.8019399999994,694.212 L331.76099599999907,694.212 L329.84761099999923,694.212 L327.8066669999989,694.212 L325.8932819999991,694.212 L323.97989699999926,694.212 L321.93895299999895,694.212 L320.0255679999991,694.212 L317.9846239999988,694.212 L316.07123899999897,694.212 L314.03029499999866,694.212 L312.1169099999988,694.212 L310.203524999999,694.212 L308.1625809999987,694.212 L306.24919599999885,694.212 L304.20825199999854,694.212 L302.2948669999987,694.212 L300.38148199999887,694.212 L298.3405380000004,694.212 L296.4271529999987,694.212 L294.3862089999984,694.212 L292.4728239999986,694.212 L290.55943899999875,694.212 L288.51849500000026,694.212 L286.6051100000004,694.212 L284.5641659999983,694.212 L282.65078099999846,694.212 L280.60983699999815,694.212 L278.6964519999983,694.212 L276.7830669999985,694.212 L274.742123,694.212 L272.82873800000016,694.212 L270.78779399999803,694.212 L268.8744089999982,694.212 L266.96102399999836,694.212 L264.92007999999987,694.212 L263.00669500000004,694.212 L260.9657509999997,694.212 L259.0523659999981,694.212 L257.13898099999824,694.212 L255.09803699999975,694.212 L253.18465199999991,694.212 L251.1437079999996,694.212 L249.23032299999977,694.212 L247.18937899999764,694.212 L245.2759939999978,694.212 L243.36260899999797,694.212 L241.32166499999948,694.212 L239.40827999999965,694.212 L237.36733599999934,694.212 L235.4539509999977,694.212 L233.54056599999785,694.212 L231.49962199999936,694.212 L229.58623699999953,694.212 L227.54529299999922,694.212 L225.63190799999938,694.212 L223.71852299999773,694.212 L221.67757899999924,694.212 L219.7641939999994,694.212 L217.7232499999991,694.212 L215.80986499999926,694.212 L213.76892099999895,694.212 L211.8555359999973,694.212 L209.94215099999747,694.212 L207.90120699999898,694.212 L205.98782199999914,694.212 L203.94687799999883,694.212 L202.033492999999,694.212 L200.12010799999916,694.212 L198.07916399999885,694.212 L196.16577899999902,694.212 L194.1248349999987,694.212 L192.21144999999888,694.212 L190.29806499999904,694.212 L188.25712100000055,694.212 L186.3437359999989,694.212 L184.3027919999986,694.212 L182.38940699999876,694.212 L180.34846299999845,694.212 L178.4350779999986,694.212 L176.5216930000006,694.212 L174.48074899999847,694.212 L172.56736399999863,694.212 L170.52641999999832,694.212 L168.6130349999985,694.212 L166.69964999999866,694.212 L164.65870600000017,694.212 L162.7453209999985,694.212 L160.7043769999982,694.212 L158.79099199999837,694.212 L156.87760699999853,694.212 L154.83666300000004,694.212 L152.9232780000002,694.212 L150.88233399999808,694.212 L148.96894899999825,694.212 L146.92800499999794,694.212 L145.01461999999992,694.212 L143.1012350000001,694.212 L141.06029099999978,694.212 L139.14690599999994,694.212 L137.10596199999782,694.212 L135.19257699999798,694.212 L133.27919199999815,694.212 L131.23824799999966,694.212 L129.32486299999982,694.212 L127.2839189999977,694.212 L125.37053399999786,694.212 L123.45714899999803,694.212 L121.41620499999954,694.212 L119.5028199999997,694.212 L117.46187599999939,694.212 L115.54849099999956,694.212 L113.50754699999925,694.212 L111.59416199999941,694.212 L109.68077699999958,694.212 L107.63983299999927,694.212 L105.72644799999944,694.212 L103.68550399999913,694.212 L101.77211899999747,694.212 L99.85873399999764,694.212 L97.81778999999915,694.212 L95.90440499999931,694.212 L93.863460999999,694.212 L91.95007599999917,694.212 L90.03669099999752,694.212 L87.99574699999903,694.212 L86.0823619999992,694.212 L84.04141799999888,694.212 L82.12803299999905,694.212 L80.08708900000056,694.212 L78.1737039999989,694.212 L76.26031899999907,694.212 L74.21937499999876,694.212 L72.30598999999893,694.212 L70.26504599999862,694.212 L68.35166099999878,694.212 L66.43827599999895,694.212 L64.39733199999864,694.212 L62.48394699999881,694.212 L60.4430029999985,694.212 L58.52961799999866,694.212 L56.61623299999883,694.212 L54.57528900000034,694.212 "/>
                    </g>
                </g>
                <g fill="none" stroke="black" stroke-width="1" fill-rule="evenodd" stroke-linecap="square" stroke-linejoin="bevel" id="BarGraphItem_1">
                    <g fill="#3390ff" fill-opacity="0.294118" stroke="#3390ff" stroke-opacity="1" stroke-width="2" stroke-linecap="square" stroke-linejoin="bevel" transform="matrix(127.559,0,0,-6.17012,-13399.2,694.212)" font-family="Ioskeley Mono" font-size="24.9334" font-weight="400" font-style="normal">
                        <rect vector-effect="non-scaling-stroke" x="106.267" y="0" width="0.191416" height="3"/>
                        <rect vector-effect="non-scaling-stroke" x="106.479" y="0" width="0.191416" height="5"/>
                        <rect vector-effect="non-scaling-stroke" x="106.692" y="0" width="0.191416" height="8"/>
                        <rect vector-effect="non-scaling-stroke" x="106.905" y="0" width="0.191416" height="16"/>
                        <rect vector-effect="non-scaling-stroke" x="107.117" y="0" width="0.191416" height="35"/>
                        <rect vector-effect="non-scaling-stroke" x="107.33" y="0" width="0.191416" height="40"/>
                        <rect vector-effect="non-scaling-stroke" x="107.543" y="0" width="0.191416" height="57"/>
                        <rect vector-effect="non-scaling-stroke" x="107.755" y="0" width="0.191416" height="59"/>
                        <rect vector-effect="non-scaling-stroke" x="107.968" y="0" width="0.191416" height="86"/>
                        <rect vector-effect="non-scaling-stroke" x="108.181" y="0" width="0.191416" height="101"/>
                        <rect vector-effect="non-scaling-stroke" x="108.393" y="0" width="0.191416" height="101"/>
                        <rect vector-effect="non-scaling-stroke" x="108.606" y="0" width="0.191416" height="107"/>
                        <rect vector-effect="non-scaling-stroke" x="108.819" y="0" width="0.191416" height="105"/>
                        <rect vector-effect="non-scaling-stroke" x="109.032" y="0" width="0.191416" height="79"/>
                        <rect vector-effect="non-scaling-stroke" x="109.244" y="0" width="0.191416" height="67"/>
                        <rect vector-effect="non-scaling-stroke" x="109.457" y="0" width="0.191416" height="56"/>
                        <rect vector-effect="non-scaling-stroke" x="109.67" y="0" width="0.191416" height="40"/>
                        <rect vector-effect="non-scaling-stroke" x="109.882" y="0" width="0.191416" height="22"/>
                        <rect vector-effect="non-scaling-stroke" x="110.095" y="0" width="0.191416" height="9"/>
                        <rect vector-effect="non-scaling-stroke" x="110.308" y="0" width="0.191416" height="2"/>
                        <rect vector-effect="non-scaling-stroke" x="110.52" y="0" width="0.191416" height="2"/>
                    </g>
                </g>
                <g fill="none" stroke="black" stroke-width="1" fill-rule="evenodd" stroke-linecap="square" stroke-linejoin="bevel" id="PlotCurveItem_1">
                    <g fill="none" stroke="#ffb000" stroke-opacity="1" stroke-width="2" stroke-linecap="square" stroke-linejoin="bevel" font-family="Ioskeley Mono" font-size="24.9334" font-weight="400" font-style="normal">
                        <path vector-effect="non-scaling-stroke" fill-rule="evenodd" d="M54.57528900000034,693.990515521444 L56.61623299999883,693.97206871368 L58.52961799999866,693.952190438076 L60.4430029999985,693.930777653628 L62.48394699999881,693.907723000248 L64.39733199999864,693.8829104796799 L66.43827599999895,693.856217306536 L68.35166099999878,693.8275139082959 L70.26504599999862,693.796662074272 L72.30598999999893,693.763514955608 L74.21937499999876,693.7279164482679 L76.26031899999907,693.689703044072 L78.1737039999989,693.6486988946 L80.08708900000056,693.604720130276 L82.12803299999905,693.55757239232 L84.04141799999888,693.50704527964 L86.0823619999992,693.452920987 L87.99574699999903,693.39497121996 L90.03669099999752,693.33295534384 L91.95007599999917,693.26660804348 L93.863460999999,693.19566400372 L95.90440499999931,693.11983322892 L97.81778999999915,693.0388133832 L99.85873399999764,692.95229596056 L101.77211899999747,692.85993543428 L103.68550399999913,692.76139244776 L105.72644799999944,692.65629062368 L107.63983299999927,692.54424124448 L109.68077699999958,692.42484325236 L111.59416199999941,692.29767090904 L113.50754699999925,692.16226762564 L115.54849099999956,692.01817064316 L117.46187599999939,691.864886352 L119.5028199999997,691.7019026322 L121.41620499999954,691.52868268332 L123.45714899999803,691.34465885432 L125.37053399999786,691.1492449838 L127.2839189999977,690.94183022988 L129.32486299999982,690.7217729000799 L131.23824799999966,690.48840045132 L133.27919199999815,690.24102800028 L135.19257699999798,689.97891513256 L137.10596199999782,689.70132143376 L139.14690599999994,689.4074509584 L141.06029099999978,689.09649542076 L143.1012350000001,688.76760334428 L145.01461999999992,688.4198924018 L146.92800499999794,688.05244941556 L148.96894899999825,687.6643303572 L150.88233399999808,687.2545726879999 L152.9232780000002,686.8221089772 L154.83666300000004,686.3659520056 L156.87760699999853,685.8849294504 L158.79099199999837,685.3780540924 L160.7043769999982,684.8440302064 L162.7453209999985,684.2817471708 L164.65870600000017,683.6899092604 L166.69964999999866,683.0672824512 L168.6130349999985,682.412571018 L170.52641999999832,681.7244175344 L172.56736399999863,681.001464574 L174.48074899999847,680.2422930092 L176.5216930000006,679.44536031 L178.4350779999986,678.60930905 L180.34846299999845,677.7324732968 L182.38940699999876,676.8134339228 L184.3027919999986,675.8504632944 L186.3437359999989,674.8420188816 L188.25712100000055,673.7863730508 L190.29806499999904,672.6818598696 L192.21144999999888,671.5267517044 L194.1248349999987,670.3193209216 L196.16577899999902,669.057654784 L198.07916399999885,667.7400873592 L200.12010799999916,666.3646442088 L202.033492999999,664.929535998 L203.94687799999883,663.4328499896 L205.98782199999914,661.8726734464 L207.90120699999898,660.24703193 L209.94215099999747,658.5540127032 L211.8555359999973,656.7917030288 L213.76892099999895,654.9580667672 L215.80986499999926,653.0510677788 L217.7232499999991,651.0688550276 L219.7641939999994,649.0092689716 L221.67757899999924,646.8704585748 L223.71852299999773,644.6503876976 L225.63190799999938,642.3470202004 L227.54529299999922,639.958443346 L229.58623699999953,637.482682696 L231.49962199999936,634.917763812 L233.54056599999785,632.261527152 L235.4539509999977,629.512738692 L237.36733599999934,626.668930384 L239.40827999999965,623.728868204 L241.32166499999948,620.690084104 L243.36260899999797,617.550727048 L245.2759939999978,614.310180024 L247.18937899999764,610.965357972 L249.23032299999977,607.51564388 L251.1437079999996,603.959803724 L253.18465199999991,600.295369456 L255.09803699999975,596.5211070519999 L257.13898099999824,592.637016512 L259.0523659999981,588.640012776 L260.9657509999997,584.530095844 L263.00669500000004,580.306031692 L264.92007999999987,575.967203308 L266.96102399999836,571.511759656 L268.8744089999982,566.940317748 L270.78779399999803,562.251026548 L272.82873800000016,557.443886056 L274.742123,552.518896272 L276.7830669999985,547.475440184 L278.6964519999983,542.314134804 L280.60983699999815,537.0337461080001 L282.65078099999846,531.6355081199999 L284.5641659999983,526.11942084 L286.6051100000004,520.48610128 L288.51849500000026,514.73554944 L290.55943899999875,508.869616356 L292.4728239999986,502.88891904 L294.3862089999984,496.794691516 L296.4271529999987,490.588167808 L298.3405380000004,484.271198952 L300.38148199999887,477.84501897200005 L302.2948669999987,471.311478904 L304.20825199999854,464.673663808 L306.24919599999885,457.932190696 L308.1625809999987,451.091378652 L310.203524999999,444.1524617 L312.1169099999988,437.119141912 L314.03029499999866,429.993887336 L316.07123899999897,422.781017056 L317.9846239999988,415.48299912 L320.0255679999991,408.1035356 L321.93895299999895,400.64694558 L323.97989699999926,393.116931132 L325.8932819999991,385.51781134 L327.8066669999989,377.8545223 L329.84761099999923,370.130766084 L331.76099599999907,362.35209580000003 L333.8019399999994,354.52344754399996 L335.7153249999992,346.649757412 L337.62870999999905,338.736578512 L339.66965399999935,330.789463952 L341.5830389999992,322.81396684000003 L343.6239829999977,314.815640284 L345.5373679999975,306.80127141599996 L347.45075299999917,298.77641334399993 L349.4916969999995,290.7478532 L351.4050819999993,282.72114409200003 L353.4460259999978,274.70369016399997 L355.35941099999764,266.70227854800004 L357.40035499999976,258.72307936400006 L359.3137399999996,250.773496756 L361.22712499999943,242.85970084399997 L363.26806899999974,234.989712784 L365.1814539999996,227.17031970799997 L367.22239799999807,219.40830874799997 L369.1357829999979,211.71170106 L371.04916799999955,204.08728377600005 L373.09011199999986,196.54246103999998 L375.0034969999997,189.08463699600003 L377.0444409999982,181.721215788 L378.957825999998,174.45960156 L380.87121099999786,167.30658144400002 L382.912155,160.27017659600006 L384.8255399999998,153.357174148 L386.8664839999983,146.574361232 L388.77986899999814,139.92975900400006 L390.82081299999845,133.43015459599997 L392.7341979999983,127.08233514000005 L394.64758299999994,120.89308776799999 L396.68852700000025,114.86919961199999 L398.6019120000001,109.01745780400006 L400.6428559999986,103.34403246400007 L402.5562409999984,97.85509371199998 L404.46962599999824,92.55742868000004 L406.51057000000037,87.45659047599997 L408.4239550000002,82.55874921999998 L410.4648989999987,77.868841008 L412.37828399999853,73.39303596000002 L414.29166899999836,69.13565315999995 L416.3326129999987,65.10039468000002 L418.2459979999985,61.299600759999976 L420.2869419999988,57.72710127999994 L422.20032699999865,54.389066360000015 L424.24127099999896,51.29783624000004 L426.1546559999988,48.44724080000003 L428.06804099999863,45.84345016000009 L430.10898499999894,43.492634440000074 L432.0223700000006,41.40096375999997 L434.0633139999991,39.56226800000002 L435.9766989999989,37.976547159999996 L437.89008399999875,36.656141479999974 L439.93102799999906,35.60105095999995 L441.8444129999989,34.805105480000066 L443.8853569999992,34.274475160000065 L445.79874199999904,34.00915999999995 L447.7121269999989,34.00915999999995 L449.7530709999992,34.274475160000065 L451.666455999999,34.805105480000066 L453.7073999999975,35.60105095999995 L455.62078499999916,36.656141479999974 L457.66172899999947,37.976547159999996 L459.5751139999993,39.56226800000002 L461.48849899999914,41.40096375999997 L463.52944299999945,43.492634440000074 L465.44282799999746,45.84345016000009 L467.4837719999996,48.44724080000003 L469.3971569999994,51.29783624000004 L471.31054199999926,54.389066360000015 L473.35148599999957,57.72710127999994 L475.2648709999994,61.299600759999976 L477.3058149999979,65.10039468000002 L479.21919999999955,69.13565315999995 L481.1325849999994,73.39303596000002 L483.1735289999997,77.868841008 L485.0869139999995,82.55874921999998 L487.127857999998,87.45659047599997 L489.04124299999785,92.55742868000004 L491.082187,97.85509371199998 L492.9955719999998,103.34403246400007 L494.90895699999965,109.01745780400006 L496.94990099999814,114.86919961199999 L498.86328599999797,120.89308776799999 L500.9042299999983,127.08233514000005 L502.8176149999981,133.43015459599997 L504.73099999999977,139.92975900400006 L506.7719440000001,146.574361232 L508.6853289999999,153.357174148 L510.7262729999984,160.27017659600006 L512.6396579999982,167.30658144400002 L514.5530429999981,174.45960156 L516.5939870000002,181.721215788 L518.507372,189.08463699600003 L520.5483159999985,196.54246103999998 L522.4617009999984,204.08728377600005 L524.5026449999987,211.71170106 L526.4160299999985,219.40830874799997 L528.3294150000002,227.17031970799997 L530.3703589999986,234.989712784 L532.2837439999985,242.85970084399997 L534.3246879999988,250.773496756 L536.2380729999986,258.72307936400006 L538.1514579999985,266.70227854800004 L540.1924020000006,274.70369016399997 L542.1057870000004,282.72114409200003 L544.1467309999989,290.7478532 L546.0601159999987,298.77641334399993 L547.9735009999986,306.80127141599996 L550.0144449999989,314.815640284 L551.9278299999987,322.81396684000003 L553.968773999999,330.789463952 L555.8821589999989,338.736578512 L557.9231029999992,346.649757412 L559.836487999999,354.52344754399996 L561.7498729999988,362.35209580000003 L563.7908169999973,370.130766084 L565.704201999999,377.8545223 L567.7451459999993,385.51781134 L569.6585309999991,393.116931132 L571.571915999999,400.64694558 L573.6128599999993,408.1035356 L575.5262449999991,415.48299912 L577.5671889999994,422.781017056 L579.4805739999993,429.993887336 L581.3939589999991,437.119141912 L583.4349029999994,444.1524617 L585.3482879999992,451.091378652 L587.3892319999977,457.932190696 L589.3026169999994,464.673663808 L591.3435609999997,471.311478904 L593.2569459999995,477.84501897200005 L595.1703309999994,484.271198952 L597.2112749999978,490.588167808 L599.1246599999977,496.794691516 L601.1656039999998,502.88891904 L603.0789889999996,508.869616356 L604.9923739999995,514.73554944 L607.0333179999998,520.48610128 L608.9467029999978,526.11942084 L610.9876469999981,531.6355081199999 L612.9010319999998,537.0337461080001 L614.8144169999996,542.314134804 L616.8553609999999,547.475440184 L618.7687459999997,552.518896272 L620.8096899999982,557.443886056 L622.7230749999981,562.251026548 L624.7640190000002,566.940317748 L626.677404,571.511759656 L628.5907889999999,575.967203308 L630.6317329999983,580.306031692 L632.5451179999982,584.530095844 L634.5860619999985,588.640012776 L636.4994469999983,592.637016512 L638.412832,596.5211070519999 L640.4537759999985,600.295369456 L642.3671609999983,603.959803724 L644.4081049999986,607.51564388 L646.3214899999984,610.965357972 L648.2348749999983,614.310180024 L650.2758190000004,617.550727048 L652.1892040000002,620.690084104 L654.2301479999987,623.728868204 L656.1435329999986,626.668930384 L658.1844769999989,629.512738692 L660.0978619999987,632.261527152 L662.0112470000004,634.917763812 L664.0521909999989,637.482682696 L665.9655759999987,639.958443346 L668.006519999999,642.3470202004 L669.9199049999988,644.6503876976 L671.8332899999987,646.8704585748 L673.874233999999,649.0092689716 L675.7876189999988,651.0688550276 L677.8285629999991,653.0510677788 L679.741947999999,654.9580667672 L681.6553329999988,656.7917030288 L683.6962769999991,658.5540127032 L685.6096619999989,660.24703193 L687.6506059999992,661.8726734464 L689.5639909999991,663.4328499896 L691.6049349999994,664.929535998 L693.5183199999992,666.3646442088 L695.431704999999,667.7400873592 L697.4726489999975,669.057654784 L699.3860339999992,670.3193209216 L701.4269779999995,671.5267517044 L703.3403629999993,672.6818598696 L705.2537479999992,673.7863730508 L707.2946919999977,674.8420188816 L709.2080769999975,675.8504632944 L711.2490209999996,676.8134339228 L713.1624059999995,677.7324732968 L715.0757909999993,678.60930905 L717.1167349999996,679.44536031 L719.0301199999994,680.2422930092 L721.0710639999979,681.001464574 L722.9844489999996,681.7244175344 L725.0253929999999,682.412571018 L726.9387779999997,683.0672824512 L728.8521629999996,683.6899092604 L730.893106999998,684.2817471708 L732.8064919999979,684.8440302064 L734.847436,685.3780540924 L736.7608209999999,685.8849294504 L738.6742059999997,686.3659520056 L740.7151499999982,686.8221089772 L742.628534999998,687.2545726879999 L744.6694789999983,687.6643303572 L746.582864,688.05244941556 L748.4962489999998,688.4198924018 L750.5371930000001,688.76760334428 L752.4505779999981,689.09649542076 L754.4915219999984,689.4074509584 L756.4049069999983,689.70132143376 L758.4458510000004,689.97891513256 L760.3592360000002,690.24102800028 L762.2726210000001,690.48840045132 L764.3135649999986,690.7217729000799 L766.2269499999984,690.94183022988 L768.2678939999987,691.1492449838 L770.1812789999985,691.34465885432 L772.0946640000002,691.52868268332 L774.1356079999987,691.7019026322 L776.0489929999985,691.864886352 L778.0899369999988,692.01817064316 L780.0033219999987,692.16226762564 L781.9167069999985,692.29767090904 L783.9576509999988,692.42484325236 L785.8710359999986,692.54424124448 L787.911979999999,692.65629062368 L789.8253649999988,692.76139244776 L791.8663089999991,692.85993543428 L793.7796939999989,692.95229596056 L795.6930790000006,693.0388133832 L797.7340229999991,693.11983322892 L799.6474079999989,693.19566400372 L801.6883519999992,693.26660804348 L803.601736999999,693.33295534384 L805.5151219999989,693.39497121996 L807.5560659999992,693.452920987 L809.469450999999,693.50704527964 L811.5103949999993,693.55757239232 L813.4237799999992,693.604720130276 L815.337164999999,693.6486988946 L817.3781089999975,693.689703044072 L819.2914939999973,693.7279164482679 L821.3324379999995,693.763514955608 L823.2458229999993,693.796662074272 L825.2867669999996,693.8275139082959 L827.2001519999994,693.856217306536 L829.1135369999993,693.8829104796799 L831.1544809999996,693.907723000248 L833.0678659999994,693.930777653628 L835.1088099999997,693.952190438076 L837.0221949999996,693.97206871368 L838.9355799999994,693.990515521444 "/>
                    </g>
                </g>
                <g fill="none" stroke="black" stroke-width="1" fill-rule="evenodd" stroke-linecap="square" stroke-linejoin="bevel" id="PlotCurveItem_2">
                    <g fill="none" stroke="#ffb000" stroke-opacity="1" stroke-width="1" stroke-linecap="square" stroke-linejoin="bevel" font-family="Ioskeley Mono" font-size="24.9334" font-weight="400" font-style="normal">
                        <path vector-effect="non-scaling-stroke" fill-rule="evenodd" d="M54.57528900000034,694.212 L56.61623299999883,694.212 L58.52961799999866,694.212 L60.4430029999985,694.212 L62.48394699999881,694.212 L64.39733199999864,694.212 L66.43827599999895,694.212 L68.35166099999878,694.212 L70.26504599999862,694.212 L72.30598999999893,694.212 L74.21937499999876,694.212 L76.26031899999907,694.212 L78.1737039999989,694.212 L80.08708900000056,694.212 L82.12803299999905,694.212 L84.04141799999888,694.212 L86.0823619999992,694.212 L87.99574699999903,694.212 L90.03669099999752,694.212 L91.95007599999917,694.212 L93.863460999999,694.212 L95.90440499999931,694.212 L97.81778999999915,694.212 L99.85873399999764,694.212 L101.77211899999747,694.212 L103.68550399999913,694.212 L105.72644799999944,694.212 L107.63983299999927,694.212 L109.68077699999958,694.212 L111.59416199999941,694.212 L113.50754699999925,694.212 L115.54849099999956,694.212 L117.46187599999939,694.212 L119.5028199999997,694.212 L121.41620499999954,694.212 L123.45714899999803,694.212 L125.37053399999786,694.212 L127.2839189999977,694.212 L129.32486299999982,694.212 L131.23824799999966,694.212 L133.27919199999815,694.212 L135.19257699999798,694.212 L137.10596199999782,694.212 L139.14690599999994,694.212 L141.06029099999978,694.212 L143.1012350000001,694.212 L145.01461999999992,694.212 L146.92800499999794,694.212 L148.96894899999825,694.212 L150.88233399999808,694.212 L152.9232780000002,694.212 L154.83666300000004,694.212 L156.87760699999853,694.212 L158.79099199999837,694.212 L160.7043769999982,694.212 L162.7453209999985,694.212 L164.65870600000017,694.212 L166.69964999999866,694.212 L168.6130349999985,694.212 L170.52641999999832,694.212 L172.56736399999863,694.212 L174.48074899999847,694.212 L176.5216930000006,694.212 L178.4350779999986,694.212 L180.34846299999845,694.212 L182.38940699999876,694.212 L184.3027919999986,694.212 L186.3437359999989,694.212 L188.25712100000055,694.212 L190.29806499999904,694.212 L192.21144999999888,694.212 L194.1248349999987,694.212 L196.16577899999902,694.212 L198.07916399999885,694.212 L200.12010799999916,694.212 L202.033492999999,694.212 L203.94687799999883,694.212 L205.98782199999914,694.212 L207.90120699999898,694.212 L209.94215099999747,694.212 L211.8555359999973,694.212 L213.76892099999895,694.212 L215.80986499999926,694.212 L217.7232499999991,694.212 L219.7641939999994,694.212 L221.67757899999924,694.212 L223.71852299999773,694.212 L225.63190799999938,694.212 L227.54529299999922,694.212 L229.58623699999953,694.212 L231.49962199999936,694.212 L233.54056599999785,694.212 L235.4539509999977,694.212 L237.36733599999934,694.212 L239.40827999999965,694.212 L241.32166499999948,694.212 L243.36260899999797,694.212 L245.2759939999978,694.212 L247.18937899999764,694.212 L249.23032299999977,694.212 L251.1437079999996,694.212 L253.18465199999991,694.212 L255.09803699999975,694.212 L257.13898099999824,694.212 L259.0523659999981,694.212 L260.9657509999997,694.212 L263.00669500000004,694.212 L264.92007999999987,694.212 L266.96102399999836,694.212 L268.8744089999982,694.212 L270.78779399999803,694.212 L272.82873800000016,694.212 L274.742123,694.212 L276.7830669999985,694.212 L278.6964519999983,694.212 L280.60983699999815,694.212 L282.65078099999846,694.212 L284.5641659999983,694.212 L286.6051100000004,694.212 L288.51849500000026,694.212 L290.55943899999875,694.212 L292.4728239999986,694.212 L294.3862089999984,694.212 L296.4271529999987,694.212 L298.3405380000004,694.212 L300.38148199999887,694.212 L302.2948669999987,694.212 L304.20825199999854,694.212 L306.24919599999885,694.212 L308.1625809999987,694.212 L310.203524999999,694.212 L312.1169099999988,694.212 L314.03029499999866,694.212 L316.07123899999897,694.212 L317.9846239999988,694.212 L320.0255679999991,694.212 L321.93895299999895,694.212 L323.97989699999926,694.212 L325.8932819999991,694.212 L327.8066669999989,694.212 L329.84761099999923,694.212 L331.76099599999907,694.212 L333.8019399999994,694.212 L335.7153249999992,694.212 L337.62870999999905,694.212 L339.66965399999935,694.212 L341.5830389999992,694.212 L343.6239829999977,694.212 L345.5373679999975,694.212 L347.45075299999917,694.212 L349.4916969999995,694.212 L351.4050819999993,694.212 L353.4460259999978,694.212 L355.35941099999764,694.212 L357.40035499999976,694.212 L359.3137399999996,694.212 L361.22712499999943,694.212 L363.26806899999974,694.212 L365.1814539999996,694.212 L367.22239799999807,694.212 L369.1357829999979,694.212 L371.04916799999955,694.212 L373.09011199999986,694.212 L375.0034969999997,694.212 L377.0444409999982,694.212 L378.957825999998,694.212 L380.87121099999786,694.212 L382.912155,694.212 L384.8255399999998,694.212 L386.8664839999983,694.212 L388.77986899999814,694.212 L390.82081299999845,694.212 L392.7341979999983,694.212 L394.64758299999994,694.212 L396.68852700000025,694.212 L398.6019120000001,694.212 L400.6428559999986,694.212 L402.5562409999984,694.212 L404.46962599999824,694.212 L406.51057000000037,694.212 L408.4239550000002,694.212 L410.4648989999987,694.212 L412.37828399999853,694.212 L414.29166899999836,694.212 L416.3326129999987,694.212 L418.2459979999985,694.212 L420.2869419999988,694.212 L422.20032699999865,694.212 L424.24127099999896,694.212 L426.1546559999988,694.212 L428.06804099999863,694.212 L430.10898499999894,694.212 L432.0223700000006,694.212 L434.0633139999991,694.212 L435.9766989999989,694.212 L437.89008399999875,694.212 L439.93102799999906,694.212 L441.8444129999989,694.212 L443.8853569999992,694.212 L445.79874199999904,694.212 L447.7121269999989,694.212 L449.7530709999992,694.212 L451.666455999999,694.212 L453.7073999999975,694.212 L455.62078499999916,694.212 L457.66172899999947,694.212 L459.5751139999993,694.212 L461.48849899999914,694.212 L463.52944299999945,694.212 L465.44282799999746,694.212 L467.4837719999996,694.212 L469.3971569999994,694.212 L471.31054199999926,694.212 L473.35148599999957,694.212 L475.2648709999994,694.212 L477.3058149999979,694.212 L479.21919999999955,694.212 L481.1325849999994,694.212 L483.1735289999997,694.212 L485.0869139999995,694.212 L487.127857999998,694.212 L489.04124299999785,694.212 L491.082187,694.212 L492.9955719999998,694.212 L494.90895699999965,694.212 L496.94990099999814,694.212 L498.86328599999797,694.212 L500.9042299999983,694.212 L502.8176149999981,694.212 L504.73099999999977,694.212 L506.7719440000001,694.212 L508.6853289999999,694.212 L510.7262729999984,694.212 L512.6396579999982,694.212 L514.5530429999981,694.212 L516.5939870000002,694.212 L518.507372,694.212 L520.5483159999985,694.212 L522.4617009999984,694.212 L524.5026449999987,694.212 L526.4160299999985,694.212 L528.3294150000002,694.212 L530.3703589999986,694.212 L532.2837439999985,694.212 L534.3246879999988,694.212 L536.2380729999986,694.212 L538.1514579999985,694.212 L540.1924020000006,694.212 L542.1057870000004,694.212 L544.1467309999989,694.212 L546.0601159999987,694.212 L547.9735009999986,694.212 L550.0144449999989,694.212 L551.9278299999987,694.212 L553.968773999999,694.212 L555.8821589999989,694.212 L557.9231029999992,694.212 L559.836487999999,694.212 L561.7498729999988,694.212 L563.7908169999973,694.212 L565.704201999999,694.212 L567.7451459999993,694.212 L569.6585309999991,694.212 L571.571915999999,694.212 L573.6128599999993,694.212 L575.5262449999991,694.212 L577.5671889999994,694.212 L579.4805739999993,694.212 L581.3939589999991,694.212 L583.4349029999994,694.212 L585.3482879999992,694.212 L587.3892319999977,694.212 L589.3026169999994,694.212 L591.3435609999997,694.212 L593.2569459999995,694.212 L595.1703309999994,694.212 L597.2112749999978,694.212 L599.1246599999977,694.212 L601.1656039999998,694.212 L603.0789889999996,694.212 L604.9923739999995,694.212 L607.0333179999998,694.212 L608.9467029999978,694.212 L610.9876469999981,694.212 L612.9010319999998,694.212 L614.8144169999996,694.212 L616.8553609999999,694.212 L618.7687459999997,694.212 L620.8096899999982,694.212 L622.7230749999981,694.212 L624.7640190000002,694.212 L626.677404,694.212 L628.5907889999999,694.212 L630.6317329999983,694.212 L632.5451179999982,694.212 L634.5860619999985,694.212 L636.4994469999983,694.212 L638.412832,694.212 L640.4537759999985,694.212 L642.3671609999983,694.212 L644.4081049999986,694.212 L646.3214899999984,694.212 L648.2348749999983,694.212 L650.2758190000004,694.212 L652.1892040000002,694.212 L654.2301479999987,694.212 L656.1435329999986,694.212 L658.1844769999989,694.212 L660.0978619999987,694.212 L662.0112470000004,694.212 L664.0521909999989,694.212 L665.9655759999987,694.212 L668.006519999999,694.212 L669.9199049999988,694.212 L671.8332899999987,694.212 L673.874233999999,694.212 L675.7876189999988,694.212 L677.8285629999991,694.212 L679.741947999999,694.212 L681.6553329999988,694.212 L683.6962769999991,694.212 L685.6096619999989,694.212 L687.6506059999992,694.212 L689.5639909999991,694.212 L691.6049349999994,694.212 L693.5183199999992,694.212 L695.431704999999,694.212 L697.4726489999975,694.212 L699.3860339999992,694.212 L701.4269779999995,694.212 L703.3403629999993,694.212 L705.2537479999992,694.212 L707.2946919999977,694.212 L709.2080769999975,694.212 L711.2490209999996,694.212 L713.1624059999995,694.212 L715.0757909999993,694.212 L717.1167349999996,694.212 L719.0301199999994,694.212 L721.0710639999979,694.212 L722.9844489999996,694.212 L725.0253929999999,694.212 L726.9387779999997,694.212 L728.8521629999996,694.212 L730.893106999998,694.212 L732.8064919999979,694.212 L734.847436,694.212 L736.7608209999999,694.212 L738.6742059999997,694.212 L740.7151499999982,694.212 L742.628534999998,694.212 L744.6694789999983,694.212 L746.582864,694.212 L748.4962489999998,694.212 L750.5371930000001,694.212 L752.4505779999981,694.212 L754.4915219999984,694.212 L756.4049069999983,694.212 L758.4458510000004,694.212 L760.3592360000002,694.212 L762.2726210000001,694.212 L764.3135649999986,694.212 L766.2269499999984,694.212 L768.2678939999987,694.212 L770.1812789999985,694.212 L772.0946640000002,694.212 L774.1356079999987,694.212 L776.0489929999985,694.212 L778.0899369999988,694.212 L780.0033219999987,694.212 L781.9167069999985,694.212 L783.9576509999988,694.212 L785.8710359999986,694.212 L787.911979999999,694.212 L789.8253649999988,694.212 L791.8663089999991,694.212 L793.7796939999989,694.212 L795.6930790000006,694.212 L797.7340229999991,694.212 L799.6474079999989,694.212 L801.6883519999992,694.212 L803.601736999999,694.212 L805.5151219999989,694.212 L807.5560659999992,694.212 L809.469450999999,694.212 L811.5103949999993,694.212 L813.4237799999992,694.212 L815.337164999999,694.212 L817.3781089999975,694.212 L819.2914939999973,694.212 L821.3324379999995,694.212 L823.2458229999993,694.212 L825.2867669999996,694.212 L827.2001519999994,694.212 L829.1135369999993,694.212 L831.1544809999996,694.212 L833.0678659999994,694.212 L835.1088099999997,694.212 L837.0221949999996,694.212 L838.9355799999994,694.212 "/>
                    </g>
                </g>
                <g fill="none" stroke="black" stroke-width="1" fill-rule="evenodd" stroke-linecap="square" stroke-linejoin="bevel" id="InfiniteLine_1">
                    <g fill="none" stroke="#000000" stroke-opacity="1" stroke-dasharray="1,2" stroke-dashoffset="0" stroke-width="1" stroke-linecap="square" stroke-linejoin="miter" stroke-miterlimit="2" font-family="Ioskeley Mono" font-size="24.9334" font-weight="400" font-style="normal">
                        <polyline fill="none" vector-effect="non-scaling-stroke" points="152.65,694.212 152.65,0.9990180000000919"/>
                    </g>
                </g>
                <g fill="none" stroke="black" stroke-width="1" fill-rule="evenodd" stroke-linecap="square" stroke-linejoin="bevel" id="InfiniteLine_2">
                    <g fill="none" stroke="#000000" stroke-opacity="1" stroke-dasharray="1,2" stroke-dashoffset="0" stroke-width="1" stroke-linecap="square" stroke-linejoin="miter" stroke-miterlimit="2" font-family="Ioskeley Mono" font-size="24.9334" font-weight="400" font-style="normal">
                        <polyline fill="none" vector-effect="non-scaling-stroke" points="250.7,694.212 250.7,0.9990180000000919"/>
                    </g>
                </g>
                <g fill="none" stroke="black" stroke-width="1" fill-rule="evenodd" stroke-linecap="square" stroke-linejoin="bevel" id="InfiniteLine_3">
                    <g fill="none" stroke="#000000" stroke-opacity="1" stroke-dasharray="1,2" stroke-dashoffset="0" stroke-width="1" stroke-linecap="square" stroke-linejoin="miter" stroke-miterlimit="2" font-family="Ioskeley Mono" font-size="24.9334" font-weight="400" font-style="normal">
                        <polyline fill="none" vector-effect="non-scaling-stroke" points="348.75,694.212 348.75,0.9990180000000919"/>
                    </g>
                </g>
                <g fill="none" stroke="black" stroke-width="1" fill-rule="evenodd" stroke-linecap="square" stroke-linejoin="bevel" id="InfiniteLine_4">
                    <g fill="none" stroke="#000000" stroke-opacity="1" stroke-dasharray="8,4" stroke-dashoffset="0" stroke-width="2" stroke-linecap="square" stroke-linejoin="miter" stroke-miterlimit="2" font-family="Ioskeley Mono" font-size="24.9334" font-weight="400" font-style="normal">
                        <polyline fill="none" vector-effect="non-scaling-stroke" points="446.8,694.212 446.8,0.9990180000000919"/>
                    </g>
                </g>
                <g fill="none" stroke="black" stroke-width="1" fill-rule="evenodd" stroke-linecap="square" stroke-linejoin="bevel" id="InfiniteLine_5">
                    <g fill="none" stroke="#000000" stroke-opacity="1" stroke-dasharray="1,2" stroke-dashoffset="0" stroke-width="1" stroke-linecap="square" stroke-linejoin="miter" stroke-miterlimit="2" font-family="Ioskeley Mono" font-size="24.9334" font-weight="400" font-style="normal">
                        <polyline fill="none" vector-effect="non-scaling-stroke" points="544.85,694.212 544.85,0.9990180000000919"/>
                    </g>
                </g>
                <g fill="none" stroke="black" stroke-width="1" fill-rule="evenodd" stroke-linecap="square" stroke-linejoin="bevel" id="InfiniteLine_6">
                    <g fill="none" stroke="#000000" stroke-opacity="1" stroke-dasharray="1,2" stroke-dashoffset="0" stroke-width="1" stroke-linecap="square" stroke-linejoin="miter" stroke-miterlimit="2" font-family="Ioskeley Mono" font-size="24.9334" font-weight="400" font-style="normal">
                        <polyline fill="none" vector-effect="non-scaling-stroke" points="642.9,694.212 642.9,0.9990180000000919"/>
                    </g>
                </g>
                <g fill="none" stroke="black" stroke-width="1" fill-rule="evenodd" stroke-linecap="square" stroke-linejoin="bevel" id="InfiniteLine_7">
                    <g fill="none" stroke="#000000" stroke-opacity="1" stroke-dasharray="1,2" stroke-dashoffset="0" stroke-width="1" stroke-linecap="square" stroke-linejoin="miter" stroke-miterlimit="2" font-family="Ioskeley Mono" font-size="24.9334" font-weight="400" font-style="normal">
                        <polyline fill="none" vector-effect="non-scaling-stroke" points="740.95,694.212 740.95,0.9990180000000919"/>
                    </g>
                </g>
            </g>
            <g fill="none" stroke="black" stroke-width="1" fill-rule="evenodd" stroke-linecap="square" stroke-linejoin="bevel" id="QGraphicsRectItem_1">
                <g fill="none" stroke="none" transform="matrix(1,0,0,1,54.6,1)" font-family="Ioskeley Mono" font-size="24.9334" font-weight="400" font-style="normal">
                    <rect vector-effect="non-scaling-stroke" x="0" y="0" width="784.4" height="693.212"/>
                </g>
            </g>
        </g>
    </g>
    <g fill="none" stroke="black" stroke-width="1" fill-rule="evenodd" stroke-linecap="square" stroke-linejoin="bevel" id="AxisItem_1">
        <g fill="none" stroke="#000000" stroke-opacity="1" stroke-width="1" stroke-linecap="square" stroke-linejoin="bevel" font-family="Ioskeley Mono" font-size="24.9334" font-weight="400" font-style="normal">
            <polyline fill="none" vector-effect="non-scaling-stroke" points="53.6,0.0 840.0,0.0"/>
        </g>
        

    </g>
    <g fill="none" stroke="black" stroke-width="1" fill-rule="evenodd" stroke-linecap="square" stroke-linejoin="bevel" id="AxisItem_2">
        <g fill="none" stroke="#000000" stroke-opacity="1" stroke-width="1" stroke-linecap="square" stroke-linejoin="bevel" font-family="Ioskeley Mono" font-size="24.9334" font-weight="400" font-style="normal">
            <polyline fill="none" vector-effect="non-scaling-stroke" points="53.6,695.212 840.0,695.212"/>
        </g>
        <g fill="none" stroke="#000000" stroke-opacity="0.509804" stroke-dasharray="10,8" stroke-dashoffset="0" stroke-width="1" stroke-linecap="square" stroke-linejoin="bevel" font-family="Ioskeley Mono" font-size="24.9334" font-weight="400" font-style="normal">
            <polyline fill="none" vector-effect="non-scaling-stroke" points="152.65,1.0 152.65,694.212"/>
            <polyline fill="none" vector-effect="non-scaling-stroke" points="250.7,1.0 250.7,694.212"/>
            <polyline fill="none" vector-effect="non-scaling-stroke" points="348.75,1.0 348.75,694.212"/>
            <polyline fill="none" vector-effect="non-scaling-stroke" points="446.8,1.0 446.8,694.212"/>
            <polyline fill="none" vector-effect="non-scaling-stroke" points="544.85,1.0 544.85,694.212"/>
            <polyline fill="none" vector-effect="non-scaling-stroke" points="642.9,1.0 642.9,694.212"/>
            <polyline fill="none" vector-effect="non-scaling-stroke" points="740.95,1.0 740.95,694.212"/>
        </g>
        <g fill="none" stroke="#000000" stroke-opacity="1" stroke-width="1" stroke-linecap="square" stroke-linejoin="bevel" transform="matrix(1,0,0,1,54.6,694.212)" font-family="Ioskeley Mono" font-size="24.9334" font-weight="400" font-style="normal">
            <text fill="#000000" fill-opacity="1" stroke="none" xml:space="preserve" x="84.5469" y="16.4688" font-family="&quot;Ioskeley Mono&quot;" font-size="24.9334" font-weight="400" font-style="normal">-3σ</text>
            <text fill="#000000" fill-opacity="1" stroke="none" xml:space="preserve" x="71.0469" y="35.4688" font-family="&quot;Ioskeley Mono&quot;" font-size="24.9334" font-weight="400" font-style="normal">106.24</text>
            <text fill="#000000" fill-opacity="1" stroke="none" xml:space="preserve" x="182.594" y="16.4688" font-family="&quot;Ioskeley Mono&quot;" font-size="24.9334" font-weight="400" font-style="normal">-2σ</text>
            <text fill="#000000" fill-opacity="1" stroke="none" xml:space="preserve" x="169.094" y="35.4688" font-family="&quot;Ioskeley Mono&quot;" font-size="24.9334" font-weight="400" font-style="normal">107.01</text>
            <text fill="#000000" fill-opacity="1" stroke="none" xml:space="preserve" x="280.641" y="16.4688" font-family="&quot;Ioskeley Mono&quot;" font-size="24.9334" font-weight="400" font-style="normal">-1σ</text>
            <text fill="#000000" fill-opacity="1" stroke="none" xml:space="preserve" x="267.141" y="35.4688" font-family="&quot;Ioskeley Mono&quot;" font-size="24.9334" font-weight="400" font-style="normal">107.78</text>
            <text fill="#000000" fill-opacity="1" stroke="none" xml:space="preserve" x="374.188" y="16.4688" font-family="&quot;Ioskeley Mono&quot;" font-size="24.9334" font-weight="400" font-style="normal">mean</text>
            <text fill="#000000" fill-opacity="1" stroke="none" xml:space="preserve" x="365.188" y="35.4688" font-family="&quot;Ioskeley Mono&quot;" font-size="24.9334" font-weight="400" font-style="normal">108.55</text>
            <text fill="#000000" fill-opacity="1" stroke="none" xml:space="preserve" x="476.734" y="16.4688" font-family="&quot;Ioskeley Mono&quot;" font-size="24.9334" font-weight="400" font-style="normal">+1σ</text>
            <text fill="#000000" fill-opacity="1" stroke="none" xml:space="preserve" x="463.234" y="35.4688" font-family="&quot;Ioskeley Mono&quot;" font-size="24.9334" font-weight="400" font-style="normal">109.31</text>
            <text fill="#000000" fill-opacity="1" stroke="none" xml:space="preserve" x="574.797" y="16.4688" font-family="&quot;Ioskeley Mono&quot;" font-size="24.9334" font-weight="400" font-style="normal">+2σ</text>
            <text fill="#000000" fill-opacity="1" stroke="none" xml:space="preserve" x="561.297" y="35.4688" font-family="&quot;Ioskeley Mono&quot;" font-size="24.9334" font-weight="400" font-style="normal">110.08</text>
            <text fill="#000000" fill-opacity="1" stroke="none" xml:space="preserve" x="672.844" y="16.4688" font-family="&quot;Ioskeley Mono&quot;" font-size="24.9334" font-weight="400" font-style="normal">+3σ</text>
            <text fill="#000000" fill-opacity="1" stroke="none" xml:space="preserve" x="659.344" y="35.4688" font-family="&quot;Ioskeley Mono&quot;" font-size="24.9334" font-weight="400" font-style="normal">110.85</text>
        </g>
        <g fill="none" stroke="black" stroke-width="1" fill-rule="evenodd" stroke-linecap="square" stroke-linejoin="bevel" id="QGraphicsTextItem_1">
            


            


            


            <g fill="none" stroke="#000000" stroke-opacity="1" stroke-width="1" stroke-linecap="square" stroke-linejoin="bevel" transform="matrix(1,0,0,1,410.6,725.212)" font-family="Ioskeley Mono" font-size="24.9334" font-weight="400" font-style="normal">
                <text fill="#000000" fill-opacity="1" stroke="none" xml:space="preserve" x="4" y="18.4688" font-family="&quot;Ioskeley Mono&quot;" font-size="24.9334" font-weight="400" font-style="normal">Indukčnost L [µH] </text>
            </g>
            


            

        </g>
    </g>
    <g fill="none" stroke="black" stroke-width="1" fill-rule="evenodd" stroke-linecap="square" stroke-linejoin="bevel" id="AxisItem_3">
        <g fill="none" stroke="#000000" stroke-opacity="1" stroke-width="1" stroke-linecap="square" stroke-linejoin="bevel" font-family="Ioskeley Mono" font-size="24.9334" font-weight="400" font-style="normal">
            <polyline fill="none" vector-effect="non-scaling-stroke" points="53.6,0.0 53.6,695.212"/>
        </g>
        <g fill="none" stroke="#000000" stroke-opacity="0.509804" stroke-dasharray="10,8" stroke-dashoffset="0" stroke-width="1" stroke-linecap="square" stroke-linejoin="bevel" font-family="Ioskeley Mono" font-size="24.9334" font-weight="400" font-style="normal">
            <polyline fill="none" vector-effect="non-scaling-stroke" points="839.5,694.212 54.6,694.212"/>
            <polyline fill="none" vector-effect="non-scaling-stroke" points="839.5,614.001 54.6,614.001"/>
            <polyline fill="none" vector-effect="non-scaling-stroke" points="839.5,533.789 54.6,533.789"/>
            <polyline fill="none" vector-effect="non-scaling-stroke" points="839.5,453.578 54.6,453.578"/>
            <polyline fill="none" vector-effect="non-scaling-stroke" points="839.5,373.366 54.6,373.366"/>
            <polyline fill="none" vector-effect="non-scaling-stroke" points="839.5,293.155 54.6,293.155"/>
            <polyline fill="none" vector-effect="non-scaling-stroke" points="839.5,212.943 54.6,212.943"/>
            <polyline fill="none" vector-effect="non-scaling-stroke" points="839.5,132.732 54.6,132.732"/>
            <polyline fill="none" vector-effect="non-scaling-stroke" points="839.5,52.5205 54.6,52.5205"/>
        </g>
        <g fill="none" stroke="#000000" stroke-opacity="1" stroke-width="1" stroke-linecap="square" stroke-linejoin="bevel" transform="matrix(1,0,0,1,1,1)" font-family="Ioskeley Mono" font-size="24.9334" font-weight="400" font-style="normal">
            <text fill="#000000" fill-opacity="1" stroke="none" xml:space="preserve" x="30.5938" y="618.094" font-family="&quot;Ioskeley Mono&quot;" font-size="24.9334" font-weight="400" font-style="normal">13</text>
            <text fill="#000000" fill-opacity="1" stroke="none" xml:space="preserve" x="30.5938" y="537.891" font-family="&quot;Ioskeley Mono&quot;" font-size="24.9334" font-weight="400" font-style="normal">26</text>
            <text fill="#000000" fill-opacity="1" stroke="none" xml:space="preserve" x="30.5938" y="457.672" font-family="&quot;Ioskeley Mono&quot;" font-size="24.9334" font-weight="400" font-style="normal">39</text>
            <text fill="#000000" fill-opacity="1" stroke="none" xml:space="preserve" x="30.5938" y="377.453" font-family="&quot;Ioskeley Mono&quot;" font-size="24.9334" font-weight="400" font-style="normal">52</text>
            <text fill="#000000" fill-opacity="1" stroke="none" xml:space="preserve" x="30.5938" y="297.25" font-family="&quot;Ioskeley Mono&quot;" font-size="24.9334" font-weight="400" font-style="normal">65</text>
            <text fill="#000000" fill-opacity="1" stroke="none" xml:space="preserve" x="30.5938" y="217.031" font-family="&quot;Ioskeley Mono&quot;" font-size="24.9334" font-weight="400" font-style="normal">78</text>
            <text fill="#000000" fill-opacity="1" stroke="none" xml:space="preserve" x="30.5938" y="136.828" font-family="&quot;Ioskeley Mono&quot;" font-size="24.9334" font-weight="400" font-style="normal">91</text>
            <text fill="#000000" fill-opacity="1" stroke="none" xml:space="preserve" x="21.5938" y="56.6094" font-family="&quot;Ioskeley Mono&quot;" font-size="24.9334" font-weight="400" font-style="normal">104</text>
        </g>
        <g fill="none" stroke="black" stroke-width="1" fill-rule="evenodd" stroke-linecap="square" stroke-linejoin="bevel" id="QGraphicsTextItem_2">
            


            


            


            <g fill="none" stroke="#000000" stroke-opacity="1" stroke-width="1" stroke-linecap="square" stroke-linejoin="bevel" transform="matrix(0,-1,1,0,-4,455)" font-family="Ioskeley Mono" font-size="24.9334" font-weight="400" font-style="normal">
                <text fill="#000000" fill-opacity="1" stroke="none" xml:space="preserve" x="4" y="18.4688" font-family="&quot;Ioskeley Mono&quot;" font-size="24.9334" font-weight="400" font-style="normal">Počet / škálovaná hustota </text>
            </g>
            


            

        </g>
    </g>
    <g fill="none" stroke="black" stroke-width="1" fill-rule="evenodd" stroke-linecap="square" stroke-linejoin="bevel" id="AxisItem_4">
        <g fill="none" stroke="#000000" stroke-opacity="1" stroke-width="1" stroke-linecap="square" stroke-linejoin="bevel" font-family="Ioskeley Mono" font-size="24.9334" font-weight="400" font-style="normal">
            <polyline fill="none" vector-effect="non-scaling-stroke" points="840.0,0.0 840.0,695.212"/>
        </g>
        

    </g>
</g>

</svg>
