<?xml version="1.0" encoding="UTF-8" standalone="no"?>
<svg
   width="432pt"
   height="288pt"
   viewBox="0 0 432 288"
   version="1.1"
   id="svg16451"
   sodipodi:docname="signal_chart.svg"
   inkscape:export-filename="../peak_detect_chart.pdf"
   inkscape:export-xdpi="96"
   inkscape:export-ydpi="96"
   inkscape:version="1.2.2 (b0a8486541, 2022-12-01)"
   xmlns:inkscape="http://www.inkscape.org/namespaces/inkscape"
   xmlns:sodipodi="http://sodipodi.sourceforge.net/DTD/sodipodi-0.dtd"
   xmlns:xlink="http://www.w3.org/1999/xlink"
   xmlns="http://www.w3.org/2000/svg"
   xmlns:svg="http://www.w3.org/2000/svg"
   xmlns:rdf="http://www.w3.org/1999/02/22-rdf-syntax-ns#"
   xmlns:cc="http://creativecommons.org/ns#"
   xmlns:dc="http://purl.org/dc/elements/1.1/">
  <sodipodi:namedview
     id="namedview16453"
     pagecolor="#ffffff"
     bordercolor="#000000"
     borderopacity="0.25"
     inkscape:showpageshadow="2"
     inkscape:pageopacity="0.0"
     inkscape:pagecheckerboard="0"
     inkscape:deskcolor="#d1d1d1"
     inkscape:document-units="pt"
     showgrid="false"
     inkscape:zoom="2.0149918"
     inkscape:cx="310.91937"
     inkscape:cy="136.47698"
     inkscape:window-width="1920"
     inkscape:window-height="1118"
     inkscape:window-x="0"
     inkscape:window-y="0"
     inkscape:window-maximized="1"
     inkscape:current-layer="axes_1" />
  <metadata
     id="metadata16016">
    <rdf:RDF>
      <cc:Work>
        <dc:type
           rdf:resource="http://purl.org/dc/dcmitype/StillImage" />
        <dc:date>2025-12-03T16:19:49.964413</dc:date>
        <dc:format>image/svg+xml</dc:format>
        <dc:creator>
          <cc:Agent>
            <dc:title>Matplotlib v3.6.3, https://matplotlib.org/</dc:title>
          </cc:Agent>
        </dc:creator>
      </cc:Work>
    </rdf:RDF>
  </metadata>
  <defs
     id="defs16020">
    <style
       type="text/css"
       id="style16018">*{stroke-linejoin: round; stroke-linecap: butt}</style>
  </defs>
  <g
     id="figure_1">
    <g
       id="patch_1">
      <path
         d="M 0 288  L 432 288  L 432 0  L 0 0  z "
         style="fill: #ffffff"
         id="path16022" />
    </g>
    <g
       id="axes_1">
      <g
         id="patch_2">
        <path
           d="M 46.65125 242.2375  L 409.14 242.2375  L 409.14 14.4  L 46.65125 14.4  z "
           style="fill: #ffffff"
           id="path16025" />
      </g>
      <g
         id="matplotlib.axis_1">
        <g
           id="xtick_1">
          <g
             id="line2d_1">
            <path
               d="M 46.65125 242.2375  L 46.65125 14.4  "
               clip-path="url(#p3433d70922)"
               style="fill: none; stroke-dasharray: 2.96,1.28; stroke-dashoffset: 0; stroke: #b0b0b0; stroke-opacity: 0.7; stroke-width: 0.8"
               id="path16028" />
          </g>
          <g
             id="line2d_2">
            <defs
               id="defs16032">
              <path
                 id="ma180105156"
                 d="M 0 0  L 0 3.5  "
                 style="stroke: #000000; stroke-width: 0.8" />
            </defs>
            <g
               id="g16036">
              <use
                 xlink:href="#ma180105156"
                 x="46.65125"
                 y="242.2375"
                 style="stroke: #000000; stroke-width: 0.8"
                 id="use16034" />
            </g>
          </g>
          <g
             id="text_1">
            <!-- 0.0 -->
            <g
               transform="translate(37.65125 256.6375) scale(0.1 -0.1)"
               id="g16049">
              <defs
                 id="defs16041">
                <path
                   id="Ioskeley-Mono-30"
                   d="M 1920 -51  Q 1792 -51 1667 -41  Q 1542 -32 1420 -6  Q 1299 19 1180 60  Q 1062 102 953 169  Q 845 237 755 323  Q 666 410 605 522  Q 544 634 518 755  Q 493 877 493 1005  L 493 3411  Q 493 3539 518 3660  Q 544 3782 605 3894  Q 666 4006 755 4092  Q 845 4179 953 4246  Q 1062 4314 1180 4355  Q 1299 4397 1420 4422  Q 1542 4448 1667 4457  Q 1792 4467 1920 4467  Q 2048 4467 2173 4457  Q 2298 4448 2419 4422  Q 2541 4397 2659 4355  Q 2778 4314 2886 4246  Q 2995 4179 3084 4092  Q 3174 4006 3235 3894  Q 3296 3782 3321 3660  Q 3347 3539 3347 3411  L 3347 1005  Q 3347 877 3321 755  Q 3296 634 3235 522  Q 3174 410 3084 323  Q 2995 237 2886 169  Q 2778 102 2659 60  Q 2541 19 2419 -6  Q 2298 -32 2173 -41  Q 2048 -51 1920 -51  z M 1920 422  Q 2022 422 2121 428  Q 2221 435 2317 460  Q 2413 486 2505 531  Q 2598 576 2672 646  Q 2746 717 2781 809  Q 2816 902 2816 1005  L 2816 3411  Q 2816 3514 2781 3606  Q 2746 3699 2672 3769  Q 2598 3840 2505 3885  Q 2413 3930 2317 3955  Q 2221 3981 2121 3987  Q 2022 3994 1920 3994  Q 1818 3994 1718 3987  Q 1619 3981 1523 3955  Q 1427 3930 1334 3885  Q 1242 3840 1168 3769  Q 1094 3699 1059 3606  Q 1024 3514 1024 3411  L 1024 1005  Q 1024 902 1059 809  Q 1094 717 1168 646  Q 1242 576 1334 531  Q 1427 486 1523 460  Q 1619 435 1718 428  Q 1818 422 1920 422  z M 1920 1811  Q 1837 1811 1760 1833  Q 1683 1856 1625 1913  Q 1568 1971 1545 2048  Q 1523 2125 1523 2208  Q 1523 2291 1545 2368  Q 1568 2445 1625 2502  Q 1683 2560 1760 2582  Q 1837 2605 1920 2605  Q 2003 2605 2080 2582  Q 2157 2560 2214 2502  Q 2272 2445 2297 2368  Q 2323 2291 2323 2208  Q 2323 2125 2297 2048  Q 2272 1971 2214 1913  Q 2157 1856 2080 1833  Q 2003 1811 1920 1811  z "
                   transform="scale(0.015625)" />
                <path
                   id="Ioskeley-Mono-2e"
                   d="M 1498 0  L 1498 851  L 2349 851  L 2349 0  L 1498 0  z "
                   transform="scale(0.015625)" />
              </defs>
              <use
                 xlink:href="#Ioskeley-Mono-30"
                 id="use16043" />
              <use
                 xlink:href="#Ioskeley-Mono-2e"
                 x="59.999985"
                 id="use16045" />
              <use
                 xlink:href="#Ioskeley-Mono-30"
                 x="119.999969"
                 id="use16047" />
            </g>
          </g>
        </g>
        <g
           id="xtick_2">
          <g
             id="line2d_3">
            <path
               d="M 91.962344 242.2375  L 91.962344 14.4  "
               clip-path="url(#p3433d70922)"
               style="fill: none; stroke-dasharray: 2.96,1.28; stroke-dashoffset: 0; stroke: #b0b0b0; stroke-opacity: 0.7; stroke-width: 0.8"
               id="path16053" />
          </g>
          <g
             id="line2d_4">
            <g
               id="g16058">
              <use
                 xlink:href="#ma180105156"
                 x="91.962344"
                 y="242.2375"
                 style="stroke: #000000; stroke-width: 0.8"
                 id="use16056" />
            </g>
          </g>
          <g
             id="text_2">
            <!-- 2.5 -->
            <g
               transform="translate(82.962344 256.6375) scale(0.1 -0.1)"
               id="g16071">
              <defs
                 id="defs16063">
                <path
                   id="Ioskeley-Mono-32"
                   d="M 544 0  L 544 474  L 2253 2259  Q 2253 2259 2253 2266  L 2266 2272  Q 2362 2374 2458 2480  Q 2554 2586 2630 2704  Q 2707 2822 2748 2960  Q 2790 3098 2790 3238  Q 2790 3398 2729 3555  Q 2669 3712 2541 3814  Q 2413 3917 2253 3955  Q 2093 3994 1926 3994  Q 1766 3994 1612 3962  Q 1459 3930 1331 3837  Q 1203 3744 1132 3600  Q 1062 3456 1062 3296  L 1062 3264  L 531 3264  L 531 3315  Q 531 3488 579 3654  Q 627 3821 723 3958  Q 819 4096 960 4198  Q 1101 4301 1257 4361  Q 1414 4422 1584 4444  Q 1754 4467 1926 4467  Q 2106 4467 2278 4441  Q 2451 4416 2614 4349  Q 2778 4282 2918 4173  Q 3059 4064 3152 3913  Q 3245 3763 3283 3587  Q 3322 3411 3322 3238  Q 3322 3046 3267 2860  Q 3213 2675 3113 2512  Q 3014 2349 2886 2208  Q 2758 2067 2624 1926  L 1235 467  L 3296 467  L 3296 0  L 544 0  z "
                   transform="scale(0.015625)" />
                <path
                   id="Ioskeley-Mono-35"
                   d="M 1939 -51  Q 1779 -51 1619 -32  Q 1459 -13 1305 41  Q 1152 96 1017 185  Q 883 275 780 400  Q 678 525 617 675  Q 557 826 538 986  L 1075 986  Q 1107 845 1190 729  Q 1274 614 1395 544  Q 1517 474 1657 448  Q 1798 422 1939 422  Q 2118 422 2291 473  Q 2464 525 2589 653  Q 2714 781 2765 953  Q 2816 1126 2816 1306  Q 2816 1421 2797 1539  Q 2778 1658 2720 1760  Q 2662 1862 2572 1942  Q 2483 2022 2377 2073  Q 2272 2125 2153 2141  Q 2035 2157 1920 2157  L 678 2157  L 717 2630  L 870 4416  L 3162 4416  L 3162 3949  L 1357 3949  L 1248 2630  L 1920 2630  Q 2106 2630 2288 2601  Q 2470 2573 2640 2499  Q 2810 2426 2950 2301  Q 3091 2176 3184 2016  Q 3277 1856 3312 1673  Q 3347 1491 3347 1306  Q 3347 1120 3312 934  Q 3277 749 3187 585  Q 3098 422 2963 294  Q 2829 166 2659 86  Q 2490 6 2307 -22  Q 2125 -51 1939 -51  z "
                   transform="scale(0.015625)" />
              </defs>
              <use
                 xlink:href="#Ioskeley-Mono-32"
                 id="use16065" />
              <use
                 xlink:href="#Ioskeley-Mono-2e"
                 x="59.999985"
                 id="use16067" />
              <use
                 xlink:href="#Ioskeley-Mono-35"
                 x="119.999969"
                 id="use16069" />
            </g>
          </g>
        </g>
        <g
           id="xtick_3">
          <g
             id="line2d_5">
            <path
               d="M 137.273438 242.2375  L 137.273438 14.4  "
               clip-path="url(#p3433d70922)"
               style="fill: none; stroke-dasharray: 2.96,1.28; stroke-dashoffset: 0; stroke: #b0b0b0; stroke-opacity: 0.7; stroke-width: 0.8"
               id="path16075" />
          </g>
          <g
             id="line2d_6">
            <g
               id="g16080">
              <use
                 xlink:href="#ma180105156"
                 x="137.273438"
                 y="242.2375"
                 style="stroke: #000000; stroke-width: 0.8"
                 id="use16078" />
            </g>
          </g>
          <g
             id="text_3">
            <!-- 5.0 -->
            <g
               transform="translate(128.273438 256.6375) scale(0.1 -0.1)"
               id="g16089">
              <use
                 xlink:href="#Ioskeley-Mono-35"
                 id="use16083" />
              <use
                 xlink:href="#Ioskeley-Mono-2e"
                 x="59.999985"
                 id="use16085" />
              <use
                 xlink:href="#Ioskeley-Mono-30"
                 x="119.999969"
                 id="use16087" />
            </g>
          </g>
        </g>
        <g
           id="xtick_4">
          <g
             id="line2d_7">
            <path
               d="M 182.584531 242.2375  L 182.584531 14.4  "
               clip-path="url(#p3433d70922)"
               style="fill: none; stroke-dasharray: 2.96,1.28; stroke-dashoffset: 0; stroke: #b0b0b0; stroke-opacity: 0.7; stroke-width: 0.8"
               id="path16093" />
          </g>
          <g
             id="line2d_8">
            <g
               id="g16098">
              <use
                 xlink:href="#ma180105156"
                 x="182.584531"
                 y="242.2375"
                 style="stroke: #000000; stroke-width: 0.8"
                 id="use16096" />
            </g>
          </g>
          <g
             id="text_4">
            <!-- 7.5 -->
            <g
               transform="translate(173.584531 256.6375) scale(0.1 -0.1)"
               id="g16110">
              <defs
                 id="defs16102">
                <path
                   id="Ioskeley-Mono-37"
                   d="M 1152 0  L 2733 3949  L 544 3949  L 544 4416  L 3296 4416  L 3296 3949  L 1709 0  L 1152 0  z "
                   transform="scale(0.015625)" />
              </defs>
              <use
                 xlink:href="#Ioskeley-Mono-37"
                 id="use16104" />
              <use
                 xlink:href="#Ioskeley-Mono-2e"
                 x="59.999985"
                 id="use16106" />
              <use
                 xlink:href="#Ioskeley-Mono-35"
                 x="119.999969"
                 id="use16108" />
            </g>
          </g>
        </g>
        <g
           id="xtick_5">
          <g
             id="line2d_9">
            <path
               d="M 227.895625 242.2375  L 227.895625 14.4  "
               clip-path="url(#p3433d70922)"
               style="fill: none; stroke-dasharray: 2.96,1.28; stroke-dashoffset: 0; stroke: #b0b0b0; stroke-opacity: 0.7; stroke-width: 0.8"
               id="path16114" />
          </g>
          <g
             id="line2d_10">
            <g
               id="g16119">
              <use
                 xlink:href="#ma180105156"
                 x="227.895625"
                 y="242.2375"
                 style="stroke: #000000; stroke-width: 0.8"
                 id="use16117" />
            </g>
          </g>
          <g
             id="text_5">
            <!-- 10.0 -->
            <g
               transform="translate(215.895625 256.6375) scale(0.1 -0.1)"
               id="g16133">
              <defs
                 id="defs16123">
                <path
                   id="Ioskeley-Mono-31"
                   d="M 1850 0  L 1850 3846  L 986 3162  L 685 3494  L 1850 4416  L 2374 4416  L 2374 0  L 1850 0  z "
                   transform="scale(0.015625)" />
              </defs>
              <use
                 xlink:href="#Ioskeley-Mono-31"
                 id="use16125" />
              <use
                 xlink:href="#Ioskeley-Mono-30"
                 x="59.999985"
                 id="use16127" />
              <use
                 xlink:href="#Ioskeley-Mono-2e"
                 x="119.999969"
                 id="use16129" />
              <use
                 xlink:href="#Ioskeley-Mono-30"
                 x="179.999954"
                 id="use16131" />
            </g>
          </g>
        </g>
        <g
           id="xtick_6">
          <g
             id="line2d_11">
            <path
               d="M 273.206719 242.2375  L 273.206719 14.4  "
               clip-path="url(#p3433d70922)"
               style="fill: none; stroke-dasharray: 2.96,1.28; stroke-dashoffset: 0; stroke: #b0b0b0; stroke-opacity: 0.7; stroke-width: 0.8"
               id="path16137" />
          </g>
          <g
             id="line2d_12">
            <g
               id="g16142">
              <use
                 xlink:href="#ma180105156"
                 x="273.206719"
                 y="242.2375"
                 style="stroke: #000000; stroke-width: 0.8"
                 id="use16140" />
            </g>
          </g>
          <g
             id="text_6">
            <!-- 12.5 -->
            <g
               transform="translate(261.206719 256.6375) scale(0.1 -0.1)"
               id="g16153">
              <use
                 xlink:href="#Ioskeley-Mono-31"
                 id="use16145" />
              <use
                 xlink:href="#Ioskeley-Mono-32"
                 x="59.999985"
                 id="use16147" />
              <use
                 xlink:href="#Ioskeley-Mono-2e"
                 x="119.999969"
                 id="use16149" />
              <use
                 xlink:href="#Ioskeley-Mono-35"
                 x="179.999954"
                 id="use16151" />
            </g>
          </g>
        </g>
        <g
           id="xtick_7">
          <g
             id="line2d_13">
            <path
               d="M 318.517812 242.2375  L 318.517812 14.4  "
               clip-path="url(#p3433d70922)"
               style="fill: none; stroke-dasharray: 2.96,1.28; stroke-dashoffset: 0; stroke: #b0b0b0; stroke-opacity: 0.7; stroke-width: 0.8"
               id="path16157" />
          </g>
          <g
             id="line2d_14">
            <g
               id="g16162">
              <use
                 xlink:href="#ma180105156"
                 x="318.517812"
                 y="242.2375"
                 style="stroke: #000000; stroke-width: 0.8"
                 id="use16160" />
            </g>
          </g>
          <g
             id="text_7">
            <!-- 15.0 -->
            <g
               transform="translate(306.517812 256.6375) scale(0.1 -0.1)"
               id="g16173">
              <use
                 xlink:href="#Ioskeley-Mono-31"
                 id="use16165" />
              <use
                 xlink:href="#Ioskeley-Mono-35"
                 x="59.999985"
                 id="use16167" />
              <use
                 xlink:href="#Ioskeley-Mono-2e"
                 x="119.999969"
                 id="use16169" />
              <use
                 xlink:href="#Ioskeley-Mono-30"
                 x="179.999954"
                 id="use16171" />
            </g>
          </g>
        </g>
        <g
           id="xtick_8">
          <g
             id="line2d_15">
            <path
               d="M 363.828906 242.2375  L 363.828906 14.4  "
               clip-path="url(#p3433d70922)"
               style="fill: none; stroke-dasharray: 2.96,1.28; stroke-dashoffset: 0; stroke: #b0b0b0; stroke-opacity: 0.7; stroke-width: 0.8"
               id="path16177" />
          </g>
          <g
             id="line2d_16">
            <g
               id="g16182">
              <use
                 xlink:href="#ma180105156"
                 x="363.828906"
                 y="242.2375"
                 style="stroke: #000000; stroke-width: 0.8"
                 id="use16180" />
            </g>
          </g>
          <g
             id="text_8">
            <!-- 17.5 -->
            <g
               transform="translate(351.828906 256.6375) scale(0.1 -0.1)"
               id="g16193">
              <use
                 xlink:href="#Ioskeley-Mono-31"
                 id="use16185" />
              <use
                 xlink:href="#Ioskeley-Mono-37"
                 x="59.999985"
                 id="use16187" />
              <use
                 xlink:href="#Ioskeley-Mono-2e"
                 x="119.999969"
                 id="use16189" />
              <use
                 xlink:href="#Ioskeley-Mono-35"
                 x="179.999954"
                 id="use16191" />
            </g>
          </g>
        </g>
        <g
           id="xtick_9">
          <g
             id="line2d_17">
            <path
               d="M 409.14 242.2375  L 409.14 14.4  "
               clip-path="url(#p3433d70922)"
               style="fill: none; stroke-dasharray: 2.96,1.28; stroke-dashoffset: 0; stroke: #b0b0b0; stroke-opacity: 0.7; stroke-width: 0.8"
               id="path16197" />
          </g>
          <g
             id="line2d_18">
            <g
               id="g16202">
              <use
                 xlink:href="#ma180105156"
                 x="409.14"
                 y="242.2375"
                 style="stroke: #000000; stroke-width: 0.8"
                 id="use16200" />
            </g>
          </g>
          <g
             id="text_9">
            <!-- 20.0 -->
            <g
               transform="translate(397.14 256.6375) scale(0.1 -0.1)"
               id="g16213">
              <use
                 xlink:href="#Ioskeley-Mono-32"
                 id="use16205" />
              <use
                 xlink:href="#Ioskeley-Mono-30"
                 x="59.999985"
                 id="use16207" />
              <use
                 xlink:href="#Ioskeley-Mono-2e"
                 x="119.999969"
                 id="use16209" />
              <use
                 xlink:href="#Ioskeley-Mono-30"
                 x="179.999954"
                 id="use16211" />
            </g>
          </g>
        </g>
        <g
           id="text_10">
          <!-- Čas [μs] -->
          <g
             transform="translate(199.095625 274.333125) scale(0.12 -0.12)"
             id="g16242">
            <defs
               id="defs16224">
              <path
                 id="Ioskeley-Mono-10c"
                 d="M 1933 -51  Q 1805 -51 1680 -41  Q 1555 -32 1433 -9  Q 1312 13 1193 54  Q 1075 96 966 157  Q 858 218 765 304  Q 672 390 608 496  Q 544 602 518 726  Q 493 851 493 973  L 493 3443  Q 493 3565 518 3689  Q 544 3814 608 3920  Q 672 4026 765 4112  Q 858 4198 966 4259  Q 1075 4320 1193 4361  Q 1312 4403 1433 4425  Q 1555 4448 1680 4457  Q 1805 4467 1933 4467  Q 2291 4467 2640 4374  Q 2989 4282 3296 4096  L 3296 3264  L 2816 3264  L 2816 3802  Q 2611 3898 2384 3946  Q 2157 3994 1933 3994  Q 1830 3994 1731 3987  Q 1632 3981 1536 3958  Q 1440 3936 1347 3897  Q 1254 3859 1180 3792  Q 1107 3725 1065 3635  Q 1024 3546 1024 3443  L 1024 973  Q 1024 870 1065 780  Q 1107 691 1180 624  Q 1254 557 1347 518  Q 1440 480 1536 457  Q 1632 435 1731 428  Q 1830 422 1933 422  Q 2157 422 2384 470  Q 2611 518 2816 614  L 2816 1152  L 3296 1152  L 3296 320  Q 2989 134 2640 41  Q 2291 -51 1933 -51  z M 1606 4902  L 1037 5933  L 1402 6131  L 1920 5363  L 2438 6131  L 2803 5933  L 2234 4902  L 1606 4902  z "
                 transform="scale(0.015625)" />
              <path
                 id="Ioskeley-Mono-61"
                 d="M 1690 -51  Q 1549 -51 1405 -35  Q 1261 -19 1126 25  Q 992 70 870 150  Q 749 230 659 342  Q 570 454 531 595  Q 493 736 493 877  Q 493 1056 550 1229  Q 608 1402 733 1533  Q 858 1664 1018 1747  Q 1178 1830 1350 1878  Q 1523 1926 1702 1945  Q 1882 1965 2054 1965  L 2771 1965  L 2771 2509  Q 2771 2592 2720 2665  Q 2669 2739 2592 2784  Q 2515 2829 2432 2851  Q 2349 2874 2262 2890  Q 2176 2906 2089 2909  Q 2003 2912 1914 2912  Q 1824 2912 1731 2905  Q 1638 2899 1548 2880  Q 1459 2861 1372 2825  Q 1286 2790 1216 2732  Q 1146 2675 1101 2592  Q 1056 2509 1056 2419  L 1056 2400  L 531 2400  L 531 2445  Q 531 2598 592 2745  Q 653 2893 761 3005  Q 870 3117 1008 3190  Q 1146 3264 1296 3305  Q 1446 3347 1603 3363  Q 1760 3379 1914 3379  Q 2029 3379 2144 3372  Q 2259 3366 2371 3347  Q 2483 3328 2595 3296  Q 2707 3264 2809 3216  Q 2912 3168 3005 3097  Q 3098 3027 3165 2934  Q 3232 2842 3264 2730  Q 3296 2618 3296 2509  L 3296 0  L 2771 0  L 2771 429  Q 2694 294 2569 198  Q 2445 102 2301 44  Q 2157 -13 2000 -32  Q 1843 -51 1690 -51  z M 1894 416  Q 1990 416 2083 422  Q 2176 429 2265 448  Q 2355 467 2444 499  Q 2534 531 2608 585  Q 2682 640 2726 726  Q 2771 813 2771 902  L 2771 1498  L 2061 1498  Q 1946 1498 1837 1491  Q 1728 1485 1619 1462  Q 1510 1440 1408 1405  Q 1306 1370 1216 1306  Q 1126 1242 1072 1142  Q 1018 1043 1018 934  Q 1018 838 1059 748  Q 1101 659 1174 601  Q 1248 544 1337 505  Q 1427 467 1520 448  Q 1613 429 1705 422  Q 1798 416 1894 416  z "
                 transform="scale(0.015625)" />
              <path
                 id="Ioskeley-Mono-73"
                 d="M 1914 -51  Q 1760 -51 1606 -38  Q 1453 -26 1305 12  Q 1158 51 1020 118  Q 883 186 771 291  Q 659 397 595 541  Q 531 685 531 838  L 531 864  L 1056 864  L 1056 858  Q 1056 768 1107 691  Q 1158 614 1232 566  Q 1306 518 1389 489  Q 1472 461 1558 445  Q 1645 429 1734 422  Q 1824 416 1914 416  Q 2003 416 2092 422  Q 2182 429 2272 445  Q 2362 461 2445 493  Q 2528 525 2601 576  Q 2675 627 2723 707  Q 2771 787 2771 877  Q 2771 979 2710 1068  Q 2650 1158 2563 1212  Q 2477 1267 2374 1299  Q 2272 1331 2173 1356  Q 2074 1382 1971 1408  Q 1869 1434 1769 1462  Q 1670 1491 1571 1520  Q 1472 1549 1373 1587  Q 1274 1626 1181 1670  Q 1088 1715 1001 1772  Q 915 1830 838 1904  Q 762 1978 707 2064  Q 653 2150 624 2252  Q 595 2355 595 2458  Q 595 2605 652 2749  Q 710 2893 812 3005  Q 915 3117 1049 3190  Q 1184 3264 1328 3305  Q 1472 3347 1622 3363  Q 1773 3379 1926 3379  Q 2074 3379 2224 3366  Q 2374 3354 2518 3312  Q 2662 3270 2796 3203  Q 2931 3136 3033 3030  Q 3136 2925 3197 2784  Q 3258 2643 3258 2496  L 3258 2464  L 2733 2464  L 2733 2477  Q 2733 2560 2688 2633  Q 2643 2707 2576 2758  Q 2509 2810 2429 2838  Q 2349 2867 2265 2883  Q 2182 2899 2096 2905  Q 2010 2912 1926 2912  Q 1843 2912 1756 2905  Q 1670 2899 1584 2883  Q 1498 2867 1418 2835  Q 1338 2803 1270 2748  Q 1203 2694 1161 2617  Q 1120 2541 1120 2458  Q 1120 2349 1181 2259  Q 1242 2170 1328 2115  Q 1414 2061 1513 2029  Q 1613 1997 1715 1971  Q 1818 1946 1917 1920  Q 2016 1894 2118 1868  Q 2221 1843 2320 1811  Q 2419 1779 2515 1740  Q 2611 1702 2707 1657  Q 2803 1613 2889 1555  Q 2976 1498 3049 1427  Q 3123 1357 3180 1267  Q 3238 1178 3267 1078  Q 3296 979 3296 870  Q 3296 717 3235 573  Q 3174 429 3065 317  Q 2957 205 2816 134  Q 2675 64 2528 22  Q 2381 -19 2224 -35  Q 2067 -51 1914 -51  z "
                 transform="scale(0.015625)" />
              <path
                 id="Ioskeley-Mono-20"
                 transform="scale(0.015625)" />
              <path
                 id="Ioskeley-Mono-5b"
                 d="M 986 -576  L 986 4928  L 3021 4928  L 3021 4461  L 1517 4461  L 1517 -102  L 3021 -102  L 3021 -576  L 986 -576  z "
                 transform="scale(0.015625)" />
              <path
                 id="Ioskeley-Mono-3bc"
                 d="M 544 -1408  L 544 3328  L 1075 3328  L 1075 1005  Q 1075 909 1107 816  Q 1139 723 1203 652  Q 1267 582 1356 537  Q 1446 493 1539 464  Q 1632 435 1728 428  Q 1824 422 1920 422  Q 2016 422 2112 428  Q 2208 435 2301 464  Q 2394 493 2483 537  Q 2573 582 2637 652  Q 2701 723 2733 816  Q 2765 909 2765 1005  L 2765 3328  L 3296 3328  L 3296 627  Q 3296 589 3309 547  Q 3322 506 3350 474  Q 3379 442 3420 432  Q 3462 422 3507 422  L 3654 422  L 3654 -51  L 3507 -51  Q 3379 -51 3254 -25  Q 3130 0 3027 73  Q 2925 147 2857 256  Q 2790 365 2771 486  Q 2701 346 2585 237  Q 2470 128 2326 64  Q 2182 0 2025 -25  Q 1869 -51 1715 -51  Q 1542 -51 1369 -19  Q 1197 13 1043 90  Q 1056 -109 1065 -307  Q 1075 -506 1075 -704  L 1075 -1408  L 544 -1408  z "
                 transform="scale(0.015625)" />
              <path
                 id="Ioskeley-Mono-5d"
                 d="M 819 -576  L 819 -102  L 2323 -102  L 2323 4461  L 819 4461  L 819 4928  L 2854 4928  L 2854 -576  L 819 -576  z "
                 transform="scale(0.015625)" />
            </defs>
            <use
               xlink:href="#Ioskeley-Mono-10c"
               id="use16226" />
            <use
               xlink:href="#Ioskeley-Mono-61"
               x="59.999985"
               id="use16228" />
            <use
               xlink:href="#Ioskeley-Mono-73"
               x="119.999969"
               id="use16230" />
            <use
               xlink:href="#Ioskeley-Mono-20"
               x="179.999954"
               id="use16232" />
            <use
               xlink:href="#Ioskeley-Mono-5b"
               x="239.999939"
               id="use16234" />
            <use
               xlink:href="#Ioskeley-Mono-3bc"
               x="299.999924"
               id="use16236" />
            <use
               xlink:href="#Ioskeley-Mono-73"
               x="359.999908"
               id="use16238" />
            <use
               xlink:href="#Ioskeley-Mono-5d"
               x="419.999893"
               id="use16240" />
          </g>
        </g>
      </g>
      <g
         id="matplotlib.axis_2">
        <g
           id="ytick_1">
          <g
             id="line2d_19">
            <path
               d="M 46.65125 242.2375  L 409.14 242.2375  "
               clip-path="url(#p3433d70922)"
               style="fill: none; stroke-dasharray: 2.96,1.28; stroke-dashoffset: 0; stroke: #b0b0b0; stroke-opacity: 0.7; stroke-width: 0.8"
               id="path16246" />
          </g>
          <g
             id="line2d_20">
            <defs
               id="defs16250">
              <path
                 id="mf74037f69f"
                 d="M 0 0  L -3.5 0  "
                 style="stroke: #000000; stroke-width: 0.8" />
            </defs>
            <g
               id="g16254">
              <use
                 xlink:href="#mf74037f69f"
                 x="46.65125"
                 y="242.2375"
                 style="stroke: #000000; stroke-width: 0.8"
                 id="use16252" />
            </g>
          </g>
          <g
             id="text_11">
            <!-- −3 -->
            <g
               transform="translate(27.65125 245.9375) scale(0.1 -0.1)"
               id="g16265">
              <defs
                 id="defs16259">
                <path
                   id="Ioskeley-Mono-2212"
                   d="M 544 1952  L 544 2400  L 3296 2400  L 3296 1952  L 544 1952  z "
                   transform="scale(0.015625)" />
                <path
                   id="Ioskeley-Mono-33"
                   d="M 1939 -51  Q 1766 -51 1593 -28  Q 1421 -6 1261 58  Q 1101 122 960 227  Q 819 333 723 477  Q 627 621 579 787  Q 531 954 531 1126  L 531 1152  L 1062 1152  L 1062 1139  Q 1062 979 1132 828  Q 1203 678 1331 585  Q 1459 493 1619 457  Q 1779 422 1939 422  Q 2118 422 2291 476  Q 2464 531 2589 662  Q 2714 794 2765 966  Q 2816 1139 2816 1318  Q 2816 1440 2797 1558  Q 2778 1677 2720 1782  Q 2662 1888 2576 1971  Q 2490 2054 2381 2105  Q 2272 2157 2157 2176  Q 2042 2195 1920 2195  L 1235 2195  L 1235 2662  L 2586 3949  L 544 3949  L 544 4416  L 3226 4416  L 3226 3949  L 1875 2662  L 1920 2662  Q 2106 2662 2291 2633  Q 2477 2605 2646 2528  Q 2816 2451 2957 2326  Q 3098 2202 3187 2038  Q 3277 1875 3312 1689  Q 3347 1504 3347 1318  Q 3347 1133 3312 947  Q 3277 762 3190 598  Q 3104 435 2966 304  Q 2829 173 2662 93  Q 2496 13 2310 -19  Q 2125 -51 1939 -51  z "
                   transform="scale(0.015625)" />
              </defs>
              <use
                 xlink:href="#Ioskeley-Mono-2212"
                 id="use16261" />
              <use
                 xlink:href="#Ioskeley-Mono-33"
                 x="59.999985"
                 id="use16263" />
            </g>
          </g>
        </g>
        <g
           id="ytick_2">
          <g
             id="line2d_21">
            <path
               d="M 46.65125 204.264583  L 409.14 204.264583  "
               clip-path="url(#p3433d70922)"
               style="fill: none; stroke-dasharray: 2.96,1.28; stroke-dashoffset: 0; stroke: #b0b0b0; stroke-opacity: 0.7; stroke-width: 0.8"
               id="path16269" />
          </g>
          <g
             id="line2d_22">
            <g
               id="g16274">
              <use
                 xlink:href="#mf74037f69f"
                 x="46.65125"
                 y="204.264583"
                 style="stroke: #000000; stroke-width: 0.8"
                 id="use16272" />
            </g>
          </g>
          <g
             id="text_12">
            <!-- −2 -->
            <g
               transform="translate(27.65125 207.964583) scale(0.1 -0.1)"
               id="g16281">
              <use
                 xlink:href="#Ioskeley-Mono-2212"
                 id="use16277" />
              <use
                 xlink:href="#Ioskeley-Mono-32"
                 x="59.999985"
                 id="use16279" />
            </g>
          </g>
        </g>
        <g
           id="ytick_3">
          <g
             id="line2d_23">
            <path
               d="M 46.65125 166.291667  L 409.14 166.291667  "
               clip-path="url(#p3433d70922)"
               style="fill: none; stroke-dasharray: 2.96,1.28; stroke-dashoffset: 0; stroke: #b0b0b0; stroke-opacity: 0.7; stroke-width: 0.8"
               id="path16285" />
          </g>
          <g
             id="line2d_24">
            <g
               id="g16290">
              <use
                 xlink:href="#mf74037f69f"
                 x="46.65125"
                 y="166.291667"
                 style="stroke: #000000; stroke-width: 0.8"
                 id="use16288" />
            </g>
          </g>
          <g
             id="text_13">
            <!-- −1 -->
            <g
               transform="translate(27.65125 169.991667) scale(0.1 -0.1)"
               id="g16297">
              <use
                 xlink:href="#Ioskeley-Mono-2212"
                 id="use16293" />
              <use
                 xlink:href="#Ioskeley-Mono-31"
                 x="59.999985"
                 id="use16295" />
            </g>
          </g>
        </g>
        <g
           id="ytick_4">
          <g
             id="line2d_25">
            <path
               d="M 46.65125 128.31875  L 409.14 128.31875  "
               clip-path="url(#p3433d70922)"
               style="fill: none; stroke-dasharray: 2.96,1.28; stroke-dashoffset: 0; stroke: #b0b0b0; stroke-opacity: 0.7; stroke-width: 0.8"
               id="path16301" />
          </g>
          <g
             id="line2d_26">
            <g
               id="g16306">
              <use
                 xlink:href="#mf74037f69f"
                 x="46.65125"
                 y="128.31875"
                 style="stroke: #000000; stroke-width: 0.8"
                 id="use16304" />
            </g>
          </g>
          <g
             id="text_14">
            <!-- 0 -->
            <g
               transform="translate(33.65125 132.01875) scale(0.1 -0.1)"
               id="g16311">
              <use
                 xlink:href="#Ioskeley-Mono-30"
                 id="use16309" />
            </g>
          </g>
        </g>
        <g
           id="ytick_5">
          <g
             id="line2d_27">
            <path
               d="M 46.65125 90.345833  L 409.14 90.345833  "
               clip-path="url(#p3433d70922)"
               style="fill: none; stroke-dasharray: 2.96,1.28; stroke-dashoffset: 0; stroke: #b0b0b0; stroke-opacity: 0.7; stroke-width: 0.8"
               id="path16315" />
          </g>
          <g
             id="line2d_28">
            <g
               id="g16320">
              <use
                 xlink:href="#mf74037f69f"
                 x="46.65125"
                 y="90.345833"
                 style="stroke: #000000; stroke-width: 0.8"
                 id="use16318" />
            </g>
          </g>
          <g
             id="text_15">
            <!-- 1 -->
            <g
               transform="translate(33.65125 94.045833) scale(0.1 -0.1)"
               id="g16325">
              <use
                 xlink:href="#Ioskeley-Mono-31"
                 id="use16323" />
            </g>
          </g>
        </g>
        <g
           id="ytick_6">
          <g
             id="line2d_29">
            <path
               d="M 46.65125 52.372917  L 409.14 52.372917  "
               clip-path="url(#p3433d70922)"
               style="fill: none; stroke-dasharray: 2.96,1.28; stroke-dashoffset: 0; stroke: #b0b0b0; stroke-opacity: 0.7; stroke-width: 0.8"
               id="path16329" />
          </g>
          <g
             id="line2d_30">
            <g
               id="g16334">
              <use
                 xlink:href="#mf74037f69f"
                 x="46.65125"
                 y="52.372917"
                 style="stroke: #000000; stroke-width: 0.8"
                 id="use16332" />
            </g>
          </g>
          <g
             id="text_16">
            <!-- 2 -->
            <g
               transform="translate(33.65125 56.072917) scale(0.1 -0.1)"
               id="g16339">
              <use
                 xlink:href="#Ioskeley-Mono-32"
                 id="use16337" />
            </g>
          </g>
        </g>
        <g
           id="ytick_7">
          <g
             id="line2d_31">
            <path
               d="M 46.65125 14.4  L 409.14 14.4  "
               clip-path="url(#p3433d70922)"
               style="fill: none; stroke-dasharray: 2.96,1.28; stroke-dashoffset: 0; stroke: #b0b0b0; stroke-opacity: 0.7; stroke-width: 0.8"
               id="path16343" />
          </g>
          <g
             id="line2d_32">
            <g
               id="g16348">
              <use
                 xlink:href="#mf74037f69f"
                 x="46.65125"
                 y="14.4"
                 style="stroke: #000000; stroke-width: 0.8"
                 id="use16346" />
            </g>
          </g>
          <g
             id="text_17">
            <!-- 3 -->
            <g
               transform="translate(33.65125 18.1) scale(0.1 -0.1)"
               id="g16353">
              <use
                 xlink:href="#Ioskeley-Mono-33"
                 id="use16351" />
            </g>
          </g>
        </g>
        <g
           id="text_18">
          <!-- Napětí [U] -->
          <g
             transform="translate(21.01125 164.31875) rotate(-90) scale(0.12 -0.12)"
             id="g16385">
            <defs
               id="defs16363">
              <path
                 id="Ioskeley-Mono-4e"
                 d="M 544 0  L 544 4416  L 1203 4416  L 2829 704  Q 2810 1190 2787 1676  Q 2765 2163 2765 2650  L 2765 4416  L 3296 4416  L 3296 0  L 2637 0  L 1011 3712  Q 1030 3226 1052 2739  Q 1075 2253 1075 1766  L 1075 0  L 544 0  z "
                 transform="scale(0.015625)" />
              <path
                 id="Ioskeley-Mono-70"
                 d="M 544 -1408  L 544 3328  L 1075 3328  L 1075 2848  Q 1146 2989 1267 3097  Q 1389 3206 1533 3270  Q 1677 3334 1837 3356  Q 1997 3379 2150 3379  Q 2304 3379 2454 3356  Q 2605 3334 2745 3276  Q 2886 3219 3004 3123  Q 3123 3027 3203 2899  Q 3283 2771 3315 2624  Q 3347 2477 3347 2323  L 3347 1005  Q 3347 851 3315 704  Q 3283 557 3203 429  Q 3123 301 3004 205  Q 2886 109 2745 51  Q 2605 -6 2454 -28  Q 2304 -51 2150 -51  Q 1997 -51 1837 -28  Q 1677 -6 1533 58  Q 1389 122 1267 230  Q 1146 339 1075 480  L 1075 -1408  L 544 -1408  z M 1946 422  Q 2042 422 2141 428  Q 2240 435 2336 460  Q 2432 486 2521 531  Q 2611 576 2678 646  Q 2746 717 2781 813  Q 2816 909 2816 1005  L 2816 2323  Q 2816 2419 2781 2515  Q 2746 2611 2678 2681  Q 2611 2752 2521 2797  Q 2432 2842 2336 2867  Q 2240 2893 2141 2899  Q 2042 2906 1946 2906  Q 1850 2906 1750 2899  Q 1651 2893 1555 2867  Q 1459 2842 1369 2797  Q 1280 2752 1213 2681  Q 1146 2611 1110 2515  Q 1075 2419 1075 2323  L 1075 1005  Q 1075 909 1110 813  Q 1146 717 1213 646  Q 1280 576 1369 531  Q 1459 486 1555 460  Q 1651 435 1750 428  Q 1850 422 1946 422  z "
                 transform="scale(0.015625)" />
              <path
                 id="Ioskeley-Mono-11b"
                 d="M 1914 -51  Q 1786 -51 1661 -41  Q 1536 -32 1414 -6  Q 1293 19 1174 60  Q 1056 102 950 169  Q 845 237 755 326  Q 666 416 605 525  Q 544 634 518 755  Q 493 877 493 1005  L 493 2323  Q 493 2451 518 2572  Q 544 2694 605 2806  Q 666 2918 755 3004  Q 845 3091 953 3158  Q 1062 3226 1180 3267  Q 1299 3309 1420 3334  Q 1542 3360 1667 3369  Q 1792 3379 1920 3379  Q 2048 3379 2173 3369  Q 2298 3360 2419 3334  Q 2541 3309 2659 3267  Q 2778 3226 2886 3158  Q 2995 3091 3084 3004  Q 3174 2918 3235 2806  Q 3296 2694 3321 2572  Q 3347 2451 3347 2323  L 3347 1434  L 1018 1434  L 1018 1005  Q 1018 902 1053 806  Q 1088 710 1161 640  Q 1235 570 1324 525  Q 1414 480 1513 457  Q 1613 435 1712 425  Q 1811 416 1914 416  Q 2010 416 2106 422  Q 2202 429 2294 448  Q 2387 467 2473 502  Q 2560 538 2637 595  Q 2714 653 2762 736  Q 2810 819 2810 915  L 2810 928  L 3334 928  L 3334 896  Q 3334 742 3270 592  Q 3206 442 3094 326  Q 2982 211 2841 137  Q 2701 64 2547 22  Q 2394 -19 2234 -35  Q 2074 -51 1914 -51  z M 1018 1894  L 2822 1894  L 2822 2323  Q 2822 2426 2787 2522  Q 2752 2618 2678 2688  Q 2605 2758 2512 2803  Q 2419 2848 2320 2870  Q 2221 2893 2121 2902  Q 2022 2912 1920 2912  Q 1818 2912 1718 2902  Q 1619 2893 1520 2870  Q 1421 2848 1328 2803  Q 1235 2758 1161 2688  Q 1088 2618 1053 2522  Q 1018 2426 1018 2323  L 1018 1894  z M 1606 3814  L 1037 4845  L 1402 5043  L 1920 4275  L 2438 5043  L 2803 4845  L 2234 3814  L 1606 3814  z "
                 transform="scale(0.015625)" />
              <path
                 id="Ioskeley-Mono-74"
                 d="M 3296 0  L 2579 0  Q 2438 0 2294 25  Q 2150 51 2019 115  Q 1888 179 1782 281  Q 1677 384 1613 515  Q 1549 646 1526 790  Q 1504 934 1504 1082  L 1504 2854  L 544 2854  L 544 3328  L 1504 3328  L 1504 4326  L 2029 4326  L 2029 3328  L 3296 3328  L 3296 2861  L 2029 2861  L 2029 1082  Q 2029 960 2057 845  Q 2086 730 2163 640  Q 2240 550 2352 512  Q 2464 474 2579 474  L 3296 474  L 3296 0  z "
                 transform="scale(0.015625)" />
              <path
                 id="Ioskeley-Mono-ed"
                 d="M 634 0  L 634 474  L 1709 474  L 1709 2861  L 736 2861  L 736 3328  L 2234 3328  L 2234 474  L 3206 474  L 3206 0  L 634 0  z M 1901 3699  L 1542 3930  L 2253 4992  L 2682 4710  L 1901 3699  z "
                 transform="scale(0.015625)" />
              <path
                 id="Ioskeley-Mono-55"
                 d="M 1920 -51  Q 1760 -51 1597 -35  Q 1434 -19 1280 29  Q 1126 77 985 163  Q 845 250 742 374  Q 640 499 592 656  Q 544 813 544 973  L 544 4416  L 1075 4416  L 1075 973  Q 1075 877 1110 787  Q 1146 698 1213 630  Q 1280 563 1366 521  Q 1453 480 1545 457  Q 1638 435 1731 428  Q 1824 422 1920 422  Q 2016 422 2109 428  Q 2202 435 2294 457  Q 2387 480 2473 521  Q 2560 563 2627 630  Q 2694 698 2729 787  Q 2765 877 2765 973  L 2765 4416  L 3296 4416  L 3296 973  Q 3296 813 3248 656  Q 3200 499 3097 374  Q 2995 250 2854 163  Q 2714 77 2560 29  Q 2406 -19 2243 -35  Q 2080 -51 1920 -51  z "
                 transform="scale(0.015625)" />
            </defs>
            <use
               xlink:href="#Ioskeley-Mono-4e"
               id="use16365" />
            <use
               xlink:href="#Ioskeley-Mono-61"
               x="59.999985"
               id="use16367" />
            <use
               xlink:href="#Ioskeley-Mono-70"
               x="119.999969"
               id="use16369" />
            <use
               xlink:href="#Ioskeley-Mono-11b"
               x="179.999954"
               id="use16371" />
            <use
               xlink:href="#Ioskeley-Mono-74"
               x="239.999939"
               id="use16373" />
            <use
               xlink:href="#Ioskeley-Mono-ed"
               x="299.999924"
               id="use16375" />
            <use
               xlink:href="#Ioskeley-Mono-20"
               x="359.999908"
               id="use16377" />
            <use
               xlink:href="#Ioskeley-Mono-5b"
               x="419.999893"
               id="use16379" />
            <use
               xlink:href="#Ioskeley-Mono-55"
               x="479.999878"
               id="use16381" />
            <use
               xlink:href="#Ioskeley-Mono-5d"
               x="539.999863"
               id="use16383" />
          </g>
        </g>
      </g>
      <g
         id="line2d_33">
        <path
           d="M 46.65125 127.986825  L 49.98648 113.094795  L 52.850428 104.742204  L 55.859385 101.810878  L 60.209685 84.215384  L 64.559985 65.766999  L 65.103773 63.92893  L 67.6777 59.35861  L 67.96772 58.874252  L 68.040225 58.940193  L 70.106618 61.507067  L 71.01293 62.743083  L 71.049183 62.655647  L 74.021888 53.013454  L 74.275655 51.892023  L 77.10335 39.01656  L 77.212108 39.250713  L 79.749783 46.581455  L 80.14856 47.793617  L 80.184813 47.701918  L 83.19377 34.120922  L 83.266275 34.245365  L 85.731445 41.484085  L 86.23898 43.058016  L 86.275233 43.013493  L 88.885413 34.648843  L 89.320443 33.431171  L 89.356695 33.479134  L 91.16932 36.067995  L 92.510663 37.930249  L 93.92451 37.939628  L 95.338358 38.176495  L 95.483368 38.098597  L 97.150983 36.658633  L 98.456073 35.796818  L 100.413708 39.253234  L 101.827555 42.125678  L 104.147715 47.887377  L 104.546493 48.827627  L 104.582745 48.718293  L 107.229178 41.098302  L 107.55545 40.207329  L 107.591703 40.226258  L 110.636913 52.198076  L 110.781923 52.066779  L 112.594548 50.583996  L 113.64587 49.854604  L 113.754628 50.557276  L 116.908595 75.255218  L 119.736291 82.165941  L 124.159096 93.077929  L 125.862963 96.789588  L 125.935468 96.670252  L 128.871921 92.014609  L 128.908173 92.029068  L 132.460918 107.559186  L 135.433623 116.974327  L 138.043803 123.25195  L 141.197771 149.199442  L 147.505706 162.711303  L 150.115886 164.758259  L 150.260896 164.962429  L 153.451116 175.215325  L 156.315063 192.049961  L 156.351316 192.026332  L 158.272698 190.638607  L 159.360273 189.748598  L 162.405483 209.580523  L 162.441736 209.477608  L 165.160673 201.423359  L 165.450693 200.526781  L 165.523198 200.621182  L 167.480833 202.979127  L 168.495903 204.053674  L 171.613618 225.461047  L 173.281233 226.829913  L 174.586323 227.69164  L 175.782656 223.919676  L 177.631533 217.765371  L 177.704038 217.938651  L 180.060451 223.849276  L 180.785501 225.300389  L 182.199348 225.178181  L 183.613196 224.827979  L 183.758206 224.722581  L 185.897103 219.867181  L 186.912173 217.685166  L 188.362273 217.097556  L 189.812373 216.274886  L 190.573676 214.676892  L 192.785079 209.648564  L 192.857584 209.474763  L 192.893836 209.530695  L 195.322754 215.510625  L 195.902794 216.847793  L 195.939046 216.808872  L 198.222954 211.737707  L 199.673054 208.074946  L 203.262051 198.622942  L 205.328444 194.07592  L 207.286079 192.132446  L 208.373654 191.126544  L 210.258784 190.190383  L 211.128844 189.678521  L 211.382611 188.183361  L 214.717841 168.2242  L 217.545536 155.988727  L 221.352049 146.695472  L 223.382189 142.175497  L 226.536156 127.213813  L 230.668941 121.102129  L 232.481566 118.555467  L 235.671786 94.433707  L 238.644491 85.074933  L 241.435934 81.799262  L 241.725954 81.62543  L 243.756094 81.917787  L 244.662406 82.021233  L 247.707616 58.873775  L 247.743869 58.899875  L 249.665251 60.422991  L 250.752826 61.355585  L 253.798036 49.52923  L 255.393146 49.104487  L 256.915751 48.760505  L 259.163406 44.533198  L 259.997214 43.280981  L 261.483566 43.268933  L 262.969919 43.264636  L 265.978877 29.132648  L 267.900259 32.382224  L 269.024087 34.44927  L 269.060339 34.361326  L 271.344247 29.121014  L 272.250559 27.39902  L 273.918174 25.850255  L 275.114507 24.941306  L 276.782122 26.778578  L 278.159717 28.544298  L 281.458694 43.860523  L 283.126309 45.569737  L 284.467652 46.913246  L 285.917752 47.201442  L 287.295347 47.677209  L 290.159294 58.246732  L 290.521819 59.196042  L 292.551959 62.228013  L 293.820797 64.441685  L 296.249714 69.542524  L 296.430977 69.942502  L 296.467229 69.879981  L 299.004904 65.032871  L 299.476187 64.184813  L 300.309994 69.678779  L 302.738912 85.15662  L 305.747869 93.087348  L 307.959272 92.693736  L 308.611817 92.617522  L 309.155604 96.448499  L 311.693279 114.448597  L 311.765784 114.437599  L 314.702237 114.09276  L 315.101014 116.753444  L 317.783699 134.8712  L 317.856204 134.858498  L 320.865162 134.438983  L 323.982877 139.703355  L 327.680632 153.40481  L 330.182054 164.431553  L 333.009749 182.278893  L 333.046002 182.229597  L 335.583677 178.589757  L 336.018707 177.926152  L 336.054959 177.95346  L 338.882655 184.041814  L 339.136422 184.727344  L 342.14538 199.16133  L 343.958005 197.665727  L 345.154337 196.521079  L 345.19059 196.643933  L 348.2358 218.270518  L 350.55596 212.915822  L 351.28101 211.211593  L 351.317262 211.289782  L 353.564917 215.868745  L 354.47123 217.830916  L 357.190167 226.886219  L 357.37143 227.406916  L 357.443935 227.383716  L 358.894035 226.796419  L 360.380387 225.949132  L 360.597902 225.515829  L 362.7368 220.655604  L 363.46185 218.96124  L 363.498102 219.060249  L 365.890767 225.263434  L 366.50706 226.690913  L 366.543312 226.59405  L 368.899725 219.978715  L 369.69728 217.930746  L 371.328642 216.300078  L 372.59748 214.874485  L 372.633732 214.981083  L 375.171407 222.091021  L 375.64269 223.259211  L 378.6879 207.555839  L 378.796657 207.817236  L 381.225575 213.354615  L 381.73311 214.398382  L 381.769362 214.288854  L 384.560805 205.497903  L 384.887077 204.064433  L 387.96854 184.890397  L 389.70866 184.402577  L 390.904992 183.896365  L 393.406415 179.937282  L 393.950202 178.896603  L 397.212927 163.52216  L 400.29439 157.353438  L 403.04958 155.375278  L 406.203547 134.837604  L 409.14 132.186727  L 409.14 132.186727  "
           clip-path="url(#p3433d70922)"
           style="fill: none; stroke: #0055aa; stroke-width: 0.7; stroke-linecap: square"
           id="path16389" />
      </g>
      <g
         id="line2d_34">
        <path
           d="M 46.65125 127.986825  L 49.98648 113.094795  L 52.850428 104.742204  L 55.859385 101.810878  L 60.209685 84.215384  L 64.559985 65.766999  L 65.103773 63.92893  L 67.6777 59.35861  L 68.076478 58.874252  L 72.209263 58.799381  L 74.420665 51.213171  L 77.139603 39.01656  L 82.106195 38.91782  L 83.266275 34.120922  L 89.066675 34.09656  L 89.392948 33.431171  L 265.036312 33.425079  L 266.051382 29.132648  L 271.380499 29.042612  L 272.250559 27.39902  L 273.918174 25.850255  L 275.150759 24.941306  L 409.14 24.941306  L 409.14 24.941306  "
           clip-path="url(#p3433d70922)"
           style="fill: none; stroke-dasharray: 5.55,2.4; stroke-dashoffset: 0; stroke: #cc3311; stroke-width: 1.5"
           id="path16392" />
      </g>
      <g
         id="patch_3">
        <path
           d="M 46.65125 242.2375  L 46.65125 14.4  "
           style="fill: none; stroke: #000000; stroke-width: 0.8; stroke-linejoin: miter; stroke-linecap: square"
           id="path16395" />
      </g>
      <g
         id="patch_4">
        <path
           d="M 409.14 242.2375  L 409.14 14.4  "
           style="fill: none; stroke: #000000; stroke-width: 0.8; stroke-linejoin: miter; stroke-linecap: square"
           id="path16398" />
      </g>
      <g
         id="patch_5">
        <path
           d="M 46.65125 242.2375  L 409.14 242.2375  "
           style="fill: none; stroke: #000000; stroke-width: 0.8; stroke-linejoin: miter; stroke-linecap: square"
           id="path16401" />
      </g>
      <g
         id="patch_6">
        <path
           d="M 46.65125 14.4  L 409.14 14.4  "
           style="fill: none; stroke: #000000; stroke-width: 0.8; stroke-linejoin: miter; stroke-linecap: square"
           id="path16404" />
      </g>
      <g
         id="legend_1"
         transform="translate(-1.6438667,14.963674)">
        <g
           id="patch_7">
          <path
             d="m 348.97,56.31 h 52.47 q 2.2,0 2.2,-2.2 V 22.1 q 0,-2.2 -2.2,-2.2 h -52.47 q -2.2,0 -2.2,2.2 v 32.01 q 0,2.2 2.2,2.2 z"
             style="opacity:0.8;fill:#ffffff;stroke:#cccccc;stroke-linejoin:miter"
             id="path16407" />
        </g>
        <g
           id="line2d_35">
          <path
             d="m 351.17,28.59 h 11 11"
             style="fill:none;stroke:#0055aa;stroke-width:0.7;stroke-linecap:square"
             id="path16410" />
        </g>
        <g
           id="text_19">
          <!-- $U_{in}$ -->
          <g
             transform="matrix(0.11,0,0,-0.11,381.97,32.44)"
             id="g16424">
            <defs
               id="defs16416">
              <path
                 id="DejaVuSans-Oblique-55"
                 d="m 991,4666 h 634 L 1075,1831 q -34,-190 -48,-314 -14,-123 -14,-217 0,-431 240,-655 241,-223 706,-223 604,0 939,331 336,331 480,1078 l 550,2835 h 635 L 4000,1753 Q 3816,809 3300,359 2784,-91 1888,-91 1188,-91 780,261 372,613 372,1216 q 0,109 15,245 16,136 47,292 z"
                 transform="scale(0.015625)" />
              <path
                 id="DejaVuSans-Oblique-69"
                 d="m 1172,4863 h 575 L 1606,4134 H 1031 Z M 909,3500 h 575 L 800,0 H 225 Z"
                 transform="scale(0.015625)" />
              <path
                 id="DejaVuSans-Oblique-6e"
                 d="M 3566,2113 3156,0 h -578 l 410,2091 q 28,147 43,259 16,113 16,178 0,263 -166,409 -165,147 -462,147 -463,0 -797,-308 -334,-307 -438,-835 L 800,0 H 225 l 678,3500 h 575 l -115,-550 q 240,303 577,468 338,166 710,166 463,0 717,-250 255,-250 255,-703 0,-112 -14,-240 -14,-128 -42,-278 z"
                 transform="scale(0.015625)" />
            </defs>
            <use
               xlink:href="#DejaVuSans-Oblique-55"
               transform="translate(0,0.09375)"
               id="use16418" />
            <use
               xlink:href="#DejaVuSans-Oblique-69"
               transform="matrix(0.7,0,0,0.7,73.193359,-16.3125)"
               id="use16420" />
            <use
               xlink:href="#DejaVuSans-Oblique-6e"
               transform="matrix(0.7,0,0,0.7,92.641602,-16.3125)"
               id="use16422" />
          </g>
        </g>
        <g
           id="line2d_36">
          <path
             d="m 351.17,44.65 h 11 11"
             style="fill:none;stroke:#cc3311;stroke-width:1.5;stroke-dasharray:5.55, 2.4;stroke-dashoffset:0"
             id="path16427" />
        </g>
        <g
           id="text_20">
          <!-- $U_{šp}$ -->
          <g
             transform="matrix(0.11,0,0,-0.11,381.97,48.5)"
             id="g16440">
            <defs
               id="defs16432">
              <path
                 id="DejaVuSans-Oblique-161"
                 d="m 3200,3397 -109,-544 q -228,125 -482,187 -253,63 -521,63 -454,0 -715,-155 -260,-154 -260,-420 0,-309 606,-475 47,-12 69,-19 l 184,-56 q 575,-159 767,-334 192,-175 192,-478 0,-557 -442,-907 Q 2047,-91 1331,-91 1053,-91 747,-37 441,16 72,128 l 112,594 q 316,-163 622,-247 307,-84 588,-84 422,0 686,181 264,181 264,459 0,300 -694,485 l -59,15 -197,50 q -438,116 -641,305 -203,189 -203,483 0,559 420,887 421,328 1143,328 284,0 554,-47 271,-46 533,-140 z m -850,547 h -459 l -538,1175 h 441 l 397,-741 722,741 h 437 z"
                 transform="scale(0.015625)" />
              <path
                 id="DejaVuSans-Oblique-70"
                 d="m 3175,2156 q 0,460 -200,703 -200,244 -575,244 -256,0 -489,-131 -233,-131 -414,-381 -178,-247 -285,-597 -106,-350 -106,-694 0,-437 200,-673 200,-236 569,-236 272,0 505,128 233,128 398,372 178,256 287,603 110,347 110,662 z m -1781,813 q 231,303 545,459 314,156 699,156 537,0 834,-352 297,-351 297,-985 0,-519 -185,-989 Q 3400,788 3053,416 2822,169 2531,39 2241,-91 1919,-91 1547,-91 1294,64 1041,219 916,525 L 556,-1331 H -19 l 941,4831 h 575 z"
                 transform="scale(0.015625)" />
            </defs>
            <use
               xlink:href="#DejaVuSans-Oblique-55"
               transform="translate(0,0.09375)"
               id="use16434" />
            <use
               xlink:href="#DejaVuSans-Oblique-161"
               transform="matrix(0.7,0,0,0.7,73.193359,-16.3125)"
               id="use16436" />
            <use
               xlink:href="#DejaVuSans-Oblique-70"
               transform="matrix(0.7,0,0,0.7,109.66309,-16.3125)"
               id="use16438" />
          </g>
        </g>
      </g>
    </g>
  </g>
  <defs
     id="defs16449">
    <clipPath
       id="p3433d70922">
      <rect
         x="46.65125"
         y="14.4"
         width="362.48875"
         height="227.8375"
         id="rect16446" />
    </clipPath>
  </defs>
</svg>
