;TYPE=PLATED
;Layer: PTH_Through_Via
;EasyEDA Pro v2.2.45.4, 2026-01-17 20:35:08
;Gerber Generator version 0.3
M48
METRIC,LZ,0000.00000
;Hole size 1 = 0.15000 METRIC
T01C0.15000
;Hole size 2 = 0.30000 METRIC
T02C0.30000
%
G05
G90
T01
X127.0Y-19.75
X127.0Y-19.0
X128.0Y-19.25
X128.0Y-19.5
X128.0Y-19.0
X128.0Y-18.75
X128.0Y-56.0
X128.0Y-55.75
X128.0Y-19.75
X128.0Y-55.5
X126.99828Y-19.4952
X127.0Y-55.5
X126.99828Y-55.7452
X127.0Y-19.25
X127.0Y-18.75
X127.0Y-56.0
T02
X91.71Y-87.19
X122.2Y-92.999
X109.2Y-68.0
X106.17574Y-60.77573
X109.2Y-70.6
X85.6Y-86.3
X81.75Y-62.7
X94.0Y-73.0
X95.4Y-77.05
X95.2Y-84.15
X107.8Y-88.0
X150.4Y-73.5
X139.2Y-61.4
X161.8Y-66.3
X123.2Y-90.4
X139.2Y-66.2
X161.8Y-85.7
X150.4Y-66.3
X161.8Y-80.7
X121.8Y-88.0
X95.575Y-63.175
X128.2Y-66.3
X104.6Y-57.6
X128.2Y-73.5
X91.6Y-89.6
X150.4Y-61.5
X150.4Y-80.7
X107.4Y-72.0
X99.0Y-80.4
X99.0Y-86.0
X104.6Y-61.2
X128.2Y-87.4
X150.4Y-85.7
X128.2Y-61.5
X161.8Y-73.5
X128.2Y-80.7
X107.601Y-78.4
X107.601Y-75.2
X161.8Y-61.5
X139.2Y-73.4
X139.2Y-85.6
X139.2Y-80.6
X117.375Y-85.025
X117.4Y-69.0
X133.5Y-60.75
X133.4Y-86.25
X144.8Y-60.75
X156.05Y-86.25
X167.4Y-86.4
X120.0Y-91.0
X107.3Y-91.1
X107.4Y-90.2
X121.2Y-91.0
M30