G04 Layer: BottomAssemblyLayer*
G04 EasyEDA Pro v2.2.45.4, 2026-01-17 20:35:08*
G04 Gerber Generator version 0.3*
G04 Scale: 100 percent, Rotated: No, Reflected: No*
G04 Dimensions in millimeters*
G04 Leading zeros omitted, absolute positions, 4 integers and 5 decimals*
G04 Generated by one-click*
%FSLAX45Y45*%
%MOMM*%
%ADD10C,0.15*%
%ADD11C,0.06*%
%ADD12C,0.08*%
%ADD13C,0.1*%
%ADD14C,0.4553*%
G75*


G04 Text Start*
G54D10*
G01X10154992Y-5955626D02*
G01X10149912Y-5953086D01*
G01X10141784Y-5945212D01*
G01X10141784Y-6000838D01*
G01X10114098Y-5945212D02*
G01X10114098Y-6000838D01*
G01X10087428Y-5963754D02*
G01X10114098Y-5990170D01*
G01X10103430Y-5979756D02*
G01X10084888Y-6000838D01*
G54D11*
G01X10140296Y-6107234D02*
G01X10140296Y-6129586D01*
G01X10140296Y-6107234D02*
G01X10130898Y-6107234D01*
G01X10127596Y-6108250D01*
G01X10126580Y-6109266D01*
G01X10125564Y-6111552D01*
G01X10125564Y-6113584D01*
G01X10126580Y-6115870D01*
G01X10127596Y-6116886D01*
G01X10130898Y-6117902D01*
G01X10140296Y-6117902D01*
G01X10132930Y-6117902D02*
G01X10125564Y-6129586D01*
G01X10113372Y-6112568D02*
G01X10113372Y-6111552D01*
G01X10112356Y-6109266D01*
G01X10111340Y-6108250D01*
G01X10109054Y-6107234D01*
G01X10104990Y-6107234D01*
G01X10102704Y-6108250D01*
G01X10101688Y-6109266D01*
G01X10100672Y-6111552D01*
G01X10100672Y-6113584D01*
G01X10101688Y-6115870D01*
G01X10103720Y-6118918D01*
G01X10114388Y-6129586D01*
G01X10099656Y-6129586D01*
G54D10*
G01X11103075Y-6084991D02*
G01X11110618Y-6084991D01*
G01X11117982Y-6088763D01*
G01X11125525Y-6096306D01*
G01X11129477Y-6103850D01*
G01X11129297Y-6111213D01*
G01X11125525Y-6114985D01*
G01X11119957Y-6116961D01*
G01X11116365Y-6116961D01*
G01X11110618Y-6115165D01*
G01X11095531Y-6107621D01*
G01X11089963Y-6105646D01*
G01X11086192Y-6105825D01*
G01X11080444Y-6107621D01*
G01X11074877Y-6113189D01*
G01X11074877Y-6120732D01*
G01X11078648Y-6128096D01*
G01X11086192Y-6135640D01*
G01X11093735Y-6139591D01*
G01X11101099Y-6139411D01*
G01X11089065Y-6059846D02*
G01X11040213Y-6089661D01*
G01X11070207Y-6040988D02*
G01X11040213Y-6089661D01*
G01X11070207Y-6040988D02*
G01X11021534Y-6070982D01*
G01X11051528Y-6022309D02*
G01X11021534Y-6070982D01*
G01X10979506Y-6055177D02*
G01X10945741Y-6021411D01*
G01X10946639Y-5928555D02*
G01X10954182Y-5928555D01*
G01X10961725Y-5932506D01*
G01X10969089Y-5939870D01*
G01X10973040Y-5947413D01*
G01X10973040Y-5954957D01*
G01X10969269Y-5958729D01*
G01X10963521Y-5960525D01*
G01X10959929Y-5960525D01*
G01X10954182Y-5958729D01*
G01X10939095Y-5951185D01*
G01X10933527Y-5949210D01*
G01X10929756Y-5949389D01*
G01X10924008Y-5951185D01*
G01X10918441Y-5956753D01*
G01X10918441Y-5964296D01*
G01X10922392Y-5971840D01*
G01X10929756Y-5979204D01*
G01X10937299Y-5983155D01*
G01X10944842Y-5983155D01*
G01X10932629Y-5903410D02*
G01X10893296Y-5942744D01*
G01X10932629Y-5903410D02*
G01X10915746Y-5886527D01*
G01X10908203Y-5882576D01*
G01X10904431Y-5882756D01*
G01X10898864Y-5884372D01*
G01X10893116Y-5890119D01*
G01X10891320Y-5895867D01*
G01X10891320Y-5899459D01*
G01X10895092Y-5907182D01*
G01X10911975Y-5924065D01*
G01X10854681Y-5836597D02*
G01X10862224Y-5836597D01*
G01X10869768Y-5840548D01*
G01X10877131Y-5847912D01*
G01X10881083Y-5855456D01*
G01X10881083Y-5862999D01*
G01X10877311Y-5866771D01*
G01X10871564Y-5868567D01*
G01X10867971Y-5868567D01*
G01X10862224Y-5866771D01*
G01X10847137Y-5859227D01*
G01X10841570Y-5857252D01*
G01X10837798Y-5857431D01*
G01X10832050Y-5859227D01*
G01X10826483Y-5864795D01*
G01X10826483Y-5872339D01*
G01X10830434Y-5879882D01*
G01X10837798Y-5887246D01*
G01X10845341Y-5891197D01*
G01X10852885Y-5891197D01*
G01X10827560Y-5798341D02*
G01X10788227Y-5837675D01*
G01X10840672Y-5811452D02*
G01X10814270Y-5785050D01*
G01X10648992Y-6422869D02*
G01X10656536Y-6422869D01*
G01X10663900Y-6426640D01*
G01X10671443Y-6434184D01*
G01X10675394Y-6441727D01*
G01X10675215Y-6449091D01*
G01X10671443Y-6452863D01*
G01X10665875Y-6454838D01*
G01X10662283Y-6454838D01*
G01X10656536Y-6453042D01*
G01X10641449Y-6445499D01*
G01X10635881Y-6443523D01*
G01X10632110Y-6443703D01*
G01X10626362Y-6445499D01*
G01X10620794Y-6451067D01*
G01X10620794Y-6458610D01*
G01X10624566Y-6465974D01*
G01X10632110Y-6473517D01*
G01X10639653Y-6477469D01*
G01X10647017Y-6477289D01*
G01X10634983Y-6397724D02*
G01X10586131Y-6427538D01*
G01X10616125Y-6378865D02*
G01X10586131Y-6427538D01*
G01X10616125Y-6378865D02*
G01X10567452Y-6408859D01*
G01X10597446Y-6360186D02*
G01X10567452Y-6408859D01*
G01X10570505Y-6347973D02*
G01X10568529Y-6342406D01*
G01X10568350Y-6331090D01*
G01X10529016Y-6370424D01*
G01X10537458Y-6300198D02*
G01X10541229Y-6307562D01*
G01X10539433Y-6316902D01*
G01X10531890Y-6328396D01*
G01X10526322Y-6333964D01*
G01X10515007Y-6341328D01*
G01X10505488Y-6343304D01*
G01X10498124Y-6339532D01*
G01X10494352Y-6335760D01*
G01X10490581Y-6328396D01*
G01X10492556Y-6318877D01*
G01X10499920Y-6307562D01*
G01X10505488Y-6301994D01*
G01X10516983Y-6294451D01*
G01X10526322Y-6292655D01*
G01X10533686Y-6296427D01*
G01X10537458Y-6300198D01*
G01X10491479Y-6254219D02*
G01X10495250Y-6261583D01*
G01X10493454Y-6270923D01*
G01X10485911Y-6282417D01*
G01X10480343Y-6287985D01*
G01X10469028Y-6295349D01*
G01X10459509Y-6297325D01*
G01X10452145Y-6293553D01*
G01X10448374Y-6289781D01*
G01X10444602Y-6282417D01*
G01X10446577Y-6272898D01*
G01X10453941Y-6261583D01*
G01X10459509Y-6256015D01*
G01X10471004Y-6248472D01*
G01X10480343Y-6246676D01*
G01X10487707Y-6250448D01*
G01X10491479Y-6254219D01*
G01X8636086Y-9150449D02*
G01X8630752Y-9145115D01*
G01X8628212Y-9137241D01*
G01X8628212Y-9126573D01*
G01X8630752Y-9118445D01*
G01X8636086Y-9113365D01*
G01X8641420Y-9113365D01*
G01X8646754Y-9115905D01*
G01X8649294Y-9118445D01*
G01X8652088Y-9123779D01*
G01X8657422Y-9139781D01*
G01X8659962Y-9145115D01*
G01X8662756Y-9147655D01*
G01X8668090Y-9150449D01*
G01X8675964Y-9150449D01*
G01X8681298Y-9145115D01*
G01X8683838Y-9137241D01*
G01X8683838Y-9126573D01*
G01X8681298Y-9118445D01*
G01X8675964Y-9113365D01*
G01X8628212Y-9178135D02*
G01X8683838Y-9191597D01*
G01X8628212Y-9204805D02*
G01X8683838Y-9191597D01*
G01X8628212Y-9204805D02*
G01X8683838Y-9218013D01*
G01X8628212Y-9231221D02*
G01X8683838Y-9218013D01*
G01X8702380Y-9258907D02*
G01X8702380Y-9306659D01*
G01X8636086Y-9371683D02*
G01X8630752Y-9366349D01*
G01X8628212Y-9358221D01*
G01X8628212Y-9347807D01*
G01X8630752Y-9339679D01*
G01X8636086Y-9334345D01*
G01X8641420Y-9334345D01*
G01X8646754Y-9337139D01*
G01X8649294Y-9339679D01*
G01X8652088Y-9345013D01*
G01X8657422Y-9361015D01*
G01X8659962Y-9366349D01*
G01X8662756Y-9368889D01*
G01X8668090Y-9371683D01*
G01X8675964Y-9371683D01*
G01X8681298Y-9366349D01*
G01X8683838Y-9358221D01*
G01X8683838Y-9347807D01*
G01X8681298Y-9339679D01*
G01X8675964Y-9334345D01*
G01X8628212Y-9399369D02*
G01X8683838Y-9399369D01*
G01X8628212Y-9399369D02*
G01X8628212Y-9423245D01*
G01X8630752Y-9431373D01*
G01X8633546Y-9433913D01*
G01X8638626Y-9436707D01*
G01X8646754Y-9436707D01*
G01X8652088Y-9433913D01*
G01X8654628Y-9431373D01*
G01X8657422Y-9423245D01*
G01X8657422Y-9399369D01*
G01X8636086Y-9501731D02*
G01X8630752Y-9496397D01*
G01X8628212Y-9488269D01*
G01X8628212Y-9477855D01*
G01X8630752Y-9469727D01*
G01X8636086Y-9464393D01*
G01X8641420Y-9464393D01*
G01X8646754Y-9467187D01*
G01X8649294Y-9469727D01*
G01X8652088Y-9475061D01*
G01X8657422Y-9491063D01*
G01X8659962Y-9496397D01*
G01X8662756Y-9498937D01*
G01X8668090Y-9501731D01*
G01X8675964Y-9501731D01*
G01X8681298Y-9496397D01*
G01X8683838Y-9488269D01*
G01X8683838Y-9477855D01*
G01X8681298Y-9469727D01*
G01X8675964Y-9464393D01*
G01X8628212Y-9547959D02*
G01X8683838Y-9547959D01*
G01X8628212Y-9529417D02*
G01X8628212Y-9566755D01*
G01X8076086Y-9244556D02*
G01X8070752Y-9239222D01*
G01X8068212Y-9231348D01*
G01X8068212Y-9220680D01*
G01X8070752Y-9212552D01*
G01X8076086Y-9207472D01*
G01X8081420Y-9207472D01*
G01X8086754Y-9210012D01*
G01X8089294Y-9212552D01*
G01X8092088Y-9217886D01*
G01X8097422Y-9233888D01*
G01X8099962Y-9239222D01*
G01X8102756Y-9241762D01*
G01X8108090Y-9244556D01*
G01X8115964Y-9244556D01*
G01X8121298Y-9239222D01*
G01X8123838Y-9231348D01*
G01X8123838Y-9220680D01*
G01X8121298Y-9212552D01*
G01X8115964Y-9207472D01*
G01X8068212Y-9272242D02*
G01X8123838Y-9285704D01*
G01X8068212Y-9298912D02*
G01X8123838Y-9285704D01*
G01X8068212Y-9298912D02*
G01X8123838Y-9312120D01*
G01X8068212Y-9325328D02*
G01X8123838Y-9312120D01*
G01X8078626Y-9353014D02*
G01X8076086Y-9358348D01*
G01X8068212Y-9366476D01*
G01X8123838Y-9366476D01*
G01X8068212Y-9410164D02*
G01X8070752Y-9402290D01*
G01X8078626Y-9396956D01*
G01X8092088Y-9394162D01*
G01X8099962Y-9394162D01*
G01X8113170Y-9396956D01*
G01X8121298Y-9402290D01*
G01X8123838Y-9410164D01*
G01X8123838Y-9415498D01*
G01X8121298Y-9423372D01*
G01X8113170Y-9428706D01*
G01X8099962Y-9431500D01*
G01X8092088Y-9431500D01*
G01X8078626Y-9428706D01*
G01X8070752Y-9423372D01*
G01X8068212Y-9415498D01*
G01X8068212Y-9410164D01*
G01X8078626Y-9459186D02*
G01X8076086Y-9464520D01*
G01X8068212Y-9472648D01*
G01X8123838Y-9472648D01*
G01X10096994Y-7988212D02*
G01X10096994Y-8028090D01*
G01X10094454Y-8035964D01*
G01X10089120Y-8041298D01*
G01X10081246Y-8043838D01*
G01X10075912Y-8043838D01*
G01X10067784Y-8041298D01*
G01X10062704Y-8035964D01*
G01X10059910Y-8028090D01*
G01X10059910Y-7988212D01*
G01X10029430Y-8001420D02*
G01X10029430Y-7998626D01*
G01X10026890Y-7993546D01*
G01X10024096Y-7990752D01*
G01X10018762Y-7988212D01*
G01X10008348Y-7988212D01*
G01X10003014Y-7990752D01*
G01X10000220Y-7993546D01*
G01X9997680Y-7998626D01*
G01X9997680Y-8003960D01*
G01X10000220Y-8009294D01*
G01X10005554Y-8017422D01*
G01X10032224Y-8043838D01*
G01X9994886Y-8043838D01*
G01X8821626Y-8945008D02*
G01X8819086Y-8950088D01*
G01X8811212Y-8958216D01*
G01X8866838Y-8958216D01*
G01X8811212Y-8985902D02*
G01X8866838Y-8985902D01*
G01X8829754Y-9012572D02*
G01X8856170Y-8985902D01*
G01X8845756Y-8996570D02*
G01X8866838Y-9015112D01*
G54D11*
G01X8687234Y-8959704D02*
G01X8709586Y-8959704D01*
G01X8687234Y-8959704D02*
G01X8687234Y-8969102D01*
G01X8688250Y-8972404D01*
G01X8689266Y-8973420D01*
G01X8691552Y-8974436D01*
G01X8693584Y-8974436D01*
G01X8695870Y-8973420D01*
G01X8696886Y-8972404D01*
G01X8697902Y-8969102D01*
G01X8697902Y-8959704D01*
G01X8697902Y-8967070D02*
G01X8709586Y-8974436D01*
G01X8687234Y-8998312D02*
G01X8687234Y-8987644D01*
G01X8696886Y-8986628D01*
G01X8695870Y-8987644D01*
G01X8694600Y-8990946D01*
G01X8694600Y-8993994D01*
G01X8695870Y-8997296D01*
G01X8697902Y-8999328D01*
G01X8700950Y-9000344D01*
G01X8703236Y-9000344D01*
G01X8706284Y-8999328D01*
G01X8708570Y-8997296D01*
G01X8709586Y-8993994D01*
G01X8709586Y-8990946D01*
G01X8708570Y-8987644D01*
G01X8707554Y-8986628D01*
G01X8705268Y-8985612D01*
G54D10*
G01X12340667Y-8691420D02*
G01X12343207Y-8686086D01*
G01X12348541Y-8680752D01*
G01X12353875Y-8678212D01*
G01X12364543Y-8678212D01*
G01X12369877Y-8680752D01*
G01X12375211Y-8686086D01*
G01X12377751Y-8691420D01*
G01X12380291Y-8699294D01*
G01X12380291Y-8712756D01*
G01X12377751Y-8720630D01*
G01X12375211Y-8725964D01*
G01X12369877Y-8731298D01*
G01X12364543Y-8733838D01*
G01X12353875Y-8733838D01*
G01X12348541Y-8731298D01*
G01X12343207Y-8725964D01*
G01X12340667Y-8720630D01*
G01X12299519Y-8696754D02*
G01X12304853Y-8699294D01*
G01X12310187Y-8704628D01*
G01X12312981Y-8712756D01*
G01X12312981Y-8718090D01*
G01X12310187Y-8725964D01*
G01X12304853Y-8731298D01*
G01X12299519Y-8733838D01*
G01X12291645Y-8733838D01*
G01X12286311Y-8731298D01*
G01X12280977Y-8725964D01*
G01X12278437Y-8718090D01*
G01X12278437Y-8712756D01*
G01X12280977Y-8704628D01*
G01X12286311Y-8699294D01*
G01X12291645Y-8696754D01*
G01X12299519Y-8696754D01*
G01X12250751Y-8696754D02*
G01X12250751Y-8733838D01*
G01X12250751Y-8707422D02*
G01X12242623Y-8699294D01*
G01X12237289Y-8696754D01*
G01X12229415Y-8696754D01*
G01X12224081Y-8699294D01*
G01X12221541Y-8707422D01*
G01X12221541Y-8733838D01*
G01X12193855Y-8696754D02*
G01X12193855Y-8733838D01*
G01X12193855Y-8707422D02*
G01X12185727Y-8699294D01*
G01X12180393Y-8696754D01*
G01X12172519Y-8696754D01*
G01X12167185Y-8699294D01*
G01X12164645Y-8707422D01*
G01X12164645Y-8733838D01*
G01X12136959Y-8752380D02*
G01X12089207Y-8752380D01*
G01X12045519Y-8678212D02*
G01X12053393Y-8680752D01*
G01X12058727Y-8688626D01*
G01X12061521Y-8702088D01*
G01X12061521Y-8709962D01*
G01X12058727Y-8723170D01*
G01X12053393Y-8731298D01*
G01X12045519Y-8733838D01*
G01X12040185Y-8733838D01*
G01X12032311Y-8731298D01*
G01X12026977Y-8723170D01*
G01X12024183Y-8709962D01*
G01X12024183Y-8702088D01*
G01X12026977Y-8688626D01*
G01X12032311Y-8680752D01*
G01X12040185Y-8678212D01*
G01X12045519Y-8678212D01*
G01X11996497Y-8688626D02*
G01X11991163Y-8686086D01*
G01X11983035Y-8678212D01*
G01X11983035Y-8733838D01*
G01X11955349Y-8696754D02*
G01X11926139Y-8733838D01*
G01X11926139Y-8696754D02*
G01X11955349Y-8733838D01*
G01X11898453Y-8688626D02*
G01X11893119Y-8686086D01*
G01X11884991Y-8678212D01*
G01X11884991Y-8733838D01*
G01X11841303Y-8678212D02*
G01X11849177Y-8680752D01*
G01X11854511Y-8688626D01*
G01X11857305Y-8702088D01*
G01X11857305Y-8709962D01*
G01X11854511Y-8723170D01*
G01X11849177Y-8731298D01*
G01X11841303Y-8733838D01*
G01X11835969Y-8733838D01*
G01X11828095Y-8731298D01*
G01X11822761Y-8723170D01*
G01X11819967Y-8709962D01*
G01X11819967Y-8702088D01*
G01X11822761Y-8688626D01*
G01X11828095Y-8680752D01*
G01X11835969Y-8678212D01*
G01X11841303Y-8678212D01*
G01X11792281Y-8752380D02*
G01X11744529Y-8752380D01*
G01X11716843Y-8678212D02*
G01X11716843Y-8733838D01*
G01X11716843Y-8678212D02*
G01X11692967Y-8678212D01*
G01X11684839Y-8680752D01*
G01X11682299Y-8683546D01*
G01X11679505Y-8688626D01*
G01X11679505Y-8696754D01*
G01X11682299Y-8702088D01*
G01X11684839Y-8704628D01*
G01X11692967Y-8707422D01*
G01X11716843Y-8707422D01*
G01X11651819Y-8678212D02*
G01X11649025Y-8680752D01*
G01X11646485Y-8678212D01*
G01X11649025Y-8675418D01*
G01X11651819Y-8678212D01*
G01X11649025Y-8696754D02*
G01X11649025Y-8733838D01*
G01X11618799Y-8696754D02*
G01X11618799Y-8733838D01*
G01X11618799Y-8707422D02*
G01X11610671Y-8699294D01*
G01X11605337Y-8696754D01*
G01X11597463Y-8696754D01*
G01X11592129Y-8699294D01*
G01X11589589Y-8707422D01*
G01X11589589Y-8733838D01*
G01X11992306Y-8528212D02*
G01X11992306Y-8570630D01*
G01X11994846Y-8578504D01*
G01X11997640Y-8581298D01*
G01X12002974Y-8583838D01*
G01X12008308Y-8583838D01*
G01X12013642Y-8581298D01*
G01X12016182Y-8578504D01*
G01X12018722Y-8570630D01*
G01X12018722Y-8565296D01*
G01X11964620Y-8538626D02*
G01X11959286Y-8536086D01*
G01X11951158Y-8528212D01*
G01X11951158Y-8583838D01*
G01X8680212Y-8825704D02*
G01X8717296Y-8799288D01*
G01X8717296Y-8838912D01*
G01X8680212Y-8825704D02*
G01X8735838Y-8825704D01*
G01X8698754Y-8866598D02*
G01X8725170Y-8866598D01*
G01X8733298Y-8869392D01*
G01X8735838Y-8874726D01*
G01X8735838Y-8882600D01*
G01X8733298Y-8887934D01*
G01X8725170Y-8895808D01*
G01X8698754Y-8895808D02*
G01X8735838Y-8895808D01*
G01X8680212Y-8960832D02*
G01X8735838Y-8934162D01*
G01X8680212Y-8923494D02*
G01X8680212Y-8960832D01*
G54D12*
G01X8870710Y-8879397D02*
G01X8868170Y-8878127D01*
G01X8865630Y-8875587D01*
G01X8864360Y-8872793D01*
G01X8864360Y-8867713D01*
G01X8865630Y-8864919D01*
G01X8868170Y-8862379D01*
G01X8870710Y-8861109D01*
G01X8874774Y-8859839D01*
G01X8881378Y-8859839D01*
G01X8885188Y-8861109D01*
G01X8887982Y-8862379D01*
G01X8890522Y-8864919D01*
G01X8891792Y-8867713D01*
G01X8891792Y-8872793D01*
G01X8890522Y-8875587D01*
G01X8887982Y-8878127D01*
G01X8885188Y-8879397D01*
G01X8869440Y-8893621D02*
G01X8868170Y-8896415D01*
G01X8864360Y-8900225D01*
G01X8891792Y-8900225D01*
G04 Text End*

G04 PolygonModel Start*
G54D13*
G01X10040000Y-6078750D02*
G01X10040000Y-6161250D01*
G01X10040000Y-6161250D02*
G01X10200000Y-6161250D01*
G01X10200000Y-6078750D02*
G01X10040000Y-6078750D01*
G01X10200000Y-6161250D02*
G01X10200000Y-6078750D01*
G01X10400589Y-6095147D02*
G01X10655147Y-5840589D01*
G01X10400589Y-6095147D02*
G01X10824853Y-6519411D01*
G01X10545546Y-6126967D02*
G01X10793033Y-6374454D01*
G01X10577365Y-6130503D02*
G01X10690503Y-6017365D01*
G01X10577365Y-6130503D02*
G01X10789497Y-6342635D01*
G01X10655147Y-5840589D02*
G01X11079411Y-6264853D01*
G01X10686967Y-5985546D02*
G01X10545546Y-6126967D01*
G01X10690503Y-6017365D02*
G01X10902635Y-6229497D01*
G01X10789497Y-6342635D02*
G01X10902635Y-6229497D01*
G01X10793033Y-6374454D02*
G01X10934454Y-6233033D01*
G01X10824853Y-6519411D02*
G01X11079411Y-6264853D01*
G01X10934454Y-6233033D02*
G01X10686967Y-5985546D01*
G01X8180000Y-9040000D02*
G01X8180000Y-9640000D01*
G01X8180000Y-9040000D02*
G01X8540000Y-9040000D01*
G01X8180000Y-9640000D02*
G01X8540000Y-9640000D01*
G01X8260000Y-9165000D02*
G01X8260000Y-9515000D01*
G01X8260000Y-9515000D02*
G01X8460000Y-9515000D01*
G01X8280000Y-9190000D02*
G01X8280000Y-9490000D01*
G01X8280000Y-9190000D02*
G01X8440000Y-9190000D01*
G01X8280000Y-9490000D02*
G01X8440000Y-9490000D01*
G01X8440000Y-9190000D02*
G01X8440000Y-9490000D01*
G01X8460000Y-9165000D02*
G01X8260000Y-9165000D01*
G01X8460000Y-9515000D02*
G01X8460000Y-9165000D01*
G01X8540000Y-9040000D02*
G01X8540000Y-9640000D01*
G01X8741250Y-8900000D02*
G01X8658750Y-8900000D01*
G01X8658750Y-8900000D02*
G01X8658750Y-9060000D01*
G01X8741250Y-9060000D02*
G01X8741250Y-8900000D01*
G01X8658750Y-9060000D02*
G01X8741250Y-9060000D01*
G01X8817500Y-8780000D02*
G01X8817500Y-8980000D01*
G01X8817500Y-8980000D02*
G01X8942500Y-8980000D01*
G01X8942500Y-8780000D02*
G01X8817500Y-8780000D01*
G01X8942500Y-8980000D02*
G01X8942500Y-8780000D01*

M02*

