G04 Layer: BottomLayer*
G04 EasyEDA Pro v2.2.45.4, 2026-01-17 20:35:08*
G04 Gerber Generator version 0.3*
G04 Scale: 100 percent, Rotated: No, Reflected: No*
G04 Dimensions in millimeters*
G04 Leading zeros omitted, absolute positions, 4 integers and 5 decimals*
G04 Generated by one-click*
%FSLAX45Y45*%
%MOMM*%
%AMRoundRect*1,1,$1,$2,$3*1,1,$1,$4,$5*1,1,$1,0-$2,0-$3*1,1,$1,0-$4,0-$5*20,1,$1,$2,$3,$4,$5,0*20,1,$1,$4,$5,0-$2,0-$3,0*20,1,$1,0-$2,0-$3,0-$4,0-$5,0*20,1,$1,0-$4,0-$5,$2,$3,0*4,1,4,$2,$3,$4,$5,0-$2,0-$3,0-$4,0-$5,$2,$3,0*%
%AMRect*21,1,$1,$2,0,0,$3*%
%ADD10C,0.25*%
%ADD11RoundRect,0.475X-0.25X0.2375X0.25X0.2375*%
%ADD12Rect,1.5X1.5X135.0*%
%ADD13R,1.5X1.5*%
%ADD14R,0.65X0.65*%
%ADD15R,1.5X0.9*%
%ADD16R,0.9X1.5*%
%ADD17R,1.0002X1.0*%
%ADD18R,1.0X1.0*%
%ADD19RoundRect,0.475X-0.2375X-0.25X-0.2375X0.25*%
%ADD20R,0.35X1.5*%
%ADD21R,2.0X1.7*%
%ADD22RoundRect,0.5X-0.475X-0.3375X-0.475X0.3375*%
%ADD23C,0.6*%
%ADD24C,0.2*%
G75*


G04 PolygonModel Start*
G36*
G01X7950000Y-1900000D02*
G01X12650000Y-1900000D01*
G01X12650000Y-5500000D01*
G01X7950000Y-5500000D01*
G01X7950000Y-1900000D01*
G37*
G54D10*
G01X11740000Y-6475000D02*
G01X11740000Y-6625000D01*
G01X11740000Y-8190000D02*
G01X11740000Y-8040000D01*
G01X11740000Y-7405041D02*
G01X11740000Y-7255041D01*
G01X15610000Y-7775000D02*
G01X15610000Y-7625000D01*
G01X15610000Y-6345000D02*
G01X15610000Y-6195000D01*
G01X16745000Y-6345000D02*
G01X16745000Y-6195000D01*
G01X14475000Y-7775000D02*
G01X14475000Y-7625000D01*
G01X14475000Y-8485000D02*
G01X14475000Y-8335000D01*
G01X13345000Y-7775000D02*
G01X13345000Y-7625000D01*
G01X13345000Y-7060000D02*
G01X13345000Y-6910000D01*
G01X8560000Y-7780000D02*
G01X8560000Y-7630000D01*
G01X14475000Y-7060000D02*
G01X14475000Y-6910000D01*
G01X8555000Y-6345000D02*
G01X8555000Y-6195000D01*
G01X13345000Y-6345000D02*
G01X13345000Y-6195000D01*
G01X16745000Y-8485000D02*
G01X16745000Y-8335000D01*
G01X8555000Y-7055000D02*
G01X8555000Y-6905000D01*
G01X15610000Y-8485000D02*
G01X15610000Y-8335000D01*
G01X16745000Y-7775000D02*
G01X16745000Y-7625000D01*
G01X13345000Y-8485000D02*
G01X13345000Y-8335000D01*
G01X16745000Y-7060000D02*
G01X16745000Y-6910000D01*
G01X8565000Y-8490000D02*
G01X8565000Y-8340000D01*
G01X15610000Y-7060000D02*
G01X15610000Y-6910000D01*
G01X14475000Y-6345000D02*
G01X14475000Y-6195000D01*

G04 Pad Start*
G54D11*
G01X10028750Y-6120000D03*
G01X10211250Y-6120000D03*
G54D12*
G01X10464229Y-5904228D03*
G01X11015771Y-6455772D03*
G54D13*
G01X8360000Y-8950000D03*
G01X8360000Y-9730000D03*
G54D14*
G01X10030000Y-6280000D03*
G01X10030000Y-6375000D03*
G01X9885000Y-6375000D03*
G01X9885000Y-6280000D03*
G54D15*
G01X9171000Y-8846000D03*
G01X9171000Y-8719000D03*
G01X9171000Y-8592000D03*
G01X9171000Y-8465000D03*
G01X9171000Y-8338000D03*
G01X9171000Y-8211000D03*
G01X9171000Y-8084000D03*
G01X9171000Y-7957000D03*
G01X9171000Y-7830000D03*
G01X9171000Y-7703000D03*
G01X9171000Y-7576000D03*
G01X9171000Y-7449000D03*
G01X9171000Y-7322000D03*
G01X9171000Y-7195000D03*
G54D16*
G01X9347500Y-7070000D03*
G01X9474500Y-7070000D03*
G01X9601500Y-7070000D03*
G01X9728500Y-7070000D03*
G01X9855500Y-7070000D03*
G01X9982500Y-7070000D03*
G01X10109500Y-7070000D03*
G01X10236500Y-7070000D03*
G01X10363500Y-7070000D03*
G01X10490500Y-7070000D03*
G01X10617500Y-7070000D03*
G01X10744500Y-7070000D03*
G54D15*
G01X10921000Y-7195000D03*
G01X10921000Y-7322000D03*
G01X10921000Y-7449000D03*
G01X10921000Y-7576000D03*
G01X10921000Y-7703000D03*
G01X10921000Y-7830000D03*
G01X10921000Y-7957000D03*
G01X10921000Y-8084000D03*
G01X10921000Y-8211000D03*
G01X10921000Y-8338000D03*
G01X10921000Y-8465000D03*
G01X10921000Y-8592000D03*
G01X10921000Y-8719000D03*
G01X10921000Y-8846000D03*
G54D18*
G01X9760000Y-8161000D03*
G01X9760000Y-8311000D03*
G01X9760000Y-8311000D03*
G01X9760000Y-8461000D03*
G01X9910000Y-8161000D03*
G01X9910000Y-8311000D03*
G01X9910000Y-8461000D03*
G01X9910000Y-8461000D03*
G01X10060000Y-8161000D03*
G01X10060000Y-8311000D03*
G01X10060000Y-8461000D03*
G54D19*
G01X8700000Y-8888750D03*
G01X8700000Y-9071250D03*
G54D20*
G01X11780000Y-8940000D03*
G01X11830000Y-8940000D03*
G01X11880000Y-8940000D03*
G01X11930000Y-8940000D03*
G01X11980000Y-8940000D03*
G01X12030000Y-8940000D03*
G01X12080000Y-8940000D03*
G01X12130000Y-8940000D03*
G01X12180000Y-8940000D03*
G01X12230000Y-8940000D03*
G54D21*
G01X11610000Y-9195000D03*
G01X12410000Y-9195000D03*
G54D22*
G01X8880000Y-8983750D03*
G01X8880000Y-8776250D03*
G54D14*
G01X9570000Y-6600000D03*
G01X9570000Y-6505000D03*
G01X9425000Y-6505000D03*
G01X9425000Y-6600000D03*
G54D23*
G01X11740000Y-6625000D03*
G01X11740000Y-6475000D03*
G01X11740000Y-8040000D03*
G01X11740000Y-8190000D03*
G01X11740000Y-7255041D03*
G01X11740000Y-7405041D03*
G01X15610000Y-7625000D03*
G01X15610000Y-7775000D03*
G01X15610000Y-6195000D03*
G01X15610000Y-6345000D03*
G01X16745000Y-6195000D03*
G01X16745000Y-6345000D03*
G01X14475000Y-7625000D03*
G01X14475000Y-7775000D03*
G01X14475000Y-8335000D03*
G01X14475000Y-8485000D03*
G01X13345000Y-7625000D03*
G01X13345000Y-7775000D03*
G01X13345000Y-6910000D03*
G01X13345000Y-7060000D03*
G01X8560000Y-7630000D03*
G01X8560000Y-7780000D03*
G01X14475000Y-6910000D03*
G01X14475000Y-7060000D03*
G01X8555000Y-6195000D03*
G01X8555000Y-6345000D03*
G01X13345000Y-6195000D03*
G01X13345000Y-6345000D03*
G01X16745000Y-8335000D03*
G01X16745000Y-8485000D03*
G01X8555000Y-6905000D03*
G01X8555000Y-7055000D03*
G01X15610000Y-8335000D03*
G01X15610000Y-8485000D03*
G01X16745000Y-7625000D03*
G01X16745000Y-7775000D03*
G01X13345000Y-8335000D03*
G01X13345000Y-8485000D03*
G01X16745000Y-6910000D03*
G01X16745000Y-7060000D03*
G01X8565000Y-8340000D03*
G01X8565000Y-8490000D03*
G01X15610000Y-6910000D03*
G01X15610000Y-7060000D03*
G01X14475000Y-6195000D03*
G01X14475000Y-6345000D03*
G04 Pad End*

G04 Via Start*
G54D24*
G01X12700000Y-1975000D03*
G01X12700000Y-1900000D03*
G01X12800000Y-1925000D03*
G01X12800000Y-1950000D03*
G01X12800000Y-1900000D03*
G01X12800000Y-1875000D03*
G01X12800000Y-5600000D03*
G01X12800000Y-5575000D03*
G01X12800000Y-1975000D03*
G01X12800000Y-5550000D03*
G01X12699828Y-1949520D03*
G01X12700000Y-5550000D03*
G01X12699828Y-5574520D03*
G01X12700000Y-1925000D03*
G01X12700000Y-1875000D03*
G01X12700000Y-5600000D03*
G54D23*
G01X9171000Y-8719000D03*
G01X12220000Y-9299900D03*
G01X10920000Y-6800000D03*
G01X10617574Y-6077573D03*
G01X10920000Y-7060000D03*
G01X8560000Y-8630000D03*
G01X8175000Y-6270000D03*
G01X9400000Y-7300000D03*
G01X9540000Y-7705000D03*
G01X9520000Y-8415000D03*
G01X10780000Y-8800000D03*
G01X15040000Y-7350000D03*
G01X13920000Y-6140000D03*
G01X16180000Y-6630000D03*
G01X12320000Y-9040000D03*
G01X13920000Y-6620000D03*
G01X16180000Y-8570000D03*
G01X15040000Y-6630000D03*
G01X16180000Y-8070000D03*
G01X12180000Y-8800000D03*
G01X9557500Y-6317500D03*
G01X12820000Y-6630000D03*
G01X10460000Y-5760000D03*
G01X12820000Y-7350000D03*
G01X9160000Y-8960000D03*
G01X15040000Y-6150000D03*
G01X15040000Y-8070000D03*
G01X10740000Y-7200000D03*
G01X9900000Y-8040000D03*
G01X9900000Y-8600000D03*
G01X10460000Y-6120000D03*
G01X12820000Y-8740000D03*
G01X15040000Y-8570000D03*
G01X12820000Y-6150000D03*
G01X16180000Y-7350000D03*
G01X12820000Y-8070000D03*
G01X10760100Y-7840000D03*
G01X10760100Y-7520000D03*
G01X16180000Y-6150000D03*
G01X13920000Y-7340000D03*
G01X13920000Y-8560000D03*
G01X13920000Y-8060000D03*
G01X11737500Y-8502500D03*
G01X11740000Y-6900000D03*
G01X13350000Y-6075000D03*
G01X13340000Y-8625000D03*
G01X14480000Y-6075000D03*
G01X15605000Y-8625000D03*
G01X16740000Y-8640000D03*
G01X12000000Y-9100000D03*
G01X10730000Y-9110000D03*
G01X10740000Y-9020000D03*
G01X12120000Y-9100000D03*
G04 Via End*

G04 Track Start*
G54D24*
G01X8983750Y-8776250D02*
G01X9041000Y-8719000D01*
G01X8076250Y-8776250D02*
G01X8700000Y-8776250D01*
G01X12230000Y-9289900D02*
G01X12220000Y-9299900D01*
G01X10082500Y-6280000D02*
G01X10030000Y-6280000D01*
G01X7979900Y-8679900D02*
G01X8076250Y-8776250D01*
G01X9320000Y-6120000D02*
G01X9020000Y-5820000D01*
G01X12230000Y-8940000D02*
G01X12230000Y-9289900D01*
G01X10100000Y-6450000D02*
G01X10100000Y-6297500D01*
G01X8700000Y-8776250D02*
G01X8880000Y-8776250D01*
G01X10100000Y-6297500D02*
G01X10082500Y-6280000D01*
G01X9570000Y-6600000D02*
G01X9950000Y-6600000D01*
G01X9020000Y-5820000D02*
G01X8060000Y-5820000D01*
G01X10028750Y-6120000D02*
G01X9320000Y-6120000D01*
G01X8700000Y-8888750D02*
G01X8700000Y-8776250D01*
G01X9950000Y-6600000D02*
G01X10100000Y-6450000D01*
G01X10030000Y-6121250D02*
G01X10028750Y-6120000D01*
G01X8880000Y-8776250D02*
G01X8983750Y-8776250D01*
G01X8060000Y-5820000D02*
G01X7979900Y-5900100D01*
G01X7979900Y-8679900D01*
G01X9041000Y-8719000D02*
G01X9171000Y-8719000D01*
G01X10030000Y-6280000D02*
G01X10030000Y-6121250D01*
G01X11015772Y-6455772D02*
G01X10920000Y-6551543D01*
G01X10211250Y-6120000D02*
G01X10271350Y-6180100D01*
G01X10515047Y-6180100D02*
G01X10617574Y-6077573D01*
G01X10921000Y-7195000D02*
G01X10921000Y-7061000D01*
G01X10920000Y-7060000D01*
G01X10271350Y-6180100D02*
G01X10515047Y-6180100D01*
G01X10920000Y-6551543D02*
G01X10920000Y-6800000D01*
G01X8700000Y-9071250D02*
G01X8701350Y-9072600D01*
G01X9340000Y-9000000D02*
G01X9340000Y-8640000D01*
G01X8528750Y-9071250D02*
G01X8360000Y-9240000D01*
G01X9267400Y-9072600D02*
G01X9340000Y-9000000D01*
G01X9340000Y-8640000D02*
G01X9292000Y-8592000D01*
G01X9171000Y-8592000D01*
G01X8701350Y-9072600D02*
G01X9267400Y-9072600D01*
G01X8700000Y-9071250D02*
G01X8528750Y-9071250D01*
G01X8360000Y-9240000D02*
G01X8360000Y-9730000D01*
G01X9171000Y-8084000D02*
G01X9167000Y-8080000D01*
G01X8020000Y-8080000D02*
G01X8020000Y-6340000D01*
G01X8090000Y-6270000D01*
G01X8175000Y-6270000D01*
G01X9167000Y-8080000D02*
G01X8020000Y-8080000D01*
G01X9400000Y-7300000D02*
G01X9400000Y-8077000D01*
G01X9266000Y-8211000D01*
G01X9171000Y-8211000D01*
G01X9402000Y-8338000D02*
G01X9540000Y-8200000D01*
G01X9171000Y-8338000D02*
G01X9402000Y-8338000D01*
G01X9540000Y-8200000D02*
G01X9540000Y-7705000D01*
G01X9470000Y-8465000D02*
G01X9171000Y-8465000D01*
G01X9520000Y-8415000D02*
G01X9470000Y-8465000D01*
G01X13920000Y-6620000D02*
G01X13920000Y-6140000D01*
G01X10921000Y-8846000D02*
G01X10826000Y-8846000D01*
G01X9910000Y-8161000D02*
G01X9910000Y-8461000D01*
G01X12180000Y-8800000D02*
G01X12242700Y-8800000D01*
G01X12820000Y-8070000D02*
G01X12820000Y-7350000D01*
G01X12820000Y-8740000D02*
G01X12820000Y-8550000D01*
G01X10760100Y-7220100D02*
G01X10760100Y-7520000D01*
G01X9760000Y-8461000D02*
G01X10060000Y-8461000D01*
G01X9937500Y-6375000D02*
G01X9885000Y-6375000D01*
G01X10464228Y-6115772D02*
G01X10460000Y-6120000D01*
G01X10826000Y-8846000D02*
G01X10780000Y-8800000D01*
G01X10760100Y-7520000D02*
G01X10760100Y-7840000D01*
G01X9910000Y-8461000D02*
G01X9910000Y-8590000D01*
G01X15040000Y-8070000D02*
G01X15040000Y-7350000D01*
G01X15040000Y-8570000D02*
G01X15040000Y-8070000D01*
G01X9900000Y-8040000D02*
G01X9900000Y-8080000D01*
G01X10464228Y-5764228D02*
G01X10460000Y-5760000D01*
G01X10464228Y-5904228D02*
G01X10464228Y-5764228D01*
G01X12820000Y-6630000D02*
G01X12820000Y-6150000D01*
G01X9910000Y-8590000D02*
G01X9900000Y-8600000D01*
G01X9947600Y-6364900D02*
G01X9937500Y-6375000D01*
G01X15040000Y-6630000D02*
G01X15040000Y-6150000D01*
G01X16180000Y-8070000D02*
G01X16180000Y-7350000D01*
G01X9160000Y-8960000D02*
G01X9171000Y-8949000D01*
G01X9947600Y-6217400D02*
G01X9947600Y-6364900D01*
G01X13920000Y-7340000D02*
G01X13920000Y-6620000D01*
G01X9171000Y-8949000D02*
G01X9171000Y-8846000D01*
G01X9425000Y-6450000D02*
G01X9557500Y-6317500D01*
G01X13920000Y-8060000D02*
G01X13920000Y-7340000D01*
G01X9160000Y-8960000D02*
G01X9150000Y-8970000D01*
G01X8393750Y-8983750D02*
G01X8360000Y-8950000D01*
G01X16180000Y-7350000D02*
G01X16180000Y-6630000D01*
G01X8920000Y-8980000D02*
G01X8880000Y-8940000D01*
G01X12242700Y-8800000D02*
G01X12320000Y-8877300D01*
G01X9557500Y-6317500D02*
G01X9675000Y-6200000D01*
G01X9140000Y-8980000D02*
G01X8920000Y-8980000D01*
G01X9760000Y-8161000D02*
G01X10060000Y-8161000D01*
G01X16180000Y-8570000D02*
G01X16180000Y-8550000D01*
G01X10740000Y-7200000D02*
G01X10760100Y-7220100D01*
G01X9425000Y-6505000D02*
G01X9425000Y-6450000D01*
G01X10464228Y-5904228D02*
G01X10464228Y-6115772D01*
G01X12820000Y-8740000D02*
G01X12820000Y-8070000D01*
G01X15040000Y-8570000D02*
G01X15040000Y-8550000D01*
G01X12180000Y-8940000D02*
G01X12180000Y-8800000D01*
G01X9930200Y-6200000D02*
G01X9947600Y-6217400D01*
G01X9910000Y-8090000D02*
G01X9910000Y-8161000D01*
G01X12320000Y-8877300D02*
G01X12320000Y-9040000D01*
G01X16180000Y-8570000D02*
G01X16180000Y-8070000D01*
G01X13920000Y-8560000D02*
G01X13920000Y-8060000D01*
G01X9760000Y-8161000D02*
G01X9760000Y-8461000D01*
G01X9160000Y-8960000D02*
G01X9140000Y-8980000D01*
G01X15040000Y-7350000D02*
G01X15040000Y-6630000D01*
G01X8880000Y-8983750D02*
G01X8393750Y-8983750D01*
G01X16180000Y-6630000D02*
G01X16180000Y-6150000D01*
G01X9675000Y-6200000D02*
G01X9930200Y-6200000D01*
G01X10060000Y-8161000D02*
G01X10060000Y-8461000D01*
G01X13920000Y-8560000D02*
G01X13920000Y-8540000D01*
G01X8880000Y-8940000D02*
G01X8880000Y-8983750D01*
G01X9900000Y-8080000D02*
G01X9910000Y-8090000D01*
G01X12820000Y-7350000D02*
G01X12820000Y-6630000D01*
G01X10300000Y-6900000D02*
G01X11740000Y-6900000D01*
G01X10236500Y-7070000D02*
G01X10236500Y-6963500D01*
G01X10300000Y-6900000D01*
G01X13195000Y-5920000D02*
G01X13350000Y-6075000D01*
G01X10109500Y-7070000D02*
G01X10109500Y-6975000D01*
G01X11164500Y-5920000D01*
G01X13195000Y-5920000D01*
G01X14300000Y-5720000D02*
G01X14480000Y-5900000D01*
G01X9982500Y-6797500D02*
G01X11060000Y-5720000D01*
G01X9982500Y-7070000D02*
G01X9982500Y-6797500D01*
G01X11060000Y-5720000D02*
G01X14300000Y-5720000D01*
G01X14480000Y-5900000D02*
G01X14480000Y-6075000D01*
G01X11540000Y-9359900D02*
G01X11252000Y-9071900D01*
G01X11172000Y-8592000D02*
G01X10921000Y-8592000D01*
G01X15605000Y-8875000D02*
G01X15120100Y-9359900D01*
G01X15605000Y-8625000D02*
G01X15605000Y-8875000D01*
G01X11252000Y-8672000D02*
G01X11172000Y-8592000D01*
G01X15120100Y-9359900D02*
G01X11540000Y-9359900D01*
G01X11252000Y-9071900D02*
G01X11252000Y-8672000D01*
G01X11159000Y-9119000D02*
G01X11440000Y-9400000D01*
G01X11099000Y-8719000D02*
G01X11159000Y-8779000D01*
G01X10921000Y-8719000D02*
G01X11099000Y-8719000D01*
G01X16360000Y-9400000D02*
G01X16740000Y-9020000D01*
G01X16740000Y-8640000D01*
G01X11159000Y-8779000D02*
G01X11159000Y-9119000D01*
G01X11440000Y-9400000D02*
G01X16360000Y-9400000D01*
G01X9720000Y-6280000D02*
G01X9885000Y-6280000D01*
G01X9570000Y-6430000D02*
G01X9720000Y-6280000D01*
G01X9570000Y-6505000D02*
G01X9570000Y-6430000D01*
G01X9425000Y-6675000D02*
G01X9347500Y-6752500D01*
G01X9425000Y-6600000D02*
G01X9425000Y-6675000D01*
G01X9347500Y-6752500D02*
G01X9347500Y-7070000D01*
G01X11780000Y-8940000D02*
G01X11700000Y-8940000D01*
G01X11225000Y-8465000D01*
G01X10921000Y-8465000D01*
G01X11869410Y-8820000D02*
G01X11880000Y-8830590D01*
G01X11867700Y-8820000D02*
G01X11869410Y-8820000D01*
G01X11720000Y-8794800D02*
G01X11844210Y-8794800D01*
G01X11136200Y-8211000D02*
G01X11720000Y-8794800D01*
G01X11880000Y-8830590D02*
G01X11880000Y-8940000D01*
G01X11844210Y-8794800D02*
G01X11867700Y-8818290D01*
G01X11867700Y-8820000D01*
G01X10921000Y-8211000D02*
G01X11136200Y-8211000D01*
G01X11860820Y-8754700D02*
G01X11930000Y-8823880D01*
G01X11930000Y-8940000D01*
G01X10921000Y-8084000D02*
G01X11065910Y-8084000D01*
G01X11736610Y-8754700D02*
G01X11860820Y-8754700D01*
G01X11065910Y-8084000D02*
G01X11736610Y-8754700D01*
G01X11754600Y-8714600D02*
G01X11877430Y-8714600D01*
G01X10921000Y-7957000D02*
G01X10997000Y-7957000D01*
G01X11877430Y-8714600D02*
G01X11980000Y-8817170D01*
G01X10997000Y-7957000D02*
G01X11754600Y-8714600D01*
G01X11980000Y-8817170D02*
G01X11980000Y-8940000D01*
G01X10659900Y-8996610D02*
G01X10659900Y-8963390D01*
G01X10400000Y-7240000D02*
G01X9346500Y-7240000D01*
G01X10660000Y-7500000D02*
G01X10400000Y-7240000D01*
G01X10660000Y-8963290D02*
G01X10660000Y-7500000D01*
G01X12030000Y-8940000D02*
G01X12030000Y-9070000D01*
G01X9264500Y-7322000D02*
G01X9171000Y-7322000D01*
G01X12030000Y-9070000D02*
G01X12000000Y-9100000D01*
G01X10730000Y-9110000D02*
G01X10660000Y-9040000D01*
G01X10660000Y-8996710D01*
G01X9346500Y-7240000D02*
G01X9264500Y-7322000D01*
G01X10740000Y-9020000D02*
G01X10700000Y-8980000D01*
G01X10700100Y-7483390D02*
G01X10411710Y-7195000D01*
G01X12080000Y-9060000D02*
G01X12120000Y-9100000D01*
G01X12080000Y-8940000D02*
G01X12080000Y-9060000D01*
G01X10411710Y-7195000D02*
G01X9171000Y-7195000D01*
G01X10700100Y-8979900D02*
G01X10700100Y-7483390D01*
G01X11198000Y-8338000D02*
G01X11694900Y-8834900D01*
G01X10921000Y-8338000D02*
G01X11198000Y-8338000D01*
G01X11827600Y-8834900D02*
G01X11827600Y-8869245D01*
G01X11830000Y-8871645D02*
G01X11830000Y-8940000D01*
G01X11827600Y-8869245D02*
G01X11830000Y-8871645D01*
G01X11694900Y-8834900D02*
G01X11827600Y-8834900D01*
G04 Track End*

M02*

