G04 Layer: BottomSolderMaskLayer*
G04 EasyEDA Pro v2.2.45.4, 2026-01-17 20:35:08*
G04 Gerber Generator version 0.3*
G04 Scale: 100 percent, Rotated: No, Reflected: No*
G04 Dimensions in millimeters*
G04 Leading zeros omitted, absolute positions, 4 integers and 5 decimals*
G04 Generated by one-click*
%FSLAX45Y45*%
%MOMM*%
%AMRoundRect*1,1,$1,$2,$3*1,1,$1,$4,$5*1,1,$1,0-$2,0-$3*1,1,$1,0-$4,0-$5*20,1,$1,$2,$3,$4,$5,0*20,1,$1,$4,$5,0-$2,0-$3,0*20,1,$1,0-$2,0-$3,0-$4,0-$5,0*20,1,$1,0-$4,0-$5,$2,$3,0*4,1,4,$2,$3,$4,$5,0-$2,0-$3,0-$4,0-$5,$2,$3,0*%
%AMRect*21,1,$1,$2,0,0,$3*%
%ADD10RoundRect,0.475X-0.25X0.2375X0.25X0.2375*%
%ADD11Rect,1.5X1.5X135.0*%
%ADD12R,1.5X1.5*%
%ADD13R,0.65X0.65*%
%ADD14R,1.5X0.9*%
%ADD15R,0.9X1.5*%
%ADD16R,1.0X1.0*%
%ADD17RoundRect,0.4726X-0.2375X-0.25X-0.2375X0.25*%
%ADD18RoundRect,0.475X-0.2375X-0.25X-0.2375X0.25*%
%ADD19R,0.35X1.5*%
%ADD20R,2.0X1.7*%
%ADD21RoundRect,0.5X-0.475X-0.3375X-0.475X0.3375*%
%ADD22C,0.6*%
G75*


G04 Pad Start*
G54D10*
G01X10028750Y-6120000D03*
G01X10211250Y-6120000D03*
G54D11*
G01X10464229Y-5904228D03*
G01X11015771Y-6455772D03*
G54D12*
G01X8360000Y-8950000D03*
G01X8360000Y-9730000D03*
G54D13*
G01X10030000Y-6280000D03*
G01X10030000Y-6375000D03*
G01X9885000Y-6375000D03*
G01X9885000Y-6280000D03*
G54D14*
G01X9171000Y-8846000D03*
G01X9171000Y-8719000D03*
G01X9171000Y-8592000D03*
G01X9171000Y-8465000D03*
G01X9171000Y-8338000D03*
G01X9171000Y-8211000D03*
G01X9171000Y-8084000D03*
G01X9171000Y-7957000D03*
G01X9171000Y-7830000D03*
G01X9171000Y-7703000D03*
G01X9171000Y-7576000D03*
G01X9171000Y-7449000D03*
G01X9171000Y-7322000D03*
G01X9171000Y-7195000D03*
G54D15*
G01X9347500Y-7070000D03*
G01X9474500Y-7070000D03*
G01X9601500Y-7070000D03*
G01X9728500Y-7070000D03*
G01X9855500Y-7070000D03*
G01X9982500Y-7070000D03*
G01X10109500Y-7070000D03*
G01X10236500Y-7070000D03*
G01X10363500Y-7070000D03*
G01X10490500Y-7070000D03*
G01X10617500Y-7070000D03*
G01X10744500Y-7070000D03*
G54D14*
G01X10921000Y-7195000D03*
G01X10921000Y-7322000D03*
G01X10921000Y-7449000D03*
G01X10921000Y-7576000D03*
G01X10921000Y-7703000D03*
G01X10921000Y-7830000D03*
G01X10921000Y-7957000D03*
G01X10921000Y-8084000D03*
G01X10921000Y-8211000D03*
G01X10921000Y-8338000D03*
G01X10921000Y-8465000D03*
G01X10921000Y-8592000D03*
G01X10921000Y-8719000D03*
G01X10921000Y-8846000D03*
G54D16*
G01X9760000Y-8161000D03*
G01X9760000Y-8311000D03*
G01X9760000Y-8311000D03*
G01X9760000Y-8461000D03*
G01X9910000Y-8161000D03*
G01X9910000Y-8311000D03*
G01X9910000Y-8461000D03*
G01X9910000Y-8461000D03*
G01X10060000Y-8161000D03*
G01X10060000Y-8311000D03*
G01X10060000Y-8461000D03*
G54D18*
G01X8700000Y-8888750D03*
G01X8700000Y-9071250D03*
G54D19*
G01X11780000Y-8940000D03*
G01X11830000Y-8940000D03*
G01X11880000Y-8940000D03*
G01X11930000Y-8940000D03*
G01X11980000Y-8940000D03*
G01X12030000Y-8940000D03*
G01X12080000Y-8940000D03*
G01X12130000Y-8940000D03*
G01X12180000Y-8940000D03*
G01X12230000Y-8940000D03*
G54D20*
G01X11610000Y-9195000D03*
G01X12410000Y-9195000D03*
G54D21*
G01X8880000Y-8983750D03*
G01X8880000Y-8776250D03*
G54D13*
G01X9570000Y-6600000D03*
G01X9570000Y-6505000D03*
G01X9425000Y-6505000D03*
G01X9425000Y-6600000D03*
G54D22*
G01X11740000Y-6625000D03*
G01X11740000Y-6475000D03*
G01X11740000Y-8040000D03*
G01X11740000Y-8190000D03*
G01X11740000Y-7255041D03*
G01X11740000Y-7405041D03*
G01X15610000Y-7625000D03*
G01X15610000Y-7775000D03*
G01X15610000Y-6195000D03*
G01X15610000Y-6345000D03*
G01X16745000Y-6195000D03*
G01X16745000Y-6345000D03*
G01X14475000Y-7625000D03*
G01X14475000Y-7775000D03*
G01X14475000Y-8335000D03*
G01X14475000Y-8485000D03*
G01X13345000Y-7625000D03*
G01X13345000Y-7775000D03*
G01X13345000Y-6910000D03*
G01X13345000Y-7060000D03*
G01X8560000Y-7630000D03*
G01X8560000Y-7780000D03*
G01X14475000Y-6910000D03*
G01X14475000Y-7060000D03*
G01X8555000Y-6195000D03*
G01X8555000Y-6345000D03*
G01X13345000Y-6195000D03*
G01X13345000Y-6345000D03*
G01X16745000Y-8335000D03*
G01X16745000Y-8485000D03*
G01X8555000Y-6905000D03*
G01X8555000Y-7055000D03*
G01X15610000Y-8335000D03*
G01X15610000Y-8485000D03*
G01X16745000Y-7625000D03*
G01X16745000Y-7775000D03*
G01X13345000Y-8335000D03*
G01X13345000Y-8485000D03*
G01X16745000Y-6910000D03*
G01X16745000Y-7060000D03*
G01X8565000Y-8340000D03*
G01X8565000Y-8490000D03*
G01X15610000Y-6910000D03*
G01X15610000Y-7060000D03*
G01X14475000Y-6195000D03*
G01X14475000Y-6345000D03*
G04 Pad End*

M02*

