G04 Layer: TopLayer*
G04 EasyEDA Pro v2.2.45.4, 2026-01-17 20:35:08*
G04 Gerber Generator version 0.3*
G04 Scale: 100 percent, Rotated: No, Reflected: No*
G04 Dimensions in millimeters*
G04 Leading zeros omitted, absolute positions, 4 integers and 5 decimals*
G04 Generated by one-click*
%FSLAX45Y45*%
%MOMM*%
%AMPolygonMacro1*4,1,8,2.625,0.65,-0.375,-2.1,-1.575,-2.1,-1.575,-2.15,-2.175,-2.15,-2.175,-2.1,-2.625,-2.1,0.625,2.15,2.625,0.65,0*%
%AMPolygonMacro2*4,1,4,0.0,2.1,2.0,-0.4,0.0,-2.1,-2.0,-0.4,0.0,2.1,0*%
%AMPolygonMacro3*4,1,7,2.55,-1.125,0.25,-1.125,0.25,-1.175,-0.35,-1.175,-0.35,-1.125,-2.55,-1.125,-0.05,1.175,2.55,-1.125,0*%
%AMPolygonMacro4*4,1,8,2.625,-2.1,2.175,-2.1,2.175,-2.15,1.575,-2.15,1.575,-2.1,0.375,-2.1,-2.625,0.65,-0.625,2.15,2.625,-2.1,0*%
%AMPolygonMacro5*4,1,8,-2.625,-0.65,0.375,2.1,1.575,2.1,1.575,2.15,2.175,2.15,2.175,2.1,2.625,2.1,-0.625,-2.15,-2.625,-0.65,0*%
%AMPolygonMacro6*4,1,4,0.0,-2.1,-2.0,0.4,0.0,2.1,2.0,0.4,0.0,-2.1,0*%
%AMPolygonMacro7*4,1,7,-2.55,1.125,-0.25,1.125,-0.25,1.175,0.35,1.175,0.35,1.125,2.55,1.125,0.05,-1.175,-2.55,1.125,0*%
%AMPolygonMacro8*4,1,8,-2.625,2.1,-2.175,2.1,-2.175,2.15,-1.575,2.15,-1.575,2.1,-0.375,2.1,2.625,-0.65,0.625,-2.15,-2.625,2.1,0*%
%AMPolygonMacro9*4,1,7,-2.45894,-2.45,-2.45894,-0.25,-2.54106,-0.25,-2.54106,0.35,-2.45894,0.35,-2.45894,2.45,2.54106,0.05,-2.45894,-2.45,0*%
%AMPolygonMacro10*4,1,7,-0.35,-1.275,-5.2,-1.275,0.0,1.375,5.2,-1.275,0.25,-1.275,0.25,-1.375,-0.35,-1.375,-0.35,-1.275,0*%
%AMPolygonMacro11*4,1,7,-0.11397,-1.275,-5.25,1.17581,-0.41397,1.17581,-0.41397,1.275,0.18603,1.275,0.18603,1.17581,5.25,1.17581,-0.11397,-1.275,0*%
%AMPolygonMacro12*4,1,7,2.45894,2.45,2.45894,0.35,2.54106,0.35,2.54106,-0.25,2.45894,-0.25,2.45894,-2.45,-2.54106,0.05,2.45894,2.45,0*%
%AMPolygonMacro13*4,1,7,-1.825,-2.25,-1.825,-0.3,-1.925,-0.3,-1.925,0.3,-1.825,0.3,-1.825,2.25,1.925,0.0,-1.825,-2.25,0*%
%AMPolygonMacro14*4,1,3,3.25,-1.0,-3.25,-1.0,0.0,1.0,3.25,-1.0,0*%
%AMPolygonMacro15*4,1,3,0.0,-1.0,-3.25,1.0,3.25,1.0,0.0,-1.0,0*%
%AMPolygonMacro16*4,1,7,1.825,2.25,1.825,0.3,1.925,0.3,1.925,-0.3,1.825,-0.3,1.825,-2.25,-1.925,0.0,1.825,2.25,0*%
%ADD10C,0.8*%
%ADD11C,0.2*%
%ADD12PolygonMacro1*%
%ADD13PolygonMacro2*%
%ADD14PolygonMacro3*%
%ADD15C,0.6*%
%ADD16PolygonMacro4*%
%ADD17PolygonMacro5*%
%ADD18PolygonMacro6*%
%ADD19C,0.1230*%
%ADD20PolygonMacro7*%
%ADD21PolygonMacro8*%
%ADD22PolygonMacro9*%
%ADD23PolygonMacro10*%
%ADD24PolygonMacro11*%
%ADD25PolygonMacro12*%
%ADD26PolygonMacro13*%
%ADD27PolygonMacro14*%
%ADD28PolygonMacro15*%
%ADD29PolygonMacro16*%
G75*


G04 Copper Start*
G36*
G01X7965254Y-11584746D02*
G01X7965254Y-10352354D01*
G01X8884767Y-10352354D01*
G01X8884767Y-10355589D01*
G01X8885603Y-10388588D01*
G01X8885767Y-10391822D01*
G01X8888245Y-10424387D01*
G01X8888571Y-10427601D01*
G01X8892651Y-10459694D01*
G01X8893137Y-10462877D01*
G01X8898778Y-10494456D01*
G01X8899421Y-10497597D01*
G01X8906583Y-10528622D01*
G01X8906583Y-10528622D01*
G01X8907378Y-10531711D01*
G01X8916021Y-10562141D01*
G01X8916963Y-10565171D01*
G01X8927046Y-10594966D01*
G01X8928131Y-10597928D01*
G01X8939614Y-10627049D01*
G01X8940836Y-10629938D01*
G01X8953679Y-10658343D01*
G01X8955033Y-10661152D01*
G01X8969196Y-10688802D01*
G01X8970677Y-10691528D01*
G01X8986119Y-10718381D01*
G01X8987722Y-10721020D01*
G01X9004403Y-10747037D01*
G01X9006125Y-10749585D01*
G01X9024005Y-10774726D01*
G01X9025840Y-10777181D01*
G01X9044878Y-10801405D01*
G01X9046824Y-10803762D01*
G01X9066981Y-10827029D01*
G01X9069034Y-10829288D01*
G01X9090268Y-10851558D01*
G01X9092426Y-10853716D01*
G01X9114697Y-10874947D01*
G01X9116956Y-10877000D01*
G01X9140225Y-10897155D01*
G01X9142584Y-10899101D01*
G01X9166810Y-10918137D01*
G01X9169264Y-10919972D01*
G01X9194407Y-10937849D01*
G01X9196955Y-10939571D01*
G01X9222974Y-10956249D01*
G01X9225613Y-10957852D01*
G01X9252468Y-10973292D01*
G01X9255194Y-10974773D01*
G01X9282846Y-10988933D01*
G01X9285655Y-10990287D01*
G01X9314062Y-11003128D01*
G01X9316951Y-11004349D01*
G01X9346073Y-11015830D01*
G01X9349035Y-11016914D01*
G01X9378832Y-11026995D01*
G01X9381862Y-11027936D01*
G01X9412293Y-11036576D01*
G01X9415382Y-11037371D01*
G01X9446408Y-11044530D01*
G01X9449549Y-11045172D01*
G01X9481129Y-11050810D01*
G01X9484312Y-11051296D01*
G01X9516405Y-11055373D01*
G01X9519620Y-11055699D01*
G01X9552186Y-11058173D01*
G01X9555419Y-11058337D01*
G01X9588418Y-11059170D01*
G01X9591653Y-11059170D01*
G01X9624651Y-11058334D01*
G01X9627885Y-11058170D01*
G01X9660451Y-11055692D01*
G01X9663665Y-11055365D01*
G01X9695758Y-11051286D01*
G01X9698941Y-11050799D01*
G01X9730520Y-11045158D01*
G01X9733660Y-11044516D01*
G01X9764685Y-11037354D01*
G01X9767774Y-11036559D01*
G01X9798205Y-11027916D01*
G01X9801234Y-11026974D01*
G01X9831030Y-11016890D01*
G01X9833992Y-11015806D01*
G01X9863113Y-11004322D01*
G01X9866001Y-11003101D01*
G01X9894407Y-10990257D01*
G01X9897216Y-10988904D01*
G01X9924866Y-10974741D01*
G01X9927592Y-10973260D01*
G01X9954445Y-10957818D01*
G01X9957084Y-10956214D01*
G01X9983101Y-10939533D01*
G01X9985649Y-10937812D01*
G01X10010790Y-10919932D01*
G01X10013244Y-10918096D01*
G01X10037468Y-10899058D01*
G01X10039826Y-10897112D01*
G01X10063093Y-10876956D01*
G01X10065352Y-10874903D01*
G01X10087622Y-10853669D01*
G01X10089779Y-10851511D01*
G01X10111011Y-10829239D01*
G01X10113064Y-10826980D01*
G01X10133219Y-10803711D01*
G01X10135164Y-10801353D01*
G01X10154200Y-10777127D01*
G01X10156036Y-10774673D01*
G01X10173913Y-10749530D01*
G01X10175634Y-10746982D01*
G01X10192313Y-10720963D01*
G01X10193916Y-10718324D01*
G01X10209356Y-10691468D01*
G01X10210837Y-10688742D01*
G01X10224997Y-10661091D01*
G01X10226350Y-10658281D01*
G01X10239191Y-10629874D01*
G01X10240413Y-10626986D01*
G01X10251894Y-10597864D01*
G01X10252978Y-10594902D01*
G01X10263058Y-10565104D01*
G01X10264000Y-10562075D01*
G01X10272640Y-10531643D01*
G01X10273435Y-10528554D01*
G01X10280594Y-10497528D01*
G01X10281236Y-10494387D01*
G01X10286874Y-10462807D01*
G01X10287360Y-10459625D01*
G01X10291436Y-10427531D01*
G01X10291763Y-10424317D01*
G01X10294237Y-10391751D01*
G01X10294401Y-10388517D01*
G01X10295234Y-10355519D01*
G01X10295233Y-10352354D01*
G01X11084767Y-10352354D01*
G01X11084767Y-10355589D01*
G01X11085603Y-10388588D01*
G01X11085767Y-10391822D01*
G01X11088245Y-10424387D01*
G01X11088571Y-10427601D01*
G01X11092651Y-10459694D01*
G01X11093137Y-10462877D01*
G01X11098778Y-10494456D01*
G01X11099421Y-10497597D01*
G01X11106583Y-10528622D01*
G01X11106583Y-10528622D01*
G01X11107378Y-10531711D01*
G01X11116021Y-10562141D01*
G01X11116963Y-10565171D01*
G01X11127046Y-10594966D01*
G01X11128131Y-10597928D01*
G01X11139614Y-10627049D01*
G01X11140836Y-10629938D01*
G01X11153679Y-10658343D01*
G01X11155033Y-10661152D01*
G01X11169196Y-10688802D01*
G01X11170677Y-10691528D01*
G01X11186119Y-10718381D01*
G01X11187722Y-10721020D01*
G01X11204403Y-10747037D01*
G01X11206125Y-10749585D01*
G01X11224005Y-10774726D01*
G01X11225840Y-10777181D01*
G01X11244878Y-10801405D01*
G01X11246824Y-10803762D01*
G01X11266981Y-10827029D01*
G01X11269034Y-10829288D01*
G01X11290268Y-10851558D01*
G01X11292426Y-10853716D01*
G01X11314697Y-10874947D01*
G01X11316956Y-10877000D01*
G01X11340225Y-10897155D01*
G01X11342584Y-10899101D01*
G01X11366810Y-10918137D01*
G01X11369264Y-10919972D01*
G01X11394407Y-10937849D01*
G01X11396955Y-10939571D01*
G01X11422974Y-10956249D01*
G01X11425613Y-10957852D01*
G01X11452468Y-10973292D01*
G01X11455194Y-10974773D01*
G01X11482846Y-10988933D01*
G01X11485655Y-10990287D01*
G01X11514062Y-11003128D01*
G01X11516951Y-11004349D01*
G01X11546073Y-11015830D01*
G01X11549035Y-11016914D01*
G01X11578832Y-11026995D01*
G01X11581862Y-11027936D01*
G01X11612293Y-11036576D01*
G01X11615383Y-11037371D01*
G01X11646408Y-11044530D01*
G01X11649549Y-11045172D01*
G01X11681129Y-11050810D01*
G01X11684312Y-11051296D01*
G01X11716405Y-11055373D01*
G01X11719620Y-11055699D01*
G01X11752186Y-11058173D01*
G01X11755419Y-11058337D01*
G01X11788418Y-11059170D01*
G01X11791653Y-11059170D01*
G01X11824651Y-11058334D01*
G01X11827885Y-11058170D01*
G01X11860451Y-11055692D01*
G01X11863665Y-11055365D01*
G01X11895758Y-11051286D01*
G01X11898941Y-11050799D01*
G01X11930520Y-11045158D01*
G01X11933660Y-11044516D01*
G01X11964685Y-11037354D01*
G01X11967774Y-11036559D01*
G01X11998205Y-11027916D01*
G01X12001234Y-11026974D01*
G01X12031030Y-11016890D01*
G01X12033992Y-11015806D01*
G01X12063113Y-11004322D01*
G01X12066001Y-11003101D01*
G01X12094407Y-10990257D01*
G01X12097216Y-10988904D01*
G01X12124866Y-10974741D01*
G01X12127592Y-10973260D01*
G01X12154445Y-10957818D01*
G01X12157084Y-10956214D01*
G01X12183101Y-10939533D01*
G01X12185649Y-10937812D01*
G01X12210790Y-10919932D01*
G01X12213244Y-10918096D01*
G01X12237468Y-10899058D01*
G01X12239826Y-10897112D01*
G01X12263093Y-10876956D01*
G01X12265352Y-10874903D01*
G01X12287622Y-10853669D01*
G01X12289779Y-10851511D01*
G01X12311011Y-10829239D01*
G01X12313064Y-10826980D01*
G01X12333219Y-10803711D01*
G01X12335164Y-10801353D01*
G01X12354200Y-10777127D01*
G01X12356036Y-10774673D01*
G01X12373913Y-10749530D01*
G01X12375634Y-10746982D01*
G01X12392313Y-10720963D01*
G01X12393916Y-10718324D01*
G01X12409356Y-10691468D01*
G01X12410837Y-10688742D01*
G01X12424997Y-10661091D01*
G01X12426350Y-10658281D01*
G01X12439191Y-10629874D01*
G01X12440413Y-10626986D01*
G01X12451894Y-10597864D01*
G01X12452978Y-10594901D01*
G01X12463058Y-10565104D01*
G01X12464000Y-10562075D01*
G01X12472640Y-10531643D01*
G01X12473435Y-10528554D01*
G01X12480594Y-10497528D01*
G01X12481236Y-10494387D01*
G01X12486874Y-10462807D01*
G01X12487360Y-10459625D01*
G01X12491436Y-10427531D01*
G01X12491763Y-10424317D01*
G01X12494237Y-10391751D01*
G01X12494401Y-10388517D01*
G01X12495234Y-10355519D01*
G01X12495233Y-10352354D01*
G01X13284768Y-10352354D01*
G01X13284768Y-10355589D01*
G01X13285604Y-10388587D01*
G01X13285768Y-10391822D01*
G01X13288246Y-10424387D01*
G01X13288572Y-10427602D01*
G01X13292652Y-10459694D01*
G01X13293138Y-10462877D01*
G01X13298779Y-10494456D01*
G01X13299421Y-10497596D01*
G01X13306584Y-10528621D01*
G01X13307378Y-10531711D01*
G01X13316021Y-10562141D01*
G01X13316963Y-10565171D01*
G01X13327047Y-10594966D01*
G01X13328131Y-10597928D01*
G01X13339615Y-10627049D01*
G01X13340836Y-10629938D01*
G01X13353680Y-10658343D01*
G01X13355033Y-10661152D01*
G01X13369196Y-10688802D01*
G01X13370677Y-10691528D01*
G01X13386119Y-10718381D01*
G01X13387723Y-10721020D01*
G01X13404404Y-10747037D01*
G01X13406125Y-10749585D01*
G01X13424005Y-10774726D01*
G01X13425841Y-10777180D01*
G01X13444879Y-10801404D01*
G01X13446825Y-10803762D01*
G01X13466981Y-10827029D01*
G01X13469034Y-10829288D01*
G01X13490268Y-10851558D01*
G01X13492426Y-10853716D01*
G01X13514698Y-10874947D01*
G01X13516957Y-10877000D01*
G01X13540226Y-10897155D01*
G01X13542584Y-10899101D01*
G01X13566810Y-10918137D01*
G01X13569264Y-10919972D01*
G01X13594407Y-10937849D01*
G01X13596955Y-10939571D01*
G01X13622974Y-10956249D01*
G01X13625613Y-10957852D01*
G01X13652468Y-10973292D01*
G01X13655194Y-10974773D01*
G01X13682846Y-10988933D01*
G01X13685655Y-10990287D01*
G01X13714062Y-11003128D01*
G01X13716951Y-11004349D01*
G01X13746073Y-11015830D01*
G01X13749035Y-11016914D01*
G01X13778832Y-11026995D01*
G01X13781862Y-11027936D01*
G01X13812293Y-11036576D01*
G01X13815383Y-11037371D01*
G01X13846409Y-11044530D01*
G01X13849549Y-11045172D01*
G01X13881129Y-11050810D01*
G01X13884312Y-11051296D01*
G01X13916405Y-11055373D01*
G01X13919620Y-11055699D01*
G01X13952186Y-11058173D01*
G01X13955419Y-11058337D01*
G01X13988418Y-11059170D01*
G01X13991653Y-11059170D01*
G01X14024651Y-11058334D01*
G01X14027885Y-11058170D01*
G01X14060451Y-11055692D01*
G01X14063665Y-11055365D01*
G01X14095758Y-11051286D01*
G01X14098941Y-11050799D01*
G01X14130520Y-11045158D01*
G01X14133660Y-11044516D01*
G01X14164685Y-11037354D01*
G01X14167774Y-11036559D01*
G01X14198205Y-11027916D01*
G01X14201234Y-11026974D01*
G01X14231030Y-11016890D01*
G01X14233992Y-11015806D01*
G01X14263113Y-11004322D01*
G01X14266001Y-11003101D01*
G01X14294406Y-10990257D01*
G01X14297216Y-10988904D01*
G01X14324865Y-10974741D01*
G01X14327591Y-10973260D01*
G01X14354445Y-10957818D01*
G01X14357084Y-10956214D01*
G01X14383101Y-10939533D01*
G01X14385649Y-10937812D01*
G01X14410790Y-10919932D01*
G01X14413244Y-10918096D01*
G01X14437468Y-10899058D01*
G01X14439826Y-10897112D01*
G01X14463093Y-10876956D01*
G01X14465352Y-10874903D01*
G01X14487621Y-10853669D01*
G01X14489779Y-10851511D01*
G01X14511011Y-10829239D01*
G01X14513064Y-10826980D01*
G01X14533218Y-10803711D01*
G01X14535164Y-10801353D01*
G01X14554200Y-10777127D01*
G01X14556035Y-10774673D01*
G01X14573913Y-10749530D01*
G01X14575634Y-10746982D01*
G01X14592313Y-10720963D01*
G01X14593916Y-10718324D01*
G01X14609356Y-10691468D01*
G01X14610836Y-10688742D01*
G01X14624996Y-10661091D01*
G01X14626350Y-10658281D01*
G01X14639191Y-10629874D01*
G01X14640412Y-10626986D01*
G01X14651893Y-10597863D01*
G01X14652977Y-10594902D01*
G01X14663058Y-10565104D01*
G01X14664000Y-10562075D01*
G01X14672640Y-10531643D01*
G01X14673434Y-10528554D01*
G01X14680593Y-10497528D01*
G01X14681235Y-10494387D01*
G01X14686873Y-10462807D01*
G01X14687359Y-10459625D01*
G01X14691436Y-10427531D01*
G01X14691762Y-10424317D01*
G01X14694236Y-10391751D01*
G01X14694400Y-10388517D01*
G01X14695233Y-10355518D01*
G01X14695233Y-10352354D01*
G01X15484768Y-10352354D01*
G01X15484768Y-10355589D01*
G01X15485604Y-10388587D01*
G01X15485768Y-10391822D01*
G01X15488246Y-10424387D01*
G01X15488572Y-10427601D01*
G01X15492652Y-10459694D01*
G01X15493138Y-10462877D01*
G01X15498779Y-10494456D01*
G01X15499421Y-10497596D01*
G01X15506584Y-10528621D01*
G01X15506584Y-10528621D01*
G01X15507378Y-10531711D01*
G01X15516021Y-10562141D01*
G01X15516963Y-10565171D01*
G01X15527047Y-10594966D01*
G01X15528131Y-10597928D01*
G01X15539615Y-10627049D01*
G01X15540836Y-10629937D01*
G01X15553680Y-10658343D01*
G01X15555033Y-10661152D01*
G01X15569196Y-10688802D01*
G01X15570677Y-10691528D01*
G01X15586120Y-10718381D01*
G01X15587723Y-10721020D01*
G01X15604404Y-10747037D01*
G01X15606125Y-10749585D01*
G01X15624005Y-10774726D01*
G01X15625841Y-10777180D01*
G01X15644879Y-10801404D01*
G01X15646825Y-10803762D01*
G01X15666981Y-10827029D01*
G01X15669034Y-10829288D01*
G01X15690268Y-10851558D01*
G01X15692426Y-10853716D01*
G01X15714698Y-10874947D01*
G01X15716957Y-10877000D01*
G01X15740226Y-10897155D01*
G01X15742584Y-10899101D01*
G01X15766810Y-10918137D01*
G01X15769264Y-10919972D01*
G01X15794407Y-10937849D01*
G01X15796955Y-10939571D01*
G01X15822974Y-10956249D01*
G01X15825613Y-10957852D01*
G01X15852468Y-10973292D01*
G01X15855194Y-10974773D01*
G01X15882846Y-10988933D01*
G01X15885655Y-10990287D01*
G01X15914062Y-11003128D01*
G01X15916951Y-11004349D01*
G01X15946073Y-11015830D01*
G01X15949035Y-11016914D01*
G01X15978832Y-11026995D01*
G01X15981862Y-11027936D01*
G01X16012293Y-11036576D01*
G01X16015383Y-11037371D01*
G01X16046409Y-11044530D01*
G01X16049549Y-11045172D01*
G01X16081129Y-11050810D01*
G01X16084312Y-11051296D01*
G01X16116405Y-11055373D01*
G01X16119620Y-11055699D01*
G01X16152186Y-11058173D01*
G01X16155419Y-11058337D01*
G01X16188418Y-11059170D01*
G01X16191653Y-11059170D01*
G01X16224651Y-11058334D01*
G01X16227885Y-11058170D01*
G01X16260451Y-11055692D01*
G01X16263665Y-11055365D01*
G01X16295758Y-11051286D01*
G01X16298941Y-11050799D01*
G01X16330520Y-11045158D01*
G01X16333660Y-11044516D01*
G01X16364685Y-11037354D01*
G01X16367775Y-11036559D01*
G01X16398205Y-11027916D01*
G01X16401234Y-11026974D01*
G01X16431030Y-11016890D01*
G01X16433992Y-11015806D01*
G01X16463113Y-11004322D01*
G01X16466001Y-11003101D01*
G01X16494407Y-10990257D01*
G01X16497216Y-10988904D01*
G01X16524866Y-10974741D01*
G01X16527592Y-10973260D01*
G01X16554445Y-10957818D01*
G01X16557084Y-10956214D01*
G01X16583101Y-10939533D01*
G01X16585649Y-10937812D01*
G01X16610790Y-10919932D01*
G01X16613244Y-10918096D01*
G01X16637468Y-10899058D01*
G01X16639826Y-10897112D01*
G01X16663093Y-10876956D01*
G01X16665352Y-10874902D01*
G01X16687621Y-10853668D01*
G01X16689779Y-10851511D01*
G01X16711011Y-10829239D01*
G01X16713064Y-10826980D01*
G01X16733218Y-10803711D01*
G01X16735164Y-10801353D01*
G01X16754200Y-10777127D01*
G01X16756035Y-10774672D01*
G01X16773912Y-10749530D01*
G01X16775634Y-10746982D01*
G01X16792312Y-10720962D01*
G01X16793915Y-10718324D01*
G01X16809355Y-10691468D01*
G01X16810836Y-10688742D01*
G01X16824996Y-10661091D01*
G01X16826349Y-10658281D01*
G01X16839190Y-10629874D01*
G01X16840412Y-10626986D01*
G01X16851892Y-10597863D01*
G01X16852977Y-10594901D01*
G01X16863057Y-10565104D01*
G01X16863999Y-10562075D01*
G01X16872639Y-10531643D01*
G01X16873433Y-10528554D01*
G01X16880592Y-10497528D01*
G01X16881235Y-10494387D01*
G01X16886873Y-10462807D01*
G01X16887358Y-10459625D01*
G01X16891435Y-10427531D01*
G01X16891761Y-10424317D01*
G01X16894236Y-10391751D01*
G01X16894399Y-10388517D01*
G01X16895232Y-10355519D01*
G01X16895232Y-10352284D01*
G01X16894396Y-10319285D01*
G01X16894232Y-10316051D01*
G01X16891754Y-10283486D01*
G01X16891428Y-10280271D01*
G01X16887348Y-10248179D01*
G01X16886862Y-10244996D01*
G01X16881221Y-10213417D01*
G01X16880578Y-10210276D01*
G01X16873416Y-10179251D01*
G01X16872621Y-10176162D01*
G01X16863978Y-10145732D01*
G01X16863036Y-10142702D01*
G01X16852953Y-10112907D01*
G01X16851869Y-10109945D01*
G01X16840385Y-10080824D01*
G01X16839163Y-10077936D01*
G01X16826320Y-10049530D01*
G01X16824966Y-10046721D01*
G01X16810804Y-10019071D01*
G01X16809323Y-10016345D01*
G01X16793881Y-9989491D01*
G01X16792277Y-9986853D01*
G01X16775596Y-9960835D01*
G01X16773875Y-9958287D01*
G01X16755995Y-9933147D01*
G01X16754160Y-9930692D01*
G01X16735121Y-9906468D01*
G01X16733176Y-9904111D01*
G01X16713019Y-9880843D01*
G01X16710966Y-9878584D01*
G01X16689732Y-9856315D01*
G01X16687574Y-9854157D01*
G01X16665303Y-9832925D01*
G01X16663043Y-9830872D01*
G01X16639775Y-9810718D01*
G01X16637417Y-9808772D01*
G01X16613191Y-9789736D01*
G01X16610736Y-9787901D01*
G01X16585593Y-9770023D01*
G01X16583045Y-9768302D01*
G01X16557026Y-9751623D01*
G01X16554388Y-9750020D01*
G01X16527532Y-9734581D01*
G01X16524806Y-9733100D01*
G01X16497155Y-9718939D01*
G01X16494345Y-9717586D01*
G01X16465938Y-9704745D01*
G01X16463050Y-9703524D01*
G01X16433928Y-9692043D01*
G01X16430965Y-9690959D01*
G01X16401168Y-9680878D01*
G01X16398139Y-9679936D01*
G01X16367707Y-9671296D01*
G01X16364618Y-9670502D01*
G01X16333592Y-9663343D01*
G01X16330451Y-9662700D01*
G01X16298871Y-9657062D01*
G01X16295688Y-9656577D01*
G01X16263595Y-9652500D01*
G01X16260381Y-9652174D01*
G01X16227815Y-9649699D01*
G01X16224581Y-9649536D01*
G01X16191582Y-9648703D01*
G01X16188348Y-9648703D01*
G01X16155349Y-9649539D01*
G01X16152115Y-9649703D01*
G01X16119549Y-9652181D01*
G01X16116335Y-9652507D01*
G01X16084243Y-9656587D01*
G01X16081060Y-9657073D01*
G01X16049481Y-9662714D01*
G01X16046340Y-9663357D01*
G01X16015315Y-9670519D01*
G01X16012226Y-9671314D01*
G01X15981795Y-9679957D01*
G01X15978766Y-9680899D01*
G01X15948970Y-9690982D01*
G01X15946008Y-9692067D01*
G01X15916888Y-9703550D01*
G01X15913999Y-9704772D01*
G01X15885594Y-9717615D01*
G01X15882784Y-9718969D01*
G01X15855135Y-9733132D01*
G01X15852409Y-9734613D01*
G01X15825555Y-9750055D01*
G01X15822917Y-9751658D01*
G01X15796899Y-9768340D01*
G01X15794351Y-9770061D01*
G01X15769211Y-9787941D01*
G01X15766756Y-9789776D01*
G01X15742532Y-9808815D01*
G01X15740174Y-9810761D01*
G01X15716907Y-9830917D01*
G01X15714649Y-9832970D01*
G01X15692379Y-9854204D01*
G01X15690221Y-9856362D01*
G01X15668989Y-9878634D01*
G01X15666936Y-9880893D01*
G01X15646782Y-9904162D01*
G01X15644836Y-9906520D01*
G01X15625800Y-9930746D01*
G01X15623965Y-9933200D01*
G01X15606088Y-9958343D01*
G01X15604366Y-9960891D01*
G01X15587688Y-9986910D01*
G01X15586085Y-9989549D01*
G01X15570645Y-10016404D01*
G01X15569164Y-10019131D01*
G01X15555004Y-10046782D01*
G01X15553650Y-10049591D01*
G01X15540810Y-10077998D01*
G01X15539588Y-10080887D01*
G01X15528107Y-10110009D01*
G01X15527023Y-10112971D01*
G01X15516943Y-10142768D01*
G01X15516001Y-10145798D01*
G01X15507361Y-10176230D01*
G01X15506566Y-10179319D01*
G01X15499407Y-10210345D01*
G01X15498765Y-10213486D01*
G01X15493127Y-10245065D01*
G01X15492641Y-10248248D01*
G01X15488565Y-10280341D01*
G01X15488239Y-10283555D01*
G01X15485764Y-10316122D01*
G01X15485600Y-10319356D01*
G01X15484768Y-10352354D01*
G01X14695233Y-10352354D01*
G01X14695233Y-10352284D01*
G01X14694397Y-10319285D01*
G01X14694233Y-10316051D01*
G01X14691755Y-10283485D01*
G01X14691428Y-10280271D01*
G01X14687349Y-10248179D01*
G01X14686862Y-10244996D01*
G01X14681221Y-10213417D01*
G01X14680579Y-10210276D01*
G01X14673417Y-10179251D01*
G01X14672622Y-10176162D01*
G01X14663979Y-10145732D01*
G01X14663037Y-10142702D01*
G01X14652954Y-10112906D01*
G01X14651869Y-10109945D01*
G01X14640386Y-10080824D01*
G01X14639164Y-10077935D01*
G01X14626320Y-10049530D01*
G01X14624967Y-10046721D01*
G01X14610804Y-10019071D01*
G01X14609323Y-10016345D01*
G01X14593881Y-9989491D01*
G01X14592278Y-9986853D01*
G01X14575596Y-9960835D01*
G01X14573875Y-9958287D01*
G01X14555995Y-9933146D01*
G01X14554160Y-9930692D01*
G01X14535122Y-9906468D01*
G01X14533176Y-9904110D01*
G01X14513019Y-9880843D01*
G01X14510966Y-9878584D01*
G01X14489732Y-9856315D01*
G01X14487574Y-9854157D01*
G01X14465303Y-9832925D01*
G01X14463043Y-9830872D01*
G01X14439775Y-9810718D01*
G01X14437416Y-9808772D01*
G01X14413191Y-9789736D01*
G01X14410736Y-9787901D01*
G01X14385593Y-9770023D01*
G01X14383045Y-9768302D01*
G01X14357026Y-9751623D01*
G01X14354387Y-9750020D01*
G01X14327532Y-9734580D01*
G01X14324806Y-9733100D01*
G01X14297155Y-9718939D01*
G01X14294345Y-9717586D01*
G01X14265938Y-9704745D01*
G01X14263049Y-9703524D01*
G01X14233927Y-9692043D01*
G01X14230965Y-9690959D01*
G01X14201168Y-9680878D01*
G01X14198139Y-9679936D01*
G01X14167707Y-9671296D01*
G01X14164618Y-9670502D01*
G01X14133592Y-9663343D01*
G01X14130451Y-9662700D01*
G01X14098871Y-9657062D01*
G01X14095688Y-9656577D01*
G01X14063595Y-9652500D01*
G01X14060381Y-9652174D01*
G01X14027815Y-9649699D01*
G01X14024581Y-9649536D01*
G01X13991582Y-9648703D01*
G01X13988348Y-9648703D01*
G01X13955349Y-9649539D01*
G01X13952115Y-9649703D01*
G01X13919549Y-9652181D01*
G01X13916335Y-9652507D01*
G01X13884243Y-9656587D01*
G01X13881060Y-9657073D01*
G01X13849481Y-9662714D01*
G01X13846340Y-9663357D01*
G01X13815315Y-9670519D01*
G01X13812226Y-9671314D01*
G01X13781795Y-9679957D01*
G01X13778766Y-9680899D01*
G01X13748970Y-9690982D01*
G01X13746008Y-9692067D01*
G01X13716888Y-9703550D01*
G01X13713999Y-9704772D01*
G01X13685594Y-9717615D01*
G01X13682784Y-9718969D01*
G01X13655135Y-9733132D01*
G01X13652409Y-9734613D01*
G01X13625555Y-9750055D01*
G01X13622917Y-9751658D01*
G01X13596899Y-9768340D01*
G01X13594351Y-9770061D01*
G01X13569211Y-9787941D01*
G01X13566756Y-9789776D01*
G01X13542532Y-9808815D01*
G01X13540174Y-9810761D01*
G01X13516907Y-9830917D01*
G01X13516907Y-9830917D01*
G01X13514649Y-9832970D01*
G01X13492379Y-9854204D01*
G01X13490221Y-9856362D01*
G01X13468989Y-9878634D01*
G01X13466936Y-9880893D01*
G01X13446782Y-9904162D01*
G01X13444836Y-9906520D01*
G01X13425800Y-9930746D01*
G01X13423965Y-9933200D01*
G01X13406088Y-9958343D01*
G01X13404366Y-9960891D01*
G01X13387688Y-9986910D01*
G01X13386085Y-9989549D01*
G01X13370645Y-10016404D01*
G01X13369164Y-10019131D01*
G01X13355004Y-10046782D01*
G01X13353650Y-10049591D01*
G01X13340810Y-10077998D01*
G01X13339588Y-10080887D01*
G01X13328107Y-10110009D01*
G01X13327023Y-10112971D01*
G01X13316943Y-10142768D01*
G01X13316001Y-10145798D01*
G01X13307361Y-10176230D01*
G01X13306566Y-10179319D01*
G01X13299407Y-10210345D01*
G01X13298765Y-10213486D01*
G01X13293127Y-10245065D01*
G01X13292641Y-10248248D01*
G01X13288565Y-10280341D01*
G01X13288239Y-10283556D01*
G01X13285764Y-10316122D01*
G01X13285600Y-10319356D01*
G01X13284768Y-10352354D01*
G01X12495233Y-10352354D01*
G01X12495233Y-10352284D01*
G01X12494397Y-10319285D01*
G01X12494233Y-10316051D01*
G01X12491756Y-10283486D01*
G01X12491429Y-10280271D01*
G01X12487350Y-10248179D01*
G01X12486863Y-10244996D01*
G01X12481222Y-10213417D01*
G01X12480580Y-10210276D01*
G01X12473417Y-10179251D01*
G01X12472623Y-10176162D01*
G01X12463980Y-10145732D01*
G01X12463038Y-10142702D01*
G01X12452954Y-10112906D01*
G01X12451870Y-10109944D01*
G01X12440386Y-10080824D01*
G01X12439165Y-10077935D01*
G01X12426321Y-10049530D01*
G01X12424967Y-10046721D01*
G01X12410804Y-10019071D01*
G01X12409324Y-10016345D01*
G01X12393881Y-9989491D01*
G01X12392278Y-9986853D01*
G01X12375597Y-9960835D01*
G01X12373876Y-9958287D01*
G01X12355996Y-9933146D01*
G01X12354160Y-9930692D01*
G01X12335122Y-9906468D01*
G01X12333176Y-9904110D01*
G01X12313020Y-9880843D01*
G01X12310966Y-9878584D01*
G01X12289732Y-9856315D01*
G01X12287575Y-9854157D01*
G01X12265303Y-9832925D01*
G01X12263044Y-9830872D01*
G01X12239775Y-9810718D01*
G01X12237417Y-9808772D01*
G01X12213191Y-9789736D01*
G01X12210736Y-9787901D01*
G01X12185594Y-9770023D01*
G01X12183045Y-9768302D01*
G01X12157026Y-9751623D01*
G01X12154388Y-9750020D01*
G01X12127532Y-9734580D01*
G01X12124806Y-9733100D01*
G01X12097155Y-9718939D01*
G01X12094345Y-9717586D01*
G01X12065938Y-9704745D01*
G01X12063050Y-9703524D01*
G01X12033927Y-9692043D01*
G01X12030965Y-9690959D01*
G01X12001168Y-9680878D01*
G01X11998139Y-9679936D01*
G01X11967707Y-9671296D01*
G01X11964618Y-9670502D01*
G01X11933592Y-9663343D01*
G01X11930451Y-9662700D01*
G01X11898871Y-9657062D01*
G01X11895688Y-9656577D01*
G01X11863595Y-9652500D01*
G01X11860381Y-9652174D01*
G01X11827815Y-9649699D01*
G01X11824581Y-9649536D01*
G01X11791582Y-9648703D01*
G01X11788348Y-9648703D01*
G01X11755349Y-9649539D01*
G01X11752115Y-9649703D01*
G01X11719549Y-9652181D01*
G01X11716335Y-9652507D01*
G01X11684243Y-9656587D01*
G01X11681060Y-9657073D01*
G01X11649481Y-9662714D01*
G01X11646340Y-9663357D01*
G01X11615315Y-9670519D01*
G01X11612226Y-9671314D01*
G01X11581795Y-9679957D01*
G01X11578766Y-9680899D01*
G01X11548970Y-9690982D01*
G01X11546008Y-9692067D01*
G01X11516888Y-9703550D01*
G01X11513999Y-9704772D01*
G01X11485594Y-9717615D01*
G01X11482784Y-9718969D01*
G01X11455135Y-9733132D01*
G01X11452409Y-9734613D01*
G01X11425555Y-9750055D01*
G01X11422916Y-9751658D01*
G01X11396899Y-9768340D01*
G01X11394351Y-9770061D01*
G01X11369210Y-9787941D01*
G01X11366756Y-9789776D01*
G01X11342532Y-9808815D01*
G01X11340174Y-9810761D01*
G01X11316907Y-9830917D01*
G01X11314648Y-9832970D01*
G01X11292379Y-9854204D01*
G01X11290221Y-9856362D01*
G01X11268989Y-9878633D01*
G01X11266936Y-9880893D01*
G01X11246782Y-9904162D01*
G01X11244836Y-9906520D01*
G01X11225800Y-9930746D01*
G01X11223965Y-9933200D01*
G01X11206087Y-9958343D01*
G01X11204366Y-9960891D01*
G01X11187687Y-9986910D01*
G01X11186084Y-9989549D01*
G01X11170644Y-10016404D01*
G01X11169164Y-10019131D01*
G01X11155003Y-10046782D01*
G01X11153650Y-10049591D01*
G01X11140809Y-10077998D01*
G01X11139588Y-10080887D01*
G01X11128107Y-10110009D01*
G01X11127023Y-10112971D01*
G01X11116942Y-10142768D01*
G01X11116000Y-10145798D01*
G01X11107360Y-10176229D01*
G01X11106566Y-10179319D01*
G01X11099407Y-10210345D01*
G01X11098764Y-10213486D01*
G01X11093126Y-10245065D01*
G01X11092640Y-10248248D01*
G01X11088564Y-10280342D01*
G01X11088238Y-10283555D01*
G01X11085763Y-10316122D01*
G01X11085600Y-10319356D01*
G01X11084767Y-10352354D01*
G01X10295233Y-10352354D01*
G01X10295233Y-10352284D01*
G01X10294397Y-10319285D01*
G01X10294233Y-10316051D01*
G01X10291756Y-10283486D01*
G01X10291429Y-10280271D01*
G01X10287350Y-10248179D01*
G01X10286863Y-10244996D01*
G01X10281222Y-10213417D01*
G01X10280580Y-10210276D01*
G01X10273417Y-10179251D01*
G01X10272623Y-10176162D01*
G01X10263980Y-10145732D01*
G01X10263038Y-10142702D01*
G01X10252954Y-10112906D01*
G01X10251870Y-10109944D01*
G01X10240386Y-10080824D01*
G01X10239165Y-10077935D01*
G01X10226321Y-10049530D01*
G01X10224967Y-10046721D01*
G01X10210804Y-10019071D01*
G01X10209324Y-10016345D01*
G01X10193881Y-9989491D01*
G01X10192278Y-9986853D01*
G01X10175597Y-9960835D01*
G01X10173876Y-9958287D01*
G01X10155996Y-9933146D01*
G01X10154160Y-9930692D01*
G01X10135122Y-9906468D01*
G01X10133176Y-9904110D01*
G01X10113020Y-9880843D01*
G01X10110966Y-9878584D01*
G01X10089732Y-9856315D01*
G01X10087575Y-9854157D01*
G01X10065303Y-9832925D01*
G01X10063044Y-9830872D01*
G01X10039775Y-9810718D01*
G01X10037417Y-9808772D01*
G01X10013191Y-9789736D01*
G01X10010736Y-9787901D01*
G01X9985594Y-9770023D01*
G01X9983045Y-9768302D01*
G01X9957026Y-9751623D01*
G01X9954388Y-9750020D01*
G01X9927532Y-9734580D01*
G01X9924806Y-9733100D01*
G01X9897155Y-9718939D01*
G01X9894345Y-9717586D01*
G01X9865938Y-9704745D01*
G01X9863050Y-9703524D01*
G01X9833927Y-9692043D01*
G01X9830965Y-9690959D01*
G01X9801168Y-9680878D01*
G01X9798139Y-9679936D01*
G01X9767707Y-9671296D01*
G01X9764618Y-9670502D01*
G01X9733592Y-9663343D01*
G01X9730451Y-9662700D01*
G01X9698871Y-9657062D01*
G01X9695688Y-9656577D01*
G01X9663595Y-9652500D01*
G01X9660381Y-9652174D01*
G01X9627815Y-9649699D01*
G01X9624581Y-9649536D01*
G01X9591582Y-9648703D01*
G01X9588348Y-9648703D01*
G01X9555349Y-9649539D01*
G01X9552115Y-9649703D01*
G01X9519549Y-9652181D01*
G01X9516335Y-9652507D01*
G01X9484243Y-9656587D01*
G01X9481060Y-9657073D01*
G01X9449481Y-9662714D01*
G01X9446340Y-9663357D01*
G01X9415315Y-9670519D01*
G01X9412226Y-9671314D01*
G01X9381795Y-9679957D01*
G01X9378766Y-9680899D01*
G01X9348970Y-9690982D01*
G01X9346008Y-9692067D01*
G01X9316888Y-9703550D01*
G01X9313999Y-9704772D01*
G01X9285594Y-9717615D01*
G01X9282784Y-9718969D01*
G01X9255135Y-9733132D01*
G01X9252409Y-9734613D01*
G01X9225555Y-9750055D01*
G01X9222916Y-9751658D01*
G01X9196899Y-9768340D01*
G01X9194351Y-9770061D01*
G01X9169210Y-9787941D01*
G01X9166756Y-9789776D01*
G01X9142532Y-9808815D01*
G01X9140174Y-9810761D01*
G01X9116907Y-9830917D01*
G01X9114648Y-9832970D01*
G01X9092379Y-9854204D01*
G01X9090221Y-9856362D01*
G01X9068989Y-9878633D01*
G01X9066936Y-9880893D01*
G01X9046782Y-9904162D01*
G01X9044836Y-9906520D01*
G01X9025800Y-9930746D01*
G01X9023965Y-9933200D01*
G01X9006087Y-9958343D01*
G01X9004366Y-9960891D01*
G01X8987687Y-9986910D01*
G01X8986084Y-9989549D01*
G01X8970644Y-10016404D01*
G01X8969164Y-10019131D01*
G01X8955003Y-10046782D01*
G01X8953650Y-10049591D01*
G01X8940809Y-10077998D01*
G01X8939588Y-10080887D01*
G01X8928107Y-10110009D01*
G01X8927023Y-10112971D01*
G01X8916942Y-10142768D01*
G01X8916000Y-10145798D01*
G01X8907360Y-10176229D01*
G01X8906566Y-10179319D01*
G01X8899407Y-10210345D01*
G01X8898764Y-10213486D01*
G01X8893126Y-10245065D01*
G01X8892640Y-10248248D01*
G01X8888564Y-10280342D01*
G01X8888238Y-10283556D01*
G01X8885763Y-10316122D01*
G01X8885600Y-10319356D01*
G01X8884767Y-10352354D01*
G01X7965254Y-10352354D01*
G01X7965254Y-6240000D01*
G01X8044746Y-6240000D01*
G01X8044746Y-6300000D01*
G01X8045874Y-6314996D01*
G01X8049232Y-6329655D01*
G01X8054746Y-6343647D01*
G01X8054746Y-6495000D01*
G01X8056435Y-6513325D01*
G01X8061445Y-6531032D01*
G01X8069607Y-6547525D01*
G01X8080646Y-6562248D01*
G01X8094190Y-6574706D01*
G01X8109783Y-6584478D01*
G01X8126900Y-6591235D01*
G01X8144963Y-6594750D01*
G01X8163365Y-6594904D01*
G01X8178002Y-6605715D01*
G01X8194353Y-6613702D01*
G01X8211878Y-6618602D01*
G01X8230000Y-6620254D01*
G01X8454746Y-6620254D01*
G01X8454746Y-6629746D01*
G01X8230000Y-6629746D01*
G01X8211878Y-6631397D01*
G01X8194353Y-6636297D01*
G01X8178002Y-6644285D01*
G01X8163365Y-6655096D01*
G01X8144963Y-6655250D01*
G01X8126900Y-6658765D01*
G01X8109783Y-6665522D01*
G01X8094190Y-6675294D01*
G01X8080646Y-6687752D01*
G01X8069607Y-6702475D01*
G01X8061445Y-6718968D01*
G01X8056435Y-6736675D01*
G01X8054746Y-6755000D01*
G01X8054746Y-6906353D01*
G01X8049232Y-6920345D01*
G01X8045874Y-6935004D01*
G01X8044746Y-6950000D01*
G01X8044746Y-7010000D01*
G01X8045874Y-7024996D01*
G01X8049232Y-7039655D01*
G01X8054746Y-7053647D01*
G01X8054746Y-7205000D01*
G01X8056435Y-7223325D01*
G01X8061445Y-7241032D01*
G01X8069607Y-7257525D01*
G01X8080646Y-7272248D01*
G01X8094190Y-7284706D01*
G01X8109783Y-7294478D01*
G01X8126900Y-7301236D01*
G01X8144963Y-7304750D01*
G01X8163365Y-7304904D01*
G01X8178002Y-7315715D01*
G01X8194353Y-7323703D01*
G01X8211878Y-7328603D01*
G01X8230000Y-7330254D01*
G01X8454746Y-7330254D01*
G01X8454746Y-7354746D01*
G01X8235000Y-7354746D01*
G01X8216878Y-7356398D01*
G01X8199353Y-7361298D01*
G01X8183002Y-7369285D01*
G01X8168365Y-7380096D01*
G01X8149963Y-7380250D01*
G01X8131900Y-7383765D01*
G01X8114783Y-7390522D01*
G01X8099190Y-7400294D01*
G01X8085646Y-7412752D01*
G01X8074607Y-7427475D01*
G01X8066445Y-7443968D01*
G01X8061435Y-7461675D01*
G01X8059746Y-7480000D01*
G01X8059746Y-7631353D01*
G01X8054232Y-7645345D01*
G01X8050874Y-7660004D01*
G01X8049746Y-7675000D01*
G01X8049746Y-7675000D01*
G01X8049746Y-7735000D01*
G01X8050874Y-7749996D01*
G01X8054232Y-7764656D01*
G01X8059746Y-7778647D01*
G01X8059746Y-7930000D01*
G01X8061435Y-7948325D01*
G01X8066445Y-7966032D01*
G01X8074607Y-7982525D01*
G01X8085646Y-7997248D01*
G01X8099190Y-8009706D01*
G01X8114783Y-8019478D01*
G01X8131900Y-8026236D01*
G01X8149963Y-8029750D01*
G01X8168365Y-8029905D01*
G01X8183002Y-8040716D01*
G01X8199353Y-8048703D01*
G01X8216878Y-8053603D01*
G01X8235000Y-8055254D01*
G01X8454746Y-8055254D01*
G01X8454746Y-8064746D01*
G01X8240000Y-8064746D01*
G01X8221878Y-8066397D01*
G01X8204353Y-8071297D01*
G01X8188002Y-8079284D01*
G01X8173365Y-8090095D01*
G01X8154963Y-8090250D01*
G01X8136900Y-8093764D01*
G01X8119783Y-8100522D01*
G01X8104190Y-8110294D01*
G01X8090646Y-8122752D01*
G01X8079607Y-8137475D01*
G01X8071445Y-8153968D01*
G01X8066435Y-8171675D01*
G01X8064746Y-8190000D01*
G01X8064746Y-8341353D01*
G01X8059232Y-8355345D01*
G01X8055874Y-8370004D01*
G01X8054746Y-8385000D01*
G01X8054746Y-8445000D01*
G01X8055874Y-8459996D01*
G01X8059232Y-8474655D01*
G01X8064746Y-8488647D01*
G01X8064746Y-8640000D01*
G01X8066435Y-8658325D01*
G01X8071445Y-8676032D01*
G01X8079607Y-8692525D01*
G01X8090646Y-8707248D01*
G01X8104190Y-8719706D01*
G01X8119783Y-8729478D01*
G01X8136900Y-8736235D01*
G01X8154963Y-8739750D01*
G01X8173365Y-8739904D01*
G01X8188002Y-8750715D01*
G01X8204353Y-8758702D01*
G01X8221878Y-8763602D01*
G01X8240000Y-8765254D01*
G01X8890000Y-8765254D01*
G01X8908152Y-8763597D01*
G01X8925703Y-8758681D01*
G01X8942075Y-8750668D01*
G01X8956725Y-8739824D01*
G01X8975619Y-8739791D01*
G01X8994171Y-8736215D01*
G01X9011722Y-8729221D01*
G01X9027650Y-8719058D01*
G01X9041388Y-8706087D01*
G01X9040973Y-8726688D01*
G01X9043813Y-8747097D01*
G01X9049835Y-8766803D01*
G01X9058889Y-8785312D01*
G01X9070749Y-8802162D01*
G01X9085118Y-8816930D01*
G01X9101636Y-8829248D01*
G01X9119890Y-8838807D01*
G01X9139422Y-8845368D01*
G01X9159745Y-8848767D01*
G01X9180350Y-8848918D01*
G01X9200721Y-8845818D01*
G01X9220348Y-8839544D01*
G01X9238740Y-8830254D01*
G01X10134331Y-8830254D01*
G01X10642239Y-9338161D01*
G01X10655394Y-9349397D01*
G01X10670146Y-9358437D01*
G01X10686130Y-9365058D01*
G01X10702952Y-9369097D01*
G01X10720200Y-9370454D01*
G01X11954531Y-9370454D01*
G01X11962139Y-9378061D01*
G01X11975294Y-9389297D01*
G01X11990046Y-9398337D01*
G01X12006030Y-9404958D01*
G01X12022852Y-9408997D01*
G01X12040100Y-9410354D01*
G01X12150964Y-9410354D01*
G01X12170014Y-9420181D01*
G01X12190419Y-9426750D01*
G01X12211624Y-9429884D01*
G01X12233057Y-9429498D01*
G01X12254135Y-9425602D01*
G01X12274290Y-9418301D01*
G01X12292974Y-9407793D01*
G01X12309681Y-9394364D01*
G01X12323960Y-9378376D01*
G01X12335423Y-9360262D01*
G01X12343760Y-9340514D01*
G01X12348745Y-9319666D01*
G01X12350244Y-9298283D01*
G01X12348215Y-9276943D01*
G01X12342714Y-9256225D01*
G01X12333889Y-9236690D01*
G01X12321979Y-9218867D01*
G01X12307308Y-9203239D01*
G01X12290272Y-9190228D01*
G01X12271333Y-9180188D01*
G01X12251004Y-9173390D01*
G01X12229834Y-9170018D01*
G01X12239348Y-9152175D01*
G01X12245985Y-9133075D01*
G01X12249586Y-9113178D01*
G01X12250064Y-9092964D01*
G01X12247408Y-9072919D01*
G01X12241681Y-9053526D01*
G01X12233022Y-9035254D01*
G01X12450000Y-9035254D01*
G01X12467248Y-9033897D01*
G01X12484070Y-9029858D01*
G01X12500054Y-9023237D01*
G01X12514806Y-9014197D01*
G01X12527961Y-9002961D01*
G01X12853954Y-8676969D01*
G01X12862630Y-8692149D01*
G01X12873812Y-8705591D01*
G01X12887159Y-8716886D01*
G01X12902266Y-8725690D01*
G01X12918673Y-8731735D01*
G01X12935880Y-8734838D01*
G01X12953365Y-8734904D01*
G01X12968003Y-8745715D01*
G01X12984353Y-8753703D01*
G01X13001878Y-8758602D01*
G01X13020000Y-8760254D01*
G01X13670000Y-8760254D01*
G01X13688152Y-8758597D01*
G01X13705703Y-8753681D01*
G01X13722075Y-8745668D01*
G01X13736725Y-8734824D01*
G01X13755228Y-8734828D01*
G01X13773417Y-8731432D01*
G01X13790672Y-8724751D01*
G01X13806406Y-8715013D01*
G01X13820081Y-8702549D01*
G01X13831233Y-8687784D01*
G01X13839482Y-8671221D01*
G01X13844546Y-8653424D01*
G01X13846254Y-8635000D01*
G01X13846254Y-8520254D01*
G01X13974746Y-8520254D01*
G01X13974746Y-8635000D01*
G01X13976435Y-8653325D01*
G01X13981445Y-8671032D01*
G01X13989607Y-8687525D01*
G01X14000646Y-8702248D01*
G01X14014190Y-8714706D01*
G01X14029783Y-8724478D01*
G01X14046900Y-8731235D01*
G01X14064964Y-8734750D01*
G01X14083365Y-8734904D01*
G01X14098003Y-8745715D01*
G01X14114353Y-8753703D01*
G01X14131878Y-8758602D01*
G01X14150000Y-8760254D01*
G01X14800000Y-8760254D01*
G01X14818152Y-8758597D01*
G01X14835703Y-8753681D01*
G01X14852075Y-8745668D01*
G01X14866725Y-8734824D01*
G01X14885228Y-8734828D01*
G01X14903417Y-8731432D01*
G01X14920672Y-8724751D01*
G01X14936406Y-8715013D01*
G01X14950081Y-8702549D01*
G01X14961233Y-8687784D01*
G01X14969482Y-8671221D01*
G01X14974546Y-8653424D01*
G01X14976254Y-8635000D01*
G01X14976254Y-8520254D01*
G01X15109746Y-8520254D01*
G01X15109746Y-8635000D01*
G01X15111435Y-8653325D01*
G01X15116445Y-8671032D01*
G01X15124607Y-8687525D01*
G01X15135646Y-8702248D01*
G01X15149190Y-8714706D01*
G01X15164783Y-8724478D01*
G01X15181900Y-8731235D01*
G01X15199964Y-8734750D01*
G01X15218365Y-8734904D01*
G01X15233003Y-8745715D01*
G01X15249353Y-8753703D01*
G01X15266878Y-8758602D01*
G01X15285000Y-8760254D01*
G01X15935000Y-8760254D01*
G01X15953152Y-8758597D01*
G01X15970703Y-8753681D01*
G01X15987075Y-8745668D01*
G01X16001725Y-8734824D01*
G01X16020228Y-8734828D01*
G01X16038417Y-8731432D01*
G01X16055672Y-8724751D01*
G01X16071406Y-8715013D01*
G01X16085081Y-8702549D01*
G01X16096233Y-8687784D01*
G01X16104482Y-8671221D01*
G01X16109546Y-8653424D01*
G01X16111254Y-8635000D01*
G01X16111254Y-8520254D01*
G01X16244746Y-8520254D01*
G01X16244746Y-8635000D01*
G01X16246435Y-8653325D01*
G01X16251445Y-8671032D01*
G01X16259607Y-8687525D01*
G01X16270646Y-8702248D01*
G01X16284190Y-8714706D01*
G01X16299784Y-8724478D01*
G01X16316900Y-8731235D01*
G01X16334964Y-8734750D01*
G01X16353365Y-8734904D01*
G01X16368003Y-8745715D01*
G01X16384353Y-8753703D01*
G01X16401878Y-8758602D01*
G01X16420000Y-8760254D01*
G01X16689949Y-8760254D01*
G01X16709463Y-8766624D01*
G01X16729736Y-8769849D01*
G01X16750264Y-8769849D01*
G01X16770537Y-8766624D01*
G01X16790051Y-8760254D01*
G01X17070000Y-8760254D01*
G01X17088152Y-8758597D01*
G01X17105703Y-8753681D01*
G01X17122075Y-8745668D01*
G01X17136725Y-8734824D01*
G01X17155228Y-8734828D01*
G01X17173417Y-8731432D01*
G01X17190672Y-8724751D01*
G01X17206406Y-8715013D01*
G01X17220081Y-8702549D01*
G01X17231233Y-8687784D01*
G01X17239482Y-8671221D01*
G01X17244546Y-8653424D01*
G01X17246254Y-8635000D01*
G01X17246254Y-8483647D01*
G01X17251767Y-8469655D01*
G01X17255126Y-8454996D01*
G01X17256254Y-8440000D01*
G01X17256254Y-8380000D01*
G01X17255126Y-8365004D01*
G01X17251767Y-8350345D01*
G01X17246254Y-8336353D01*
G01X17246254Y-8185000D01*
G01X17244546Y-8166576D01*
G01X17239482Y-8148779D01*
G01X17231233Y-8132216D01*
G01X17220081Y-8117451D01*
G01X17206406Y-8104987D01*
G01X17190672Y-8095249D01*
G01X17173417Y-8088568D01*
G01X17155228Y-8085172D01*
G01X17136725Y-8085176D01*
G01X17122075Y-8074331D01*
G01X17105703Y-8066319D01*
G01X17088152Y-8061403D01*
G01X17070000Y-8059746D01*
G01X16860254Y-8059746D01*
G01X16860254Y-8050254D01*
G01X17070000Y-8050254D01*
G01X17088152Y-8048597D01*
G01X17105703Y-8043681D01*
G01X17122075Y-8035669D01*
G01X17136725Y-8024824D01*
G01X17155228Y-8024829D01*
G01X17173417Y-8021432D01*
G01X17190672Y-8014751D01*
G01X17206406Y-8005013D01*
G01X17220081Y-7992549D01*
G01X17231233Y-7977784D01*
G01X17239482Y-7961221D01*
G01X17244546Y-7943424D01*
G01X17246254Y-7925000D01*
G01X17246254Y-7773647D01*
G01X17251767Y-7759656D01*
G01X17255126Y-7744997D01*
G01X17256254Y-7730000D01*
G01X17256254Y-7670000D01*
G01X17255126Y-7655004D01*
G01X17251767Y-7640345D01*
G01X17246254Y-7626353D01*
G01X17246254Y-7475000D01*
G01X17244546Y-7456576D01*
G01X17239482Y-7438779D01*
G01X17231233Y-7422216D01*
G01X17220081Y-7407451D01*
G01X17206406Y-7394987D01*
G01X17190672Y-7385249D01*
G01X17173417Y-7378568D01*
G01X17155228Y-7375172D01*
G01X17136725Y-7375176D01*
G01X17122075Y-7364332D01*
G01X17105703Y-7356319D01*
G01X17088152Y-7351403D01*
G01X17070000Y-7349746D01*
G01X16860254Y-7349746D01*
G01X16860254Y-7335254D01*
G01X17070000Y-7335254D01*
G01X17088152Y-7333597D01*
G01X17105703Y-7328681D01*
G01X17122075Y-7320668D01*
G01X17136725Y-7309824D01*
G01X17155228Y-7309828D01*
G01X17173417Y-7306432D01*
G01X17190672Y-7299751D01*
G01X17206406Y-7290013D01*
G01X17220081Y-7277549D01*
G01X17231233Y-7262784D01*
G01X17239482Y-7246221D01*
G01X17244546Y-7228424D01*
G01X17246254Y-7210000D01*
G01X17246254Y-7058647D01*
G01X17251767Y-7044655D01*
G01X17255126Y-7029996D01*
G01X17256254Y-7015000D01*
G01X17256254Y-6955000D01*
G01X17255126Y-6940004D01*
G01X17251767Y-6925345D01*
G01X17246254Y-6911353D01*
G01X17246254Y-6760000D01*
G01X17244546Y-6741576D01*
G01X17239482Y-6723779D01*
G01X17231233Y-6707216D01*
G01X17220081Y-6692451D01*
G01X17206406Y-6679987D01*
G01X17190672Y-6670249D01*
G01X17173417Y-6663568D01*
G01X17155228Y-6660172D01*
G01X17136725Y-6660176D01*
G01X17122075Y-6649332D01*
G01X17105703Y-6641319D01*
G01X17088152Y-6636403D01*
G01X17070000Y-6634746D01*
G01X16860254Y-6634746D01*
G01X16860254Y-6620254D01*
G01X17070000Y-6620254D01*
G01X17088152Y-6618597D01*
G01X17105703Y-6613681D01*
G01X17122075Y-6605668D01*
G01X17136725Y-6594824D01*
G01X17155228Y-6594828D01*
G01X17173417Y-6591432D01*
G01X17190672Y-6584751D01*
G01X17206406Y-6575013D01*
G01X17220081Y-6562549D01*
G01X17231233Y-6547784D01*
G01X17239482Y-6531221D01*
G01X17244546Y-6513424D01*
G01X17246254Y-6495000D01*
G01X17246254Y-6343647D01*
G01X17251767Y-6329655D01*
G01X17255126Y-6314996D01*
G01X17256254Y-6300000D01*
G01X17256254Y-6240000D01*
G01X17255126Y-6225003D01*
G01X17251767Y-6210344D01*
G01X17246254Y-6196353D01*
G01X17246254Y-6045000D01*
G01X17244546Y-6026576D01*
G01X17239482Y-6008779D01*
G01X17231233Y-5992216D01*
G01X17220081Y-5977451D01*
G01X17206406Y-5964987D01*
G01X17190672Y-5955249D01*
G01X17173417Y-5948568D01*
G01X17155228Y-5945171D01*
G01X17136725Y-5945176D01*
G01X17122075Y-5934331D01*
G01X17105703Y-5926319D01*
G01X17088152Y-5921403D01*
G01X17070000Y-5919746D01*
G01X16420000Y-5919746D01*
G01X16401878Y-5921397D01*
G01X16384353Y-5926297D01*
G01X16368003Y-5934284D01*
G01X16353365Y-5945095D01*
G01X16334964Y-5945249D01*
G01X16316900Y-5948764D01*
G01X16299784Y-5955522D01*
G01X16284190Y-5965294D01*
G01X16270646Y-5977752D01*
G01X16259607Y-5992475D01*
G01X16251445Y-6008968D01*
G01X16246435Y-6026675D01*
G01X16244746Y-6045000D01*
G01X16244746Y-6159746D01*
G01X16111254Y-6159746D01*
G01X16111254Y-6045000D01*
G01X16109546Y-6026576D01*
G01X16104482Y-6008779D01*
G01X16096233Y-5992216D01*
G01X16085081Y-5977451D01*
G01X16071406Y-5964987D01*
G01X16055672Y-5955249D01*
G01X16038417Y-5948568D01*
G01X16020228Y-5945171D01*
G01X16001725Y-5945176D01*
G01X15987075Y-5934331D01*
G01X15970703Y-5926319D01*
G01X15953152Y-5921403D01*
G01X15935000Y-5919746D01*
G01X15285000Y-5919746D01*
G01X15266878Y-5921397D01*
G01X15249353Y-5926297D01*
G01X15233003Y-5934284D01*
G01X15218365Y-5945095D01*
G01X15199964Y-5945249D01*
G01X15181900Y-5948764D01*
G01X15164783Y-5955522D01*
G01X15149190Y-5965294D01*
G01X15135646Y-5977752D01*
G01X15124607Y-5992475D01*
G01X15116445Y-6008968D01*
G01X15111435Y-6026675D01*
G01X15109746Y-6045000D01*
G01X15109746Y-6159746D01*
G01X14976254Y-6159746D01*
G01X14976254Y-6045000D01*
G01X14974546Y-6026576D01*
G01X14969482Y-6008779D01*
G01X14961233Y-5992216D01*
G01X14950081Y-5977451D01*
G01X14936406Y-5964987D01*
G01X14920672Y-5955249D01*
G01X14903417Y-5948568D01*
G01X14885228Y-5945171D01*
G01X14866725Y-5945176D01*
G01X14852075Y-5934331D01*
G01X14835703Y-5926319D01*
G01X14818152Y-5921403D01*
G01X14800000Y-5919746D01*
G01X14150000Y-5919746D01*
G01X14131878Y-5921397D01*
G01X14114353Y-5926297D01*
G01X14098003Y-5934284D01*
G01X14083365Y-5945095D01*
G01X14064964Y-5945249D01*
G01X14046900Y-5948764D01*
G01X14029783Y-5955522D01*
G01X14014190Y-5965294D01*
G01X14000646Y-5977752D01*
G01X13989607Y-5992475D01*
G01X13981445Y-6008968D01*
G01X13976435Y-6026675D01*
G01X13974746Y-6045000D01*
G01X13974746Y-6159746D01*
G01X13846254Y-6159746D01*
G01X13846254Y-6045000D01*
G01X13844546Y-6026576D01*
G01X13839482Y-6008779D01*
G01X13831233Y-5992216D01*
G01X13820081Y-5977451D01*
G01X13806406Y-5964987D01*
G01X13790672Y-5955249D01*
G01X13773417Y-5948568D01*
G01X13755228Y-5945171D01*
G01X13736725Y-5945176D01*
G01X13722075Y-5934331D01*
G01X13705703Y-5926319D01*
G01X13688152Y-5921403D01*
G01X13670000Y-5919746D01*
G01X13020000Y-5919746D01*
G01X13001878Y-5921397D01*
G01X12984353Y-5926297D01*
G01X12968003Y-5934284D01*
G01X12953365Y-5945095D01*
G01X12934964Y-5945249D01*
G01X12916900Y-5948764D01*
G01X12899783Y-5955522D01*
G01X12884190Y-5965294D01*
G01X12870646Y-5977752D01*
G01X12859607Y-5992475D01*
G01X12851445Y-6008968D01*
G01X12846435Y-6026675D01*
G01X12844746Y-6045000D01*
G01X12844746Y-6159746D01*
G01X12480000Y-6159746D01*
G01X12462752Y-6161103D01*
G01X12445930Y-6165142D01*
G01X12429946Y-6171763D01*
G01X12415194Y-6180803D01*
G01X12402039Y-6192039D01*
G01X12137401Y-6456676D01*
G01X12039629Y-6328820D01*
G01X12035794Y-6310429D01*
G01X12028595Y-6293077D01*
G01X12018285Y-6277372D01*
G01X11818285Y-6027372D01*
G01X11804350Y-6013124D01*
G01X11787871Y-6001914D01*
G01X11769501Y-5994185D01*
G01X11749965Y-5990242D01*
G01X11730035Y-5990242D01*
G01X11710499Y-5994185D01*
G01X11692128Y-6001914D01*
G01X11675650Y-6013124D01*
G01X11661715Y-6027372D01*
G01X11461715Y-6277372D01*
G01X11452513Y-6291041D01*
G01X11445675Y-6306033D01*
G01X11441385Y-6321943D01*
G01X11435362Y-6329101D01*
G01X11210254Y-6623473D01*
G01X11210254Y-6450000D01*
G01X11208897Y-6432752D01*
G01X11204858Y-6415930D01*
G01X11198237Y-6399946D01*
G01X11189197Y-6385194D01*
G01X11177961Y-6372039D01*
G01X10677961Y-5872039D01*
G01X10664806Y-5860803D01*
G01X10650054Y-5851763D01*
G01X10634070Y-5845142D01*
G01X10617248Y-5841103D01*
G01X10600000Y-5839746D01*
G01X9500000Y-5839746D01*
G01X9482752Y-5841103D01*
G01X9465930Y-5845142D01*
G01X9449946Y-5851763D01*
G01X9435194Y-5860803D01*
G01X9422039Y-5872039D01*
G01X9134331Y-6159746D01*
G01X9056254Y-6159746D01*
G01X9056254Y-6045000D01*
G01X9054546Y-6026576D01*
G01X9049482Y-6008779D01*
G01X9041233Y-5992216D01*
G01X9030081Y-5977451D01*
G01X9016405Y-5964987D01*
G01X9000672Y-5955249D01*
G01X8983417Y-5948568D01*
G01X8965228Y-5945171D01*
G01X8946725Y-5945176D01*
G01X8932075Y-5934331D01*
G01X8915703Y-5926319D01*
G01X8898152Y-5921403D01*
G01X8880000Y-5919746D01*
G01X8230000Y-5919746D01*
G01X8211878Y-5921397D01*
G01X8194353Y-5926297D01*
G01X8178002Y-5934284D01*
G01X8163365Y-5945095D01*
G01X8144963Y-5945249D01*
G01X8126900Y-5948764D01*
G01X8109783Y-5955522D01*
G01X8094190Y-5965294D01*
G01X8080646Y-5977752D01*
G01X8069607Y-5992475D01*
G01X8061445Y-6008968D01*
G01X8056435Y-6026675D01*
G01X8054746Y-6045000D01*
G01X8054746Y-6196353D01*
G01X8049232Y-6210344D01*
G01X8045874Y-6225003D01*
G01X8044746Y-6240000D01*
G01X7965254Y-6240000D01*
G01X7965254Y-5740000D01*
G01X17814746Y-5740000D01*
G01X17814746Y-11584746D01*
G01X7965254Y-11584746D01*
G37*
G36*
G01X8885000Y-7354746D02*
G01X8675254Y-7354746D01*
G01X8675254Y-7330254D01*
G01X8880000Y-7330254D01*
G01X8898152Y-7328597D01*
G01X8915703Y-7323681D01*
G01X8932075Y-7315668D01*
G01X8946725Y-7304824D01*
G01X8965228Y-7304828D01*
G01X8983417Y-7301432D01*
G01X9000672Y-7294751D01*
G01X9016405Y-7285013D01*
G01X9030081Y-7272549D01*
G01X9041233Y-7257784D01*
G01X9049482Y-7241221D01*
G01X9054546Y-7223424D01*
G01X9056254Y-7205000D01*
G01X9056254Y-7099199D01*
G01X9068276Y-7099199D01*
G01X9269748Y-7300670D01*
G01X9271350Y-7320377D01*
G01X9275916Y-7339614D01*
G01X9283342Y-7357939D01*
G01X9293455Y-7374928D01*
G01X9306023Y-7390191D01*
G01X9320757Y-7403376D01*
G01X9337316Y-7414179D01*
G01X9355320Y-7422351D01*
G01X9374353Y-7427704D01*
G01X9393978Y-7430115D01*
G01X9413741Y-7429527D01*
G01X9433187Y-7425955D01*
G01X9451869Y-7419481D01*
G01X9469355Y-7410254D01*
G01X11072959Y-7410254D01*
G01X11072959Y-7580040D01*
G01X11074494Y-7597520D01*
G01X11079054Y-7614465D01*
G01X11086499Y-7630355D01*
G01X11096599Y-7644703D01*
G01X11109047Y-7657071D01*
G01X11123461Y-7667078D01*
G01X11130099Y-7684410D01*
G01X11139818Y-7700221D01*
G01X11152285Y-7713970D01*
G01X11167072Y-7725185D01*
G01X11183674Y-7733482D01*
G01X11201520Y-7738577D01*
G01X11220000Y-7740295D01*
G01X11629746Y-7740295D01*
G01X11629746Y-7749746D01*
G01X11480000Y-7749746D01*
G01X11464520Y-7750948D01*
G01X11449411Y-7754527D01*
G01X11434918Y-7751247D01*
G01X11420100Y-7750146D01*
G01X11331365Y-7750146D01*
G01X11315931Y-7746404D01*
G01X11300100Y-7745146D01*
G01X11240100Y-7745146D01*
G01X11224269Y-7746404D01*
G01X11208834Y-7750146D01*
G01X11195100Y-7750146D01*
G01X11176939Y-7751805D01*
G01X11159379Y-7756726D01*
G01X11143001Y-7764746D01*
G01X11120669Y-7764746D01*
G01X10982961Y-7627039D01*
G01X10969806Y-7615803D01*
G01X10955054Y-7606763D01*
G01X10939070Y-7600142D01*
G01X10922248Y-7596103D01*
G01X10905000Y-7594746D01*
G01X9609355Y-7594746D01*
G01X9590852Y-7585083D01*
G01X9571043Y-7578499D01*
G01X9550437Y-7575165D01*
G01X9529563Y-7575165D01*
G01X9508957Y-7578499D01*
G01X9489148Y-7585083D01*
G01X9470645Y-7594746D01*
G01X9061254Y-7594746D01*
G01X9061254Y-7480000D01*
G01X9059546Y-7461576D01*
G01X9054482Y-7443779D01*
G01X9046233Y-7427216D01*
G01X9035081Y-7412451D01*
G01X9021405Y-7399987D01*
G01X9005672Y-7390249D01*
G01X8988417Y-7383568D01*
G01X8970228Y-7380172D01*
G01X8951725Y-7380176D01*
G01X8937075Y-7369332D01*
G01X8920703Y-7361319D01*
G01X8903152Y-7356403D01*
G01X8885000Y-7354746D01*
G37*
G36*
G01X8675254Y-6620254D02*
G01X8880000Y-6620254D01*
G01X8898152Y-6618597D01*
G01X8915703Y-6613681D01*
G01X8932075Y-6605668D01*
G01X8946725Y-6594824D01*
G01X8965228Y-6594828D01*
G01X8983417Y-6591432D01*
G01X9000672Y-6584751D01*
G01X9016405Y-6575013D01*
G01X9030081Y-6562549D01*
G01X9041233Y-6547784D01*
G01X9049482Y-6531221D01*
G01X9054546Y-6513424D01*
G01X9056254Y-6495000D01*
G01X9056254Y-6380254D01*
G01X9180000Y-6380254D01*
G01X9197248Y-6378897D01*
G01X9214070Y-6374858D01*
G01X9230054Y-6368237D01*
G01X9244806Y-6359197D01*
G01X9257961Y-6347961D01*
G01X9545669Y-6060254D01*
G01X9767050Y-6060254D01*
G01X9745671Y-6074507D01*
G01X9737706Y-6081493D01*
G01X9686372Y-6140159D01*
G01X9680662Y-6148665D01*
G01X9663996Y-6181998D01*
G01X9661812Y-6187271D01*
G01X9631812Y-6277271D01*
G01X9630266Y-6283552D01*
G01X9629746Y-6290000D01*
G01X9629746Y-6370000D01*
G01X9630266Y-6376448D01*
G01X9631812Y-6382729D01*
G01X9661812Y-6472729D01*
G01X9666507Y-6482329D01*
G01X9706507Y-6542329D01*
G01X9711536Y-6548464D01*
G01X9751536Y-6588464D01*
G01X9756463Y-6592656D01*
G01X9761998Y-6596004D01*
G01X9841998Y-6636004D01*
G01X9847271Y-6638188D01*
G01X9907271Y-6658188D01*
G01X9913552Y-6659734D01*
G01X9920000Y-6660254D01*
G01X10020000Y-6660254D01*
G01X10026448Y-6659734D01*
G01X10032729Y-6658188D01*
G01X10092729Y-6638188D01*
G01X10102329Y-6633493D01*
G01X10162329Y-6593493D01*
G01X10164152Y-6592203D01*
G01X10204152Y-6562203D01*
G01X10209243Y-6557663D01*
G01X10213493Y-6552329D01*
G01X10273493Y-6462329D01*
G01X10277190Y-6455405D01*
G01X10279472Y-6447894D01*
G01X10299472Y-6347894D01*
G01X10300249Y-6340649D01*
G01X10299706Y-6333382D01*
G01X10279706Y-6213382D01*
G01X10277613Y-6205660D01*
G01X10274034Y-6198505D01*
G01X10212159Y-6100536D01*
G01X10206774Y-6093754D01*
G01X10200063Y-6088281D01*
G01X10156945Y-6060254D01*
G01X10488476Y-6060254D01*
G01X10487339Y-6079837D01*
G01X10489156Y-6099369D01*
G01X10493885Y-6118406D01*
G01X10501420Y-6136518D01*
G01X10511589Y-6153292D01*
G01X10524161Y-6168349D01*
G01X10538852Y-6181348D01*
G01X10555329Y-6191993D01*
G01X10573217Y-6200042D01*
G01X10592112Y-6205315D01*
G01X10611583Y-6207690D01*
G01X10631191Y-6207114D01*
G01X10909746Y-6485669D01*
G01X10909746Y-6654331D01*
G01X10891080Y-6672997D01*
G01X10869591Y-6679896D01*
G01X10849615Y-6690401D01*
G01X10831752Y-6704196D01*
G01X10816539Y-6720868D01*
G01X10804432Y-6739916D01*
G01X10795795Y-6760767D01*
G01X10790887Y-6782797D01*
G01X10789856Y-6805343D01*
G01X10792732Y-6827729D01*
G01X10799429Y-6849282D01*
G01X10809746Y-6869355D01*
G01X10809746Y-6990645D01*
G01X10799585Y-7010337D01*
G01X10792910Y-7031467D01*
G01X10789912Y-7053423D01*
G01X10790680Y-7075569D01*
G01X10795190Y-7097264D01*
G01X10803313Y-7117881D01*
G01X10814813Y-7136823D01*
G01X10829357Y-7153541D01*
G01X10846524Y-7167552D01*
G01X10865819Y-7178450D01*
G01X10886681Y-7185920D01*
G01X10908507Y-7189746D01*
G01X9470669Y-7189746D01*
G01X9191906Y-6910983D01*
G01X9178750Y-6899747D01*
G01X9163999Y-6890708D01*
G01X9148015Y-6884087D01*
G01X9131192Y-6880048D01*
G01X9113945Y-6878691D01*
G01X9056254Y-6878691D01*
G01X9056254Y-6755000D01*
G01X9054546Y-6736576D01*
G01X9049482Y-6718779D01*
G01X9041233Y-6702216D01*
G01X9030081Y-6687451D01*
G01X9016405Y-6674987D01*
G01X9000672Y-6665249D01*
G01X8983417Y-6658568D01*
G01X8965228Y-6655172D01*
G01X8946725Y-6655176D01*
G01X8932075Y-6644332D01*
G01X8915703Y-6636319D01*
G01X8898152Y-6631403D01*
G01X8880000Y-6629746D01*
G01X8675254Y-6629746D01*
G01X8675254Y-6620254D01*
G37*
G36*
G01X9589355Y-8304746D02*
G01X9570852Y-8295083D01*
G01X9551043Y-8288499D01*
G01X9530437Y-8285165D01*
G01X9509563Y-8285165D01*
G01X9488957Y-8288499D01*
G01X9469148Y-8295083D01*
G01X9450645Y-8304746D01*
G01X9066254Y-8304746D01*
G01X9066254Y-8190000D01*
G01X9064546Y-8171576D01*
G01X9059482Y-8153779D01*
G01X9051233Y-8137216D01*
G01X9040081Y-8122451D01*
G01X9026405Y-8109987D01*
G01X9010672Y-8100249D01*
G01X8993417Y-8093568D01*
G01X8975228Y-8090172D01*
G01X8956725Y-8090176D01*
G01X8942075Y-8079331D01*
G01X8925703Y-8071319D01*
G01X8908152Y-8066403D01*
G01X8890000Y-8064746D01*
G01X8675254Y-8064746D01*
G01X8675254Y-8055254D01*
G01X8885000Y-8055254D01*
G01X8903152Y-8053597D01*
G01X8920703Y-8048681D01*
G01X8937075Y-8040669D01*
G01X8951725Y-8029824D01*
G01X8970228Y-8029829D01*
G01X8988417Y-8026432D01*
G01X9005672Y-8019751D01*
G01X9021405Y-8010013D01*
G01X9035081Y-7997549D01*
G01X9046233Y-7982784D01*
G01X9054482Y-7966221D01*
G01X9059546Y-7948424D01*
G01X9061254Y-7930000D01*
G01X9061254Y-7815254D01*
G01X9470645Y-7815254D01*
G01X9489148Y-7824917D01*
G01X9508957Y-7831501D01*
G01X9529563Y-7834835D01*
G01X9550437Y-7834835D01*
G01X9571043Y-7831501D01*
G01X9590852Y-7824917D01*
G01X9609355Y-7815254D01*
G01X10859331Y-7815254D01*
G01X10997039Y-7952961D01*
G01X11010194Y-7964197D01*
G01X11024946Y-7973237D01*
G01X11040930Y-7979858D01*
G01X11057752Y-7983897D01*
G01X11075000Y-7985254D01*
G01X11172016Y-7985254D01*
G01X11440371Y-8336180D01*
G01X11444206Y-8354571D01*
G01X11451405Y-8371923D01*
G01X11461715Y-8387628D01*
G01X11661715Y-8637628D01*
G01X11675650Y-8651876D01*
G01X11692128Y-8663086D01*
G01X11710499Y-8670815D01*
G01X11730035Y-8674758D01*
G01X11749965Y-8674758D01*
G01X11769501Y-8670815D01*
G01X11787871Y-8663086D01*
G01X11804350Y-8651876D01*
G01X11818285Y-8637628D01*
G01X12018285Y-8387628D01*
G01X12027487Y-8373959D01*
G01X12034325Y-8358967D01*
G01X12038614Y-8343057D01*
G01X12044638Y-8335899D01*
G01X12293660Y-8010254D01*
G01X12550000Y-8010254D01*
G01X12567248Y-8008897D01*
G01X12584070Y-8004858D01*
G01X12600054Y-7998237D01*
G01X12614806Y-7989197D01*
G01X12627961Y-7977961D01*
G01X12795669Y-7810254D01*
G01X12844746Y-7810254D01*
G01X12844746Y-7925000D01*
G01X12846435Y-7943325D01*
G01X12851445Y-7961032D01*
G01X12859607Y-7977525D01*
G01X12870646Y-7992248D01*
G01X12884190Y-8004706D01*
G01X12899783Y-8014478D01*
G01X12916900Y-8021236D01*
G01X12934964Y-8024751D01*
G01X12953365Y-8024905D01*
G01X12968003Y-8035716D01*
G01X12984353Y-8043703D01*
G01X13001878Y-8048603D01*
G01X13020000Y-8050254D01*
G01X13239746Y-8050254D01*
G01X13239746Y-8059746D01*
G01X13020000Y-8059746D01*
G01X13001878Y-8061397D01*
G01X12984353Y-8066297D01*
G01X12968003Y-8074284D01*
G01X12953365Y-8085095D01*
G01X12934964Y-8085250D01*
G01X12916900Y-8088764D01*
G01X12899783Y-8095522D01*
G01X12884190Y-8105294D01*
G01X12870646Y-8117752D01*
G01X12859607Y-8132475D01*
G01X12851445Y-8148968D01*
G01X12846435Y-8166675D01*
G01X12844746Y-8185000D01*
G01X12844746Y-8336353D01*
G01X12839233Y-8350345D01*
G01X12835874Y-8365004D01*
G01X12834746Y-8380000D01*
G01X12834746Y-8384331D01*
G01X12404331Y-8814746D01*
G01X10630669Y-8814746D01*
G01X10152961Y-8337039D01*
G01X10139806Y-8325803D01*
G01X10125054Y-8316763D01*
G01X10109070Y-8310142D01*
G01X10092248Y-8306103D01*
G01X10075000Y-8304746D01*
G01X9589355Y-8304746D01*
G37*
G36*
G01X9066254Y-8640000D02*
G01X9066254Y-8525254D01*
G01X9450645Y-8525254D01*
G01X9469148Y-8534917D01*
G01X9488957Y-8541501D01*
G01X9509563Y-8544835D01*
G01X9530437Y-8544835D01*
G01X9551043Y-8541501D01*
G01X9570852Y-8534917D01*
G01X9589355Y-8525254D01*
G01X10029331Y-8525254D01*
G01X10113823Y-8609746D01*
G01X9241920Y-8609746D01*
G01X9222677Y-8599436D01*
G01X9201982Y-8592484D01*
G01X9180417Y-8589087D01*
G01X9158588Y-8589339D01*
G01X9137107Y-8593233D01*
G01X9116578Y-8600660D01*
G01X9097578Y-8611411D01*
G01X9080640Y-8625185D01*
G01X9066241Y-8641594D01*
G01X9066254Y-8640000D01*
G37*
G36*
G01X11190000Y-6915254D02*
G01X11203734Y-6915254D01*
G01X11219168Y-6918996D01*
G01X11235000Y-6920254D01*
G01X11295000Y-6920254D01*
G01X11310831Y-6918996D01*
G01X11326265Y-6915254D01*
G01X11415000Y-6915254D01*
G01X11434100Y-6913418D01*
G01X11452500Y-6907976D01*
G01X11470900Y-6913418D01*
G01X11490000Y-6915254D01*
G01X11610642Y-6915254D01*
G01X11612705Y-6927607D01*
G01X11615945Y-6939705D01*
G01X11226397Y-6939705D01*
G01X11207655Y-6941473D01*
G01X11189574Y-6946712D01*
G01X11172792Y-6955240D01*
G01X11157899Y-6966754D01*
G01X11145422Y-6980850D01*
G01X11135799Y-6997029D01*
G01X11118229Y-7006209D01*
G01X11102809Y-7018667D01*
G01X11090141Y-7033916D01*
G01X11080722Y-7051358D01*
G01X11074919Y-7070314D01*
G01X11072959Y-7090040D01*
G01X11072959Y-7189746D01*
G01X10931493Y-7189746D01*
G01X10953319Y-7185920D01*
G01X10974181Y-7178450D01*
G01X10993476Y-7167552D01*
G01X11010643Y-7153541D01*
G01X11025187Y-7136823D01*
G01X11036687Y-7117881D01*
G01X11044810Y-7097264D01*
G01X11049320Y-7075569D01*
G01X11050088Y-7053423D01*
G01X11047090Y-7031467D01*
G01X11040415Y-7010337D01*
G01X11030254Y-6990645D01*
G01X11030254Y-6869355D01*
G01X11040339Y-6849846D01*
G01X11047003Y-6828920D01*
G01X11047500Y-6828423D01*
G01X11087039Y-6867961D01*
G01X11099413Y-6878625D01*
G01X11113227Y-6887342D01*
G01X11128178Y-6893923D01*
G01X11142080Y-6903060D01*
G01X11157301Y-6909772D01*
G01X11173422Y-6913874D01*
G01X11190000Y-6915254D01*
G37*
G36*
G01X12260000Y-7740295D02*
G01X12278452Y-7738582D01*
G01X12296273Y-7733503D01*
G01X12312854Y-7725230D01*
G01X12327630Y-7714048D01*
G01X12340096Y-7700336D01*
G01X12349825Y-7684565D01*
G01X12356485Y-7667272D01*
G01X12370623Y-7657222D01*
G01X12382818Y-7644885D01*
G01X12392703Y-7630631D01*
G01X12399983Y-7614886D01*
G01X12404440Y-7598122D01*
G01X12405941Y-7580841D01*
G01X12405941Y-7439746D01*
G01X12424493Y-7436266D01*
G01X12442179Y-7429671D01*
G01X12458480Y-7420157D01*
G01X12472921Y-7408002D01*
G01X12770669Y-7110254D01*
G01X12844746Y-7110254D01*
G01X12844746Y-7210000D01*
G01X12846435Y-7228325D01*
G01X12851445Y-7246032D01*
G01X12859607Y-7262525D01*
G01X12870646Y-7277248D01*
G01X12884190Y-7289706D01*
G01X12899783Y-7299478D01*
G01X12916900Y-7306235D01*
G01X12934964Y-7309750D01*
G01X12953365Y-7309904D01*
G01X12968003Y-7320715D01*
G01X12984353Y-7328703D01*
G01X13001878Y-7333603D01*
G01X13020000Y-7335254D01*
G01X13239746Y-7335254D01*
G01X13239746Y-7349746D01*
G01X13020000Y-7349746D01*
G01X13001878Y-7351398D01*
G01X12984353Y-7356298D01*
G01X12968003Y-7364285D01*
G01X12953365Y-7375096D01*
G01X12934964Y-7375250D01*
G01X12916900Y-7378765D01*
G01X12899783Y-7385522D01*
G01X12884190Y-7395294D01*
G01X12870646Y-7407752D01*
G01X12859607Y-7422475D01*
G01X12851445Y-7438968D01*
G01X12846435Y-7456675D01*
G01X12844746Y-7475000D01*
G01X12844746Y-7589746D01*
G01X12750000Y-7589746D01*
G01X12732752Y-7591103D01*
G01X12715930Y-7595142D01*
G01X12699946Y-7601763D01*
G01X12685194Y-7610803D01*
G01X12672039Y-7622039D01*
G01X12504331Y-7789746D01*
G01X12370127Y-7789746D01*
G01X12357661Y-7776021D01*
G01X12342880Y-7764827D01*
G01X12326292Y-7756545D01*
G01X12308461Y-7751461D01*
G01X12290000Y-7749746D01*
G01X12276265Y-7749746D01*
G01X12260831Y-7746004D01*
G01X12245000Y-7744746D01*
G01X12185000Y-7744746D01*
G01X12169169Y-7746004D01*
G01X12153734Y-7749746D01*
G01X12065000Y-7749746D01*
G01X12045900Y-7751582D01*
G01X12027500Y-7757024D01*
G01X12009100Y-7751582D01*
G01X11990000Y-7749746D01*
G01X11850254Y-7749746D01*
G01X11850254Y-7740295D01*
G01X12260000Y-7740295D01*
G37*
G36*
G01X12000000Y-6915254D02*
G01X12015480Y-6914052D01*
G01X12030589Y-6910474D01*
G01X12045082Y-6913753D01*
G01X12059900Y-6914854D01*
G01X12148634Y-6914854D01*
G01X12164069Y-6918596D01*
G01X12179900Y-6919854D01*
G01X12239900Y-6919854D01*
G01X12255731Y-6918596D01*
G01X12271165Y-6914854D01*
G01X12284900Y-6914854D01*
G01X12303371Y-6913138D01*
G01X12321210Y-6908048D01*
G01X12337806Y-6899758D01*
G01X12352590Y-6888552D01*
G01X12365056Y-6874815D01*
G01X12374778Y-6859015D01*
G01X12381423Y-6841695D01*
G01X12384763Y-6823448D01*
G01X12384683Y-6804897D01*
G01X12381187Y-6786679D01*
G01X12374395Y-6769416D01*
G01X12364538Y-6753701D01*
G01X12272534Y-6633389D01*
G01X12525669Y-6380254D01*
G01X12844746Y-6380254D01*
G01X12844746Y-6495000D01*
G01X12846435Y-6513325D01*
G01X12851445Y-6531032D01*
G01X12859607Y-6547525D01*
G01X12870646Y-6562248D01*
G01X12884190Y-6574706D01*
G01X12899783Y-6584478D01*
G01X12916900Y-6591235D01*
G01X12934964Y-6594750D01*
G01X12953365Y-6594904D01*
G01X12968003Y-6605715D01*
G01X12984353Y-6613702D01*
G01X13001878Y-6618602D01*
G01X13020000Y-6620254D01*
G01X13239746Y-6620254D01*
G01X13239746Y-6634746D01*
G01X13020000Y-6634746D01*
G01X13001878Y-6636397D01*
G01X12984353Y-6641297D01*
G01X12968003Y-6649285D01*
G01X12953365Y-6660096D01*
G01X12934964Y-6660250D01*
G01X12916900Y-6663765D01*
G01X12899783Y-6670522D01*
G01X12884190Y-6680294D01*
G01X12870646Y-6692752D01*
G01X12859607Y-6707475D01*
G01X12851445Y-6723968D01*
G01X12846435Y-6741675D01*
G01X12844746Y-6760000D01*
G01X12844746Y-6889746D01*
G01X12725000Y-6889746D01*
G01X12707752Y-6891103D01*
G01X12690930Y-6895142D01*
G01X12674946Y-6901763D01*
G01X12660194Y-6910803D01*
G01X12647039Y-6922039D01*
G01X12405941Y-7163136D01*
G01X12405941Y-7090841D01*
G01X12404598Y-7074483D01*
G01X12400603Y-7058563D01*
G01X12394064Y-7043508D01*
G01X12385157Y-7029723D01*
G01X12374120Y-7017575D01*
G01X12368043Y-6999317D01*
G01X12358590Y-6982557D01*
G01X12346110Y-6967911D01*
G01X12331061Y-6955919D01*
G01X12313998Y-6947024D01*
G01X12295550Y-6941552D01*
G01X12276397Y-6939705D01*
G01X11864055Y-6939705D01*
G01X11867295Y-6927607D01*
G01X11869358Y-6915254D01*
G01X12000000Y-6915254D01*
G37*
G36*
G01X13670000Y-7349746D02*
G01X13460254Y-7349746D01*
G01X13460254Y-7335254D01*
G01X13670000Y-7335254D01*
G01X13688152Y-7333597D01*
G01X13705703Y-7328681D01*
G01X13722075Y-7320668D01*
G01X13736725Y-7309824D01*
G01X13755228Y-7309828D01*
G01X13773417Y-7306432D01*
G01X13790672Y-7299751D01*
G01X13806406Y-7290013D01*
G01X13820081Y-7277549D01*
G01X13831233Y-7262784D01*
G01X13839482Y-7246221D01*
G01X13844546Y-7228424D01*
G01X13846254Y-7210000D01*
G01X13846254Y-7095254D01*
G01X13974746Y-7095254D01*
G01X13974746Y-7210000D01*
G01X13976435Y-7228325D01*
G01X13981445Y-7246032D01*
G01X13989607Y-7262525D01*
G01X14000646Y-7277248D01*
G01X14014190Y-7289706D01*
G01X14029783Y-7299478D01*
G01X14046900Y-7306235D01*
G01X14064964Y-7309750D01*
G01X14083365Y-7309904D01*
G01X14098003Y-7320715D01*
G01X14114353Y-7328703D01*
G01X14131878Y-7333603D01*
G01X14150000Y-7335254D01*
G01X14364746Y-7335254D01*
G01X14364746Y-7349746D01*
G01X14150000Y-7349746D01*
G01X14131878Y-7351398D01*
G01X14114353Y-7356298D01*
G01X14098003Y-7364285D01*
G01X14083365Y-7375096D01*
G01X14064964Y-7375250D01*
G01X14046900Y-7378765D01*
G01X14029783Y-7385522D01*
G01X14014190Y-7395294D01*
G01X14000646Y-7407752D01*
G01X13989607Y-7422475D01*
G01X13981445Y-7438968D01*
G01X13976435Y-7456675D01*
G01X13974746Y-7475000D01*
G01X13974746Y-7589746D01*
G01X13846254Y-7589746D01*
G01X13846254Y-7475000D01*
G01X13844546Y-7456576D01*
G01X13839482Y-7438779D01*
G01X13831233Y-7422216D01*
G01X13820081Y-7407451D01*
G01X13806406Y-7394987D01*
G01X13790672Y-7385249D01*
G01X13773417Y-7378568D01*
G01X13755228Y-7375172D01*
G01X13736725Y-7375176D01*
G01X13722075Y-7364332D01*
G01X13705703Y-7356319D01*
G01X13688152Y-7351403D01*
G01X13670000Y-7349746D01*
G37*
G36*
G01X13460254Y-6620254D02*
G01X13670000Y-6620254D01*
G01X13688152Y-6618597D01*
G01X13705703Y-6613681D01*
G01X13722075Y-6605668D01*
G01X13736725Y-6594824D01*
G01X13755228Y-6594828D01*
G01X13773417Y-6591432D01*
G01X13790672Y-6584751D01*
G01X13806406Y-6575013D01*
G01X13820081Y-6562549D01*
G01X13831233Y-6547784D01*
G01X13839482Y-6531221D01*
G01X13844546Y-6513424D01*
G01X13846254Y-6495000D01*
G01X13846254Y-6380254D01*
G01X13974746Y-6380254D01*
G01X13974746Y-6495000D01*
G01X13976435Y-6513325D01*
G01X13981445Y-6531032D01*
G01X13989607Y-6547525D01*
G01X14000646Y-6562248D01*
G01X14014190Y-6574706D01*
G01X14029783Y-6584478D01*
G01X14046900Y-6591235D01*
G01X14064964Y-6594750D01*
G01X14083365Y-6594904D01*
G01X14098003Y-6605715D01*
G01X14114353Y-6613702D01*
G01X14131878Y-6618602D01*
G01X14150000Y-6620254D01*
G01X14364746Y-6620254D01*
G01X14364746Y-6634746D01*
G01X14150000Y-6634746D01*
G01X14131878Y-6636397D01*
G01X14114353Y-6641297D01*
G01X14098003Y-6649285D01*
G01X14083365Y-6660096D01*
G01X14064964Y-6660250D01*
G01X14046900Y-6663765D01*
G01X14029783Y-6670522D01*
G01X14014190Y-6680294D01*
G01X14000646Y-6692752D01*
G01X13989607Y-6707475D01*
G01X13981445Y-6723968D01*
G01X13976435Y-6741675D01*
G01X13974746Y-6760000D01*
G01X13974746Y-6874746D01*
G01X13846254Y-6874746D01*
G01X13846254Y-6760000D01*
G01X13844546Y-6741576D01*
G01X13839482Y-6723779D01*
G01X13831233Y-6707216D01*
G01X13820081Y-6692451D01*
G01X13806406Y-6679987D01*
G01X13790672Y-6670249D01*
G01X13773417Y-6663568D01*
G01X13755228Y-6660172D01*
G01X13736725Y-6660176D01*
G01X13722075Y-6649332D01*
G01X13705703Y-6641319D01*
G01X13688152Y-6636403D01*
G01X13670000Y-6634746D01*
G01X13460254Y-6634746D01*
G01X13460254Y-6620254D01*
G37*
G36*
G01X13670000Y-8050254D02*
G01X13688152Y-8048597D01*
G01X13705703Y-8043681D01*
G01X13722075Y-8035669D01*
G01X13736725Y-8024824D01*
G01X13755228Y-8024829D01*
G01X13773417Y-8021432D01*
G01X13790672Y-8014751D01*
G01X13806406Y-8005013D01*
G01X13820081Y-7992549D01*
G01X13831233Y-7977784D01*
G01X13839482Y-7961221D01*
G01X13844546Y-7943424D01*
G01X13846254Y-7925000D01*
G01X13846254Y-7810254D01*
G01X13974746Y-7810254D01*
G01X13974746Y-7925000D01*
G01X13976435Y-7943325D01*
G01X13981445Y-7961032D01*
G01X13989607Y-7977525D01*
G01X14000646Y-7992248D01*
G01X14014190Y-8004706D01*
G01X14029783Y-8014478D01*
G01X14046900Y-8021236D01*
G01X14064964Y-8024751D01*
G01X14083365Y-8024905D01*
G01X14098003Y-8035716D01*
G01X14114353Y-8043703D01*
G01X14131878Y-8048603D01*
G01X14150000Y-8050254D01*
G01X14364746Y-8050254D01*
G01X14364746Y-8059746D01*
G01X14150000Y-8059746D01*
G01X14131878Y-8061397D01*
G01X14114353Y-8066297D01*
G01X14098003Y-8074284D01*
G01X14083365Y-8085095D01*
G01X14064964Y-8085250D01*
G01X14046900Y-8088764D01*
G01X14029783Y-8095522D01*
G01X14014190Y-8105294D01*
G01X14000646Y-8117752D01*
G01X13989607Y-8132475D01*
G01X13981445Y-8148968D01*
G01X13976435Y-8166675D01*
G01X13974746Y-8185000D01*
G01X13974746Y-8299746D01*
G01X13846254Y-8299746D01*
G01X13846254Y-8185000D01*
G01X13844546Y-8166576D01*
G01X13839482Y-8148779D01*
G01X13831233Y-8132216D01*
G01X13820081Y-8117451D01*
G01X13806406Y-8104987D01*
G01X13790672Y-8095249D01*
G01X13773417Y-8088568D01*
G01X13755228Y-8085172D01*
G01X13736725Y-8085176D01*
G01X13722075Y-8074331D01*
G01X13705703Y-8066319D01*
G01X13688152Y-8061403D01*
G01X13670000Y-8059746D01*
G01X13460254Y-8059746D01*
G01X13460254Y-8050254D01*
G01X13670000Y-8050254D01*
G37*
G36*
G01X14800000Y-7349746D02*
G01X14585254Y-7349746D01*
G01X14585254Y-7335254D01*
G01X14800000Y-7335254D01*
G01X14818152Y-7333597D01*
G01X14835703Y-7328681D01*
G01X14852075Y-7320668D01*
G01X14866725Y-7309824D01*
G01X14885228Y-7309828D01*
G01X14903417Y-7306432D01*
G01X14920672Y-7299751D01*
G01X14936406Y-7290013D01*
G01X14950081Y-7277549D01*
G01X14961233Y-7262784D01*
G01X14969482Y-7246221D01*
G01X14974546Y-7228424D01*
G01X14976254Y-7210000D01*
G01X14976254Y-7095254D01*
G01X15109746Y-7095254D01*
G01X15109746Y-7210000D01*
G01X15111435Y-7228325D01*
G01X15116445Y-7246032D01*
G01X15124607Y-7262525D01*
G01X15135646Y-7277248D01*
G01X15149190Y-7289706D01*
G01X15164783Y-7299478D01*
G01X15181900Y-7306235D01*
G01X15199964Y-7309750D01*
G01X15218365Y-7309904D01*
G01X15233003Y-7320715D01*
G01X15249353Y-7328703D01*
G01X15266878Y-7333603D01*
G01X15285000Y-7335254D01*
G01X15514746Y-7335254D01*
G01X15514746Y-7349746D01*
G01X15285000Y-7349746D01*
G01X15266878Y-7351398D01*
G01X15249353Y-7356298D01*
G01X15233003Y-7364285D01*
G01X15218365Y-7375096D01*
G01X15199964Y-7375250D01*
G01X15181900Y-7378765D01*
G01X15164783Y-7385522D01*
G01X15149190Y-7395294D01*
G01X15135646Y-7407752D01*
G01X15124607Y-7422475D01*
G01X15116445Y-7438968D01*
G01X15111435Y-7456675D01*
G01X15109746Y-7475000D01*
G01X15109746Y-7589746D01*
G01X14976254Y-7589746D01*
G01X14976254Y-7475000D01*
G01X14974546Y-7456576D01*
G01X14969482Y-7438779D01*
G01X14961233Y-7422216D01*
G01X14950081Y-7407451D01*
G01X14936406Y-7394987D01*
G01X14920672Y-7385249D01*
G01X14903417Y-7378568D01*
G01X14885228Y-7375172D01*
G01X14866725Y-7375176D01*
G01X14852075Y-7364332D01*
G01X14835703Y-7356319D01*
G01X14818152Y-7351403D01*
G01X14800000Y-7349746D01*
G37*
G36*
G01X14585254Y-6620254D02*
G01X14800000Y-6620254D01*
G01X14818152Y-6618597D01*
G01X14835703Y-6613681D01*
G01X14852075Y-6605668D01*
G01X14866725Y-6594824D01*
G01X14885228Y-6594828D01*
G01X14903417Y-6591432D01*
G01X14920672Y-6584751D01*
G01X14936406Y-6575013D01*
G01X14950081Y-6562549D01*
G01X14961233Y-6547784D01*
G01X14969482Y-6531221D01*
G01X14974546Y-6513424D01*
G01X14976254Y-6495000D01*
G01X14976254Y-6380254D01*
G01X15109746Y-6380254D01*
G01X15109746Y-6495000D01*
G01X15111435Y-6513325D01*
G01X15116445Y-6531032D01*
G01X15124607Y-6547525D01*
G01X15135646Y-6562248D01*
G01X15149190Y-6574706D01*
G01X15164783Y-6584478D01*
G01X15181900Y-6591235D01*
G01X15199964Y-6594750D01*
G01X15218365Y-6594904D01*
G01X15233003Y-6605715D01*
G01X15249353Y-6613702D01*
G01X15266878Y-6618602D01*
G01X15285000Y-6620254D01*
G01X15514746Y-6620254D01*
G01X15514746Y-6634746D01*
G01X15285000Y-6634746D01*
G01X15266878Y-6636397D01*
G01X15249353Y-6641297D01*
G01X15233003Y-6649285D01*
G01X15218365Y-6660096D01*
G01X15199964Y-6660250D01*
G01X15181900Y-6663765D01*
G01X15164783Y-6670522D01*
G01X15149190Y-6680294D01*
G01X15135646Y-6692752D01*
G01X15124607Y-6707475D01*
G01X15116445Y-6723968D01*
G01X15111435Y-6741675D01*
G01X15109746Y-6760000D01*
G01X15109746Y-6874746D01*
G01X14976254Y-6874746D01*
G01X14976254Y-6760000D01*
G01X14974546Y-6741576D01*
G01X14969482Y-6723779D01*
G01X14961233Y-6707216D01*
G01X14950081Y-6692451D01*
G01X14936406Y-6679987D01*
G01X14920672Y-6670249D01*
G01X14903417Y-6663568D01*
G01X14885228Y-6660172D01*
G01X14866725Y-6660176D01*
G01X14852075Y-6649332D01*
G01X14835703Y-6641319D01*
G01X14818152Y-6636403D01*
G01X14800000Y-6634746D01*
G01X14585254Y-6634746D01*
G01X14585254Y-6620254D01*
G37*
G36*
G01X15109746Y-7925000D02*
G01X15111435Y-7943325D01*
G01X15116445Y-7961032D01*
G01X15124607Y-7977525D01*
G01X15135646Y-7992248D01*
G01X15149190Y-8004706D01*
G01X15164783Y-8014478D01*
G01X15181900Y-8021236D01*
G01X15199964Y-8024751D01*
G01X15218365Y-8024905D01*
G01X15233003Y-8035716D01*
G01X15249353Y-8043703D01*
G01X15266878Y-8048603D01*
G01X15285000Y-8050254D01*
G01X15514746Y-8050254D01*
G01X15514746Y-8059746D01*
G01X15285000Y-8059746D01*
G01X15266878Y-8061397D01*
G01X15249353Y-8066297D01*
G01X15233003Y-8074284D01*
G01X15218365Y-8085095D01*
G01X15199964Y-8085250D01*
G01X15181900Y-8088764D01*
G01X15164783Y-8095522D01*
G01X15149190Y-8105294D01*
G01X15135646Y-8117752D01*
G01X15124607Y-8132475D01*
G01X15116445Y-8148968D01*
G01X15111435Y-8166675D01*
G01X15109746Y-8185000D01*
G01X15109746Y-8299746D01*
G01X14976254Y-8299746D01*
G01X14976254Y-8185000D01*
G01X14974546Y-8166576D01*
G01X14969482Y-8148779D01*
G01X14961233Y-8132216D01*
G01X14950081Y-8117451D01*
G01X14936406Y-8104987D01*
G01X14920672Y-8095249D01*
G01X14903417Y-8088568D01*
G01X14885228Y-8085172D01*
G01X14866725Y-8085176D01*
G01X14852075Y-8074331D01*
G01X14835703Y-8066319D01*
G01X14818152Y-8061403D01*
G01X14800000Y-8059746D01*
G01X14585254Y-8059746D01*
G01X14585254Y-8050254D01*
G01X14800000Y-8050254D01*
G01X14818152Y-8048597D01*
G01X14835703Y-8043681D01*
G01X14852075Y-8035669D01*
G01X14866725Y-8024824D01*
G01X14885228Y-8024829D01*
G01X14903417Y-8021432D01*
G01X14920672Y-8014751D01*
G01X14936406Y-8005013D01*
G01X14950081Y-7992549D01*
G01X14961233Y-7977784D01*
G01X14969482Y-7961221D01*
G01X14974546Y-7943424D01*
G01X14976254Y-7925000D01*
G01X14976254Y-7810254D01*
G01X15109746Y-7810254D01*
G01X15109746Y-7925000D01*
G37*
G36*
G01X15935000Y-7349746D02*
G01X15735254Y-7349746D01*
G01X15735254Y-7335254D01*
G01X15935000Y-7335254D01*
G01X15953152Y-7333597D01*
G01X15970703Y-7328681D01*
G01X15987075Y-7320668D01*
G01X16001725Y-7309824D01*
G01X16020228Y-7309828D01*
G01X16038417Y-7306432D01*
G01X16055672Y-7299751D01*
G01X16071406Y-7290013D01*
G01X16085081Y-7277549D01*
G01X16096233Y-7262784D01*
G01X16104482Y-7246221D01*
G01X16109546Y-7228424D01*
G01X16111254Y-7210000D01*
G01X16111254Y-7095254D01*
G01X16244746Y-7095254D01*
G01X16244746Y-7210000D01*
G01X16246435Y-7228325D01*
G01X16251445Y-7246032D01*
G01X16259607Y-7262525D01*
G01X16270646Y-7277248D01*
G01X16284190Y-7289706D01*
G01X16299784Y-7299478D01*
G01X16316900Y-7306235D01*
G01X16334964Y-7309750D01*
G01X16353365Y-7309904D01*
G01X16368003Y-7320715D01*
G01X16384353Y-7328703D01*
G01X16401878Y-7333603D01*
G01X16420000Y-7335254D01*
G01X16639746Y-7335254D01*
G01X16639746Y-7349746D01*
G01X16420000Y-7349746D01*
G01X16401878Y-7351398D01*
G01X16384353Y-7356298D01*
G01X16368003Y-7364285D01*
G01X16353365Y-7375096D01*
G01X16334964Y-7375250D01*
G01X16316900Y-7378765D01*
G01X16299784Y-7385522D01*
G01X16284190Y-7395294D01*
G01X16270646Y-7407752D01*
G01X16259607Y-7422475D01*
G01X16251445Y-7438968D01*
G01X16246435Y-7456675D01*
G01X16244746Y-7475000D01*
G01X16244746Y-7589746D01*
G01X16111254Y-7589746D01*
G01X16111254Y-7475000D01*
G01X16109546Y-7456576D01*
G01X16104482Y-7438779D01*
G01X16096233Y-7422216D01*
G01X16085081Y-7407451D01*
G01X16071406Y-7394987D01*
G01X16055672Y-7385249D01*
G01X16038417Y-7378568D01*
G01X16020228Y-7375172D01*
G01X16001725Y-7375176D01*
G01X15987075Y-7364332D01*
G01X15970703Y-7356319D01*
G01X15953152Y-7351403D01*
G01X15935000Y-7349746D01*
G37*
G36*
G01X15735254Y-6620254D02*
G01X15935000Y-6620254D01*
G01X15953152Y-6618597D01*
G01X15970703Y-6613681D01*
G01X15987075Y-6605668D01*
G01X16001725Y-6594824D01*
G01X16020228Y-6594828D01*
G01X16038417Y-6591432D01*
G01X16055672Y-6584751D01*
G01X16071406Y-6575013D01*
G01X16085081Y-6562549D01*
G01X16096233Y-6547784D01*
G01X16104482Y-6531221D01*
G01X16109546Y-6513424D01*
G01X16111254Y-6495000D01*
G01X16111254Y-6380254D01*
G01X16244746Y-6380254D01*
G01X16244746Y-6495000D01*
G01X16246435Y-6513325D01*
G01X16251445Y-6531032D01*
G01X16259607Y-6547525D01*
G01X16270646Y-6562248D01*
G01X16284190Y-6574706D01*
G01X16299784Y-6584478D01*
G01X16316900Y-6591235D01*
G01X16334964Y-6594750D01*
G01X16353365Y-6594904D01*
G01X16368003Y-6605715D01*
G01X16384353Y-6613702D01*
G01X16401878Y-6618602D01*
G01X16420000Y-6620254D01*
G01X16639746Y-6620254D01*
G01X16639746Y-6634746D01*
G01X16420000Y-6634746D01*
G01X16401878Y-6636397D01*
G01X16384353Y-6641297D01*
G01X16368003Y-6649285D01*
G01X16353365Y-6660096D01*
G01X16334964Y-6660250D01*
G01X16316900Y-6663765D01*
G01X16299784Y-6670522D01*
G01X16284190Y-6680294D01*
G01X16270646Y-6692752D01*
G01X16259607Y-6707475D01*
G01X16251445Y-6723968D01*
G01X16246435Y-6741675D01*
G01X16244746Y-6760000D01*
G01X16244746Y-6874746D01*
G01X16111254Y-6874746D01*
G01X16111254Y-6760000D01*
G01X16109546Y-6741576D01*
G01X16104482Y-6723779D01*
G01X16096233Y-6707216D01*
G01X16085081Y-6692451D01*
G01X16071406Y-6679987D01*
G01X16055672Y-6670249D01*
G01X16038417Y-6663568D01*
G01X16020228Y-6660172D01*
G01X16001725Y-6660176D01*
G01X15987075Y-6649332D01*
G01X15970703Y-6641319D01*
G01X15953152Y-6636403D01*
G01X15935000Y-6634746D01*
G01X15735254Y-6634746D01*
G01X15735254Y-6620254D01*
G37*
G36*
G01X15935000Y-8050254D02*
G01X15953152Y-8048597D01*
G01X15970703Y-8043681D01*
G01X15987075Y-8035669D01*
G01X16001725Y-8024824D01*
G01X16020228Y-8024829D01*
G01X16038417Y-8021432D01*
G01X16055672Y-8014751D01*
G01X16071406Y-8005013D01*
G01X16085081Y-7992549D01*
G01X16096233Y-7977784D01*
G01X16104482Y-7961221D01*
G01X16109546Y-7943424D01*
G01X16111254Y-7925000D01*
G01X16111254Y-7810254D01*
G01X16244746Y-7810254D01*
G01X16244746Y-7925000D01*
G01X16246435Y-7943325D01*
G01X16251445Y-7961032D01*
G01X16259607Y-7977525D01*
G01X16270646Y-7992248D01*
G01X16284190Y-8004706D01*
G01X16299784Y-8014478D01*
G01X16316900Y-8021236D01*
G01X16334964Y-8024751D01*
G01X16353365Y-8024905D01*
G01X16368003Y-8035716D01*
G01X16384353Y-8043703D01*
G01X16401878Y-8048603D01*
G01X16420000Y-8050254D01*
G01X16639746Y-8050254D01*
G01X16639746Y-8059746D01*
G01X16420000Y-8059746D01*
G01X16401878Y-8061397D01*
G01X16384353Y-8066297D01*
G01X16368003Y-8074284D01*
G01X16353365Y-8085095D01*
G01X16334964Y-8085250D01*
G01X16316900Y-8088764D01*
G01X16299784Y-8095522D01*
G01X16284190Y-8105294D01*
G01X16270646Y-8117752D01*
G01X16259607Y-8132475D01*
G01X16251445Y-8148968D01*
G01X16246435Y-8166675D01*
G01X16244746Y-8185000D01*
G01X16244746Y-8299746D01*
G01X16111254Y-8299746D01*
G01X16111254Y-8185000D01*
G01X16109546Y-8166576D01*
G01X16104482Y-8148779D01*
G01X16096233Y-8132216D01*
G01X16085081Y-8117451D01*
G01X16071406Y-8104987D01*
G01X16055672Y-8095249D01*
G01X16038417Y-8088568D01*
G01X16020228Y-8085172D01*
G01X16001725Y-8085176D01*
G01X15987075Y-8074331D01*
G01X15970703Y-8066319D01*
G01X15953152Y-8061403D01*
G01X15935000Y-8059746D01*
G01X15735254Y-8059746D01*
G01X15735254Y-8050254D01*
G01X15935000Y-8050254D01*
G37*
G54D10*
G01X7965254Y-11584746D02*
G01X7965254Y-5740000D01*
G01X17814746Y-5740000D01*
G01X17814746Y-11584746D01*
G01X7965254Y-11584746D01*
G01X8049746Y-7675000D02*
G01X8049746Y-7735000D01*
G03X8059746Y-7778647I100254J0D01*
G01X8059746Y-7930000D01*
G03X8168365Y-8029905I100254J0D01*
G03X8235000Y-8055254I66635J74904D01*
G01X8454746Y-8055254D01*
G01X8454746Y-8064746D01*
G01X8240000Y-8064746D01*
G03X8173365Y-8090095I0J-100254D01*
G03X8064746Y-8190000I-8365J-99904D01*
G01X8064746Y-8341353D01*
G03X8054746Y-8385000I90254J-43647D01*
G01X8054746Y-8445000D01*
G03X8064746Y-8488647I100254J0D01*
G01X8064746Y-8640000D01*
G03X8173365Y-8739904I100254J0D01*
G03X8240000Y-8765254I66635J74904D01*
G01X8890000Y-8765254D01*
G03X8956725Y-8739824I0J100254D01*
G03X9041388Y-8706087I9275J99824D01*
G03X9101636Y-8829248I129612J-12913D01*
G03X9238740Y-8830254I69364J110248D01*
G01X10134331Y-8830254D01*
G01X10642239Y-9338161D01*
G03X10720200Y-9370454I77961J77961D01*
G01X11954531Y-9370454D01*
G01X11962139Y-9378061D01*
G03X12040100Y-9410354I77961J77961D01*
G01X12150964Y-9410354D01*
G03X12343760Y-9340514I69036J110454D01*
G03X12229834Y-9170018I-123760J40614D01*
G03X12233022Y-9035254I-109834J70018D01*
G01X12450000Y-9035254D01*
G03X12527961Y-9002961I0J110254D01*
G01X12853954Y-8676969D01*
G03X12953365Y-8734904I91046J41969D01*
G03X13020000Y-8760254I66635J74904D01*
G01X13670000Y-8760254D01*
G03X13736725Y-8734824I0J100254D01*
G03X13846254Y-8635000I9275J99824D01*
G01X13846254Y-8520254D01*
G01X13974746Y-8520254D01*
G01X13974746Y-8635000D01*
G03X14083365Y-8734904I100254J0D01*
G03X14150000Y-8760254I66635J74904D01*
G01X14800000Y-8760254D01*
G03X14866725Y-8734824I0J100254D01*
G03X14976254Y-8635000I9275J99824D01*
G01X14976254Y-8520254D01*
G01X15109746Y-8520254D01*
G01X15109746Y-8635000D01*
G03X15218365Y-8734904I100254J0D01*
G03X15285000Y-8760254I66635J74904D01*
G01X15935000Y-8760254D01*
G03X16001725Y-8734824I0J100254D01*
G03X16111254Y-8635000I9275J99824D01*
G01X16111254Y-8520254D01*
G01X16244746Y-8520254D01*
G01X16244746Y-8635000D01*
G03X16353365Y-8734904I100254J0D01*
G03X16420000Y-8760254I66635J74904D01*
G01X16689949Y-8760254D01*
G03X16790051Y-8760254I50051J120254D01*
G01X17070000Y-8760254D01*
G03X17136725Y-8734824I0J100254D01*
G03X17246254Y-8635000I9275J99824D01*
G01X17246254Y-8483647D01*
G03X17256254Y-8440000I-90254J43647D01*
G01X17256254Y-8380000D01*
G03X17246254Y-8336353I-100254J0D01*
G01X17246254Y-8185000D01*
G03X17136725Y-8085176I-100254J0D01*
G03X17070000Y-8059746I-66725J-74824D01*
G01X16860254Y-8059746D01*
G01X16860254Y-8050254D01*
G01X17070000Y-8050254D01*
G03X17136725Y-8024824I0J100254D01*
G03X17246254Y-7925000I9275J99824D01*
G01X17246254Y-7773647D01*
G03X17256254Y-7730000I-90254J43647D01*
G01X17256254Y-7670000D01*
G03X17246254Y-7626353I-100254J0D01*
G01X17246254Y-7475000D01*
G03X17136725Y-7375176I-100254J0D01*
G03X17070000Y-7349746I-66725J-74824D01*
G01X16860254Y-7349746D01*
G01X16860254Y-7335254D01*
G01X17070000Y-7335254D01*
G03X17136725Y-7309824I0J100254D01*
G03X17246254Y-7210000I9275J99824D01*
G01X17246254Y-7058647D01*
G03X17256254Y-7015000I-90254J43647D01*
G01X17256254Y-6955000D01*
G03X17246254Y-6911353I-100254J0D01*
G01X17246254Y-6760000D01*
G03X17136725Y-6660176I-100254J0D01*
G03X17070000Y-6634746I-66725J-74824D01*
G01X16860254Y-6634746D01*
G01X16860254Y-6620254D01*
G01X17070000Y-6620254D01*
G03X17136725Y-6594824I0J100254D01*
G03X17246254Y-6495000I9275J99824D01*
G01X17246254Y-6343647D01*
G03X17256254Y-6300000I-90254J43647D01*
G01X17256254Y-6240000D01*
G03X17246254Y-6196353I-100254J0D01*
G01X17246254Y-6045000D01*
G03X17136725Y-5945176I-100254J0D01*
G03X17070000Y-5919746I-66725J-74824D01*
G01X16420000Y-5919746D01*
G03X16353365Y-5945095I0J-100254D01*
G03X16244746Y-6045000I-8365J-99904D01*
G01X16244746Y-6159746D01*
G01X16111254Y-6159746D01*
G01X16111254Y-6045000D01*
G03X16001725Y-5945176I-100254J0D01*
G03X15935000Y-5919746I-66725J-74824D01*
G01X15285000Y-5919746D01*
G03X15218365Y-5945095I0J-100254D01*
G03X15109746Y-6045000I-8365J-99904D01*
G01X15109746Y-6159746D01*
G01X14976254Y-6159746D01*
G01X14976254Y-6045000D01*
G03X14866725Y-5945176I-100254J0D01*
G03X14800000Y-5919746I-66725J-74824D01*
G01X14150000Y-5919746D01*
G03X14083365Y-5945095I0J-100254D01*
G03X13974746Y-6045000I-8365J-99904D01*
G01X13974746Y-6159746D01*
G01X13846254Y-6159746D01*
G01X13846254Y-6045000D01*
G03X13736725Y-5945176I-100254J0D01*
G03X13670000Y-5919746I-66725J-74824D01*
G01X13020000Y-5919746D01*
G03X12953365Y-5945095I0J-100254D01*
G03X12844746Y-6045000I-8365J-99904D01*
G01X12844746Y-6159746D01*
G01X12480000Y-6159746D01*
G03X12402039Y-6192039I0J-110254D01*
G01X12137401Y-6456676D01*
G01X12039629Y-6328820D01*
G03X12018285Y-6277372I-99629J-11180D01*
G01X11818285Y-6027372D01*
G03X11661715Y-6027372I-78285J-62628D01*
G01X11461715Y-6277372D01*
G03X11441385Y-6321943I78285J-62628D01*
G03X11435362Y-6329101I73615J-68057D01*
G01X11210254Y-6623473D01*
G01X11210254Y-6450000D01*
G03X11177961Y-6372039I-110254J0D01*
G01X10677961Y-5872039D01*
G03X10600000Y-5839746I-77961J-77961D01*
G01X9500000Y-5839746D01*
G03X9422039Y-5872039I0J-110254D01*
G01X9134331Y-6159746D01*
G01X9056254Y-6159746D01*
G01X9056254Y-6045000D01*
G03X8946725Y-5945176I-100254J0D01*
G03X8880000Y-5919746I-66725J-74824D01*
G01X8230000Y-5919746D01*
G03X8163365Y-5945095I0J-100254D01*
G03X8054746Y-6045000I-8365J-99904D01*
G01X8054746Y-6196353D01*
G03X8044746Y-6240000I90254J-43647D01*
G01X8044746Y-6300000D01*
G03X8054746Y-6343647I100254J0D01*
G01X8054746Y-6495000D01*
G03X8163365Y-6594904I100254J0D01*
G03X8230000Y-6620254I66635J74904D01*
G01X8454746Y-6620254D01*
G01X8454746Y-6629746D01*
G01X8230000Y-6629746D01*
G03X8163365Y-6655096I0J-100254D01*
G03X8054746Y-6755000I-8365J-99904D01*
G01X8054746Y-6906353D01*
G03X8044746Y-6950000I90254J-43647D01*
G01X8044746Y-7010000D01*
G03X8054746Y-7053647I100254J0D01*
G01X8054746Y-7205000D01*
G03X8163365Y-7304904I100254J0D01*
G03X8230000Y-7330254I66635J74904D01*
G01X8454746Y-7330254D01*
G01X8454746Y-7354746D01*
G01X8235000Y-7354746D01*
G03X8168365Y-7380096I0J-100254D01*
G03X8059746Y-7480000I-8365J-99904D01*
G01X8059746Y-7631353D01*
G03X8049746Y-7675000I90254J-43647D01*
G01X8906583Y-10528622D02*
G03X8907378Y-10531711I62344J14392D01*
G01X8916021Y-10562141D01*
G03X8916963Y-10565171I61550J17481D01*
G01X8927046Y-10594966D01*
G03X8928131Y-10597928I60607J20511D01*
G01X8939614Y-10627049D01*
G03X8940836Y-10629938I59523J23472D01*
G01X8953679Y-10658343D01*
G03X8955033Y-10661152I58301J26361D01*
G01X8969196Y-10688802D01*
G03X8970677Y-10691528I56948J29170D01*
G01X8986119Y-10718381D01*
G03X8987722Y-10721020I55467J31896D01*
G01X9004403Y-10747037D01*
G03X9006125Y-10749585I53864J34535D01*
G01X9024005Y-10774726D01*
G03X9025840Y-10777181I52142J37083D01*
G01X9044878Y-10801405D01*
G03X9046824Y-10803762I50307J39537D01*
G01X9066981Y-10827029D01*
G03X9069034Y-10829288I48361J41895D01*
G01X9090268Y-10851558D01*
G03X9092426Y-10853716I46307J44154D01*
G01X9114697Y-10874947D01*
G03X9116956Y-10877000I44150J46312D01*
G01X9140225Y-10897155D01*
G03X9142584Y-10899101I41891J48365D01*
G01X9166810Y-10918137D01*
G03X9169264Y-10919972I39532J50310D01*
G01X9194407Y-10937849D01*
G03X9196955Y-10939571I37078J52146D01*
G01X9222974Y-10956249D01*
G03X9225613Y-10957852I34530J53867D01*
G01X9252468Y-10973292D01*
G03X9255194Y-10974773I31891J55470D01*
G01X9282846Y-10988933D01*
G03X9285655Y-10990287I29165J56951D01*
G01X9314062Y-11003128D01*
G03X9316951Y-11004349I26355J58304D01*
G01X9346073Y-11015830D01*
G03X9349035Y-11016914I23467J59525D01*
G01X9378832Y-11026995D01*
G03X9381862Y-11027936I20505J60610D01*
G01X9412293Y-11036576D01*
G03X9415382Y-11037371I17475J61551D01*
G01X9446408Y-11044530D01*
G03X9449549Y-11045172I14386J62346D01*
G01X9481129Y-11050810D01*
G03X9484312Y-11051296I11245J62988D01*
G01X9516405Y-11055373D01*
G03X9519620Y-11055699I8062J63474D01*
G01X9552186Y-11058173D01*
G03X9555419Y-11058337I4848J63800D01*
G01X9588418Y-11059170D01*
G03X9591653Y-11059170I1614J63964D01*
G01X9624651Y-11058334D01*
G03X9627885Y-11058170I-1621J63963D01*
G01X9660451Y-11055692D01*
G03X9663665Y-11055365I-4854J63800D01*
G01X9695758Y-11051286D01*
G03X9698941Y-11050799I-8069J63473D01*
G01X9730520Y-11045158D01*
G03X9733660Y-11044516I-11252J62987D01*
G01X9764685Y-11037354D01*
G03X9767774Y-11036559I-14392J62344D01*
G01X9798205Y-11027916D01*
G03X9801234Y-11026974I-17481J61550D01*
G01X9831030Y-11016890D01*
G03X9833992Y-11015806I-20511J60607D01*
G01X9863113Y-11004322D01*
G03X9866001Y-11003101I-23473J59523D01*
G01X9894407Y-10990257D01*
G03X9897216Y-10988904I-26361J58301D01*
G01X9924866Y-10974741D01*
G03X9927592Y-10973260I-29170J56948D01*
G01X9954445Y-10957818D01*
G03X9957084Y-10956214I-31896J55467D01*
G01X9983101Y-10939533D01*
G03X9985649Y-10937812I-34535J53864D01*
G01X10010790Y-10919932D01*
G03X10013244Y-10918096I-37083J52142D01*
G01X10037468Y-10899058D01*
G03X10039826Y-10897112I-39537J50307D01*
G01X10063093Y-10876956D01*
G03X10065352Y-10874903I-41895J48361D01*
G01X10087622Y-10853669D01*
G03X10089779Y-10851511I-44154J46307D01*
G01X10111011Y-10829239D01*
G03X10113064Y-10826980I-46312J44150D01*
G01X10133219Y-10803711D01*
G03X10135164Y-10801353I-48365J41891D01*
G01X10154200Y-10777127D01*
G03X10156036Y-10774673I-50310J39532D01*
G01X10173913Y-10749530D01*
G03X10175634Y-10746982I-52146J37078D01*
G01X10192313Y-10720963D01*
G03X10193916Y-10718324I-53867J34530D01*
G01X10209356Y-10691468D01*
G03X10210837Y-10688742I-55470J31891D01*
G01X10224997Y-10661091D01*
G03X10226350Y-10658281I-56951J29165D01*
G01X10239191Y-10629874D01*
G03X10240413Y-10626986I-58304J26355D01*
G01X10251894Y-10597864D01*
G03X10252978Y-10594902I-59525J23467D01*
G01X10263058Y-10565104D01*
G03X10264000Y-10562075I-60609J20505D01*
G01X10272640Y-10531643D01*
G03X10273435Y-10528554I-61551J17475D01*
G01X10280594Y-10497528D01*
G03X10281236Y-10494387I-62346J14386D01*
G01X10286874Y-10462807D01*
G03X10287360Y-10459625I-62988J11245D01*
G01X10291436Y-10427531D01*
G03X10291763Y-10424317I-63474J8062D01*
G01X10294237Y-10391751D01*
G03X10294401Y-10388517I-63800J4848D01*
G01X10295234Y-10355519D01*
G03X10295233Y-10352284I-63964J1614D01*
G01X10294397Y-10319285D01*
G03X10294233Y-10316051I-63963J-1621D01*
G01X10291756Y-10283486D01*
G03X10291429Y-10280271I-63800J-4854D01*
G01X10287350Y-10248179D01*
G03X10286863Y-10244996I-63473J-8069D01*
G01X10281222Y-10213417D01*
G03X10280580Y-10210276I-62987J-11252D01*
G01X10273417Y-10179251D01*
G03X10272623Y-10176162I-62344J-14392D01*
G01X10263980Y-10145732D01*
G03X10263038Y-10142702I-61550J-17481D01*
G01X10252954Y-10112906D01*
G03X10251870Y-10109944I-60607J-20511D01*
G01X10240386Y-10080824D01*
G03X10239165Y-10077935I-59523J-23473D01*
G01X10226321Y-10049530D01*
G03X10224967Y-10046721I-58301J-26361D01*
G01X10210804Y-10019071D01*
G03X10209324Y-10016345I-56948J-29170D01*
G01X10193881Y-9989491D01*
G03X10192278Y-9986853I-55467J-31896D01*
G01X10175597Y-9960835D01*
G03X10173876Y-9958287I-53864J-34535D01*
G01X10155996Y-9933146D01*
G03X10154160Y-9930692I-52142J-37083D01*
G01X10135122Y-9906468D01*
G03X10133176Y-9904110I-50307J-39537D01*
G01X10113020Y-9880843D01*
G03X10110966Y-9878584I-48361J-41895D01*
G01X10089732Y-9856315D01*
G03X10087575Y-9854157I-46307J-44154D01*
G01X10065303Y-9832925D01*
G03X10063044Y-9830872I-44150J-46312D01*
G01X10039775Y-9810718D01*
G03X10037417Y-9808772I-41890J-48365D01*
G01X10013191Y-9789736D01*
G03X10010736Y-9787901I-39532J-50310D01*
G01X9985594Y-9770023D01*
G03X9983045Y-9768302I-37078J-52146D01*
G01X9957026Y-9751623D01*
G03X9954388Y-9750020I-34530J-53867D01*
G01X9927532Y-9734580D01*
G03X9924806Y-9733100I-31891J-55470D01*
G01X9897155Y-9718939D01*
G03X9894345Y-9717586I-29165J-56951D01*
G01X9865938Y-9704745D01*
G03X9863050Y-9703524I-26355J-58304D01*
G01X9833927Y-9692043D01*
G03X9830965Y-9690959I-23467J-59525D01*
G01X9801168Y-9680878D01*
G03X9798139Y-9679936I-20505J-60609D01*
G01X9767707Y-9671296D01*
G03X9764618Y-9670502I-17475J-61551D01*
G01X9733592Y-9663343D01*
G03X9730451Y-9662700I-14386J-62346D01*
G01X9698871Y-9657062D01*
G03X9695688Y-9656577I-11245J-62988D01*
G01X9663595Y-9652500D01*
G03X9660381Y-9652174I-8062J-63474D01*
G01X9627815Y-9649699D01*
G03X9624581Y-9649536I-4848J-63800D01*
G01X9591582Y-9648703D01*
G03X9588348Y-9648703I-1614J-63964D01*
G01X9555349Y-9649539D01*
G03X9552115Y-9649703I1621J-63963D01*
G01X9519549Y-9652181D01*
G03X9516335Y-9652507I4855J-63800D01*
G01X9484243Y-9656587D01*
G03X9481060Y-9657073I8069J-63473D01*
G01X9449481Y-9662714D01*
G03X9446340Y-9663357I11252J-62987D01*
G01X9415315Y-9670519D01*
G03X9412226Y-9671314I14392J-62344D01*
G01X9381795Y-9679957D01*
G03X9378766Y-9680899I17481J-61550D01*
G01X9348970Y-9690982D01*
G03X9346008Y-9692067I20511J-60607D01*
G01X9316888Y-9703550D01*
G03X9313999Y-9704772I23473J-59523D01*
G01X9285594Y-9717615D01*
G03X9282784Y-9718969I26361J-58301D01*
G01X9255135Y-9733132D01*
G03X9252409Y-9734613I29170J-56948D01*
G01X9225555Y-9750055D01*
G03X9222916Y-9751658I31896J-55467D01*
G01X9196899Y-9768340D01*
G03X9194351Y-9770061I34535J-53864D01*
G01X9169210Y-9787941D01*
G03X9166756Y-9789776I37083J-52142D01*
G01X9142532Y-9808815D01*
G03X9140174Y-9810761I39537J-50307D01*
G01X9116907Y-9830917D01*
G03X9114648Y-9832970I41895J-48361D01*
G01X9092379Y-9854204D01*
G03X9090221Y-9856362I44154J-46307D01*
G01X9068989Y-9878633D01*
G03X9066936Y-9880893I46311J-44150D01*
G01X9046782Y-9904162D01*
G03X9044836Y-9906520I48365J-41890D01*
G01X9025800Y-9930746D01*
G03X9023965Y-9933200I50310J-39532D01*
G01X9006087Y-9958343D01*
G03X9004366Y-9960891I52146J-37078D01*
G01X8987687Y-9986910D01*
G03X8986084Y-9989549I53867J-34530D01*
G01X8970644Y-10016404D01*
G03X8969164Y-10019131I55470J-31891D01*
G01X8955003Y-10046782D01*
G03X8953650Y-10049591I56951J-29165D01*
G01X8940809Y-10077998D01*
G03X8939588Y-10080887I58304J-26355D01*
G01X8928107Y-10110009D01*
G03X8927023Y-10112971I59525J-23467D01*
G01X8916942Y-10142768D01*
G03X8916000Y-10145798I60609J-20505D01*
G01X8907360Y-10176229D01*
G03X8906566Y-10179319I61551J-17475D01*
G01X8899407Y-10210345D01*
G03X8898764Y-10213486I62346J-14386D01*
G01X8893126Y-10245065D01*
G03X8892640Y-10248248I62988J-11245D01*
G01X8888564Y-10280342D01*
G03X8888238Y-10283556I63474J-8062D01*
G01X8885763Y-10316122D01*
G03X8885600Y-10319356I63800J-4848D01*
G01X8884767Y-10352354D01*
G03X8884767Y-10355589I63964J-1614D01*
G01X8885603Y-10388588D01*
G03X8885767Y-10391822I63963J1621D01*
G01X8888245Y-10424387D01*
G03X8888571Y-10427601I63800J4855D01*
G01X8892651Y-10459694D01*
G03X8893137Y-10462877I63473J8069D01*
G01X8898778Y-10494456D01*
G03X8899421Y-10497597I62987J11252D01*
G01X8906583Y-10528622D01*
G01X11106583Y-10528622D02*
G03X11107378Y-10531711I62344J14392D01*
G01X11116021Y-10562141D01*
G03X11116963Y-10565171I61550J17481D01*
G01X11127046Y-10594966D01*
G03X11128131Y-10597928I60607J20511D01*
G01X11139614Y-10627049D01*
G03X11140836Y-10629938I59523J23472D01*
G01X11153679Y-10658343D01*
G03X11155033Y-10661152I58301J26361D01*
G01X11169196Y-10688802D01*
G03X11170677Y-10691528I56948J29170D01*
G01X11186119Y-10718381D01*
G03X11187722Y-10721020I55467J31896D01*
G01X11204403Y-10747037D01*
G03X11206125Y-10749585I53864J34535D01*
G01X11224005Y-10774726D01*
G03X11225840Y-10777181I52142J37083D01*
G01X11244878Y-10801405D01*
G03X11246824Y-10803762I50307J39537D01*
G01X11266981Y-10827029D01*
G03X11269034Y-10829288I48361J41895D01*
G01X11290268Y-10851558D01*
G03X11292426Y-10853716I46307J44154D01*
G01X11314697Y-10874947D01*
G03X11316956Y-10877000I44150J46312D01*
G01X11340225Y-10897155D01*
G03X11342584Y-10899101I41891J48365D01*
G01X11366810Y-10918137D01*
G03X11369264Y-10919972I39532J50310D01*
G01X11394407Y-10937849D01*
G03X11396955Y-10939571I37078J52146D01*
G01X11422974Y-10956249D01*
G03X11425613Y-10957852I34530J53867D01*
G01X11452468Y-10973292D01*
G03X11455194Y-10974773I31891J55470D01*
G01X11482846Y-10988933D01*
G03X11485655Y-10990287I29165J56951D01*
G01X11514062Y-11003128D01*
G03X11516951Y-11004349I26355J58304D01*
G01X11546073Y-11015830D01*
G03X11549035Y-11016914I23467J59525D01*
G01X11578832Y-11026995D01*
G03X11581862Y-11027936I20505J60610D01*
G01X11612293Y-11036576D01*
G03X11615383Y-11037371I17475J61551D01*
G01X11646408Y-11044530D01*
G03X11649549Y-11045172I14386J62346D01*
G01X11681129Y-11050810D01*
G03X11684312Y-11051296I11245J62988D01*
G01X11716405Y-11055373D01*
G03X11719620Y-11055699I8062J63474D01*
G01X11752186Y-11058173D01*
G03X11755419Y-11058337I4848J63800D01*
G01X11788418Y-11059170D01*
G03X11791653Y-11059170I1614J63964D01*
G01X11824651Y-11058334D01*
G03X11827885Y-11058170I-1621J63963D01*
G01X11860451Y-11055692D01*
G03X11863665Y-11055365I-4854J63800D01*
G01X11895758Y-11051286D01*
G03X11898941Y-11050799I-8069J63473D01*
G01X11930520Y-11045158D01*
G03X11933660Y-11044516I-11252J62987D01*
G01X11964685Y-11037354D01*
G03X11967774Y-11036559I-14392J62344D01*
G01X11998205Y-11027916D01*
G03X12001234Y-11026974I-17481J61550D01*
G01X12031030Y-11016890D01*
G03X12033992Y-11015806I-20511J60607D01*
G01X12063113Y-11004322D01*
G03X12066001Y-11003101I-23473J59523D01*
G01X12094407Y-10990257D01*
G03X12097216Y-10988904I-26361J58301D01*
G01X12124866Y-10974741D01*
G03X12127592Y-10973260I-29170J56948D01*
G01X12154445Y-10957818D01*
G03X12157084Y-10956214I-31896J55467D01*
G01X12183101Y-10939533D01*
G03X12185649Y-10937812I-34535J53864D01*
G01X12210790Y-10919932D01*
G03X12213244Y-10918096I-37083J52142D01*
G01X12237468Y-10899058D01*
G03X12239826Y-10897112I-39537J50307D01*
G01X12263093Y-10876956D01*
G03X12265352Y-10874903I-41895J48361D01*
G01X12287622Y-10853669D01*
G03X12289779Y-10851511I-44154J46307D01*
G01X12311011Y-10829239D01*
G03X12313064Y-10826980I-46312J44150D01*
G01X12333219Y-10803711D01*
G03X12335164Y-10801353I-48365J41891D01*
G01X12354200Y-10777127D01*
G03X12356036Y-10774673I-50310J39532D01*
G01X12373913Y-10749530D01*
G03X12375634Y-10746982I-52146J37078D01*
G01X12392313Y-10720963D01*
G03X12393916Y-10718324I-53867J34530D01*
G01X12409356Y-10691468D01*
G03X12410837Y-10688742I-55470J31891D01*
G01X12424997Y-10661091D01*
G03X12426350Y-10658281I-56951J29165D01*
G01X12439191Y-10629874D01*
G03X12440413Y-10626986I-58304J26355D01*
G01X12451894Y-10597864D01*
G03X12452978Y-10594901I-59525J23467D01*
G01X12463058Y-10565104D01*
G03X12464000Y-10562075I-60610J20505D01*
G01X12472640Y-10531643D01*
G03X12473435Y-10528554I-61551J17475D01*
G01X12480594Y-10497528D01*
G03X12481236Y-10494387I-62346J14386D01*
G01X12486874Y-10462807D01*
G03X12487360Y-10459625I-62988J11245D01*
G01X12491436Y-10427531D01*
G03X12491763Y-10424317I-63474J8062D01*
G01X12494237Y-10391751D01*
G03X12494401Y-10388517I-63800J4848D01*
G01X12495234Y-10355519D01*
G03X12495233Y-10352284I-63964J1614D01*
G01X12494397Y-10319285D01*
G03X12494233Y-10316051I-63963J-1621D01*
G01X12491756Y-10283486D01*
G03X12491429Y-10280271I-63800J-4854D01*
G01X12487350Y-10248179D01*
G03X12486863Y-10244996I-63473J-8069D01*
G01X12481222Y-10213417D01*
G03X12480580Y-10210276I-62987J-11252D01*
G01X12473417Y-10179251D01*
G03X12472623Y-10176162I-62344J-14392D01*
G01X12463980Y-10145732D01*
G03X12463038Y-10142702I-61550J-17481D01*
G01X12452954Y-10112906D01*
G03X12451870Y-10109944I-60607J-20511D01*
G01X12440386Y-10080824D01*
G03X12439165Y-10077935I-59523J-23473D01*
G01X12426321Y-10049530D01*
G03X12424967Y-10046721I-58301J-26361D01*
G01X12410804Y-10019071D01*
G03X12409324Y-10016345I-56948J-29170D01*
G01X12393881Y-9989491D01*
G03X12392278Y-9986853I-55467J-31896D01*
G01X12375597Y-9960835D01*
G03X12373876Y-9958287I-53864J-34535D01*
G01X12355996Y-9933146D01*
G03X12354160Y-9930692I-52142J-37083D01*
G01X12335122Y-9906468D01*
G03X12333176Y-9904110I-50307J-39537D01*
G01X12313020Y-9880843D01*
G03X12310966Y-9878584I-48361J-41895D01*
G01X12289732Y-9856315D01*
G03X12287575Y-9854157I-46307J-44154D01*
G01X12265303Y-9832925D01*
G03X12263044Y-9830872I-44150J-46312D01*
G01X12239775Y-9810718D01*
G03X12237417Y-9808772I-41890J-48365D01*
G01X12213191Y-9789736D01*
G03X12210736Y-9787901I-39532J-50310D01*
G01X12185594Y-9770023D01*
G03X12183045Y-9768302I-37078J-52146D01*
G01X12157026Y-9751623D01*
G03X12154388Y-9750020I-34530J-53867D01*
G01X12127532Y-9734580D01*
G03X12124806Y-9733100I-31891J-55470D01*
G01X12097155Y-9718939D01*
G03X12094345Y-9717586I-29165J-56951D01*
G01X12065938Y-9704745D01*
G03X12063050Y-9703524I-26355J-58304D01*
G01X12033927Y-9692043D01*
G03X12030965Y-9690959I-23467J-59525D01*
G01X12001168Y-9680878D01*
G03X11998139Y-9679936I-20505J-60609D01*
G01X11967707Y-9671296D01*
G03X11964618Y-9670502I-17475J-61551D01*
G01X11933592Y-9663343D01*
G03X11930451Y-9662700I-14386J-62346D01*
G01X11898871Y-9657062D01*
G03X11895688Y-9656577I-11245J-62988D01*
G01X11863595Y-9652500D01*
G03X11860381Y-9652174I-8062J-63474D01*
G01X11827815Y-9649699D01*
G03X11824581Y-9649536I-4848J-63800D01*
G01X11791582Y-9648703D01*
G03X11788348Y-9648703I-1614J-63964D01*
G01X11755349Y-9649539D01*
G03X11752115Y-9649703I1621J-63963D01*
G01X11719549Y-9652181D01*
G03X11716335Y-9652507I4855J-63800D01*
G01X11684243Y-9656587D01*
G03X11681060Y-9657073I8069J-63473D01*
G01X11649481Y-9662714D01*
G03X11646340Y-9663357I11252J-62987D01*
G01X11615315Y-9670519D01*
G03X11612226Y-9671314I14392J-62344D01*
G01X11581795Y-9679957D01*
G03X11578766Y-9680899I17481J-61550D01*
G01X11548970Y-9690982D01*
G03X11546008Y-9692067I20511J-60607D01*
G01X11516888Y-9703550D01*
G03X11513999Y-9704772I23472J-59523D01*
G01X11485594Y-9717615D01*
G03X11482784Y-9718969I26361J-58301D01*
G01X11455135Y-9733132D01*
G03X11452409Y-9734613I29170J-56948D01*
G01X11425555Y-9750055D01*
G03X11422916Y-9751658I31896J-55467D01*
G01X11396899Y-9768340D01*
G03X11394351Y-9770061I34535J-53864D01*
G01X11369210Y-9787941D01*
G03X11366756Y-9789776I37083J-52142D01*
G01X11342532Y-9808815D01*
G03X11340174Y-9810761I39537J-50307D01*
G01X11316907Y-9830917D01*
G03X11314648Y-9832970I41895J-48361D01*
G01X11292379Y-9854204D01*
G03X11290221Y-9856362I44154J-46307D01*
G01X11268989Y-9878633D01*
G03X11266936Y-9880893I46311J-44150D01*
G01X11246782Y-9904162D01*
G03X11244836Y-9906520I48365J-41890D01*
G01X11225800Y-9930746D01*
G03X11223965Y-9933200I50310J-39532D01*
G01X11206087Y-9958343D01*
G03X11204366Y-9960891I52146J-37078D01*
G01X11187687Y-9986910D01*
G03X11186084Y-9989549I53867J-34530D01*
G01X11170644Y-10016404D01*
G03X11169164Y-10019131I55470J-31891D01*
G01X11155003Y-10046782D01*
G03X11153650Y-10049591I56951J-29165D01*
G01X11140809Y-10077998D01*
G03X11139588Y-10080887I58304J-26355D01*
G01X11128107Y-10110009D01*
G03X11127023Y-10112971I59525J-23467D01*
G01X11116942Y-10142768D01*
G03X11116000Y-10145798I60609J-20505D01*
G01X11107360Y-10176229D01*
G03X11106566Y-10179319I61551J-17475D01*
G01X11099407Y-10210345D01*
G03X11098764Y-10213486I62346J-14386D01*
G01X11093126Y-10245065D01*
G03X11092640Y-10248248I62988J-11245D01*
G01X11088564Y-10280342D01*
G03X11088238Y-10283555I63474J-8062D01*
G01X11085763Y-10316122D01*
G03X11085600Y-10319356I63800J-4848D01*
G01X11084767Y-10352354D01*
G03X11084767Y-10355589I63964J-1614D01*
G01X11085603Y-10388588D01*
G03X11085767Y-10391822I63963J1621D01*
G01X11088245Y-10424387D01*
G03X11088571Y-10427601I63800J4855D01*
G01X11092651Y-10459694D01*
G03X11093137Y-10462877I63473J8069D01*
G01X11098778Y-10494456D01*
G03X11099421Y-10497597I62987J11252D01*
G01X11106583Y-10528622D01*
G01X13516907Y-9830917D02*
G03X13514649Y-9832970I41895J-48361D01*
G01X13492379Y-9854204D01*
G03X13490221Y-9856362I44154J-46307D01*
G01X13468989Y-9878634D01*
G03X13466936Y-9880893I46312J-44150D01*
G01X13446782Y-9904162D01*
G03X13444836Y-9906520I48365J-41890D01*
G01X13425800Y-9930746D01*
G03X13423965Y-9933200I50310J-39532D01*
G01X13406088Y-9958343D01*
G03X13404366Y-9960891I52146J-37078D01*
G01X13387688Y-9986910D01*
G03X13386085Y-9989549I53867J-34530D01*
G01X13370645Y-10016404D01*
G03X13369164Y-10019131I55470J-31891D01*
G01X13355004Y-10046782D01*
G03X13353650Y-10049591I56951J-29165D01*
G01X13340810Y-10077998D01*
G03X13339588Y-10080887I58304J-26355D01*
G01X13328107Y-10110009D01*
G03X13327023Y-10112971I59525J-23467D01*
G01X13316943Y-10142768D01*
G03X13316001Y-10145798I60609J-20505D01*
G01X13307361Y-10176230D01*
G03X13306566Y-10179319I61551J-17475D01*
G01X13299407Y-10210345D01*
G03X13298765Y-10213486I62346J-14386D01*
G01X13293127Y-10245065D01*
G03X13292641Y-10248248I62988J-11245D01*
G01X13288565Y-10280341D01*
G03X13288239Y-10283556I63474J-8063D01*
G01X13285764Y-10316122D01*
G03X13285600Y-10319356I63800J-4848D01*
G01X13284768Y-10352354D01*
G03X13284768Y-10355589I63964J-1614D01*
G01X13285604Y-10388587D01*
G03X13285768Y-10391822I63963J1620D01*
G01X13288246Y-10424387D01*
G03X13288572Y-10427602I63800J4855D01*
G01X13292652Y-10459694D01*
G03X13293138Y-10462877I63473J8069D01*
G01X13298779Y-10494456D01*
G03X13299421Y-10497596I62987J11252D01*
G01X13306584Y-10528621D01*
G03X13307378Y-10531711I62344J14392D01*
G01X13316021Y-10562141D01*
G03X13316963Y-10565171I61550J17481D01*
G01X13327047Y-10594966D01*
G03X13328131Y-10597928I60607J20511D01*
G01X13339615Y-10627049D01*
G03X13340836Y-10629938I59523J23472D01*
G01X13353680Y-10658343D01*
G03X13355033Y-10661152I58301J26361D01*
G01X13369196Y-10688802D01*
G03X13370677Y-10691528I56948J29170D01*
G01X13386119Y-10718381D01*
G03X13387723Y-10721020I55467J31896D01*
G01X13404404Y-10747037D01*
G03X13406125Y-10749585I53864J34535D01*
G01X13424005Y-10774726D01*
G03X13425841Y-10777180I52142J37083D01*
G01X13444879Y-10801404D01*
G03X13446825Y-10803762I50307J39537D01*
G01X13466981Y-10827029D01*
G03X13469034Y-10829288I48361J41895D01*
G01X13490268Y-10851558D01*
G03X13492426Y-10853716I46307J44154D01*
G01X13514698Y-10874947D01*
G03X13516957Y-10877000I44150J46312D01*
G01X13540226Y-10897155D01*
G03X13542584Y-10899101I41891J48365D01*
G01X13566810Y-10918137D01*
G03X13569264Y-10919972I39532J50310D01*
G01X13594407Y-10937849D01*
G03X13596955Y-10939571I37078J52146D01*
G01X13622974Y-10956249D01*
G03X13625613Y-10957852I34530J53867D01*
G01X13652468Y-10973292D01*
G03X13655194Y-10974773I31891J55470D01*
G01X13682846Y-10988933D01*
G03X13685655Y-10990287I29165J56951D01*
G01X13714062Y-11003128D01*
G03X13716951Y-11004349I26355J58304D01*
G01X13746073Y-11015830D01*
G03X13749035Y-11016914I23467J59525D01*
G01X13778832Y-11026995D01*
G03X13781862Y-11027936I20505J60610D01*
G01X13812293Y-11036576D01*
G03X13815383Y-11037371I17475J61551D01*
G01X13846409Y-11044530D01*
G03X13849549Y-11045172I14386J62346D01*
G01X13881129Y-11050810D01*
G03X13884312Y-11051296I11245J62988D01*
G01X13916405Y-11055373D01*
G03X13919620Y-11055699I8062J63474D01*
G01X13952186Y-11058173D01*
G03X13955419Y-11058337I4848J63800D01*
G01X13988418Y-11059170D01*
G03X13991653Y-11059170I1614J63964D01*
G01X14024651Y-11058334D01*
G03X14027885Y-11058170I-1621J63963D01*
G01X14060451Y-11055692D01*
G03X14063665Y-11055365I-4854J63800D01*
G01X14095758Y-11051286D01*
G03X14098941Y-11050799I-8069J63473D01*
G01X14130520Y-11045158D01*
G03X14133660Y-11044516I-11252J62987D01*
G01X14164685Y-11037354D01*
G03X14167774Y-11036559I-14392J62344D01*
G01X14198205Y-11027916D01*
G03X14201234Y-11026974I-17481J61550D01*
G01X14231030Y-11016890D01*
G03X14233992Y-11015806I-20511J60607D01*
G01X14263113Y-11004322D01*
G03X14266001Y-11003101I-23473J59523D01*
G01X14294406Y-10990257D01*
G03X14297216Y-10988904I-26361J58301D01*
G01X14324865Y-10974741D01*
G03X14327591Y-10973260I-29170J56948D01*
G01X14354445Y-10957818D01*
G03X14357084Y-10956214I-31896J55467D01*
G01X14383101Y-10939533D01*
G03X14385649Y-10937812I-34535J53864D01*
G01X14410790Y-10919932D01*
G03X14413244Y-10918096I-37083J52142D01*
G01X14437468Y-10899058D01*
G03X14439826Y-10897112I-39537J50307D01*
G01X14463093Y-10876956D01*
G03X14465352Y-10874903I-41895J48361D01*
G01X14487621Y-10853669D01*
G03X14489779Y-10851511I-44154J46307D01*
G01X14511011Y-10829239D01*
G03X14513064Y-10826980I-46312J44150D01*
G01X14533218Y-10803711D01*
G03X14535164Y-10801353I-48365J41890D01*
G01X14554200Y-10777127D01*
G03X14556035Y-10774673I-50310J39532D01*
G01X14573913Y-10749530D01*
G03X14575634Y-10746982I-52146J37078D01*
G01X14592313Y-10720963D01*
G03X14593916Y-10718324I-53867J34530D01*
G01X14609356Y-10691468D01*
G03X14610836Y-10688742I-55470J31891D01*
G01X14624996Y-10661091D01*
G03X14626350Y-10658281I-56951J29165D01*
G01X14639191Y-10629874D01*
G03X14640412Y-10626986I-58304J26355D01*
G01X14651893Y-10597863D01*
G03X14652977Y-10594902I-59525J23467D01*
G01X14663058Y-10565104D01*
G03X14664000Y-10562075I-60609J20505D01*
G01X14672640Y-10531643D01*
G03X14673434Y-10528554I-61551J17475D01*
G01X14680593Y-10497528D01*
G03X14681235Y-10494387I-62346J14386D01*
G01X14686873Y-10462807D01*
G03X14687359Y-10459625I-62988J11245D01*
G01X14691436Y-10427531D01*
G03X14691762Y-10424317I-63474J8063D01*
G01X14694236Y-10391751D01*
G03X14694400Y-10388517I-63800J4848D01*
G01X14695233Y-10355518D01*
G03X14695233Y-10352284I-63964J1614D01*
G01X14694397Y-10319285D01*
G03X14694233Y-10316051I-63963J-1620D01*
G01X14691755Y-10283485D01*
G03X14691428Y-10280271I-63800J-4855D01*
G01X14687349Y-10248179D01*
G03X14686862Y-10244996I-63473J-8069D01*
G01X14681221Y-10213417D01*
G03X14680579Y-10210276I-62987J-11252D01*
G01X14673417Y-10179251D01*
G03X14672622Y-10176162I-62344J-14392D01*
G01X14663979Y-10145732D01*
G03X14663037Y-10142702I-61550J-17481D01*
G01X14652954Y-10112906D01*
G03X14651869Y-10109945I-60607J-20511D01*
G01X14640386Y-10080824D01*
G03X14639164Y-10077935I-59523J-23472D01*
G01X14626320Y-10049530D01*
G03X14624967Y-10046721I-58301J-26361D01*
G01X14610804Y-10019071D01*
G03X14609323Y-10016345I-56948J-29170D01*
G01X14593881Y-9989491D01*
G03X14592278Y-9986853I-55467J-31896D01*
G01X14575596Y-9960835D01*
G03X14573875Y-9958287I-53864J-34535D01*
G01X14555995Y-9933146D01*
G03X14554160Y-9930692I-52142J-37083D01*
G01X14535122Y-9906468D01*
G03X14533176Y-9904110I-50307J-39537D01*
G01X14513019Y-9880843D01*
G03X14510966Y-9878584I-48361J-41895D01*
G01X14489732Y-9856315D01*
G03X14487574Y-9854157I-46307J-44154D01*
G01X14465303Y-9832925D01*
G03X14463043Y-9830872I-44150J-46312D01*
G01X14439775Y-9810718D01*
G03X14437416Y-9808772I-41891J-48365D01*
G01X14413191Y-9789736D01*
G03X14410736Y-9787901I-39532J-50310D01*
G01X14385593Y-9770023D01*
G03X14383045Y-9768302I-37078J-52146D01*
G01X14357026Y-9751623D01*
G03X14354387Y-9750020I-34530J-53867D01*
G01X14327532Y-9734580D01*
G03X14324806Y-9733100I-31891J-55470D01*
G01X14297155Y-9718939D01*
G03X14294345Y-9717586I-29165J-56951D01*
G01X14265938Y-9704745D01*
G03X14263049Y-9703524I-26355J-58304D01*
G01X14233927Y-9692043D01*
G03X14230965Y-9690959I-23467J-59525D01*
G01X14201168Y-9680878D01*
G03X14198139Y-9679936I-20505J-60609D01*
G01X14167707Y-9671296D01*
G03X14164618Y-9670502I-17475J-61551D01*
G01X14133592Y-9663343D01*
G03X14130451Y-9662700I-14386J-62346D01*
G01X14098871Y-9657062D01*
G03X14095688Y-9656577I-11245J-62988D01*
G01X14063595Y-9652500D01*
G03X14060381Y-9652174I-8062J-63474D01*
G01X14027815Y-9649699D01*
G03X14024581Y-9649536I-4848J-63800D01*
G01X13991582Y-9648703D01*
G03X13988348Y-9648703I-1614J-63964D01*
G01X13955349Y-9649539D01*
G03X13952115Y-9649703I1621J-63963D01*
G01X13919549Y-9652181D01*
G03X13916335Y-9652507I4855J-63800D01*
G01X13884243Y-9656587D01*
G03X13881060Y-9657073I8069J-63473D01*
G01X13849481Y-9662714D01*
G03X13846340Y-9663357I11252J-62987D01*
G01X13815315Y-9670519D01*
G03X13812226Y-9671314I14392J-62344D01*
G01X13781795Y-9679957D01*
G03X13778766Y-9680899I17482J-61550D01*
G01X13748970Y-9690982D01*
G03X13746008Y-9692067I20511J-60607D01*
G01X13716888Y-9703550D01*
G03X13713999Y-9704772I23472J-59523D01*
G01X13685594Y-9717615D01*
G03X13682784Y-9718969I26361J-58301D01*
G01X13655135Y-9733132D01*
G03X13652409Y-9734613I29170J-56948D01*
G01X13625555Y-9750055D01*
G03X13622917Y-9751658I31896J-55467D01*
G01X13596899Y-9768340D01*
G03X13594351Y-9770061I34535J-53864D01*
G01X13569211Y-9787941D01*
G03X13566756Y-9789776I37083J-52142D01*
G01X13542532Y-9808815D01*
G03X13540174Y-9810761I39537J-50307D01*
G01X13516907Y-9830917D01*
G01X15506584Y-10528621D02*
G03X15507378Y-10531711I62344J14392D01*
G01X15516021Y-10562141D01*
G03X15516963Y-10565171I61550J17481D01*
G01X15527047Y-10594966D01*
G03X15528131Y-10597928I60607J20511D01*
G01X15539615Y-10627049D01*
G03X15540836Y-10629937I59523J23472D01*
G01X15553680Y-10658343D01*
G03X15555033Y-10661152I58301J26361D01*
G01X15569196Y-10688802D01*
G03X15570677Y-10691528I56948J29170D01*
G01X15586120Y-10718381D01*
G03X15587723Y-10721020I55467J31896D01*
G01X15604404Y-10747037D01*
G03X15606125Y-10749585I53864J34535D01*
G01X15624005Y-10774726D01*
G03X15625841Y-10777180I52142J37083D01*
G01X15644879Y-10801404D01*
G03X15646825Y-10803762I50307J39537D01*
G01X15666981Y-10827029D01*
G03X15669034Y-10829288I48361J41895D01*
G01X15690268Y-10851558D01*
G03X15692426Y-10853716I46307J44154D01*
G01X15714698Y-10874947D01*
G03X15716957Y-10877000I44150J46312D01*
G01X15740226Y-10897155D01*
G03X15742584Y-10899101I41891J48365D01*
G01X15766810Y-10918137D01*
G03X15769264Y-10919972I39532J50310D01*
G01X15794407Y-10937849D01*
G03X15796955Y-10939571I37078J52146D01*
G01X15822974Y-10956249D01*
G03X15825613Y-10957852I34530J53867D01*
G01X15852468Y-10973292D01*
G03X15855194Y-10974773I31891J55470D01*
G01X15882846Y-10988933D01*
G03X15885655Y-10990287I29165J56951D01*
G01X15914062Y-11003128D01*
G03X15916951Y-11004349I26355J58304D01*
G01X15946073Y-11015830D01*
G03X15949035Y-11016914I23467J59525D01*
G01X15978832Y-11026995D01*
G03X15981862Y-11027936I20505J60610D01*
G01X16012293Y-11036576D01*
G03X16015383Y-11037371I17475J61551D01*
G01X16046409Y-11044530D01*
G03X16049549Y-11045172I14386J62346D01*
G01X16081129Y-11050810D01*
G03X16084312Y-11051296I11245J62988D01*
G01X16116405Y-11055373D01*
G03X16119620Y-11055699I8062J63474D01*
G01X16152186Y-11058173D01*
G03X16155419Y-11058337I4848J63800D01*
G01X16188418Y-11059170D01*
G03X16191653Y-11059170I1614J63964D01*
G01X16224651Y-11058334D01*
G03X16227885Y-11058170I-1621J63963D01*
G01X16260451Y-11055692D01*
G03X16263665Y-11055365I-4854J63800D01*
G01X16295758Y-11051286D01*
G03X16298941Y-11050799I-8069J63473D01*
G01X16330520Y-11045158D01*
G03X16333660Y-11044516I-11252J62987D01*
G01X16364685Y-11037354D01*
G03X16367775Y-11036559I-14392J62344D01*
G01X16398205Y-11027916D01*
G03X16401234Y-11026974I-17481J61550D01*
G01X16431030Y-11016890D01*
G03X16433992Y-11015806I-20511J60608D01*
G01X16463113Y-11004322D01*
G03X16466001Y-11003101I-23473J59523D01*
G01X16494407Y-10990257D01*
G03X16497216Y-10988904I-26361J58301D01*
G01X16524866Y-10974741D01*
G03X16527592Y-10973260I-29170J56948D01*
G01X16554445Y-10957818D01*
G03X16557084Y-10956214I-31896J55467D01*
G01X16583101Y-10939533D01*
G03X16585649Y-10937812I-34535J53864D01*
G01X16610790Y-10919932D01*
G03X16613244Y-10918096I-37083J52142D01*
G01X16637468Y-10899058D01*
G03X16639826Y-10897112I-39537J50307D01*
G01X16663093Y-10876956D01*
G03X16665352Y-10874902I-41895J48361D01*
G01X16687621Y-10853668D01*
G03X16689779Y-10851511I-44154J46307D01*
G01X16711011Y-10829239D01*
G03X16713064Y-10826980I-46312J44150D01*
G01X16733218Y-10803711D01*
G03X16735164Y-10801353I-48365J41890D01*
G01X16754200Y-10777127D01*
G03X16756035Y-10774672I-50310J39532D01*
G01X16773912Y-10749530D01*
G03X16775634Y-10746982I-52146J37078D01*
G01X16792312Y-10720962D01*
G03X16793915Y-10718324I-53867J34530D01*
G01X16809355Y-10691468D01*
G03X16810836Y-10688742I-55470J31891D01*
G01X16824996Y-10661091D01*
G03X16826349Y-10658281I-56951J29165D01*
G01X16839190Y-10629874D01*
G03X16840412Y-10626986I-58304J26355D01*
G01X16851892Y-10597863D01*
G03X16852977Y-10594901I-59525J23467D01*
G01X16863057Y-10565104D01*
G03X16863999Y-10562075I-60610J20504D01*
G01X16872639Y-10531643D01*
G03X16873433Y-10528554I-61551J17475D01*
G01X16880592Y-10497528D01*
G03X16881235Y-10494387I-62346J14386D01*
G01X16886873Y-10462807D01*
G03X16887358Y-10459625I-62988J11245D01*
G01X16891435Y-10427531D01*
G03X16891761Y-10424317I-63474J8062D01*
G01X16894236Y-10391751D01*
G03X16894399Y-10388517I-63800J4848D01*
G01X16895232Y-10355519D01*
G03X16895232Y-10352284I-63964J1614D01*
G01X16894396Y-10319285D01*
G03X16894232Y-10316051I-63963J-1621D01*
G01X16891754Y-10283486D01*
G03X16891428Y-10280271I-63800J-4854D01*
G01X16887348Y-10248179D01*
G03X16886862Y-10244996I-63473J-8069D01*
G01X16881221Y-10213417D01*
G03X16880578Y-10210276I-62987J-11252D01*
G01X16873416Y-10179251D01*
G03X16872621Y-10176162I-62344J-14392D01*
G01X16863978Y-10145732D01*
G03X16863036Y-10142702I-61550J-17481D01*
G01X16852953Y-10112907D01*
G03X16851869Y-10109945I-60608J-20510D01*
G01X16840385Y-10080824D01*
G03X16839163Y-10077936I-59523J-23472D01*
G01X16826320Y-10049530D01*
G03X16824966Y-10046721I-58301J-26361D01*
G01X16810804Y-10019071D01*
G03X16809323Y-10016345I-56948J-29170D01*
G01X16793881Y-9989491D01*
G03X16792277Y-9986853I-55467J-31896D01*
G01X16775596Y-9960835D01*
G03X16773875Y-9958287I-53864J-34535D01*
G01X16755995Y-9933147D01*
G03X16754160Y-9930692I-52142J-37083D01*
G01X16735121Y-9906468D01*
G03X16733176Y-9904111I-50307J-39537D01*
G01X16713019Y-9880843D01*
G03X16710966Y-9878584I-48361J-41895D01*
G01X16689732Y-9856315D01*
G03X16687574Y-9854157I-46307J-44154D01*
G01X16665303Y-9832925D01*
G03X16663043Y-9830872I-44150J-46311D01*
G01X16639775Y-9810718D01*
G03X16637417Y-9808772I-41891J-48365D01*
G01X16613191Y-9789736D01*
G03X16610736Y-9787901I-39533J-50310D01*
G01X16585593Y-9770023D01*
G03X16583045Y-9768302I-37078J-52146D01*
G01X16557026Y-9751623D01*
G03X16554388Y-9750020I-34530J-53867D01*
G01X16527532Y-9734581D01*
G03X16524806Y-9733100I-31891J-55470D01*
G01X16497155Y-9718939D01*
G03X16494345Y-9717586I-29165J-56951D01*
G01X16465938Y-9704745D01*
G03X16463050Y-9703524I-26355J-58304D01*
G01X16433928Y-9692043D01*
G03X16430965Y-9690959I-23467J-59525D01*
G01X16401168Y-9680878D01*
G03X16398139Y-9679936I-20505J-60610D01*
G01X16367707Y-9671296D01*
G03X16364618Y-9670502I-17475J-61551D01*
G01X16333592Y-9663343D01*
G03X16330451Y-9662700I-14386J-62346D01*
G01X16298871Y-9657062D01*
G03X16295688Y-9656577I-11245J-62988D01*
G01X16263595Y-9652500D01*
G03X16260381Y-9652174I-8062J-63474D01*
G01X16227815Y-9649699D01*
G03X16224581Y-9649536I-4848J-63800D01*
G01X16191582Y-9648703D01*
G03X16188348Y-9648703I-1614J-63964D01*
G01X16155349Y-9649539D01*
G03X16152115Y-9649703I1621J-63963D01*
G01X16119549Y-9652181D01*
G03X16116335Y-9652507I4855J-63800D01*
G01X16084243Y-9656587D01*
G03X16081060Y-9657073I8069J-63473D01*
G01X16049481Y-9662714D01*
G03X16046340Y-9663357I11252J-62987D01*
G01X16015315Y-9670519D01*
G03X16012226Y-9671314I14392J-62344D01*
G01X15981795Y-9679957D01*
G03X15978766Y-9680899I17482J-61550D01*
G01X15948970Y-9690982D01*
G03X15946008Y-9692067I20511J-60607D01*
G01X15916888Y-9703550D01*
G03X15913999Y-9704772I23473J-59523D01*
G01X15885594Y-9717615D01*
G03X15882784Y-9718969I26361J-58301D01*
G01X15855135Y-9733132D01*
G03X15852409Y-9734613I29170J-56948D01*
G01X15825555Y-9750055D01*
G03X15822917Y-9751658I31896J-55467D01*
G01X15796899Y-9768340D01*
G03X15794351Y-9770061I34535J-53864D01*
G01X15769211Y-9787941D01*
G03X15766756Y-9789776I37083J-52142D01*
G01X15742532Y-9808815D01*
G03X15740174Y-9810761I39537J-50307D01*
G01X15716907Y-9830917D01*
G03X15714649Y-9832970I41895J-48361D01*
G01X15692379Y-9854204D01*
G03X15690221Y-9856362I44154J-46307D01*
G01X15668989Y-9878634D01*
G03X15666936Y-9880893I46312J-44150D01*
G01X15646782Y-9904162D01*
G03X15644836Y-9906520I48365J-41890D01*
G01X15625800Y-9930746D01*
G03X15623965Y-9933200I50311J-39532D01*
G01X15606088Y-9958343D01*
G03X15604366Y-9960891I52146J-37078D01*
G01X15587688Y-9986910D01*
G03X15586085Y-9989549I53867J-34530D01*
G01X15570645Y-10016404D01*
G03X15569164Y-10019131I55470J-31891D01*
G01X15555004Y-10046782D01*
G03X15553650Y-10049591I56951J-29165D01*
G01X15540810Y-10077998D01*
G03X15539588Y-10080887I58304J-26355D01*
G01X15528107Y-10110009D01*
G03X15527023Y-10112971I59525J-23467D01*
G01X15516943Y-10142768D01*
G03X15516001Y-10145798I60609J-20505D01*
G01X15507361Y-10176230D01*
G03X15506566Y-10179319I61551J-17475D01*
G01X15499407Y-10210345D01*
G03X15498765Y-10213486I62346J-14386D01*
G01X15493127Y-10245065D01*
G03X15492641Y-10248248I62988J-11245D01*
G01X15488565Y-10280341D01*
G03X15488239Y-10283555I63474J-8062D01*
G01X15485764Y-10316122D01*
G03X15485600Y-10319356I63800J-4848D01*
G01X15484768Y-10352354D01*
G03X15484768Y-10355589I63964J-1614D01*
G01X15485604Y-10388587D01*
G03X15485768Y-10391822I63963J1620D01*
G01X15488246Y-10424387D01*
G03X15488572Y-10427601I63800J4855D01*
G01X15492652Y-10459694D01*
G03X15493138Y-10462877I63473J8069D01*
G01X15498779Y-10494456D01*
G03X15499421Y-10497596I62987J11252D01*
G01X15506584Y-10528621D01*
G01X8885000Y-7354746D02*
G01X8675254Y-7354746D01*
G01X8675254Y-7330254D01*
G01X8880000Y-7330254D01*
G03X8946725Y-7304824I0J100254D01*
G03X9056254Y-7205000I9275J99824D01*
G01X9056254Y-7099199D01*
G01X9068276Y-7099199D01*
G01X9269748Y-7300670D01*
G03X9337316Y-7414179I130252J670D01*
G03X9469355Y-7410254I62684J114179D01*
G01X11072959Y-7410254D01*
G01X11072959Y-7580040D01*
G03X11123461Y-7667078I100254J0D01*
G03X11220000Y-7740295I96539J27038D01*
G01X11629746Y-7740295D01*
G01X11629746Y-7749746D01*
G01X11480000Y-7749746D01*
G03X11449411Y-7754527I0J-100254D01*
G03X11420100Y-7750146I-29311J-95873D01*
G01X11331365Y-7750146D01*
G03X11300100Y-7745146I-31266J-95254D01*
G01X11240100Y-7745146D01*
G03X11208834Y-7750146I0J-100254D01*
G01X11195100Y-7750146D01*
G03X11143001Y-7764746I0J-100254D01*
G01X11120669Y-7764746D01*
G01X10982961Y-7627039D01*
G03X10905000Y-7594746I-77961J-77961D01*
G01X9609355Y-7594746D01*
G03X9470645Y-7594746I-69355J-110254D01*
G01X9061254Y-7594746D01*
G01X9061254Y-7480000D01*
G03X8951725Y-7380176I-100254J0D01*
G03X8885000Y-7354746I-66725J-74824D01*
G01X8675254Y-6620254D02*
G01X8880000Y-6620254D01*
G03X8946725Y-6594824I0J100254D01*
G03X9056254Y-6495000I9275J99824D01*
G01X9056254Y-6380254D01*
G01X9180000Y-6380254D01*
G03X9257961Y-6347961I0J110254D01*
G01X9545669Y-6060254D01*
G01X9767050Y-6060254D01*
G01X9745671Y-6074507D01*
G03X9737706Y-6081493I22329J-33493D01*
G01X9686372Y-6140159D01*
G03X9680662Y-6148665I30294J-26507D01*
G01X9663996Y-6181998D01*
G03X9661812Y-6187271I36004J-18002D01*
G01X9631812Y-6277271D01*
G03X9629746Y-6290000I38188J-12729D01*
G01X9629746Y-6370000D01*
G03X9631812Y-6382729I40254J0D01*
G01X9661812Y-6472729D01*
G03X9666507Y-6482329I38188J12729D01*
G01X9706507Y-6542329D01*
G03X9711536Y-6548464I33493J22329D01*
G01X9751536Y-6588464D01*
G03X9761998Y-6596004I28464J28464D01*
G01X9841998Y-6636004D01*
G03X9847271Y-6638188I18002J36004D01*
G01X9907271Y-6658188D01*
G03X9920000Y-6660254I12729J38188D01*
G01X10020000Y-6660254D01*
G03X10032729Y-6658188I0J40254D01*
G01X10092729Y-6638188D01*
G03X10102329Y-6633493I-12729J38188D01*
G01X10162329Y-6593493D01*
G01X10164152Y-6592203D01*
G01X10204152Y-6562203D01*
G03X10213493Y-6552329I-24152J32203D01*
G01X10273493Y-6462329D01*
G03X10279472Y-6447894I-33493J22329D01*
G01X10299472Y-6347894D01*
G03X10299706Y-6333382I-39472J7894D01*
G01X10279706Y-6213382D01*
G03X10274034Y-6198505I-39706J-6618D01*
G01X10212159Y-6100536D01*
G03X10200063Y-6088281I-34034J-21495D01*
G01X10156945Y-6060254D01*
G01X10488476Y-6060254D01*
G03X10524161Y-6168349I129097J-17319D01*
G03X10631191Y-6207114I93412J90776D01*
G01X10909746Y-6485669D01*
G01X10909746Y-6654331D01*
G01X10891080Y-6672997D01*
G03X10809746Y-6869355I28920J-127003D01*
G01X10809746Y-6990645D01*
G03X10908507Y-7189746I110254J-69355D01*
G01X9470669Y-7189746D01*
G01X9191906Y-6910983D01*
G03X9113945Y-6878691I-77961J-77961D01*
G01X9056254Y-6878691D01*
G01X9056254Y-6755000D01*
G03X8946725Y-6655176I-100254J0D01*
G03X8880000Y-6629746I-66725J-74824D01*
G01X8675254Y-6629746D01*
G01X8675254Y-6620254D01*
G01X9589355Y-8304746D02*
G03X9450645Y-8304746I-69355J-110254D01*
G01X9066254Y-8304746D01*
G01X9066254Y-8190000D01*
G03X8956725Y-8090176I-100254J0D01*
G03X8890000Y-8064746I-66725J-74824D01*
G01X8675254Y-8064746D01*
G01X8675254Y-8055254D01*
G01X8885000Y-8055254D01*
G03X8951725Y-8029824I0J100254D01*
G03X9061254Y-7930000I9275J99824D01*
G01X9061254Y-7815254D01*
G01X9470645Y-7815254D01*
G03X9609355Y-7815254I69355J110254D01*
G01X10859331Y-7815254D01*
G01X10997039Y-7952961D01*
G03X11075000Y-7985254I77961J77961D01*
G01X11172016Y-7985254D01*
G01X11440371Y-8336180D01*
G03X11461715Y-8387628I99629J11180D01*
G01X11661715Y-8637628D01*
G03X11818285Y-8637628I78285J62628D01*
G01X12018285Y-8387628D01*
G03X12038614Y-8343057I-78285J62628D01*
G03X12044638Y-8335899I-73615J68057D01*
G01X12293660Y-8010254D01*
G01X12550000Y-8010254D01*
G03X12627961Y-7977961I0J110254D01*
G01X12795669Y-7810254D01*
G01X12844746Y-7810254D01*
G01X12844746Y-7925000D01*
G03X12953365Y-8024905I100254J0D01*
G03X13020000Y-8050254I66635J74904D01*
G01X13239746Y-8050254D01*
G01X13239746Y-8059746D01*
G01X13020000Y-8059746D01*
G03X12953365Y-8085095I0J-100254D01*
G03X12844746Y-8185000I-8365J-99904D01*
G01X12844746Y-8336353D01*
G03X12834746Y-8380000I90254J-43647D01*
G01X12834746Y-8384331D01*
G01X12404331Y-8814746D01*
G01X10630669Y-8814746D01*
G01X10152961Y-8337039D01*
G03X10075000Y-8304746I-77961J-77961D01*
G01X9589355Y-8304746D01*
G01X9066254Y-8640000D02*
G01X9066254Y-8525254D01*
G01X9450645Y-8525254D01*
G03X9589355Y-8525254I69355J110254D01*
G01X10029331Y-8525254D01*
G01X10113823Y-8609746D01*
G01X9241920Y-8609746D01*
G03X9066241Y-8641594I-70920J-109254D01*
G01X9066254Y-8640000D01*
G01X11190000Y-6915254D02*
G01X11203734Y-6915254D01*
G03X11235000Y-6920254I31266J95254D01*
G01X11295000Y-6920254D01*
G03X11326265Y-6915254I0J100254D01*
G01X11415000Y-6915254D01*
G03X11452500Y-6907976I0J100254D01*
G03X11490000Y-6915254I37500J92976D01*
G01X11610642Y-6915254D01*
G03X11615945Y-6939705I129358J15254D01*
G01X11226397Y-6939705D01*
G03X11135799Y-6997029I0J-100254D01*
G03X11072959Y-7090040I37414J-93011D01*
G01X11072959Y-7189746D01*
G01X10931493Y-7189746D01*
G03X11030254Y-6990645I-11493J129746D01*
G01X11030254Y-6869355D01*
G03X11047003Y-6828920I-110254J69355D01*
G01X11047500Y-6828423D01*
G01X11087039Y-6867961D01*
G03X11128178Y-6893923I77961J77961D01*
G03X11190000Y-6915254I61822J78923D01*
G01X12260000Y-7740295D02*
G03X12356485Y-7667272I0J100254D01*
G03X12405941Y-7580841I-50798J86432D01*
G01X12405941Y-7439746D01*
G03X12472921Y-7408002I-10982J109706D01*
G01X12770669Y-7110254D01*
G01X12844746Y-7110254D01*
G01X12844746Y-7210000D01*
G03X12953365Y-7309904I100254J0D01*
G03X13020000Y-7335254I66635J74904D01*
G01X13239746Y-7335254D01*
G01X13239746Y-7349746D01*
G01X13020000Y-7349746D01*
G03X12953365Y-7375096I0J-100254D01*
G03X12844746Y-7475000I-8365J-99904D01*
G01X12844746Y-7589746D01*
G01X12750000Y-7589746D01*
G03X12672039Y-7622039I0J-110254D01*
G01X12504331Y-7789746D01*
G01X12370127Y-7789746D01*
G03X12290000Y-7749746I-80127J-60254D01*
G01X12276265Y-7749746D01*
G03X12245000Y-7744746I-31266J-95254D01*
G01X12185000Y-7744746D01*
G03X12153734Y-7749746I0J-100254D01*
G01X12065000Y-7749746D01*
G03X12027500Y-7757024I0J-100254D01*
G03X11990000Y-7749746I-37500J-92976D01*
G01X11850254Y-7749746D01*
G01X11850254Y-7740295D01*
G01X12260000Y-7740295D01*
G01X12000000Y-6915254D02*
G03X12030589Y-6910474I0J100254D01*
G03X12059900Y-6914854I29311J95873D01*
G01X12148634Y-6914854D01*
G03X12179900Y-6919854I31266J95254D01*
G01X12239900Y-6919854D01*
G03X12271165Y-6914854I0J100254D01*
G01X12284900Y-6914854D01*
G03X12364538Y-6753701I0J100254D01*
G01X12272534Y-6633389D01*
G01X12525669Y-6380254D01*
G01X12844746Y-6380254D01*
G01X12844746Y-6495000D01*
G03X12953365Y-6594904I100254J0D01*
G03X13020000Y-6620254I66635J74904D01*
G01X13239746Y-6620254D01*
G01X13239746Y-6634746D01*
G01X13020000Y-6634746D01*
G03X12953365Y-6660096I0J-100254D01*
G03X12844746Y-6760000I-8365J-99904D01*
G01X12844746Y-6889746D01*
G01X12725000Y-6889746D01*
G03X12647039Y-6922039I0J-110254D01*
G01X12405941Y-7163136D01*
G01X12405941Y-7090841D01*
G03X12374120Y-7017575I-100254J0D01*
G03X12276397Y-6939705I-97723J-22384D01*
G01X11864055Y-6939705D01*
G03X11869358Y-6915254I-124055J39705D01*
G01X12000000Y-6915254D01*
G01X13670000Y-7349746D02*
G01X13460254Y-7349746D01*
G01X13460254Y-7335254D01*
G01X13670000Y-7335254D01*
G03X13736725Y-7309824I0J100254D01*
G03X13846254Y-7210000I9275J99824D01*
G01X13846254Y-7095254D01*
G01X13974746Y-7095254D01*
G01X13974746Y-7210000D01*
G03X14083365Y-7309904I100254J0D01*
G03X14150000Y-7335254I66635J74904D01*
G01X14364746Y-7335254D01*
G01X14364746Y-7349746D01*
G01X14150000Y-7349746D01*
G03X14083365Y-7375096I0J-100254D01*
G03X13974746Y-7475000I-8365J-99904D01*
G01X13974746Y-7589746D01*
G01X13846254Y-7589746D01*
G01X13846254Y-7475000D01*
G03X13736725Y-7375176I-100254J0D01*
G03X13670000Y-7349746I-66725J-74824D01*
G01X13460254Y-6620254D02*
G01X13670000Y-6620254D01*
G03X13736725Y-6594824I0J100254D01*
G03X13846254Y-6495000I9275J99824D01*
G01X13846254Y-6380254D01*
G01X13974746Y-6380254D01*
G01X13974746Y-6495000D01*
G03X14083365Y-6594904I100254J0D01*
G03X14150000Y-6620254I66635J74904D01*
G01X14364746Y-6620254D01*
G01X14364746Y-6634746D01*
G01X14150000Y-6634746D01*
G03X14083365Y-6660096I0J-100254D01*
G03X13974746Y-6760000I-8365J-99904D01*
G01X13974746Y-6874746D01*
G01X13846254Y-6874746D01*
G01X13846254Y-6760000D01*
G03X13736725Y-6660176I-100254J0D01*
G03X13670000Y-6634746I-66725J-74824D01*
G01X13460254Y-6634746D01*
G01X13460254Y-6620254D01*
G01X13670000Y-8050254D02*
G03X13736725Y-8024824I0J100254D01*
G03X13846254Y-7925000I9275J99824D01*
G01X13846254Y-7810254D01*
G01X13974746Y-7810254D01*
G01X13974746Y-7925000D01*
G03X14083365Y-8024905I100254J0D01*
G03X14150000Y-8050254I66635J74904D01*
G01X14364746Y-8050254D01*
G01X14364746Y-8059746D01*
G01X14150000Y-8059746D01*
G03X14083365Y-8085095I0J-100254D01*
G03X13974746Y-8185000I-8365J-99904D01*
G01X13974746Y-8299746D01*
G01X13846254Y-8299746D01*
G01X13846254Y-8185000D01*
G03X13736725Y-8085176I-100254J0D01*
G03X13670000Y-8059746I-66725J-74824D01*
G01X13460254Y-8059746D01*
G01X13460254Y-8050254D01*
G01X13670000Y-8050254D01*
G01X14800000Y-7349746D02*
G01X14585254Y-7349746D01*
G01X14585254Y-7335254D01*
G01X14800000Y-7335254D01*
G03X14866725Y-7309824I0J100254D01*
G03X14976254Y-7210000I9275J99824D01*
G01X14976254Y-7095254D01*
G01X15109746Y-7095254D01*
G01X15109746Y-7210000D01*
G03X15218365Y-7309904I100254J0D01*
G03X15285000Y-7335254I66635J74904D01*
G01X15514746Y-7335254D01*
G01X15514746Y-7349746D01*
G01X15285000Y-7349746D01*
G03X15218365Y-7375096I0J-100254D01*
G03X15109746Y-7475000I-8365J-99904D01*
G01X15109746Y-7589746D01*
G01X14976254Y-7589746D01*
G01X14976254Y-7475000D01*
G03X14866725Y-7375176I-100254J0D01*
G03X14800000Y-7349746I-66725J-74824D01*
G01X14585254Y-6620254D02*
G01X14800000Y-6620254D01*
G03X14866725Y-6594824I0J100254D01*
G03X14976254Y-6495000I9275J99824D01*
G01X14976254Y-6380254D01*
G01X15109746Y-6380254D01*
G01X15109746Y-6495000D01*
G03X15218365Y-6594904I100254J0D01*
G03X15285000Y-6620254I66635J74904D01*
G01X15514746Y-6620254D01*
G01X15514746Y-6634746D01*
G01X15285000Y-6634746D01*
G03X15218365Y-6660096I0J-100254D01*
G03X15109746Y-6760000I-8365J-99904D01*
G01X15109746Y-6874746D01*
G01X14976254Y-6874746D01*
G01X14976254Y-6760000D01*
G03X14866725Y-6660176I-100254J0D01*
G03X14800000Y-6634746I-66725J-74824D01*
G01X14585254Y-6634746D01*
G01X14585254Y-6620254D01*
G01X15109746Y-7925000D02*
G03X15218365Y-8024905I100254J0D01*
G03X15285000Y-8050254I66635J74904D01*
G01X15514746Y-8050254D01*
G01X15514746Y-8059746D01*
G01X15285000Y-8059746D01*
G03X15218365Y-8085095I0J-100254D01*
G03X15109746Y-8185000I-8365J-99904D01*
G01X15109746Y-8299746D01*
G01X14976254Y-8299746D01*
G01X14976254Y-8185000D01*
G03X14866725Y-8085176I-100254J0D01*
G03X14800000Y-8059746I-66725J-74824D01*
G01X14585254Y-8059746D01*
G01X14585254Y-8050254D01*
G01X14800000Y-8050254D01*
G03X14866725Y-8024824I0J100254D01*
G03X14976254Y-7925000I9275J99824D01*
G01X14976254Y-7810254D01*
G01X15109746Y-7810254D01*
G01X15109746Y-7925000D01*
G01X15935000Y-7349746D02*
G01X15735254Y-7349746D01*
G01X15735254Y-7335254D01*
G01X15935000Y-7335254D01*
G03X16001725Y-7309824I0J100254D01*
G03X16111254Y-7210000I9275J99824D01*
G01X16111254Y-7095254D01*
G01X16244746Y-7095254D01*
G01X16244746Y-7210000D01*
G03X16353365Y-7309904I100254J0D01*
G03X16420000Y-7335254I66635J74904D01*
G01X16639746Y-7335254D01*
G01X16639746Y-7349746D01*
G01X16420000Y-7349746D01*
G03X16353365Y-7375096I0J-100254D01*
G03X16244746Y-7475000I-8365J-99904D01*
G01X16244746Y-7589746D01*
G01X16111254Y-7589746D01*
G01X16111254Y-7475000D01*
G03X16001725Y-7375176I-100254J0D01*
G03X15935000Y-7349746I-66725J-74824D01*
G01X15735254Y-6620254D02*
G01X15935000Y-6620254D01*
G03X16001725Y-6594824I0J100254D01*
G03X16111254Y-6495000I9275J99824D01*
G01X16111254Y-6380254D01*
G01X16244746Y-6380254D01*
G01X16244746Y-6495000D01*
G03X16353365Y-6594904I100254J0D01*
G03X16420000Y-6620254I66635J74904D01*
G01X16639746Y-6620254D01*
G01X16639746Y-6634746D01*
G01X16420000Y-6634746D01*
G03X16353365Y-6660096I0J-100254D01*
G03X16244746Y-6760000I-8365J-99904D01*
G01X16244746Y-6874746D01*
G01X16111254Y-6874746D01*
G01X16111254Y-6760000D01*
G03X16001725Y-6660176I-100254J0D01*
G03X15935000Y-6634746I-66725J-74824D01*
G01X15735254Y-6634746D01*
G01X15735254Y-6620254D01*
G01X15935000Y-8050254D02*
G03X16001725Y-8024824I0J100254D01*
G03X16111254Y-7925000I9275J99824D01*
G01X16111254Y-7810254D01*
G01X16244746Y-7810254D01*
G01X16244746Y-7925000D01*
G03X16353365Y-8024905I100254J0D01*
G03X16420000Y-8050254I66635J74904D01*
G01X16639746Y-8050254D01*
G01X16639746Y-8059746D01*
G01X16420000Y-8059746D01*
G03X16353365Y-8085095I0J-100254D01*
G03X16244746Y-8185000I-8365J-99904D01*
G01X16244746Y-8299746D01*
G01X16111254Y-8299746D01*
G01X16111254Y-8185000D01*
G03X16001725Y-8085176I-100254J0D01*
G03X15935000Y-8059746I-66725J-74824D01*
G01X15735254Y-8059746D01*
G01X15735254Y-8050254D01*
G01X15935000Y-8050254D01*
G04 Copper End*

G04 PolygonModel Start*
G54D11*
G01X11075000Y-7875000D02*
G01X11250000Y-7875000D01*
G01X12275000Y-6475000D02*
G01X12100000Y-6650000D01*
G36*
G01X7950000Y-1900000D02*
G01X12650000Y-1900000D01*
G01X12650000Y-5500000D01*
G01X7950000Y-5500000D01*
G01X7950000Y-1900000D01*
G37*

G04 Pad Start*
G54D12*
G01X11452500Y-6605000D03*
G54D13*
G01X11740000Y-6300000D03*
G54D14*
G01X11745000Y-6702500D03*
G54D15*
G01X11740000Y-6625000D03*
G01X11740000Y-6475000D03*
G54D16*
G01X12022400Y-6604600D03*
G54D17*
G01X12027500Y-8060000D03*
G54D18*
G01X11740000Y-8365000D03*
G54D20*
G01X11735000Y-7962500D03*
G54D15*
G01X11740000Y-8040000D03*
G01X11740000Y-8190000D03*
G54D21*
G01X11457600Y-8060400D03*
G54D22*
G01X11419106Y-7335040D03*
G54D23*
G01X11740000Y-7512541D03*
G54D24*
G01X11751397Y-7157541D03*
G54D15*
G01X11740000Y-7255041D03*
G01X11740000Y-7405041D03*
G54D25*
G01X12059794Y-7335841D03*
G54D26*
G01X15392500Y-7700000D03*
G54D27*
G01X15610000Y-7850000D03*
G54D15*
G01X15610000Y-7625000D03*
G01X15610000Y-7775000D03*
G54D28*
G01X15610000Y-7550000D03*
G54D29*
G01X15841200Y-7700000D03*
G54D26*
G01X15392500Y-6270000D03*
G54D27*
G01X15610000Y-6420000D03*
G54D15*
G01X15610000Y-6195000D03*
G01X15610000Y-6345000D03*
G54D28*
G01X15610000Y-6120000D03*
G54D29*
G01X15841200Y-6270000D03*
G54D26*
G01X16527500Y-6270000D03*
G54D27*
G01X16745000Y-6420000D03*
G54D15*
G01X16745000Y-6195000D03*
G01X16745000Y-6345000D03*
G54D28*
G01X16745000Y-6120000D03*
G54D29*
G01X16976200Y-6270000D03*
G54D26*
G01X14257500Y-7700000D03*
G54D27*
G01X14475000Y-7850000D03*
G54D15*
G01X14475000Y-7625000D03*
G01X14475000Y-7775000D03*
G54D28*
G01X14475000Y-7550000D03*
G54D29*
G01X14706200Y-7700000D03*
G54D26*
G01X14257500Y-8410000D03*
G54D27*
G01X14475000Y-8560000D03*
G54D15*
G01X14475000Y-8335000D03*
G01X14475000Y-8485000D03*
G54D28*
G01X14475000Y-8260000D03*
G54D29*
G01X14706200Y-8410000D03*
G54D26*
G01X13127500Y-7700000D03*
G54D27*
G01X13345000Y-7850000D03*
G54D15*
G01X13345000Y-7625000D03*
G01X13345000Y-7775000D03*
G54D28*
G01X13345000Y-7550000D03*
G54D29*
G01X13576200Y-7700000D03*
G54D26*
G01X13127500Y-6985000D03*
G54D27*
G01X13345000Y-7135000D03*
G54D15*
G01X13345000Y-6910000D03*
G01X13345000Y-7060000D03*
G54D28*
G01X13345000Y-6835000D03*
G54D29*
G01X13576200Y-6985000D03*
G54D26*
G01X8342500Y-7705000D03*
G54D27*
G01X8560000Y-7855000D03*
G54D15*
G01X8560000Y-7630000D03*
G01X8560000Y-7780000D03*
G54D28*
G01X8560000Y-7555000D03*
G54D29*
G01X8791200Y-7705000D03*
G54D26*
G01X14257500Y-6985000D03*
G54D27*
G01X14475000Y-7135000D03*
G54D15*
G01X14475000Y-6910000D03*
G01X14475000Y-7060000D03*
G54D28*
G01X14475000Y-6835000D03*
G54D29*
G01X14706200Y-6985000D03*
G54D26*
G01X8337500Y-6270000D03*
G54D27*
G01X8555000Y-6420000D03*
G54D15*
G01X8555000Y-6195000D03*
G01X8555000Y-6345000D03*
G54D28*
G01X8555000Y-6120000D03*
G54D29*
G01X8786200Y-6270000D03*
G54D26*
G01X13127500Y-6270000D03*
G54D27*
G01X13345000Y-6420000D03*
G54D15*
G01X13345000Y-6195000D03*
G01X13345000Y-6345000D03*
G54D28*
G01X13345000Y-6120000D03*
G54D29*
G01X13576200Y-6270000D03*
G54D26*
G01X16527500Y-8410000D03*
G54D27*
G01X16745000Y-8560000D03*
G54D15*
G01X16745000Y-8335000D03*
G01X16745000Y-8485000D03*
G54D28*
G01X16745000Y-8260000D03*
G54D29*
G01X16976200Y-8410000D03*
G54D26*
G01X8337500Y-6980000D03*
G54D27*
G01X8555000Y-7130000D03*
G54D15*
G01X8555000Y-6905000D03*
G01X8555000Y-7055000D03*
G54D28*
G01X8555000Y-6830000D03*
G54D29*
G01X8786200Y-6980000D03*
G54D26*
G01X15392500Y-8410000D03*
G54D27*
G01X15610000Y-8560000D03*
G54D15*
G01X15610000Y-8335000D03*
G01X15610000Y-8485000D03*
G54D28*
G01X15610000Y-8260000D03*
G54D29*
G01X15841200Y-8410000D03*
G54D26*
G01X16527500Y-7700000D03*
G54D27*
G01X16745000Y-7850000D03*
G54D15*
G01X16745000Y-7625000D03*
G01X16745000Y-7775000D03*
G54D28*
G01X16745000Y-7550000D03*
G54D29*
G01X16976200Y-7700000D03*
G54D26*
G01X13127500Y-8410000D03*
G54D27*
G01X13345000Y-8560000D03*
G54D15*
G01X13345000Y-8335000D03*
G01X13345000Y-8485000D03*
G54D28*
G01X13345000Y-8260000D03*
G54D29*
G01X13576200Y-8410000D03*
G54D26*
G01X16527500Y-6985000D03*
G54D27*
G01X16745000Y-7135000D03*
G54D15*
G01X16745000Y-6910000D03*
G01X16745000Y-7060000D03*
G54D28*
G01X16745000Y-6835000D03*
G54D29*
G01X16976200Y-6985000D03*
G54D26*
G01X8347500Y-8415000D03*
G54D27*
G01X8565000Y-8565000D03*
G54D15*
G01X8565000Y-8340000D03*
G01X8565000Y-8490000D03*
G54D28*
G01X8565000Y-8265000D03*
G54D29*
G01X8796200Y-8415000D03*
G54D26*
G01X15392500Y-6985000D03*
G54D27*
G01X15610000Y-7135000D03*
G54D15*
G01X15610000Y-6910000D03*
G01X15610000Y-7060000D03*
G54D28*
G01X15610000Y-6835000D03*
G54D29*
G01X15841200Y-6985000D03*
G54D26*
G01X14257500Y-6270000D03*
G54D27*
G01X14475000Y-6420000D03*
G54D15*
G01X14475000Y-6195000D03*
G01X14475000Y-6345000D03*
G54D28*
G01X14475000Y-6120000D03*
G54D29*
G01X14706200Y-6270000D03*
G04 Pad End*

G04 Via Start*
G54D11*
G01X12700000Y-1975000D03*
G01X12700000Y-1900000D03*
G01X12800000Y-1925000D03*
G01X12800000Y-1950000D03*
G01X12800000Y-1900000D03*
G01X12800000Y-1875000D03*
G01X12800000Y-5600000D03*
G01X12800000Y-5575000D03*
G01X12800000Y-1975000D03*
G01X12800000Y-5550000D03*
G01X12699828Y-1949520D03*
G01X12700000Y-5550000D03*
G01X12699828Y-5574520D03*
G01X12700000Y-1925000D03*
G01X12700000Y-1875000D03*
G01X12700000Y-5600000D03*
G54D15*
G01X9171000Y-8719000D03*
G01X12220000Y-9299900D03*
G01X10920000Y-6800000D03*
G01X10617574Y-6077573D03*
G01X10920000Y-7060000D03*
G01X8560000Y-8630000D03*
G01X8175000Y-6270000D03*
G01X9400000Y-7300000D03*
G01X9540000Y-7705000D03*
G01X9520000Y-8415000D03*
G01X10780000Y-8800000D03*
G01X15040000Y-7350000D03*
G01X13920000Y-6140000D03*
G01X16180000Y-6630000D03*
G01X12320000Y-9040000D03*
G01X13920000Y-6620000D03*
G01X16180000Y-8570000D03*
G01X15040000Y-6630000D03*
G01X16180000Y-8070000D03*
G01X12180000Y-8800000D03*
G01X9557500Y-6317500D03*
G01X12820000Y-6630000D03*
G01X10460000Y-5760000D03*
G01X12820000Y-7350000D03*
G01X9160000Y-8960000D03*
G01X15040000Y-6150000D03*
G01X15040000Y-8070000D03*
G01X10740000Y-7200000D03*
G01X9900000Y-8040000D03*
G01X9900000Y-8600000D03*
G01X10460000Y-6120000D03*
G01X12820000Y-8740000D03*
G01X15040000Y-8570000D03*
G01X12820000Y-6150000D03*
G01X16180000Y-7350000D03*
G01X12820000Y-8070000D03*
G01X10760100Y-7840000D03*
G01X10760100Y-7520000D03*
G01X16180000Y-6150000D03*
G01X13920000Y-7340000D03*
G01X13920000Y-8560000D03*
G01X13920000Y-8060000D03*
G01X11737500Y-8502500D03*
G01X11740000Y-6900000D03*
G01X13350000Y-6075000D03*
G01X13340000Y-8625000D03*
G01X14480000Y-6075000D03*
G01X15605000Y-8625000D03*
G01X16740000Y-8640000D03*
G01X12000000Y-9100000D03*
G01X10730000Y-9110000D03*
G01X10740000Y-9020000D03*
G01X12120000Y-9100000D03*
G04 Via End*

G04 Track Start*
G54D11*
G01X10180000Y-8720000D02*
G01X9172000Y-8720000D01*
G01X12219800Y-9300100D02*
G01X12040100Y-9300100D01*
G01X12000200Y-9260200D01*
G01X12220000Y-9299900D02*
G01X12219800Y-9300100D01*
G01X9172000Y-8720000D02*
G01X9171000Y-8719000D01*
G01X12000200Y-9260200D02*
G01X10720200Y-9260200D01*
G01X10180000Y-8720000D01*
G01X10657574Y-6077573D02*
G01X11020000Y-6440000D01*
G01X11020000Y-6700000D01*
G01X10920000Y-7060000D02*
G01X10920000Y-6800000D01*
G01X11020000Y-6700000D02*
G01X10920000Y-6800000D01*
G01X10617574Y-6077573D02*
G01X10657574Y-6077573D01*
G01X8565000Y-8225000D02*
G01X8565000Y-7940000D01*
G01X8565000Y-7200000D02*
G01X8555000Y-7190000D01*
G01X8565000Y-6780000D02*
G01X8565000Y-6485000D01*
G01X8565000Y-7520000D02*
G01X8565000Y-7200000D01*
G01X8565000Y-7940000D02*
G01X8555000Y-7930000D01*
G01X8565000Y-6485000D02*
G01X8555000Y-6475000D01*
G01X12480000Y-6270000D02*
G01X12275000Y-6475000D01*
G01X11100000Y-6450000D02*
G01X11100000Y-6725000D01*
G01X9180000Y-6270000D02*
G01X9500000Y-5950000D01*
G01X11165000Y-6790000D02*
G01X11265000Y-6790000D01*
G01X9500000Y-5950000D02*
G01X10600000Y-5950000D01*
G01X11100000Y-6450000D01*
G01X8175000Y-6270000D02*
G01X9180000Y-6270000D01*
G01X11100000Y-6725000D02*
G01X11165000Y-6790000D01*
G01X12965000Y-6270000D02*
G01X12480000Y-6270000D01*
G01X12394959Y-7330041D02*
G01X12725000Y-7000000D01*
G01X11195000Y-7330041D02*
G01X12394959Y-7330041D01*
G01X12725000Y-7000000D02*
G01X12950000Y-7000000D01*
G01X12965000Y-6985000D01*
G01X9400000Y-7275000D02*
G01X9113945Y-6988945D01*
G01X9400000Y-7300000D02*
G01X9400000Y-7275000D01*
G01X9400000Y-7300000D02*
G01X11164959Y-7300000D01*
G01X8413122Y-6988945D02*
G01X8298534Y-7103534D01*
G01X8175000Y-6980000D01*
G01X11164959Y-7300000D02*
G01X11195000Y-7330041D01*
G01X9113945Y-6988945D02*
G01X8413122Y-6988945D01*
G01X12240000Y-7900000D02*
G01X12550000Y-7900000D01*
G01X8180000Y-7705000D02*
G01X9540000Y-7705000D01*
G01X10905000Y-7705000D01*
G01X11075000Y-7875000D01*
G01X12750000Y-7700000D02*
G01X12965000Y-7700000D01*
G01X12550000Y-7900000D02*
G01X12750000Y-7700000D01*
G01X12215000Y-7875000D02*
G01X12240000Y-7900000D01*
G01X10585000Y-8925000D02*
G01X12450000Y-8925000D01*
G01X12965000Y-8410000D01*
G01X9520000Y-8415000D02*
G01X10075000Y-8415000D01*
G01X9520000Y-8415000D02*
G01X8185000Y-8415000D01*
G01X10075000Y-8415000D02*
G01X10585000Y-8925000D01*
G01X11740000Y-7875000D02*
G01X11740000Y-7625041D01*
G01X11740000Y-7060041D02*
G01X11740000Y-6900000D01*
G01X11740000Y-7625041D02*
G01X11735000Y-7620041D01*
G01X11740000Y-6900000D02*
G01X11740000Y-6790000D01*
G01X13350000Y-7925000D02*
G01X13340000Y-7915000D01*
G01X13350000Y-6495000D02*
G01X13340000Y-6485000D01*
G01X13350000Y-8215000D02*
G01X13350000Y-7925000D01*
G01X13350000Y-6790000D02*
G01X13350000Y-6495000D01*
G01X13350000Y-7210000D02*
G01X13340000Y-7200000D01*
G01X13350000Y-7505000D02*
G01X13350000Y-7210000D01*
G01X14475000Y-8200000D02*
G01X14475000Y-7910000D01*
G01X14475000Y-6775000D02*
G01X14475000Y-6480000D01*
G01X14475000Y-7490000D02*
G01X14475000Y-7195000D01*
G01X15625000Y-7515000D02*
G01X15625000Y-7220000D01*
G01X15625000Y-8225000D02*
G01X15625000Y-7935000D01*
G01X15625000Y-6800000D02*
G01X15625000Y-6505000D01*
G01X16750000Y-7490000D02*
G01X16750000Y-7195000D01*
G01X16750000Y-6775000D02*
G01X16750000Y-6480000D01*
G01X16750000Y-8200000D02*
G01X16750000Y-7910000D01*
G01X16740000Y-8625000D02*
G01X16740000Y-8640000D01*
G01X10800000Y-9180000D02*
G01X11920000Y-9180000D01*
G01X10730000Y-9110000D02*
G01X10800000Y-9180000D01*
G01X11920000Y-9180000D02*
G01X12000000Y-9100000D01*
G01X11936710Y-9220000D02*
G01X12019800Y-9220000D01*
G01X10735006Y-9020000D02*
G01X10740000Y-9020000D01*
G01X10669900Y-9085106D02*
G01X10735006Y-9020000D01*
G01X10669900Y-9149900D02*
G01X10669900Y-9085106D01*
G01X12120000Y-9120000D02*
G01X12120000Y-9100000D01*
G01X10783390Y-9220100D02*
G01X10740100Y-9220100D01*
G01X10669900Y-9149900D01*
G01X10783390Y-9220100D02*
G01X11936610Y-9220100D01*
G01X12019900Y-9220100D02*
G01X12120000Y-9120000D01*
G01X12965000Y-7700000D02*
G01X14095000Y-7700000D01*
G01X15230000Y-7700000D01*
G01X16365000Y-7700000D01*
G01X12965000Y-6270000D02*
G01X14095000Y-6270000D01*
G01X15230000Y-6270000D01*
G01X16365000Y-6270000D01*
G01X12965000Y-8410000D02*
G01X14095000Y-8410000D01*
G01X15230000Y-8410000D01*
G01X16365000Y-8410000D01*
G01X12965000Y-6985000D02*
G01X14095000Y-6985000D01*
G01X15230000Y-6985000D01*
G01X16365000Y-6985000D01*
G04 Track End*

M02*

