G04 Layer: CustomLayer5*
G04 EasyEDA Pro v2.2.45.4, 2026-01-17 20:35:08*
G04 Gerber Generator version 0.3*
G04 Scale: 100 percent, Rotated: No, Reflected: No*
G04 Dimensions in millimeters*
G04 Leading zeros omitted, absolute positions, 4 integers and 5 decimals*
G04 Generated by one-click*
%FSLAX45Y45*%
%MOMM*%
%ADD10C,0.05*%
%ADD11C,0.12*%
%ADD12C,0.3731*%
G75*


G04 PolygonModel Start*
G54D10*
G01X9955000Y-6047000D02*
G01X9955000Y-6193000D01*
G01X9955000Y-6193000D02*
G01X10285000Y-6193000D01*
G01X10285000Y-6047000D02*
G01X9955000Y-6047000D01*
G01X10285000Y-6193000D02*
G01X10285000Y-6047000D01*
G01X10248561Y-5978475D02*
G01X10941525Y-6671439D01*
G01X10538475Y-5688561D02*
G01X10248561Y-5978475D01*
G01X10941525Y-6671439D02*
G01X11231439Y-6381525D01*
G01X11231439Y-6381525D02*
G01X10538475Y-5688561D01*
G01X8155000Y-8850000D02*
G01X8155000Y-9830000D01*
G01X8155000Y-9830000D02*
G01X8565000Y-9830000D01*
G01X8565000Y-8850000D02*
G01X8155000Y-8850000D01*
G01X8565000Y-9830000D02*
G01X8565000Y-8850000D01*
G54D11*
G01X9066000Y-6965000D02*
G01X11026000Y-6965000D01*
G01X9066000Y-9625000D02*
G01X9066000Y-6965000D01*
G01X11026000Y-9625000D02*
G01X9066000Y-9625000D01*
G01X11026000Y-9625000D02*
G01X11026000Y-6965000D01*
G54D10*
G01X8773000Y-8815000D02*
G01X8627000Y-8815000D01*
G01X8627000Y-8815000D02*
G01X8627000Y-9145000D01*
G01X8773000Y-9145000D02*
G01X8773000Y-8815000D01*
G01X8627000Y-9145000D02*
G01X8773000Y-9145000D01*
G01X11465000Y-9460000D02*
G01X12545000Y-9460000D01*
G01X12545000Y-8840000D01*
G01X11465000Y-8840000D01*
G01X11465000Y-9460000D01*
G01X8782000Y-8692000D02*
G01X8782000Y-9068000D01*
G01X8782000Y-9068000D02*
G01X8978000Y-9068000D01*
G01X8978000Y-8692000D02*
G01X8782000Y-8692000D01*
G01X8978000Y-9068000D02*
G01X8978000Y-8692000D01*

M02*

